<svg width="789" height="743" viewBox="0 0 789 743" fill="none" xmlns="http://www.w3.org/2000/svg">
  <g opacity="0.1">
    <path d="M512.848 695.318L173.849 310.357L111.261 496.844C97.355 538.366 106.666 584.577 135.607 617.441L337.854 847.11C380.001 894.972 453.174 900.773 500.944 860.064C501.441 859.626 501.939 859.189 502.436 858.751C525.391 838.536 539.187 810.696 541.378 780.17C543.614 748.923 533.462 718.805 512.776 695.314M487.529 844.367C448.238 877.812 387.974 872.939 353.239 833.494L150.991 603.826C126.902 576.471 119.126 537.943 130.675 503.387L148.766 449.416L181.866 350.779L497.281 708.959C514.295 728.28 522.656 753.047 520.809 778.719C518.963 804.392 507.258 827.741 487.524 844.439" fill="#1A455B"/>
    <path d="M542.021 98.1528C518.011 118.481 503.786 146.835 501.549 178.081C499.313 209.328 509.464 239.446 530.151 262.937L869.15 647.899L931.738 461.411C945.644 419.889 936.333 373.679 907.392 340.814L705.145 111.146C662.997 63.284 589.826 57.4825 542.055 98.191M891.969 354.464C916.059 381.819 923.835 420.347 912.252 454.864L861.061 607.472L545.646 249.292C528.632 229.971 520.271 205.204 522.118 179.532C523.928 154.435 535.279 131.533 554.179 114.89C554.599 114.519 554.982 114.182 555.403 113.812C594.694 80.3666 654.957 85.2401 689.727 124.723L891.974 354.392L891.969 354.464Z" fill="#1A455B"/>
    <path d="M508.392 291.541C506.236 289.092 504.156 286.576 502.192 283.959C477.426 251.902 466.879 212.078 472.578 171.805C475.495 150.896 482.631 131.23 493.801 113.446L506.498 93.2301L285.609 137.287L284.765 137.487C270.861 141.444 257.914 147.954 246.064 157.099C222.263 176.971 197.862 213.131 200.474 255.052C200.552 256.682 200.734 258.355 200.859 259.808C201.983 271.112 204.823 282.129 209.115 292.479C209.458 293.331 209.801 294.184 210.057 294.706C210.376 295.376 210.656 296.08 210.912 296.602C211.704 298.35 212.534 300.064 213.504 301.86C214.57 303.842 215.67 305.862 216.817 307.705C220.38 313.602 224.503 319.209 229.152 324.489L536.886 673.946C564.715 705.548 577.792 747.627 572.75 789.495C570.278 810.216 563.655 829.769 552.95 847.619L541.067 867.526L750.871 825.69C769.143 821.216 786.216 812.294 800.372 799.828C800.64 799.593 800.908 799.357 801.137 799.155C848.781 756.452 852.565 682.068 809.609 633.288L515.014 298.752C512.7 296.51 510.468 294.129 508.311 291.68M500.265 313.166L794.152 646.899C829.662 687.224 826.596 748.614 787.373 783.833C775.657 794.286 761.931 801.686 746.256 805.64L580.607 838.684C587.001 823.883 591.21 808.222 593.144 791.982C598.877 744.343 583.969 696.404 552.266 660.402L244.532 310.945C240.725 306.622 237.334 302 234.36 297.079C233.376 295.5 232.503 293.891 231.664 292.321C230.925 290.866 230.221 289.448 229.491 287.849C229.265 287.437 229.081 286.92 228.733 286.139C228.545 285.694 228.352 285.32 228.139 284.693C224.567 276.086 222.251 267.054 221.296 257.638C221.158 256.401 221.053 255.202 220.992 253.898C218.873 219.558 239.347 189.506 258.876 173.191C268.253 166.021 278.705 160.688 289.965 157.43L465.636 122.421C458.959 137.132 454.428 152.737 452.13 169.026C445.681 214.85 457.612 260.179 485.821 296.609C488.055 299.532 490.438 302.393 492.931 305.224C495.424 308.055 497.826 310.627 500.342 313.099" fill="#1A455B"/>
  </g>
</svg>
