<svg width="312" height="109" viewBox="0 0 312 109" fill="none" xmlns="http://www.w3.org/2000/svg">
<g opacity="0.5" clip-path="url(#clip0_29_3005)">
<g clip-path="url(#clip1_29_3005)">
<path d="M29.684 25.9345C28.6197 25.5191 27.5412 25.1741 26.6967 24.2999C25.2682 22.8286 24.9263 21.0598 25.1034 19.1152C25.1481 18.6193 25.3984 18.2411 25.842 17.9601C28.4203 16.3297 30.9782 14.6683 33.5606 13.044C34.5882 12.3972 35.1641 12.7279 35.1702 13.9471C35.1845 17.3236 35.158 20.7002 35.1865 24.0768C35.1906 24.5789 35.0542 24.9736 34.8121 25.3042C34.5251 25.6969 34.0917 25.9572 33.6257 26.0812C33.0213 26.2424 32.651 26.2982 32.1117 26.2982C31.3018 26.2982 30.6018 26.2445 29.684 25.9345Z" fill="#001514"/>
<path d="M107 17.7461C106.697 17.7564 106.391 17.7606 106.088 17.775C105.75 17.7915 105.47 17.6903 105.39 17.3287C105.248 16.6777 105.026 16.967 104.761 17.2439C104.31 17.7151 103.711 17.8577 103.097 17.8907C102.065 17.9445 101.314 17.3969 101.115 16.5042C100.877 15.442 101.286 14.6216 102.293 14.1918C102.92 13.9252 103.591 13.8426 104.263 13.7517C104.534 13.7165 104.941 13.7558 104.916 13.295C104.898 12.9416 104.625 12.7536 104.316 12.6874C103.602 12.5366 102.885 12.5386 102.281 13.016C101.831 13.3714 101.624 13.1462 101.451 12.7515C101.28 12.3568 100.787 11.9476 101.495 11.5736C102.859 10.8504 104.257 10.7264 105.693 11.3174C106.455 11.6294 106.758 12.3155 106.996 13.0387V17.7461H107ZM103.675 16.3843C104.426 16.3698 104.947 15.9214 104.965 15.3697C104.979 14.9378 104.725 14.882 104.375 14.8944C103.599 14.9233 102.971 15.3511 103.042 15.8429C103.101 16.2562 103.406 16.374 103.675 16.3843Z" fill="#001514"/>
<path d="M63.5725 25.9327C63.487 25.8831 63.4056 25.8149 63.314 25.7881C63.0902 25.722 62.8134 25.7178 62.8928 25.3583C62.9681 25.0152 63.1716 24.9739 63.4992 25.0256C64.0588 25.1144 64.6164 25.3438 65.1964 25.1434C65.41 25.069 65.7193 25.0648 65.6827 24.7445C65.6542 24.4945 65.3815 24.5131 65.1902 24.4883C64.7548 24.4346 64.3112 24.4366 63.8818 24.3498C63.194 24.2135 63.0129 23.918 63.2998 23.2774C63.4402 22.9653 63.3893 22.7979 63.2306 22.5582C62.5408 21.5229 63.369 20.3409 64.5085 20.3451C64.8117 20.3451 65.1312 20.3141 65.4121 20.4009C65.7844 20.5166 66.1141 20.5827 66.4682 20.3616C66.6147 20.2686 66.808 20.2727 66.9098 20.4546C66.9952 20.6075 67.0278 20.8493 66.8915 20.9299C66.4397 21.1944 66.5638 21.5787 66.5516 21.9838C66.5292 22.7049 65.8984 23.1492 64.9562 23.2484C64.6835 23.2774 64.1768 23.0314 64.1789 23.4055C64.1809 23.856 64.7141 23.6059 65.0112 23.6555C65.3408 23.7113 65.6827 23.6824 66.0103 23.7898C66.4194 23.9262 66.751 24.1411 66.8243 24.6019C66.9057 25.1062 66.6676 25.4492 66.2321 25.6765C66.0856 25.753 65.9493 25.8459 65.8089 25.9307H63.5765L63.5725 25.9327ZM65.5443 21.7709C65.5342 21.3328 65.2086 21.0353 64.7609 21.058C64.3213 21.0787 64.0018 21.4134 64.0364 21.837C64.071 22.2896 64.358 22.4652 64.7751 22.4776C65.2635 22.4921 65.5545 22.2235 65.5443 21.773V21.7709Z" fill="#001514"/>
<path d="M25.011 8.43616C25.011 6.45858 25.0395 4.48099 25.0008 2.5034C24.9764 1.20154 25.5055 0.269577 27.225 0.298507C30.9103 0.3605 34.5956 0.26751 38.2808 0.333636C41.5998 0.393563 44.4874 1.57557 46.3921 4.4128C48.6773 7.81416 48.7954 11.4697 46.7971 15.0385C45.2363 17.824 42.6234 18.9978 39.5221 19.1445C39.0846 19.1651 38.641 19.1713 38.2035 19.1321C37.2756 19.0494 36.9418 18.7002 36.9296 17.7662C36.9093 16.1977 36.9195 14.6293 36.9235 13.0609C36.9256 12.1124 36.8543 11.1907 35.9081 10.6679C34.9537 10.143 34.1438 10.6121 33.3583 11.1101C31.2114 12.4699 29.0707 13.8358 26.9259 15.1996C26.7264 15.3278 26.5311 15.4662 26.3194 15.5695C25.6052 15.9167 25.1148 15.6605 25.0273 14.8773C24.9866 14.5074 25.011 14.1272 25.011 13.7531C25.011 11.9801 25.011 10.2071 25.011 8.4341V8.43616Z" fill="#001514"/>
<path d="M54.6028 13.7098C54.6028 12.5878 54.6273 11.4657 54.5927 10.3436C54.5764 9.80425 54.79 9.59967 55.2927 9.61001C56.5035 9.6348 57.7204 9.51702 58.9251 9.72366C60.3414 9.9675 61.1228 10.9263 61.1452 12.441C61.1655 13.8607 60.3943 14.836 59.0085 15.1171C58.4468 15.2307 57.8771 15.2969 57.3012 15.2762C56.886 15.2597 56.6683 15.4436 56.6886 15.8796C56.6968 16.049 56.6886 16.2185 56.6846 16.39C56.6724 17.8324 56.595 17.884 55.2133 17.7849C54.7107 17.7477 54.5927 17.5183 54.5988 17.074C54.613 15.9519 54.6028 14.8298 54.6028 13.7078H54.6008L54.6028 13.7098ZM56.6785 12.4948C56.6785 13.5631 56.6968 13.5879 57.4945 13.5838C58.5323 13.5776 59.0614 13.1788 59.039 12.4162C59.0166 11.695 58.6137 11.4119 57.6084 11.4099C56.6886 11.4099 56.6805 11.4202 56.6785 12.4927V12.4948Z" fill="#001514"/>
<path d="M73.3949 14.3652C73.3949 17.2438 71.0323 18.7523 68.5049 17.5889C68.0002 17.3554 67.581 17.0186 67.3267 16.5185C66.6368 15.1629 66.6165 13.7866 67.2473 12.4042C67.3022 12.2823 67.3857 12.1707 67.4671 12.0632C68.2119 11.0817 69.8256 10.6642 71.2622 11.0775C72.5361 11.4433 73.2504 12.3484 73.3664 13.7494C73.3867 13.9871 73.3887 14.2247 73.3949 14.3652ZM71.4189 14.388C71.3599 14.0677 71.3192 13.7639 71.248 13.4684C71.1259 12.9518 70.8145 12.646 70.2631 12.6129C69.7035 12.5819 69.2578 12.7493 69.0564 13.3134C68.7837 14.078 68.7938 14.8488 69.1154 15.5948C69.325 16.0825 69.7279 16.3056 70.2549 16.254C70.7372 16.2064 71.0771 15.9399 71.2114 15.4729C71.3131 15.1174 71.3518 14.7413 71.4149 14.388H71.4189Z" fill="#001514"/>
<path d="M84.2916 14.3314C84.2916 13.5131 84.2835 12.6948 84.2957 11.8786C84.2997 11.55 84.2265 11.1264 84.6904 11.0602C85.1381 10.9962 85.6998 10.8309 85.9033 11.4508C86.0946 12.0315 86.2431 11.8124 86.5524 11.5417C87.3603 10.8371 88.6403 10.7379 89.4848 11.2648C90.1115 11.6554 90.4066 12.2464 90.4168 12.9779C90.433 14.3397 90.4229 15.7035 90.4473 17.0653C90.4554 17.5943 90.2296 17.7679 89.7188 17.7845C88.5467 17.8258 88.4937 17.803 88.4876 16.6624C88.4836 15.8792 88.4876 15.096 88.4876 14.3108C88.4876 14.0731 88.4958 13.8313 88.4653 13.5958C88.4062 13.1267 88.2373 12.7423 87.692 12.6721C87.1303 12.5997 86.6867 12.8312 86.4527 13.3416C86.3062 13.664 86.3225 14.007 86.3204 14.3459C86.3143 15.2655 86.3062 16.185 86.3184 17.1067C86.3245 17.5819 86.1251 17.7989 85.655 17.7741C85.4535 17.7638 85.248 17.7576 85.0466 17.7783C84.4524 17.8402 84.2773 17.5303 84.2875 16.9889C84.3058 16.1024 84.2916 15.2179 84.2916 14.3314Z" fill="#001514"/>
<path d="M77.0334 17.7785C75.9732 17.7785 75.9692 17.7785 75.6314 16.7515C75.1003 15.1335 74.5691 13.5175 74.0523 11.8953C73.8101 11.1328 73.8671 11.0584 74.6017 11.013C75.6924 10.9448 75.7616 10.9923 76.075 12.0751C76.3416 12.9906 76.598 13.9081 76.8605 14.8235C76.9175 15.0177 76.9866 15.2099 77.0518 15.4021C77.1189 15.2244 77.1983 15.0508 77.2532 14.8689C77.5422 13.8895 77.821 12.9058 78.112 11.9284C78.3582 11.1039 79.2291 10.7113 79.9943 11.0646C80.2914 11.201 80.2385 11.4325 80.1632 11.668C79.8783 12.5421 79.5893 13.4142 79.3024 14.2883C79.0379 15.0983 78.7672 15.9042 78.5128 16.7164C78.1181 17.981 78.1201 17.7516 77.0334 17.7785Z" fill="#001514"/>
<path d="M94.8784 10.9512C95.3831 10.9222 95.9427 11.0214 96.4759 11.2653C97.1922 11.5938 97.2308 11.6889 96.9642 12.4183C96.7716 12.9446 96.4182 13.0948 95.904 12.8688C95.0331 12.4865 94.2415 12.6394 93.8162 13.2759C93.3563 13.9661 93.4418 15.2018 93.9892 15.7536C94.506 16.2764 95.2406 16.3467 96.1258 15.83C96.5532 15.58 96.6834 15.6875 96.8503 16.0759C97.2939 17.103 97.2003 17.3406 96.1421 17.6919C94.3371 18.2912 92.4609 17.632 91.8036 16.1131C91.3417 15.0448 91.3214 13.9206 91.7304 12.8296C92.1984 11.5814 93.2607 10.9574 94.8764 10.9512H94.8784Z" fill="#001514"/>
<path d="M62.1026 14.3842C62.1026 13.5349 62.0965 12.6835 62.1046 11.8342C62.1087 11.5077 62.0273 11.0883 62.5136 11.0449C62.9613 11.0035 63.5331 10.8341 63.6939 11.485C63.875 12.2145 64.0867 12.0037 64.3756 11.5718C64.4306 11.4891 64.5201 11.4292 64.5995 11.3672C65.1143 10.9601 65.8265 10.8279 66.085 11.0883C66.2274 11.2329 66.2844 12.543 66.1684 12.7827C66.0585 13.008 65.857 12.9914 65.6556 13.0183C64.4061 13.1878 64.1172 13.4915 64.0622 14.7603C64.0297 15.5063 64.0582 16.2564 64.0358 17.0024C64.0114 17.7525 63.9707 17.7732 63.0834 17.7773C62.184 17.7815 62.1229 17.7505 62.1067 17.0334C62.0863 16.151 62.1006 15.2666 62.1006 14.3822L62.1026 14.3842Z" fill="#001514"/>
<path d="M100.062 14.4443C100.062 15.2937 100.052 16.143 100.066 16.9923C100.074 17.5295 99.905 17.8457 99.3068 17.7817C99.0727 17.7569 98.8347 17.7713 98.6006 17.7734C98.2282 17.7775 98.0451 17.5998 98.0451 17.2196C98.0451 15.3515 98.0492 13.4814 98.041 11.6133C98.039 11.167 98.271 11.0141 98.6698 11.0161C98.8713 11.0161 99.0748 11.0244 99.2762 11.012C99.8318 10.9769 100.076 11.231 100.068 11.7931C100.052 12.6755 100.064 13.5599 100.064 14.4443H100.062Z" fill="#001514"/>
<path d="M80.9656 14.3792C80.9656 13.4968 80.9473 12.6145 80.9717 11.7342C80.99 11.0646 81.1019 11.0068 81.981 11.0088C82.4775 11.0088 82.9212 11.0006 82.911 11.7259C82.8825 13.5237 82.8947 15.3215 82.9049 17.1172C82.9069 17.5925 82.7034 17.7558 82.2415 17.7847C81.0551 17.855 80.9696 17.7992 80.9656 16.6172C80.9615 15.8712 80.9656 15.1252 80.9656 14.3792Z" fill="#001514"/>
<path d="M55.9375 24.8256C55.4959 24.7409 55.0828 24.7926 54.7002 24.619C54.4866 24.5219 54.3665 24.3896 54.4642 24.1499C54.5415 23.9598 54.6433 23.7676 54.8976 23.8193C55.1622 23.873 55.4186 23.9722 55.6831 24.0073C56.2387 24.0817 56.7637 23.811 56.8369 23.4204C56.9407 22.8584 56.5704 22.6352 56.1349 22.4616C55.8215 22.3376 55.5061 22.2136 55.2069 22.0587C54.6819 21.7859 54.3991 21.3395 54.4255 20.7382C54.452 20.1245 54.8264 19.7484 55.3616 19.5273C56.086 19.2276 56.8146 19.3165 57.5349 19.5541C57.7974 19.6409 57.9378 19.7897 57.8076 20.0873C57.6977 20.3394 57.541 20.4758 57.2582 20.3642C56.9712 20.2484 56.6721 20.2133 56.3669 20.2175C56.0046 20.2216 55.6668 20.3166 55.561 20.6989C55.4491 21.104 55.7442 21.323 56.0596 21.4759C56.3017 21.5937 56.5622 21.6681 56.8125 21.7694C57.7486 22.1475 58.0559 22.598 57.9541 23.439C57.8727 24.1189 57.3294 24.619 56.493 24.7719C56.2956 24.807 56.0921 24.8132 55.9355 24.8277L55.9375 24.8256Z" fill="#001514"/>
<path d="M71.3332 22.5277C71.3332 23.0732 71.3556 23.6188 71.3271 24.1622C71.2966 24.745 71.1236 24.8917 70.6536 24.6169C70.3504 24.4412 70.1998 24.4929 69.9495 24.6272C69.514 24.8607 69.0399 24.8669 68.5698 24.7346C68.1465 24.6169 67.8515 24.3565 67.7802 23.8998C67.6215 22.8831 67.6724 21.8602 67.7009 20.8394C67.711 20.5108 67.8922 20.3641 68.2279 20.3682C68.5861 20.3724 68.696 20.5687 68.698 20.8849C68.7 21.5998 68.698 22.3169 68.7102 23.0319C68.7183 23.4803 68.7244 23.9577 69.3268 24.0321C69.8335 24.094 70.2222 23.72 70.271 23.0753C70.3158 22.4657 70.2832 21.8499 70.3097 21.2362C70.3259 20.8497 70.2181 20.3559 70.8672 20.3744C71.4655 20.391 71.3231 20.8539 71.3373 21.199C71.3577 21.6412 71.3414 22.0855 71.3414 22.5277C71.3373 22.5277 71.3353 22.5277 71.3312 22.5277H71.3332Z" fill="#001514"/>
<path d="M75.2462 22.5549C75.2625 22.3544 75.2665 22.1147 75.3011 21.8792C75.4517 20.8935 76.0317 20.3706 76.9983 20.3355C78.091 20.2963 78.6852 20.7157 78.9477 21.7138C79.0434 22.0817 79.0454 22.4557 79.0271 22.8297C78.964 24.1047 78.3352 24.7618 77.1672 24.7825C75.9747 24.8052 75.3601 24.1956 75.2686 22.8979C75.2604 22.7967 75.2543 22.6933 75.2441 22.5549H75.2462ZM77.9811 22.5962C77.9567 22.2883 77.9628 22.0114 77.9099 21.7469C77.8285 21.3439 77.6026 21.0608 77.1509 21.0732C76.7215 21.0856 76.4631 21.3171 76.3878 21.7448C76.2881 22.3214 76.286 22.902 76.4183 23.4724C76.5038 23.8402 76.7459 24.0593 77.1427 24.0531C77.5335 24.0469 77.7899 23.834 77.8814 23.4724C77.9547 23.1789 77.9526 22.8669 77.9811 22.5962Z" fill="#001514"/>
<path d="M58.6585 22.3782C58.6727 22.277 58.6788 21.9319 58.7683 21.6095C59.0532 20.5846 59.8815 20.1341 60.9844 20.3717C61.8208 20.5515 62.4943 21.6095 62.3539 22.4919C62.3051 22.7915 62.1341 22.8886 61.8696 22.8928C61.3975 22.899 60.9254 22.8845 60.4533 22.9114C60.1867 22.9258 59.7838 22.7729 59.7695 23.2668C59.7594 23.6491 59.971 23.9239 60.3312 24.019C60.6588 24.1058 61.0027 24.0996 61.3161 23.9281C61.66 23.74 61.9205 23.8206 62.0059 24.2091C62.0955 24.6121 61.717 24.6451 61.4911 24.6885C59.8225 25.0088 58.6381 24.61 58.6585 22.3782ZM59.7675 21.8079C59.7329 22.2274 60.0361 22.2377 60.2986 22.2067C60.6283 22.1675 61.08 22.432 61.251 21.9381C61.3649 21.6116 60.9315 21.1115 60.5713 21.0784C60.1643 21.0412 59.798 21.3719 59.7655 21.8079H59.7675Z" fill="#001514"/>
<path d="M81.5933 20.3252C81.8151 20.3686 82.1183 20.4037 82.4073 20.4905C82.5884 20.5442 82.8224 20.6228 82.737 20.9038C82.6576 21.1642 82.4806 21.313 82.1997 21.2138C81.9087 21.1104 81.6157 21.0464 81.3064 21.0732C81.0459 21.096 80.8465 21.2158 80.7936 21.4845C80.7488 21.7159 80.8953 21.8833 81.0805 21.9742C81.4122 22.1395 81.7602 22.2759 82.1041 22.4185C82.6291 22.6355 82.912 23.0116 82.8916 23.5984C82.8692 24.208 82.4785 24.5118 81.9698 24.6792C81.343 24.8838 80.702 24.8693 80.0773 24.6606C79.9023 24.6027 79.6581 24.5325 79.7354 24.2535C79.8046 24.0055 79.9552 23.8154 80.2503 23.896C80.5107 23.9663 80.759 24.0758 81.0378 24.0613C81.3471 24.0469 81.6788 24.0489 81.7805 23.677C81.8884 23.2885 81.5954 23.1335 81.3105 23.0012C81.0948 22.9021 80.8689 22.8297 80.6532 22.7347C79.8921 22.402 79.6438 22.0135 79.7517 21.344C79.8412 20.7922 80.2686 20.4554 81.0073 20.3603C81.1741 20.3397 81.3451 20.3397 81.5933 20.3252Z" fill="#001514"/>
<path d="M72.4951 22.5498C72.4951 22.0063 72.4911 21.4629 72.4972 20.9194C72.4992 20.7189 72.5053 20.4958 72.7454 20.4172C72.951 20.349 73.1769 20.3594 73.2705 20.5784C73.4292 20.9504 73.592 20.9276 73.8545 20.6776C73.9949 20.5453 74.1923 20.4565 74.3775 20.3924C74.5749 20.3242 74.8028 20.3366 74.8842 20.5743C74.9676 20.8119 74.9534 21.1054 74.6644 21.1611C73.4719 21.3988 73.5024 22.2977 73.5248 23.2069C73.5309 23.4776 73.5269 23.7504 73.5228 24.0211C73.5167 24.3683 73.5248 24.7216 73.0303 24.7382C72.4606 24.7568 72.4931 24.3497 72.489 23.9736C72.4829 23.4983 72.489 23.023 72.489 22.5477C72.4911 22.5477 72.4931 22.5477 72.4951 22.5477V22.5498Z" fill="#001514"/>
<path d="M98.9406 10.5862C98.5988 10.5366 98.0778 10.7349 98.0392 10.0282C98.0046 9.40416 98.1063 9.25331 98.731 9.20784C98.9305 9.19338 99.1319 9.21198 99.3313 9.20165C99.8238 9.18098 100.072 9.37936 100.062 9.91044C100.052 10.4456 99.777 10.6192 99.2967 10.5862C99.197 10.58 99.0973 10.5862 98.9427 10.5862H98.9406Z" fill="#001514"/>
<path d="M82.0193 10.5873C81.1015 10.6059 80.9753 10.5253 80.9672 9.90538C80.9591 9.29165 81.071 9.20899 81.8951 9.20073C82.7478 9.19246 82.878 9.27512 82.8983 9.83306C82.9228 10.4737 82.8088 10.5708 82.0193 10.5873Z" fill="#001514"/>
</g>
<g clip-path="url(#clip2_29_3005)">
<path d="M137.938 0.0549781C150.019 -1.00125 156.371 13.5558 147.181 21.3307C140.43 27.041 129.836 23.7845 127.451 15.3981C125.431 8.3 130.424 0.711342 137.938 0.0549781ZM137.937 1.22141C132.924 1.69833 128.564 6.11927 128.192 11.0698C127.462 20.7699 138.634 26.7201 146.292 20.5524C154.794 13.7031 149.094 0.162259 137.937 1.22141Z" fill="#001514"/>
<path d="M179.001 5.76611V14.7172H176.83V14.0365C175.054 15.6418 172.228 14.5524 171.724 12.3093C171.032 9.22933 173.982 6.90817 176.731 8.68513V5.76611H179.001ZM174.927 9.87302C173.699 10.148 173.6 12.5102 174.785 12.8905C177.398 13.7303 177.492 9.29858 174.927 9.87302Z" fill="#001514"/>
<path d="M235.238 12.4791V14.7164H232.87V6.25195H237.457C238.21 6.25195 239.459 6.92197 239.926 7.51397C241.559 9.58644 239.81 12.4781 237.26 12.4781H235.237L235.238 12.4791ZM235.238 10.631H237.063C237.112 10.631 237.73 10.3462 237.798 10.2847C238.208 9.91901 238.204 8.96811 237.887 8.55361C237.787 8.42293 237.286 8.10108 237.161 8.10108H235.237V10.631H235.238Z" fill="#001514"/>
<path d="M163.215 6.25293V8.10109H158.874V9.95022H162.722V11.7984H158.874V14.7174H156.506V6.25293H163.215Z" fill="#001514"/>
<path d="M275.294 14.7173H273.024V10.7772C273.024 9.99207 271.603 9.70534 270.998 10.2388C270.893 10.3324 270.557 10.9742 270.557 11.0688V14.7173H268.288V8.19853H270.458V8.87927C271.536 7.81427 273.781 7.75477 274.742 8.9846C274.895 9.18063 275.293 9.99109 275.293 10.192V14.7163L275.294 14.7173Z" fill="#001514"/>
<path d="M227.641 14.7172H225.371V10.8737C225.371 10.741 225.073 10.2446 224.929 10.1422C224.202 9.62726 222.904 10.1939 222.904 11.0687V14.7172H220.634V8.19847H222.805V8.87922C223.837 7.85225 226.014 7.74887 226.991 8.88702C227.214 9.14742 227.64 9.97348 227.64 10.2904V14.7172H227.641Z" fill="#001514"/>
<path d="M214.89 8.12646C217.467 7.78316 219.696 9.07638 219.456 11.8501C219.163 15.2187 213.875 15.8204 212.409 12.9541C211.38 10.9421 212.6 8.43075 214.89 8.12548V8.12646ZM216.755 10.1775C216.452 9.88781 215.869 9.79711 215.462 9.85953C213.825 10.1073 213.846 13.3169 216.14 12.9599C217.304 12.7785 217.494 10.8865 216.755 10.1775Z" fill="#001514"/>
<path d="M262.543 8.12648C264.81 7.80366 267.141 8.88427 267.166 11.3771C267.214 16.0311 259.216 15.9073 259.719 10.9831C259.861 9.5894 261.138 8.32641 262.544 8.12648H262.543ZM263.033 9.87516C261.51 10.1863 261.562 13.4105 263.876 12.9434C265.342 12.6469 265.267 9.41775 263.033 9.87516Z" fill="#001514"/>
<path d="M245.498 10.8246C245.35 9.48263 243.901 9.64746 242.906 9.97027C242.665 10.0483 242.379 10.3487 242.194 10.1448C242.081 10.02 241.526 8.88186 241.593 8.77946C243.037 7.81588 246.404 7.68032 247.354 9.33342C247.484 9.55968 247.767 10.2629 247.767 10.4833V14.716H245.596V13.9377C244.836 14.7774 243.819 14.9744 242.733 14.6692C240.911 14.1572 240.619 11.7823 242.385 11.1123C242.574 11.0411 243.42 10.8246 243.573 10.8246H245.497H245.498ZM245.498 11.993H243.969C243.519 11.993 243.121 13.0014 243.746 13.2833C244.649 13.691 245.712 12.9927 245.498 11.993Z" fill="#001514"/>
<path d="M199.621 14.7171H197.549V13.9388L196.66 14.5708C194.952 15.2574 192.698 14.3474 193.131 12.2584C193.235 11.7571 193.856 11.2704 194.323 11.0988C194.555 11.0139 195.319 10.8247 195.526 10.8247H197.351C197.217 9.25256 194.998 9.65632 194.096 10.338L193.412 8.84001C194.755 7.84815 197.893 7.69601 199.014 9.03995C199.22 9.28767 199.621 10.0923 199.621 10.3878V14.7171ZM197.352 11.9931H195.922C195.241 11.9931 194.801 13.3224 196.116 13.3624C197.031 13.3907 197.477 12.8894 197.352 11.9931Z" fill="#001514"/>
<path d="M282.99 14.717H280.918V13.9387L280.029 14.5707C278.36 15.2017 276.221 14.4819 276.475 12.428C276.552 11.8058 277.13 11.3055 277.693 11.0987C277.925 11.0139 278.688 10.8246 278.895 10.8246H280.72C280.586 9.25249 278.367 9.65626 277.466 10.338L276.782 8.83995C278.094 7.84809 281.202 7.72813 282.342 8.98234C282.539 9.19885 282.99 10.1332 282.99 10.3867V14.716V14.717ZM280.72 11.993H279.29C278.609 11.993 278.17 13.3223 279.484 13.3623C280.4 13.3906 280.845 12.8893 280.72 11.993Z" fill="#001514"/>
<path d="M166.076 11.9935C166.328 13.434 168.302 13.2496 169.268 12.5923L170.312 13.7802C168.309 15.7776 163.988 14.7418 163.721 11.7389C163.328 7.31017 170.388 6.67331 170.883 10.9997C170.919 11.3117 171.013 11.7692 170.763 11.9944H166.076V11.9935ZM168.74 10.8251C168.565 9.2383 166.163 9.23049 165.978 10.8251H168.74Z" fill="#001514"/>
<path d="M187.289 11.9931H182.454C182.881 13.3585 184.63 13.3029 185.647 12.587L186.791 13.7827C184.856 15.6836 180.538 14.8341 180.196 11.9346C179.584 6.76071 188.059 6.79192 187.289 11.9941V11.9931ZM185.216 10.8247C184.999 9.24768 182.573 9.22427 182.454 10.8247H185.216Z" fill="#001514"/>
<path d="M207.711 9.85077L205.899 10.6388C205.42 9.50552 203.457 9.62938 203.193 10.7968C202.882 12.1749 203.63 13.3257 205.15 12.921C205.547 12.8156 205.851 12.1836 206.065 12.2031L207.711 12.9678C206.267 16.1218 200.848 14.9573 200.796 11.4571C200.744 7.88461 206.222 6.7445 207.711 9.85077Z" fill="#001514"/>
<path d="M251.812 6.73828V8.39236H253.391V10.0464H251.812V12.5275C251.812 13.0415 252.922 13.22 253.291 12.8679L253.77 14.2987C253.783 14.5015 253.504 14.5737 253.347 14.6254C252.2 14.9999 250.509 14.797 249.854 13.6813C249.793 13.5789 249.543 12.8874 249.543 12.8201V10.0474H248.556V8.39333H249.543V6.73926H251.812V6.73828Z" fill="#001514"/>
<path d="M286.838 5.76611H284.569V14.7172H286.838V5.76611Z" fill="#001514"/>
<path d="M259.212 8.10105V10.0467C258.514 10.0067 257.644 10.0136 257.252 10.6924C257.212 10.7597 257.041 11.2278 257.041 11.2629V14.7173H254.772V8.19857H256.943C256.981 8.30195 256.824 8.98953 257.09 8.87835C257.627 8.25904 258.404 8.024 259.212 8.10105Z" fill="#001514"/>
<path d="M192.813 8.10095V10.0466C192.137 10.0067 191.407 10.032 190.993 10.6347C190.943 10.7069 190.742 11.1272 190.742 11.1653V14.7163H188.472V8.19751H190.643L190.692 8.87825C191.274 8.33502 191.998 8.02293 192.813 8.09998V8.10095Z" fill="#001514"/>
<path d="M265.921 24.1061C265.615 26.36 262.581 26.4019 261.089 25.2745L261.394 24.7498C261.856 24.8229 262.235 25.1536 262.723 25.2169C264.337 25.4257 265.142 24.9624 265.131 23.28C264.794 23.3902 264.568 23.6526 264.213 23.7843C262.245 24.5128 260.269 22.8607 260.94 20.8487C261.506 19.1507 263.916 18.8318 265.131 20.0694V19.3877H265.922C265.778 20.8574 266.116 22.6802 265.922 24.1061H265.921ZM262.835 20.0899C261.422 20.3737 261.214 22.5174 262.612 23.0879C263.757 23.5551 265.165 22.8929 265.134 21.5801C265.106 20.3649 263.937 19.8685 262.835 20.0899Z" fill="#001514"/>
<path d="M210.869 8.19824H208.599V14.717H210.869V8.19824Z" fill="#001514"/>
<path d="M250.663 18.837C250.41 19.0896 250.345 19.548 250.483 19.8718C250.92 20.89 254.385 20.3692 254.358 22.4534C254.332 24.5375 250.711 24.639 249.486 23.4735L249.697 22.8844C250.594 23.3496 251.493 23.6217 252.529 23.4501C253.166 23.3448 253.712 22.8025 253.415 22.1354C252.93 21.0421 249.371 21.6878 249.541 19.4378C249.689 17.4794 252.626 17.4112 253.938 18.2177C254.065 18.3825 253.9 18.8536 253.725 18.8926C253.031 18.482 251.249 18.2499 250.662 18.837H250.663Z" fill="#001514"/>
<path d="M260.002 22.0145H255.956C256.251 23.6159 258.049 23.8724 259.249 22.9956C259.778 23.4111 259.64 23.6325 259.104 23.9026C257.562 24.678 255.4 23.9865 255.178 22.151C254.737 18.4957 260.247 18.3308 260.002 22.0154V22.0145ZM259.212 21.4303C258.946 19.5099 256.257 19.5109 255.956 21.4303H259.212Z" fill="#001514"/>
<path d="M279.417 19.3168C282.419 19.0379 283.243 22.9868 280.787 23.9777C276.998 25.505 275.697 19.663 279.417 19.3168ZM278.484 20.4901C277.596 21.3659 278.025 23.3155 279.386 23.4754C282.189 23.805 282.02 19.506 279.213 20.0902C279.063 20.1214 278.593 20.3828 278.484 20.4901Z" fill="#001514"/>
<path d="M268.486 19.3867V22.5486C268.486 22.6598 268.776 23.1191 268.906 23.2147C269.554 23.6926 270.707 23.5278 271.135 22.8256C271.174 22.7612 271.347 22.3799 271.347 22.3535V19.3857H272.234V24.1529H271.445V23.4722C271.124 23.5034 271.009 23.834 270.725 23.9774C269.706 24.4943 268.207 24.1705 267.772 23.0557C267.741 22.9738 267.598 22.4862 267.598 22.4501V19.3857H268.485L268.486 19.3867Z" fill="#001514"/>
<path d="M286.54 20.3603C285.94 20.019 283.92 19.7118 283.872 20.6978C283.833 21.4877 285.537 21.4409 286.145 21.676C287.08 22.0368 287.302 23.0745 286.545 23.7202C285.64 24.4916 283.888 24.2809 282.934 23.6714L283.253 23.0931C283.982 23.3632 284.605 23.5709 285.411 23.4763C285.862 23.4237 286.322 23.0794 286.098 22.5996C285.779 21.9178 283.306 22.3528 283.096 21.0849C282.772 19.1285 285.435 19.0086 286.699 19.6747L286.541 20.3603H286.54Z" fill="#001514"/>
<path d="M273.913 19.3871H274.702L274.751 20.1654C275.214 19.5773 275.821 19.3217 276.576 19.2896L276.571 20.0639C275.966 19.9996 274.8 20.5135 274.8 21.1874V24.1552H273.913V19.3881V19.3871Z" fill="#001514"/>
<path d="M210.835 6.99802C209.506 8.34878 207.294 6.28118 208.9 5.23568C210.284 4.3355 211.913 5.90278 210.835 6.99802Z" fill="#001514"/>
<path d="M218.367 5.5708L216.245 7.3224H214.617C215.063 6.80453 215.52 6.29934 216.001 5.81267C216.083 5.72977 216.083 5.5708 216.097 5.5708H218.367Z" fill="#001514"/>
<path d="M135.145 8.58775L135.011 8.81401L135.655 10.0546C136.179 10.3208 138.307 9.95314 138.601 10.2389C138.807 10.4408 138.821 12.0334 138.657 12.245C138.171 12.6108 137.532 12.446 136.971 12.4801C136.942 12.6508 136.995 12.7834 137.048 12.9385C137.36 13.8582 138.61 15.5054 138.741 16.3285C138.821 16.8328 138.837 19.4485 138.747 19.9225C138.657 20.3964 138.079 20.2248 137.937 19.8444L131.754 7.37157C131.833 6.84687 132.207 6.30462 132.774 6.25L146.021 6.32607C146.46 6.5933 146.806 7.09947 146.698 7.61734L144.375 12.3143C144.33 12.365 144.066 12.4791 144.023 12.4791H142.099C141.949 13.7977 142.32 15.6039 142.056 16.863C141.99 17.178 140.722 19.7274 140.508 20.0054C140.276 20.3077 140.084 20.2716 139.823 20.0258L139.797 10.3598C140.003 9.88292 142.377 10.3345 142.922 10.0536C143.152 9.58936 143.529 9.13293 143.48 8.58677H135.143L135.145 8.58775Z" fill="#001514"/>
</g>
<g clip-path="url(#clip3_29_3005)">
<path d="M56.1795 63.2745C54.0614 63.2745 51.9433 63.2745 49.8237 63.2745C49.6823 63.2745 49.5409 63.273 49.3995 63.2745C48.53 63.2815 47.5501 62.5463 47.8357 61.3183C48.11 60.1381 48.3504 58.9495 48.6049 57.7637C49.4137 53.9851 50.2182 50.2052 51.0299 46.4266C51.413 44.6409 51.8089 42.8565 52.1964 41.0722C52.2303 40.9187 52.2473 40.7609 52.2727 40.6046C52.3972 39.8526 52.9514 39.354 53.7206 39.3061C53.8083 39.3005 53.8974 39.3019 53.985 39.3019C58.4518 39.3019 62.9171 39.3019 67.3838 39.3033C67.5776 39.3033 67.7769 39.3005 67.9622 39.347C68.8049 39.5526 69.28 40.4089 69.1046 41.1581C68.7667 42.5946 68.4797 44.0423 68.1686 45.4845C67.5464 48.3687 66.9229 51.253 66.3007 54.1372C65.7861 56.5243 65.2728 58.9115 64.7623 61.2986C64.7298 61.4521 64.7072 61.6098 64.6874 61.7661C64.5743 62.6759 63.9451 63.2505 63.0118 63.2716C62.3586 63.2857 61.7053 63.2745 61.0521 63.2745C59.4274 63.2745 57.8042 63.2745 56.1795 63.2745ZM56.0325 56.944C56.8639 56.944 57.5864 56.9412 58.3076 56.9454C58.5239 56.9454 58.6215 56.8412 58.6639 56.6384C58.7614 56.1751 58.8774 55.7146 58.9764 55.2512C59.4684 52.9331 59.9591 50.6136 60.4497 48.2955C60.536 47.8885 60.5812 47.8476 61.0167 47.8406C61.4579 47.8336 61.899 47.8392 62.3402 47.8378C62.5198 47.8378 62.7064 47.8378 62.7587 47.6096C62.9001 46.9843 63.0373 46.3576 63.1942 45.6492C62.9072 45.6492 62.7177 45.6492 62.5283 45.6492C60.7636 45.6492 58.999 45.6492 57.2344 45.6492C57.0223 45.6492 56.8088 45.6338 56.6009 45.6619C56.4977 45.676 56.3421 45.7605 56.3223 45.8408C56.1626 46.4773 56.0282 47.1224 55.8812 47.7927C56.6037 47.9054 57.2598 47.7561 57.9597 47.9124C57.3164 50.9333 56.6857 53.8978 56.0367 56.944H56.0325Z" fill="#001514"/>
<path d="M38.3958 63.2747C36.2423 63.2747 34.0888 63.2789 31.9353 63.2705C31.6568 63.2705 31.3669 63.2479 31.1011 63.1705C30.2315 62.917 29.8596 62.2663 30.0477 61.3875C30.3729 59.8764 30.7023 58.3667 31.0247 56.8541C31.8604 52.9376 32.6946 49.021 33.5303 45.1044C33.8159 43.7651 34.1044 42.4244 34.3999 41.0879C34.4522 40.8499 34.5201 40.6048 34.6346 40.3922C35.0107 39.688 35.5791 39.2923 36.4176 39.2979C38.4127 39.312 40.4064 39.3021 42.4015 39.3021C44.7671 39.3021 47.1327 39.3021 49.4983 39.3021C49.7103 39.3021 49.9239 39.2951 50.1331 39.3261C51.048 39.4585 51.5132 40.1204 51.3293 41.0217C51.0494 42.399 50.7638 43.7736 50.4781 45.1495C49.9323 47.7803 49.3865 50.411 48.8379 53.0418C48.2851 55.6894 47.7265 58.3357 47.1723 60.9833C47.1185 61.2411 47.0846 61.5044 47.0153 61.7579C46.7255 62.8113 46.1146 63.2733 45.0174 63.2747C43.322 63.2775 41.6281 63.2747 39.9327 63.2747C39.4209 63.2747 38.909 63.2747 38.3972 63.2747H38.3958ZM35.4208 56.9471C36.19 56.9471 36.8588 56.9288 37.5247 56.9541C37.8938 56.9682 38.0691 56.8133 38.1752 56.4823C38.3307 55.9964 38.523 55.5232 38.687 55.0416C38.7606 54.8275 38.8906 54.7275 39.1155 54.7289C39.6104 54.7318 40.1052 54.7346 40.5987 54.7289C40.8716 54.7261 40.9762 54.8543 40.9664 55.1176C40.9494 55.5923 40.9522 56.0669 40.931 56.5415C40.9183 56.8358 41.0385 56.9555 41.3326 56.9499C41.8628 56.94 42.3916 56.9499 42.9219 56.9471C43.479 56.9428 43.4917 56.9344 43.4903 56.3894C43.4832 52.9784 43.4747 49.566 43.462 46.1551C43.462 46.0044 43.4337 45.8523 43.4125 45.6551C42.4355 45.6551 41.5022 45.6466 40.569 45.6664C40.4432 45.6692 40.2876 45.7931 40.2056 45.9044C40.0939 46.0579 40.0388 46.2508 39.9624 46.4283C38.8016 49.1069 37.6407 51.7855 36.4812 54.4656C36.1405 55.2528 35.8054 56.0429 35.4179 56.9485L35.4208 56.9471Z" fill="#001514"/>
<path d="M78.5948 39.3033C80.8543 39.3033 83.1138 39.2991 85.3733 39.3047C86.2274 39.3075 86.7661 39.7089 86.964 40.4905C87.0093 40.6694 87.0107 40.875 86.9725 41.0566C86.349 43.9775 85.7113 46.8942 85.0863 49.8136C84.2662 53.6443 83.4546 57.4749 82.6401 61.307C82.5892 61.5478 82.5652 61.7943 82.5044 62.0323C82.3121 62.7773 81.7592 63.2251 80.9858 63.2744C80.8981 63.28 80.809 63.2772 80.7214 63.2772C76.3084 63.2772 71.8939 63.2744 67.4809 63.28C66.904 63.28 66.3922 63.1477 66.0161 62.69C65.7276 62.3379 65.5905 61.9492 65.6951 61.4703C66.6184 57.213 67.5304 52.9528 68.4382 48.6926C69.001 46.0478 69.5538 43.3987 70.0996 40.7496C70.3032 39.761 70.8335 39.3075 71.8685 39.3061C74.111 39.3019 76.3522 39.3061 78.5948 39.3061V39.3033ZM77.9472 56.9496C78.6174 56.9496 79.1971 56.951 79.7754 56.9496C80.4004 56.9482 80.406 56.9468 80.5361 56.3384C81.1767 53.3485 81.8158 50.3586 82.4521 47.3674C82.568 46.8252 82.667 46.2787 82.7829 45.6929C82.5652 45.676 82.4111 45.6534 82.2569 45.6534C81.3916 45.6506 80.5262 45.6675 79.6609 45.6436C79.2876 45.6337 79.0995 45.759 78.9525 46.1097C78.1677 47.9927 77.3575 49.8643 76.553 51.7388C76.4766 51.9163 76.3833 52.0881 76.2985 52.2627C76.2589 52.2486 76.2193 52.2345 76.1783 52.2205V45.7351C76.0906 45.7013 76.0425 45.6675 75.9945 45.6675C74.9354 45.6605 73.8763 45.6605 72.8158 45.6534C72.5415 45.652 72.4652 45.8112 72.4185 46.0463C72.2842 46.7364 72.1315 47.4223 71.9844 48.1095C71.4033 50.8248 70.8193 53.5386 70.2396 56.2539C70.1958 56.4567 70.1661 56.6609 70.1152 56.9412C70.8886 56.9412 71.6069 56.9468 72.3252 56.9383C72.5571 56.9355 72.5825 56.7468 72.6165 56.5651C73.1071 53.9048 73.5992 51.2445 74.0941 48.5842C74.1195 48.4447 74.1662 48.3109 74.2044 48.1743C74.2369 48.1814 74.2708 48.1884 74.3033 48.1955V56.951C74.7403 56.951 75.1291 56.9214 75.5123 56.9581C76.0044 57.0045 76.2617 56.8313 76.4568 56.3581C77.4339 53.9837 78.4505 51.6261 79.4573 49.263C79.6128 48.8982 79.7839 48.5405 79.9465 48.1786C79.9889 48.1926 80.0328 48.2081 80.0752 48.2222C79.3753 51.0966 78.6753 53.971 77.9486 56.9496H77.9472Z" fill="#001514"/>
<path d="M70.2701 65.9955C70.3153 65.9955 70.403 65.9927 70.4907 65.9955C71.6289 66.0349 72.3486 66.7644 72.2921 67.8869C72.251 68.7009 72.0149 69.467 71.5356 70.1529C70.8399 71.15 69.2973 71.5767 68.0657 71.0852C67.4662 70.8458 67.1678 70.3571 67.1212 69.7346C67.0462 68.7375 67.2739 67.8066 67.9017 67.0151C68.4856 66.2771 69.2803 65.9518 70.2672 65.9927L70.2701 65.9955ZM68.3075 69.1459C68.3188 69.9599 68.7331 70.2317 69.2195 70.2726C69.6776 70.312 70.0933 70.174 70.3973 69.812C70.8852 69.229 71.028 68.5277 70.9997 67.7981C70.9799 67.2771 70.6674 67.0179 70.1428 66.9869C69.4896 66.9489 69.006 67.2447 68.7402 67.8136C68.5436 68.2333 68.4489 68.6995 68.3089 69.1459H68.3075Z" fill="#001514"/>
<path d="M49.6396 66.363C49.5774 66.4842 49.5265 66.5912 49.4671 66.694C49.2626 67.0442 48.9647 67.1667 48.5735 67.0616C47.4522 66.7588 46.4087 67.3728 46.1627 68.5065C46.0891 68.8445 46.0411 69.2079 46.0877 69.5459C46.1726 70.1543 47.0761 70.5289 47.5978 70.1993C47.6756 70.15 47.7307 70.0374 47.7562 69.943C47.8057 69.7585 47.8269 69.567 47.8651 69.3374C47.5667 69.2994 47.2981 69.267 46.9672 69.2248C47.0153 68.9501 47.0238 68.7023 47.1114 68.4868C47.1567 68.377 47.3405 68.2657 47.4678 68.2587C47.9428 68.2319 48.4194 68.2474 48.8959 68.2474C49.1829 68.2474 49.2621 68.4065 49.2084 68.6628C49.0684 69.3332 48.927 70.0022 48.7884 70.6725C48.746 70.881 48.6413 71.0331 48.4236 71.0725C47.7138 71.2021 47.011 71.3781 46.2772 71.2373C45.286 71.0471 44.7685 70.512 44.7897 69.4994C44.8137 68.3784 45.122 67.3348 46.092 66.632C47.1312 65.8786 48.2723 65.8138 49.4615 66.225C49.5223 66.2462 49.5689 66.3053 49.641 66.363H49.6396Z" fill="#001514"/>
<path d="M59.8842 71.2032C59.9125 70.9314 59.9139 70.7751 59.9464 70.6244C60.2363 69.2513 60.5276 67.8782 60.8245 66.5078C60.9249 66.0431 60.9376 66.0262 61.4198 66.0332C61.9826 66.0417 62.551 66.0332 63.1053 66.1149C64.2774 66.2853 64.679 67.305 63.9494 68.2556C63.7217 68.5527 63.3909 68.7724 63.0628 69.0682C63.3541 69.7005 63.668 70.3807 64.0173 71.137C63.5973 71.2638 63.2071 71.23 62.8253 71.1666C62.7404 71.1525 62.6627 70.9962 62.6146 70.8906C62.435 70.4906 62.271 70.0822 62.0999 69.6794C62.0165 69.4836 61.9401 69.2851 61.6616 69.3006C61.3844 69.3161 61.3887 69.5414 61.3449 69.7174C61.2487 70.1089 61.1893 70.5103 61.0776 70.8976C61.0423 71.0187 60.8995 71.1736 60.7849 71.1919C60.5163 71.2356 60.2349 71.206 59.8828 71.206L59.8842 71.2032ZM61.6347 68.3373C62.0165 68.2739 62.2908 68.2485 62.5538 68.1781C62.8097 68.1091 62.9469 67.9049 63.0148 67.6528C63.0798 67.4134 62.9978 67.2444 62.7772 67.1402C62.2781 66.9022 61.902 67.0796 61.7789 67.6134C61.7323 67.8134 61.6984 68.0162 61.6347 68.3373Z" fill="#001514"/>
<path d="M54.322 66.0771C54.1424 66.9348 53.9742 67.7023 53.8215 68.4727C53.7493 68.8332 53.6744 69.198 53.6546 69.5627C53.6277 70.0669 53.7988 70.2246 54.3008 70.2528C54.9922 70.2908 55.3726 70.0416 55.538 69.3684C55.7558 68.4825 55.9269 67.5854 56.1305 66.6968C56.2888 66.0025 56.3016 65.9983 57.0085 66.0306C57.1273 66.0363 57.2447 66.0673 57.4045 66.0926C57.3889 66.2687 57.3917 66.425 57.3606 66.5729C57.1641 67.4995 56.9477 68.422 56.7625 69.3515C56.3935 71.1908 54.4408 71.5611 53.2347 71.1217C52.7341 70.9387 52.4428 70.5429 52.3919 70.0049C52.3721 69.7979 52.3849 69.581 52.4273 69.3782C52.6168 68.4502 52.8161 67.5235 53.0254 66.5996C53.1512 66.0391 53.1866 66.0208 53.7762 66.0306C53.9303 66.0335 54.083 66.056 54.3248 66.0785L54.322 66.0771Z" fill="#001514"/>
<path d="M42.342 66.0864C42.3165 66.2921 42.3109 66.447 42.2769 66.5963C42.1822 67.0173 42.144 67.0483 41.7142 67.0596C41.3974 67.068 41.0793 67.0779 40.7626 67.0596C40.4317 67.0385 40.2705 67.1835 40.2295 67.4962C40.2097 67.6483 40.1828 67.799 40.1447 68.0356H41.8075C41.7693 68.2905 41.7396 68.4567 41.7198 68.6228C41.6887 68.8975 41.5459 69.0186 41.2617 69.0073C40.928 68.9932 40.5915 69.0172 40.2578 69.0017C39.9948 68.9904 39.8675 69.1073 39.8265 69.3524C39.7827 69.6087 39.7332 69.8636 39.6738 70.1903C40.2861 70.2128 40.8516 70.2326 41.4285 70.2537C41.4413 70.3734 41.4639 70.4424 41.4526 70.5058C41.3715 70.9686 41.0906 71.2001 40.6099 71.2001C40.0287 71.2001 39.4462 71.2029 38.865 71.1987C38.6939 71.1987 38.5228 71.1775 38.2754 71.1621C38.3588 70.7029 38.4239 70.2959 38.5087 69.8917C38.7462 68.7594 38.9923 67.6286 39.2341 66.4963C39.3246 66.0724 39.3599 66.0329 39.7869 66.0287C40.4911 66.0217 41.1967 66.0245 41.9022 66.0287C42.0224 66.0287 42.1412 66.0583 42.3434 66.0864H42.342Z" fill="#001514"/>
<path d="M36.0816 66.3892C35.9812 66.5666 35.9232 66.6737 35.8624 66.7793C35.5895 67.2483 35.5923 67.2342 35.0508 67.099C34.7821 67.0314 34.4951 67.0004 34.2179 67.006C33.9479 67.0117 33.7584 67.1891 33.6891 67.4511C33.6198 67.713 33.8305 67.8243 34.0073 67.9383C34.348 68.1566 34.6945 68.3651 35.0338 68.5834C35.3477 68.7848 35.4495 69.0904 35.4424 69.4467C35.4297 70.0973 35.1568 70.6085 34.5856 70.924C33.7655 71.3775 32.9015 71.3817 32.0235 71.0972C31.8057 71.0268 31.6982 70.9015 31.7704 70.6621C31.8396 70.4311 31.899 70.1959 31.9782 69.9058C32.2341 69.9945 32.442 70.0748 32.6541 70.1396C33.0246 70.2522 33.3936 70.3846 33.7895 70.2339C34.0186 70.1466 34.1996 70.0128 34.2321 69.7593C34.2646 69.5072 34.078 69.3847 33.8913 69.2748C33.6481 69.1326 33.3964 69.003 33.1589 68.8524C32.3996 68.3707 32.2285 67.5806 32.7644 66.8596C32.9567 66.6004 33.2253 66.3483 33.5152 66.2174C34.3678 65.8343 35.219 65.8991 36.083 66.3878L36.0816 66.3892Z" fill="#001514"/>
<path d="M74.8812 69.9307C75.3266 70.0602 75.6914 70.1968 76.0675 70.2616C76.298 70.3011 76.5681 70.2813 76.7844 70.1983C77.2439 70.0208 77.2751 69.5913 76.8664 69.3138C76.6628 69.1758 76.4366 69.073 76.2259 68.9463C75.1385 68.2998 75.1145 67.0295 76.1962 66.3563C77.1054 65.7902 78.0287 65.8916 78.9775 66.3648C78.928 66.4972 78.9068 66.5986 78.8573 66.6845C78.5321 67.245 78.5321 67.2365 77.8859 67.0774C77.6667 67.0239 77.4348 66.9957 77.2086 66.9999C76.9131 67.0056 76.7137 67.1844 76.6374 67.4633C76.5667 67.7196 76.7717 67.8407 76.947 67.9562C77.0941 68.052 77.251 68.1336 77.4051 68.2181C77.934 68.5054 78.4105 68.8322 78.3652 69.5321C78.3172 70.2715 77.9269 70.7912 77.2567 71.0672C76.5143 71.3742 75.7466 71.3573 74.9788 71.1151C74.7257 71.0348 74.6422 70.8968 74.7144 70.6433C74.7752 70.4278 74.8176 70.2067 74.8812 69.9293V69.9307Z" fill="#001514"/>
<path d="M41.4679 47.7799C41.4679 48.0221 41.4821 48.2658 41.4651 48.508C41.3746 49.7854 41.277 51.0627 41.1809 52.3387C41.1455 52.8147 41.137 52.8245 40.6422 52.833C40.2971 52.8386 39.9507 52.833 39.5039 52.833C40.0921 51.05 40.7341 49.4122 41.335 47.7588C41.3788 47.7658 41.4241 47.7729 41.4679 47.7799Z" fill="#001514"/>
</g>
<path d="M276.116 47.6083C274.004 45.3075 271.361 44.0644 268.236 44.0022C261.945 43.8779 257.011 48.9811 257 55.5685C257.033 57.9433 258.06 60.5206 260.124 62.6478C262.262 64.8522 264.915 65.9892 267.985 65.9999C270.853 66.0096 273.377 64.9958 275.475 63.0347C277.77 60.8903 278.966 58.2123 278.999 55.0831C279.029 52.2357 278.049 49.7162 276.116 47.6083ZM262.875 58.2819C262.619 58.7074 262.226 58.8778 261.783 58.8949C261.27 58.8842 260.879 58.7074 260.633 58.2916C260.362 57.8329 260.356 57.3528 260.626 56.8931C261.33 55.6939 262.048 54.5033 262.759 53.3084C262.944 52.9966 263.126 52.6836 263.31 52.3718C263.757 51.6056 264.94 51.5563 265.483 52.2603C265.772 52.6343 265.809 53.377 265.552 53.7939C264.895 54.8591 264.271 55.9457 263.633 57.0227C263.383 57.4439 263.128 57.8629 262.876 58.283L262.875 58.2819ZM269.479 54.2611C269.161 54.8151 268.845 55.3713 268.526 55.9264C268.168 56.5501 267.807 57.1717 267.449 57.7954C267.326 58.0076 267.217 58.2241 267.036 58.3998C266.582 58.8424 265.827 58.8896 265.319 58.5016C264.965 58.2305 264.812 57.8704 264.82 57.3785C264.776 57.0763 264.965 56.7956 265.133 56.5116C265.708 55.546 266.283 54.5815 266.868 53.6213C267.457 52.6526 267.996 51.6516 268.648 50.7225C268.966 50.2703 269.423 49.9842 269.988 49.8963C270.675 49.7891 271.226 50.0624 271.719 50.5007C271.883 50.6464 272.016 50.82 272.151 50.9937C272.183 51.0354 272.211 51.0772 272.18 51.1233C272.146 51.1726 272.103 51.134 272.066 51.118C271.71 50.9679 271.39 51.0612 271.161 51.3773C270.929 51.6977 270.757 52.0535 270.558 52.3922C270.194 53.0126 269.838 53.6374 269.48 54.2611H269.479ZM274.884 58.8745C274.796 58.8928 274.703 58.8874 274.604 58.8938C274.081 58.882 273.691 58.6527 273.429 58.1844C273.109 57.6121 272.768 57.0527 272.441 56.4848C272.151 55.9811 271.867 55.4742 271.579 54.9695C271.355 54.5762 271.13 54.1818 270.896 53.7939C270.817 53.6621 270.792 53.5495 270.879 53.4113C271.182 52.9344 271.422 52.4211 271.742 51.9549C271.911 51.7084 272.158 51.6002 272.458 51.5981C272.549 51.5981 272.604 51.6313 272.651 51.7095C273.294 52.7651 273.947 53.8142 274.583 54.8741C274.997 55.5642 275.4 56.2619 275.781 56.9702C276.176 57.7075 275.796 58.6892 274.885 58.8735L274.884 58.8745Z" fill="#001514"/>
<path d="M202.001 57.0089C201.379 55.3917 200.763 53.7722 200.138 52.155C199.789 51.2473 199.426 50.3441 199.075 49.4387C198.967 49.1616 198.777 48.9792 198.484 48.9702C197.848 48.9522 197.21 48.9432 196.576 48.9702C196.283 48.9814 196.079 49.1751 195.971 49.4725C195.783 49.9883 195.573 50.4928 195.376 51.0041C194.623 52.9546 193.873 54.9052 193.121 56.858C192.579 58.2657 192.035 59.6734 191.493 61.0834C191.316 61.5474 191.469 61.7659 191.963 61.7704C192.333 61.7749 192.702 61.7614 193.069 61.7726C193.423 61.7839 193.634 61.6082 193.755 61.2929C193.981 60.6983 194.211 60.1036 194.431 59.5045C194.489 59.3468 194.561 59.2703 194.74 59.2703C196.596 59.2748 198.452 59.2748 200.308 59.2703C200.474 59.2703 200.566 59.3176 200.626 59.491C200.785 59.9437 200.967 60.3919 201.15 60.8357C201.538 61.7704 201.542 61.7681 202.547 61.7681C202.783 61.7681 203.018 61.7794 203.253 61.7659C203.533 61.7501 203.723 61.4753 203.629 61.2343C203.087 59.8243 202.543 58.4189 202.001 57.0089ZM199.104 57.0765C198.02 57.0765 196.936 57.0787 195.853 57.0787C195.49 57.0787 195.456 57.0292 195.584 56.6958C196.186 55.1191 196.791 53.5447 197.398 51.9703C197.429 51.8915 197.447 51.7947 197.575 51.7451C197.758 52.2091 197.944 52.6708 198.123 53.1348C198.564 54.2813 199.001 55.4322 199.442 56.5787C199.634 57.0787 199.641 57.0765 199.106 57.0765H199.104Z" fill="#001514"/>
<path d="M224.782 48.8127C224.435 48.8082 224.087 48.8104 223.743 48.8127C223.279 48.8127 223.154 48.9433 223.154 49.4185C223.154 50.5875 223.154 51.7565 223.152 52.9277C223.152 53.0336 223.21 53.1732 223.091 53.2386C222.961 53.3106 222.899 53.1665 222.818 53.1012C221.954 52.3939 220.991 52.0426 219.856 52.1822C218.188 52.3872 217.182 53.385 216.575 54.8738C216.139 55.9437 216.17 57.0653 216.309 58.1825C216.463 59.4236 217.019 60.4506 218.013 61.2255C219.374 62.2863 221.515 62.2075 222.764 61.0453C222.854 60.9619 222.941 60.8471 223.078 60.9169C223.205 60.9822 223.143 61.1173 223.147 61.2232C223.163 61.6331 223.29 61.7683 223.693 61.7705C224.029 61.7728 224.365 61.7705 224.699 61.7705C225.185 61.7705 225.294 61.6602 225.294 61.1849C225.294 59.2163 225.294 57.25 225.294 55.2815C225.294 53.3129 225.294 51.324 225.294 49.3442C225.294 48.9523 225.167 48.8217 224.777 48.8172L224.782 48.8127ZM222.977 58.5384C222.663 59.4078 222.003 59.8448 221.116 59.9394C220.556 59.9979 220.015 59.9056 219.502 59.633C218.85 59.2862 218.613 58.6803 218.485 58.0226C218.333 57.2365 218.362 56.4504 218.586 55.6734C218.801 54.9278 219.291 54.4841 220.015 54.2701C220.729 54.0584 221.425 54.117 222.072 54.4864C222.822 54.9143 223.091 55.6283 223.152 56.4482C223.167 56.6486 223.152 56.8514 223.152 57.1464C223.187 57.5609 223.145 58.0631 222.972 58.5429L222.977 58.5384Z" fill="#001514"/>
<path d="M252.011 55.3512C251.875 54.3151 251.483 53.4299 250.578 52.8556C249.315 52.0515 247.952 51.9434 246.546 52.3736C245.498 52.6934 244.676 53.3038 244.275 54.3804C244.145 54.7318 244.228 54.8782 244.589 54.8827C245.126 54.8895 245.661 54.8827 246.199 54.8872C246.364 54.8872 246.505 54.8422 246.626 54.7296C246.94 54.43 247.3 54.2385 247.735 54.162C248.055 54.1034 248.357 54.189 248.662 54.2205C249.356 54.2926 249.855 54.8534 249.866 55.4886C249.868 55.6913 249.79 55.7814 249.615 55.8107C249.047 55.9098 248.478 56.0021 247.911 56.099C247.103 56.2386 246.281 56.3242 245.518 56.6463C244.557 57.0518 243.74 57.6171 243.583 58.759C243.447 59.7478 243.745 60.5947 244.526 61.2389C245.012 61.6376 245.576 61.847 246.203 61.9236C247.41 62.0723 248.503 61.8583 249.409 60.9799C249.521 60.8718 249.613 60.642 249.794 60.7209C249.949 60.7907 249.855 61.0069 249.859 61.1556C249.877 61.579 250.054 61.7637 250.473 61.766C250.786 61.766 251.1 61.766 251.411 61.766C251.904 61.766 252.074 61.5993 252.076 61.1083C252.076 60.2434 252.076 59.3762 252.076 58.3086C252.025 57.4594 252.152 56.4031 252.013 55.349L252.011 55.3512ZM248.426 59.7411C248.026 59.8852 247.611 59.9596 247.152 59.9438C246.924 59.9888 246.673 59.9145 246.427 59.8582C246.131 59.7906 245.829 59.678 245.771 59.3221C245.679 58.7568 245.82 58.4662 246.219 58.232C246.745 57.9212 247.345 57.9099 247.916 57.7928C248.48 57.6779 249.053 57.6126 249.615 57.4887C249.848 57.4369 249.853 57.527 249.859 57.7004C249.895 58.6194 249.34 59.4145 248.424 59.7411H248.426Z" fill="#001514"/>
<path d="M214.025 55.4997C213.949 54.61 213.662 53.7924 213.006 53.1527C212.375 52.5378 211.602 52.2675 210.729 52.1707C209.612 52.049 208.676 52.3801 207.848 53.1031C207.774 53.1685 207.713 53.2856 207.601 53.2473C207.458 53.1977 207.523 53.0536 207.521 52.9522C207.505 52.4995 207.333 52.3238 206.885 52.3216C206.571 52.3216 206.258 52.3216 205.947 52.3216C205.483 52.3238 205.306 52.5063 205.304 52.977C205.304 54.3374 205.304 55.6979 205.304 57.056C205.304 58.439 205.304 59.8219 205.304 61.2026C205.304 61.6283 205.441 61.7612 205.866 61.7657C206.191 61.768 206.515 61.7657 206.838 61.7657C207.35 61.7657 207.516 61.6013 207.516 61.09C207.516 59.5269 207.518 57.966 207.514 56.4029C207.514 56.1866 207.548 55.9794 207.592 55.7722C207.984 53.905 210.006 53.8059 211.07 54.4906C211.667 54.8757 211.86 55.5402 211.871 56.2182C211.896 57.8579 211.878 59.4999 211.88 61.1418C211.88 61.5878 212.064 61.7657 212.507 61.768C212.854 61.768 213.199 61.7702 213.546 61.768C213.949 61.7635 214.097 61.6261 214.09 61.2229C214.054 59.3152 214.184 57.4052 214.021 55.4997H214.025Z" fill="#001514"/>
<path d="M241.476 55.0247C241.033 52.8421 239.432 52.1281 237.672 52.1304C236.801 52.1304 236.035 52.5065 235.377 53.0831C235.296 53.153 235.234 53.2903 235.106 53.2408C234.972 53.1867 235.037 53.0448 235.032 52.9412C235.017 52.4975 234.84 52.3218 234.387 52.3196C234.085 52.3196 233.783 52.3196 233.481 52.3196C232.99 52.3196 232.816 52.4953 232.816 52.9863C232.816 54.3354 232.816 55.6846 232.816 57.0338C232.816 58.3829 232.816 59.7772 232.816 61.1489C232.816 61.5768 233.004 61.7615 233.42 61.7638C233.745 61.7638 234.069 61.7638 234.392 61.7638C234.853 61.7638 235.026 61.5858 235.026 61.1106C235.026 60.1218 235.014 59.1307 235.03 58.1419C235.041 57.3919 234.956 56.6374 235.093 55.8918C235.196 55.3355 235.44 54.8693 235.888 54.5066C236.364 54.1192 236.913 54.1327 237.473 54.1372C238.236 54.144 238.789 54.4683 239.13 55.1688C239.439 55.8062 239.443 56.491 239.45 57.1689C239.466 58.5294 239.454 59.8898 239.454 61.2502C239.454 61.6173 239.587 61.7547 239.954 61.7615C240.301 61.7683 240.648 61.7615 240.993 61.7615C241.479 61.7615 241.599 61.6376 241.599 61.1398C241.599 59.588 241.595 58.0361 241.602 56.4842C241.604 55.9909 241.568 55.5022 241.47 55.0179L241.476 55.0247Z" fill="#001514"/>
<path d="M229.587 52.3218C229.273 52.3195 228.96 52.3218 228.648 52.3218C228.16 52.3218 227.988 52.4997 227.988 52.993C227.988 54.3647 227.988 55.7364 227.988 57.1081C227.988 58.4798 227.988 59.8515 227.988 61.2232C227.988 61.6263 228.129 61.7637 228.534 61.7682C228.859 61.7705 229.184 61.7682 229.506 61.7682C230.048 61.7682 230.2 61.6173 230.2 61.0745C230.2 58.41 230.2 55.7454 230.2 53.0808C230.2 53.0133 230.205 52.9457 230.2 52.8781C230.162 52.4862 229.987 52.3263 229.589 52.3218H229.587Z" fill="#001514"/>
<path d="M229.833 48.8169C229.343 48.8057 228.85 48.8034 228.36 48.8169C228.082 48.8259 227.905 48.9611 227.916 49.2832C227.93 49.6976 227.916 50.1143 227.921 50.5287C227.925 50.8891 228.071 51.0288 228.434 51.0378C228.646 51.0423 228.857 51.0378 229.069 51.0378C229.282 51.0378 229.493 51.0378 229.705 51.0378C230.041 51.0355 230.254 50.8463 230.263 50.513C230.274 50.0985 230.27 49.6818 230.263 49.2674C230.258 48.9881 230.111 48.8214 229.831 48.8147L229.833 48.8169Z" fill="#001514"/>
<path d="M184.398 55.3176C184.398 53.3716 184.398 51.4278 184.398 49.4818C184.398 48.9705 184.56 48.8128 185.083 48.8105C185.737 48.8105 185.876 48.9434 185.876 49.5876C185.876 53.3986 185.867 57.2119 185.883 61.0229C185.887 61.8563 185.457 61.9171 184.745 61.7932C184.497 61.7504 184.392 61.5364 184.394 61.2549C184.403 59.275 184.398 57.2975 184.398 55.3176Z" fill="#001514"/>
<path d="M121.509 49.0721C121.055 48.8468 120.282 49.018 120.031 49.4662C119.577 50.2771 119.156 51.1059 118.733 51.9326C118.066 53.2412 117.407 54.5543 116.744 55.8629C116.612 56.122 116.469 56.3742 116.33 56.631C116.283 56.7166 116.254 56.8292 116.129 56.8315C116.003 56.8337 115.97 56.7256 115.923 56.6378C115.739 56.2909 115.551 55.9485 115.372 55.5994C114.396 53.6827 113.408 51.7681 112.452 49.8424C112.163 49.2613 111.805 48.9121 111.104 49.0022C110.661 49.0608 110.524 49.1441 110.522 49.5878C110.522 50.1172 110.522 50.6442 110.522 51.1735C110.522 54.525 110.522 57.8743 110.518 61.2258C110.518 61.4466 110.544 61.6425 110.75 61.7394C111.102 61.9083 111.478 61.8925 111.818 61.7349C112.087 61.611 112.065 61.3114 112.065 61.0501C112.065 58.3068 112.065 55.5634 112.065 52.82C112.065 52.7254 112.011 52.5925 112.127 52.5475C112.275 52.4889 112.286 52.6668 112.363 52.7344C112.403 52.7682 112.419 52.8313 112.443 52.8808C113.269 54.498 114.125 56.0994 114.908 57.7369C115.242 58.4374 115.667 58.8068 116.453 58.6604C116.465 58.6604 116.476 58.6604 116.487 58.6604C116.664 58.6581 116.796 58.5951 116.908 58.4397C117.338 57.8473 117.602 57.1626 117.947 56.5229C118.572 55.3697 119.138 54.1872 119.734 53.0182C119.805 52.8786 119.893 52.7479 119.971 52.6128C120.002 52.5587 120.04 52.5204 120.103 52.5362C120.168 52.552 120.179 52.6105 120.181 52.6691C120.181 52.7592 120.181 52.8493 120.181 52.9394C120.181 55.6602 120.181 58.3811 120.181 61.1019C120.181 61.3587 120.22 61.5907 120.464 61.7394C120.672 61.8678 120.896 61.8295 121.117 61.8295C121.541 61.8295 121.726 61.6403 121.726 61.2191C121.726 59.273 121.726 57.3292 121.726 55.3832C121.726 53.4371 121.726 51.4933 121.726 49.5473C121.726 49.3491 121.722 49.1734 121.507 49.0676L121.509 49.0721Z" fill="#001514"/>
<path d="M152.72 61.6807C154.431 62.2325 156.011 62.1131 157.276 60.6446C157.315 60.5995 157.348 60.5522 157.411 60.568C157.494 60.5905 157.489 60.6671 157.491 60.7324C157.491 60.8788 157.485 61.0252 157.494 61.1716C157.525 61.6897 157.753 61.8564 158.398 61.8338C158.808 61.8203 158.969 61.6289 158.969 61.1491C158.969 60.1941 158.969 59.2368 158.969 58.2818C158.969 57.3268 158.987 56.3696 158.965 55.4146C158.94 54.3357 158.47 53.464 157.597 52.8514C156.287 51.9324 154.323 51.9572 152.955 52.8672C152.442 53.2095 152.044 53.642 151.836 54.2388C151.773 54.4168 151.804 54.5339 151.932 54.6578C152.198 54.9191 152.944 54.8785 153.21 54.5925C153.573 54.2006 153.898 53.7478 154.469 53.642C154.881 53.5676 155.286 53.5203 155.72 53.5879C156.809 53.7568 157.585 54.347 157.505 55.5903C157.491 55.8132 157.42 55.9214 157.216 55.9529C156.495 56.07 155.772 56.1781 155.051 56.302C154.07 56.4687 153.11 56.6962 152.283 57.3021C151.547 57.8404 151.171 58.5814 151.135 59.4733C151.099 60.363 151.833 61.3924 152.724 61.6807H152.72ZM153.119 58.2616C153.768 57.8066 154.516 57.6422 155.275 57.516C155.886 57.4124 156.506 57.3494 157.111 57.2165C157.433 57.1444 157.523 57.2232 157.491 57.5273C157.482 57.6264 157.491 57.73 157.491 57.8314C157.603 59.3157 156.405 60.4171 154.986 60.5657C154.384 60.6288 153.813 60.6266 153.266 60.3518C152.456 59.9418 152.375 58.7864 153.119 58.2638V58.2616Z" fill="#001514"/>
<path d="M127.06 61.7121C128.366 62.1896 129.651 62.0545 130.882 61.4644C131.536 61.1513 132.065 60.6715 132.34 59.9575C132.418 59.7548 132.356 59.64 132.21 59.5251C131.964 59.3336 131.297 59.3314 131.075 59.5589C130.502 60.1467 129.85 60.4936 129.008 60.5882C127.365 60.7729 125.864 59.8945 125.815 57.9462C125.809 57.7074 125.889 57.6398 126.122 57.6421C127.127 57.6534 128.135 57.6466 129.14 57.6466C130.114 57.6466 131.086 57.6466 132.06 57.6466C132.535 57.6466 132.653 57.5205 132.667 57.0565C132.682 56.5047 132.656 55.9596 132.528 55.4235C132.284 54.4032 131.811 53.5248 130.94 52.8986C129.911 52.1576 128.753 52.0269 127.562 52.2747C126.709 52.4526 125.974 52.8941 125.426 53.6149C124.828 54.4009 124.492 55.2704 124.398 56.2614C124.275 57.5768 124.409 58.8314 125.079 59.9868C125.54 60.7864 126.189 61.3878 127.06 61.7076V61.7121ZM125.817 55.9979C125.929 54.7411 126.662 53.8288 127.989 53.6014C128.872 53.4482 129.707 53.5811 130.405 54.1644C131.008 54.669 131.236 55.3605 131.185 56.1465C131.171 56.3402 131.023 56.2997 130.911 56.2997C130.108 56.3019 129.304 56.2997 128.498 56.2997C127.705 56.2997 126.91 56.2929 126.118 56.3042C125.882 56.3087 125.795 56.2321 125.817 55.9979Z" fill="#001514"/>
<path d="M167.836 54.1804C168.44 54.7142 168.613 55.426 168.624 56.1782C168.646 57.854 168.631 59.5298 168.633 61.2033C168.633 61.6808 168.828 61.8339 169.407 61.8339C169.92 61.8339 170.106 61.6695 170.108 61.2033C170.108 59.4262 170.137 57.649 170.097 55.8742C170.075 54.9124 169.739 54.0317 169.058 53.3245C168.241 52.4754 167.224 52.1488 166.067 52.1803C165.117 52.2073 164.309 52.5204 163.664 53.2321C163.581 53.3222 163.496 53.4349 163.355 53.3831C163.212 53.3313 163.272 53.1894 163.27 53.088C163.266 52.8515 163.308 52.5835 163.073 52.4461C162.76 52.2636 162.417 52.2591 162.079 52.41C161.783 52.5429 161.792 52.8087 161.792 53.0655C161.79 54.4034 161.792 55.7413 161.792 57.0792C161.792 58.4171 161.792 59.7775 161.792 61.1267C161.792 61.6808 161.958 61.8317 162.558 61.8339C163.1 61.8339 163.268 61.6718 163.268 61.1447C163.268 60.3136 163.254 59.4802 163.272 58.6491C163.29 57.6851 163.207 56.7211 163.333 55.757C163.454 54.8133 163.893 54.1083 164.791 53.7592C165.435 53.5092 166.105 53.4799 166.786 53.6421C167.186 53.7367 167.533 53.9079 167.842 54.1804H167.836Z" fill="#001514"/>
<path d="M142.787 55.8854C143.181 53.5204 145.472 53.106 147.111 53.9393C147.534 54.1533 147.818 54.5385 148.02 54.9844C148.244 55.4777 148.75 55.6602 149.24 55.4529C149.442 55.3673 149.536 55.2097 149.489 54.9957C149.368 54.4394 149.128 53.9348 148.725 53.5272C147.525 52.3131 146.058 51.937 144.433 52.2884C143 52.5992 142.064 53.5159 141.565 54.9124C141.132 56.1196 141.141 57.3494 141.341 58.5747C141.506 59.595 141.979 60.5118 142.827 61.1244C144.352 62.2236 145.994 62.2731 147.653 61.4375C148.575 60.9735 149.24 60.2595 149.475 59.2054C149.527 58.9711 149.469 58.809 149.256 58.7076C148.797 58.4914 148.262 58.6738 148.038 59.1198C147.998 59.2009 147.959 59.282 147.917 59.3608C147.646 59.8766 147.241 60.237 146.688 60.4262C146.432 60.514 146.168 60.5365 145.906 60.5771C144.702 60.7663 143.506 60.2009 143.007 58.9982C142.751 58.3833 142.695 57.7436 142.736 57.0882C142.756 56.6872 142.724 56.2886 142.792 55.8831L142.787 55.8854Z" fill="#001514"/>
<path d="M178.089 60.9036C178.055 60.5973 177.853 60.4239 177.513 60.4193C177.166 60.4148 176.819 60.4239 176.474 60.4171C175.585 60.3991 175.073 59.872 175.073 58.9756C175.073 57.3561 175.081 55.7367 175.064 54.1172C175.059 53.7929 175.167 53.7231 175.462 53.7321C176.087 53.7523 176.714 53.7366 177.341 53.7388C177.477 53.7388 177.596 53.7253 177.708 53.6217C178.01 53.3424 177.907 52.991 177.849 52.678C177.793 52.3739 177.506 52.3243 177.238 52.3243C176.633 52.3198 176.029 52.3108 175.426 52.3288C175.155 52.3379 175.057 52.2658 175.064 51.9775C175.081 51.1238 175.073 50.2679 175.068 49.4143C175.068 49.0111 174.873 48.8242 174.47 48.8174C174.369 48.8174 174.269 48.8152 174.168 48.8174C173.79 48.8287 173.595 49.0246 173.595 49.3963C173.595 50.2612 173.584 51.1283 173.601 51.9932C173.606 52.268 173.516 52.3446 173.257 52.3288C172.945 52.3086 172.63 52.3176 172.318 52.3288C172.045 52.3379 171.81 52.4257 171.73 52.7275C171.629 53.1059 171.741 53.5316 171.969 53.6893C172.061 53.7523 172.159 53.7433 172.258 53.7433C172.605 53.7433 172.952 53.7568 173.297 53.7388C173.537 53.7276 173.604 53.8132 173.599 54.0474C173.588 54.8785 173.595 55.7119 173.595 56.7435C173.644 57.5521 173.498 58.5679 173.666 59.5702C173.81 60.4261 174.184 61.1334 175.021 61.514C175.865 61.8969 176.759 61.8744 177.645 61.8113C178.039 61.7843 178.153 61.4825 178.089 60.9104V60.9036Z" fill="#001514"/>
<path d="M139.619 53.7366C139.74 53.7321 139.859 53.7456 139.964 53.651C140.165 53.4708 140.264 52.9933 140.15 52.6757C140.044 52.3806 139.798 52.3243 139.529 52.3221C139.14 52.3176 138.752 52.3288 138.365 52.3806C137.886 52.446 137.46 52.6036 137.111 52.9415C136.999 53.0518 136.892 53.1645 136.778 53.2748C136.715 53.3356 136.657 53.4235 136.551 53.3762C136.46 53.3356 136.495 53.241 136.489 53.1667C136.484 53.1104 136.489 53.0541 136.489 52.9978C136.486 52.482 136.312 52.3221 135.763 52.3198C135.188 52.3198 135.013 52.4775 135.013 53.0068C135.013 54.356 135.013 55.7029 135.013 57.052C135.013 58.4012 135.013 59.7707 135.013 61.1311C135.013 61.6762 135.177 61.8316 135.745 61.8316C136.323 61.8316 136.489 61.6807 136.489 61.1423C136.489 59.4238 136.493 57.703 136.486 55.9844C136.486 55.7141 136.513 55.4484 136.563 55.1848C136.704 54.4483 137.317 53.9077 138.052 53.7929C138.576 53.7095 139.097 53.7546 139.619 53.7343V53.7366Z" fill="#001514"/>
<path d="M180.769 52.3198C180.216 52.3198 180.037 52.482 180.037 52.991C180.037 54.3492 180.037 55.7096 180.037 57.0678C180.037 58.426 180.037 59.8089 180.037 61.1784C180.037 61.6717 180.216 61.8361 180.744 61.8361C181.333 61.8361 181.512 61.6829 181.512 61.1694C181.512 58.4395 181.512 55.7119 181.512 52.982C181.512 52.482 181.329 52.3221 180.769 52.3221V52.3198Z" fill="#001514"/>
<path d="M179.835 49.9976C179.835 50.5314 180.001 50.6845 180.538 50.7026C181.799 50.7408 181.743 50.5742 181.702 49.3241C181.691 48.966 181.487 48.8196 181.122 48.8128C180.865 48.8083 180.607 48.8038 180.352 48.8128C180.048 48.8263 179.857 49.0178 179.837 49.3219C179.828 49.457 179.837 49.5921 179.837 49.7273C179.837 49.8174 179.837 49.9075 179.837 49.9976H179.835Z" fill="#001514"/>
<g clip-path="url(#clip4_29_3005)">
<path d="M210.942 88.834V94.2784C214.276 91.8284 218.698 93.227 219.585 97.391C220.539 101.871 216.38 105.59 212.11 103.666C211.862 103.554 210.969 102.918 210.898 102.916C210.518 102.906 209.216 103.843 208.695 103.853V88.834H210.942ZM213.539 95.2396C210.127 95.769 209.954 101.81 214.091 102.061C218.673 102.338 218.729 94.4342 213.539 95.2396Z" fill="#001514"/>
<path d="M230.692 103.853C230.543 104.012 228.802 102.973 228.496 103.005C228.372 103.018 227.688 103.543 227.452 103.654C224.689 104.95 220.772 103.756 221.262 100.169C221.504 98.4009 223.461 97.282 225.123 97.282H228.445C228.383 95.6403 227.239 95.0188 225.692 95.2244C225.184 95.292 224.357 95.7031 224.1 96.1622C223.976 96.3818 223.986 96.8117 223.952 96.8117H221.705C221.976 92.3558 229.407 91.6086 230.532 95.8918C230.564 96.0129 230.691 96.516 230.691 96.5771V103.852L230.692 103.853ZM228.445 99.2533H225.123C225.092 99.2533 224.585 99.3687 224.512 99.3922C223.11 99.8409 223.041 101.512 224.438 102.005C226.279 102.655 228.504 101.289 228.445 99.2533Z" fill="#001514"/>
<path d="M129.787 103.853C129.65 103.996 127.917 102.972 127.591 103.005C127.451 103.019 127.01 103.416 126.793 103.526C124.71 104.584 121.23 104.419 120.476 101.786C119.722 99.153 121.757 97.2831 124.218 97.2831H127.541C127.766 94.7618 123.854 94.5506 123.093 96.4402C123.043 96.5622 123.067 96.8138 123.048 96.8138H120.801C121.147 93.6345 124.587 92.3794 127.352 93.3885C128.492 93.8044 129.787 95.2227 129.787 96.4852V103.854V103.853ZM127.541 99.2534H124.218C124.156 99.2534 123.599 99.4205 123.49 99.4618C122.16 99.9743 122.285 101.591 123.611 102.022C125.445 102.617 127.659 101.297 127.541 99.2534H127.541Z" fill="#001514"/>
<path d="M201.005 93.0804C208.187 92.8983 208.687 103.52 201.721 104.133C194.042 104.808 193.517 93.271 201.005 93.0804ZM200.53 95.2413C196.544 95.8176 197.065 102.31 201.345 102.069C205.934 101.811 205.457 94.5288 200.53 95.2413Z" fill="#001514"/>
<path d="M186.324 96.531H184.078C184.05 96.531 183.977 96.1715 183.874 96.0307C183.279 95.2075 182.193 94.9982 181.231 95.1315C180.095 95.2892 179.472 96.6193 180.707 97.1412C182.501 97.8987 186.03 97.5711 186.393 100.263C187.085 105.4 177.438 105.465 177.337 100.474H179.537C180.016 101.879 181.712 102.406 183.049 102.024C183.777 101.816 184.555 101.118 183.939 100.377C182.882 99.1058 178.201 99.8728 177.814 97.0389C177.104 91.8432 185.79 91.7822 186.323 96.531H186.324Z" fill="#001514"/>
<path d="M142.33 103.853H140.083V97.3289C140.083 97.2275 139.829 96.577 139.759 96.4334C138.997 94.8883 136.719 94.8714 135.635 96.0598C135.272 96.4569 134.748 97.6546 134.748 98.1737V103.853H132.501V93.3395L134.704 94.2763C136.863 92.5219 140.524 92.5294 141.851 95.2751C141.956 95.4947 142.33 96.4972 142.33 96.6718V103.853Z" fill="#001514"/>
<path d="M110.037 93.9028C110.05 93.9469 110.086 93.9873 110.13 93.9967C110.183 94.007 110.257 93.9948 110.318 93.9967C110.379 93.9986 110.442 93.9958 110.505 93.9967C110.706 95.4413 113.608 95.5774 114.757 95.8806C116.634 96.3753 118.554 97.0502 118.74 99.3012C119.289 105.905 107.701 105.616 107.603 99.4401H110.037C110.157 101.767 113.48 102.481 115.279 101.646C116.373 101.137 116.912 99.5115 115.887 98.6901C115.045 98.0152 112.445 97.7918 111.254 97.4229C109.438 96.8597 108.222 96.0674 108.072 93.9967C108.132 93.9995 108.159 93.9047 108.166 93.9028C108.307 93.8596 109.82 93.8709 110.038 93.9028H110.037Z" fill="#001514"/>
<path d="M79.8828 91.7296C79.6927 91.8497 78.3675 91.3795 78.3122 91.2143C78.2017 90.8885 79.2319 89.3716 79.4838 89.029C84.6947 81.9363 95.6053 82.4347 100.153 89.9677C100.33 90.2606 100.776 90.9214 100.775 91.2274C100.775 91.3851 100.21 92.7621 100.103 92.9048C100.011 93.025 99.9705 93.0991 99.7954 93.0513C99.4517 92.5284 99.2775 91.9042 98.9722 91.3391C95.0462 84.0802 85.0066 83.8493 80.455 90.6614C80.3267 90.8529 79.9334 91.6977 79.8828 91.7296Z" fill="#001514"/>
<path d="M151.036 93.9025C151.076 93.9081 151.203 94.0433 151.316 93.9964C150.549 95.2279 150.36 97.2254 150.805 98.5922C152.147 102.715 158.578 103.129 160.022 98.8775H162.268C161.897 101.208 159.744 103.307 157.495 103.9C152.185 105.3 147.728 101.208 148.239 95.839C148.267 95.5452 148.546 94.2489 148.688 94.0583C148.838 93.8565 150.707 93.8556 151.036 93.9034V93.9025Z" fill="#001514"/>
<path d="M190.91 90.1479V93.3395H194.655L193.719 95.4985H190.911V100.708C190.911 100.859 191.194 101.475 191.331 101.602C192.252 102.462 193.549 101.588 194.374 101.037V103.477C192.667 104.618 189.932 104.33 189.021 102.322C188.956 102.178 188.664 101.358 188.664 101.271V90.1479H190.911H190.91Z" fill="#001514"/>
<path d="M232.799 88.7402H234.858C234.868 88.7402 234.999 88.8707 234.999 88.881V103.806C234.999 103.816 234.868 103.947 234.858 103.947H232.799C232.788 103.947 232.658 103.816 232.658 103.806V88.881C232.658 88.8557 232.768 88.7881 232.799 88.7402Z" fill="#001514"/>
<path d="M164.421 93.3395L166.624 94.2763C167.989 93.2353 169.649 92.7641 171.338 93.255C171.405 93.3339 171.271 95.23 171.213 95.3154C171.095 95.49 169.881 95.1981 169.525 95.2169C167.864 95.307 166.668 96.8258 166.668 98.4544V103.852H164.421V93.3386V93.3395Z" fill="#001514"/>
<path d="M151.036 93.903C151.339 93.9283 151.198 93.8513 151.108 93.6899C151.008 93.5087 150.87 93.3538 150.802 93.152C150.25 91.5178 151.806 90.3529 153.168 89.8948C156.941 88.6257 161.523 90.6579 162.268 94.7487H160.021C159.174 91.9101 155.408 91.0118 152.997 92.4461C152.534 92.7212 151.593 93.5519 151.315 93.9978C151.201 94.0447 151.074 93.9095 151.034 93.9039L151.036 93.903Z" fill="#001514"/>
<path d="M175.278 93.3394H173.032V103.853H175.278V93.3394Z" fill="#001514"/>
<path d="M110.318 93.9964C110.217 93.6791 109.826 93.5318 109.622 93.2398C108.33 91.3963 110.363 89.8747 112.076 89.6109C115.266 89.12 118.191 90.7073 118.556 94.0903H116.215C116.122 91.0274 110.058 90.7899 110.505 93.9964C110.442 93.9955 110.381 93.9983 110.318 93.9964Z" fill="#001514"/>
<path d="M204.39 88.834C204.421 88.9936 204.31 89.0818 204.239 89.1991C203.691 90.1115 202.694 91.0174 202.096 91.9316H199.709L201.441 88.834H204.389H204.39Z" fill="#001514"/>
<path d="M173.032 91.8376V89.7725H175.232C175.242 89.7725 175.372 89.9029 175.372 89.9133V91.6968C175.372 91.7071 175.242 91.8376 175.232 91.8376H173.032Z" fill="#001514"/>
<path d="M108.071 93.9967L108.165 93.9028C108.158 93.9047 108.131 93.9995 108.071 93.9967Z" fill="#001514"/>
<path d="M79.5686 93.4335C79.9189 93.5048 80.463 94.0746 80.9022 94.2558C83.3119 95.2508 84.9153 93.2523 87.2913 93.2448C86.735 92.8478 86.3266 92.5352 86.2695 91.7823C86.2611 91.6735 86.2629 90.7385 86.2789 90.685C86.3416 90.471 86.6741 90.3865 86.7275 90.0993C86.8417 89.4929 86.7012 88.9419 86.7247 88.4153C86.7912 86.9284 88.9171 86.5004 90.1009 86.8139C92.1893 87.3658 92.3841 89.0855 92.445 90.9441C92.4637 91.5139 92.2661 91.8678 91.8157 92.1972C91.6939 92.2864 91.339 92.3869 91.324 92.4094C91.2978 92.4479 91.6124 92.9106 90.7546 92.7774C90.6516 92.8722 91.176 94.1037 91.4382 94.0793C91.5684 94.0671 92.0732 93.8118 92.3401 93.7573C93.6897 93.4795 95.101 93.8212 96.1331 94.7514C96.7372 95.2958 97.7224 96.7686 97.2869 97.5928C97.1811 97.7937 96.9338 97.8397 96.9245 97.9073C96.9095 98.0115 97.0256 98.2687 97.0303 98.4536C97.0481 99.2402 97.0368 99.8072 96.6351 100.506C96.4206 100.88 95.8053 101.355 95.691 101.627C95.5674 101.921 95.7379 102.119 95.6742 102.259C95.5215 102.59 94.7845 102.43 94.4998 102.354L94.5925 102.728C94.1851 102.797 93.8433 102.601 93.4715 102.494C93.5792 102.843 93.8826 103.548 94.2188 103.72C94.4455 103.836 94.8322 103.11 95.1235 102.933C95.4148 102.756 95.8362 102.768 95.9879 102.58L99.4587 94.3271C99.7706 93.8681 100.402 94.1657 100.665 94.5365L96.8383 104.044C96.7643 104.102 96.1059 103.271 95.9299 103.217C95.6629 103.137 95.1731 103.269 95.0617 103.529C94.9502 103.789 95.4148 103.559 95.5524 103.587C95.9289 103.663 96.1921 104.067 96.3691 104.374C95.8231 104.156 95.3464 103.623 94.8734 104.325C95.1235 104.141 96.179 104.808 95.9964 104.982C95.7013 104.869 94.8519 104.498 94.6974 104.947C94.5429 105.397 94.8341 105.21 95.0851 105.284C95.2368 105.329 95.8662 105.708 95.574 105.736C95.22 105.77 94.4389 105.338 94.5887 105.956C94.6075 106.033 95.2012 106.242 95.3352 106.352C95.4981 106.485 95.8624 106.931 95.766 107.141C95.5178 107.682 93.5323 108.353 92.9283 108.525C85.5081 110.627 77.9091 105.577 77.0896 97.8904C77.0634 97.6435 76.9669 96.2599 77.009 96.1228C77.04 96.0224 77.098 95.9698 77.2113 95.9811C77.3153 95.9914 78.6433 96.5265 78.6864 96.594C78.8044 97.4689 78.8615 98.3175 79.0807 99.1801C79.4927 100.806 80.4105 102.52 81.5334 103.761C81.6917 103.936 82.8465 105.053 82.9401 105.073C83.1986 105.13 83.2745 104.051 83.2745 103.807C83.2763 102.522 82.3894 101.611 83.4533 100.334C83.5807 100.181 83.8617 100.072 83.9057 99.9433C83.9965 99.6786 83.8954 99.0149 83.9328 98.6563C84.0022 97.9824 84.3908 97.4689 84.3889 96.8146H83.0319C81.7563 96.8146 80.9341 95.8074 79.991 95.4526C79.7456 95.3606 78.4588 95.1888 78.412 95.1128C78.3773 95.0574 78.3773 94.8152 78.412 94.7617C78.4925 94.636 79.2305 94.7214 79.1481 94.375C78.8578 94.3271 78.5721 94.697 78.3024 94.5186C78.1413 94.4116 78.3399 94.2126 78.2649 94.0943C78.1975 93.9873 77.9933 94.0277 77.9287 93.762C77.8885 93.5996 78.0036 93.4363 78.1657 93.4363C78.5459 93.4363 79.2474 93.3706 79.5695 93.4363L79.5686 93.4335ZM88.2269 89.0226C87.8644 89.0968 87.6949 88.8039 87.3859 88.741C87.3568 88.9522 86.9476 89.6206 87.103 89.7736C87.1377 89.8083 87.9112 89.6609 87.8522 90.149C87.5001 90.089 86.6975 90.5527 86.646 90.8662C86.6067 91.1084 87.1227 91.4341 86.9906 91.6369C86.9653 91.6763 86.7649 91.6866 86.7368 91.7983C86.5879 92.384 87.8157 92.9698 88.3196 92.5906C88.3805 92.8008 88.1473 92.9416 88.1388 93.104C88.1313 93.258 88.3458 93.7386 88.3889 93.9761C88.4263 94.1769 88.3196 94.8209 88.5518 94.7486C89.3086 94.5139 89.9978 93.3124 90.1055 92.5539C89.6392 92.3484 88.8609 91.7683 88.786 91.2304C88.7466 90.9507 89.287 91.1863 89.5127 90.9713C89.8293 90.6691 89.7347 89.9913 89.1568 90.1894C88.8113 90.3086 88.8909 90.8127 88.3421 90.5499C87.6696 90.2279 88.2868 89.0808 88.2259 89.0245L88.2269 89.0226ZM87.7586 93.809C84.7823 94.0765 83.2454 96.1228 80.2392 94.451C79.902 94.2633 79.578 93.7142 79.0526 93.9498C79.7259 94.2088 79.6763 94.2333 79.5218 94.9354C80.1455 94.8744 80.6634 95.3785 81.2366 95.6103C82.0523 95.9398 83.1874 96.2045 84.0658 96.1594C85.3564 96.0947 86.484 95.2583 87.7474 95.0171L87.7595 93.809H87.7586ZM90.4717 93.9038C90.3144 93.7695 90.3078 93.962 90.2648 94.0258C89.0295 95.8253 88.2812 95.4348 86.5177 96.1782C85.0445 96.7996 84.3318 98.2424 84.3889 99.8175C85.0071 99.9386 84.9349 99.5237 85.1925 99.1679C85.4763 98.7765 85.7937 98.2461 86.3613 98.4489C86.8296 99.6748 87.222 100.87 87.1011 102.209C86.9644 103.736 86.0194 105.205 85.702 106.665C86.5064 106.809 87.2885 107.209 88.1229 107.128C88.2503 106.61 88.3936 106.09 88.4797 105.562C88.8225 103.472 88.3158 101.328 88.7738 99.3801C88.8365 99.1144 89.0491 98.8413 89.0679 98.6347C89.0894 98.4076 88.963 98.1588 88.9667 97.8932C88.9855 96.6222 89.6373 95.5024 90.5223 94.6528C90.586 94.5909 90.733 94.5702 90.7461 94.5515C90.777 94.5083 90.497 93.9272 90.4699 93.9047L90.4717 93.9038ZM93.4696 95.4038C92.8018 95.1992 92.4563 95.7004 92.017 95.8722C91.7407 95.9811 92.017 95.3925 91.7389 95.4986C91.4607 95.6047 91.0739 96.0956 90.851 96.3021C90.8051 96.5086 91.5665 96.6776 91.5019 97.3187C91.4626 97.7111 90.6356 98.6272 90.6609 98.7343C90.9288 98.9276 91.2285 98.9924 91.4963 99.213C91.7941 99.458 91.8747 99.7997 92.3214 99.8888C93.0594 100.035 94.4005 99.5462 94.5709 98.7145C94.8332 97.4407 94.0708 97.4661 93.6681 96.5649C93.4911 96.1688 93.4237 95.8431 93.4696 95.4029V95.4038ZM89.819 98.8769C90.4455 98.8047 91.1826 96.9001 90.1655 97.2051C89.7731 97.3225 89.9145 98.4893 89.819 98.8769ZM85.1382 101.411C85.0567 101.312 86.0007 99.3463 85.9342 98.9736C85.4763 99.4974 85.1045 100.089 84.7242 100.669C84.6034 100.853 84.152 101.743 84.1061 101.787C84.0537 101.838 83.8973 101.843 83.9347 101.663C84.0012 101.341 84.92 99.9161 84.1033 100.516C82.9261 101.38 83.6453 102.716 83.7362 103.802C83.7858 104.395 83.6884 104.987 83.6341 105.574C83.9825 105.734 84.5322 106.209 84.905 106.207C85.0717 106.206 85.0155 106.173 85.0698 106.082C85.3227 105.656 86.749 102.572 86.5383 102.354L86.2601 102.305C86.4521 102.002 86.6638 101.621 86.6947 101.258C86.7012 101.185 86.6797 100.745 86.542 100.756C86.5645 100.934 85.8874 102.176 85.6992 101.976C85.9398 101.3 86.4446 100.418 86.3566 99.6767C86.2948 99.1595 86.1309 99.8062 86.0934 99.8804C85.864 100.335 85.6495 100.8 85.3686 101.226C85.3386 101.272 85.2852 101.593 85.1372 101.412L85.1382 101.411ZM91.6911 100.943C91.9309 99.7771 89.7394 98.7493 89.538 100.191C89.8349 100.268 89.6766 99.9611 89.8124 99.855C89.9885 99.7171 90.9391 100.123 90.9082 100.426C90.895 100.552 90.6394 100.607 90.8482 100.801C91.0571 100.996 91.4307 100.942 91.6911 100.943ZM92.2512 102.351C91.2612 102.741 90.2582 102.542 89.4444 101.882C89.3657 101.99 89.5371 103.874 89.6551 104.016C89.7103 104.084 90.3781 104.357 90.5598 104.471C91.1704 104.854 91.7126 105.315 92.298 105.731C92.3954 105.731 92.7522 104.576 92.6127 104.428C92.5808 104.395 92.3944 104.428 92.3008 104.323C92.0339 104.027 92.1715 102.766 92.2521 102.351H92.2512ZM86.5889 102.163V102.257C86.6497 102.226 86.6497 102.194 86.5889 102.163Z" fill="#001514"/>
<path d="M110.13 93.9967C110.086 93.9873 110.05 93.947 110.036 93.9028C110.081 93.9094 110.12 93.9516 110.13 93.9967Z" fill="#001514"/>
<path d="M92.0744 97.4793C92.3263 97.117 93.7677 97.7844 93.6525 98.3523C93.4736 98.6743 93.2741 98.3871 93.1046 98.3664C92.9351 98.3458 92.8386 98.434 92.6335 98.3617C92.3825 98.2735 91.8927 97.7384 92.0744 97.4793Z" fill="#001514"/>
</g>
</g>
<defs>
<clipPath id="clip0_29_3005">
<rect width="312" height="109" fill="white"/>
</clipPath>
<clipPath id="clip1_29_3005">
<rect width="82" height="26" fill="white" transform="translate(25)"/>
</clipPath>
<clipPath id="clip2_29_3005">
<rect width="160" height="26" fill="white" transform="translate(127)"/>
</clipPath>
<clipPath id="clip3_29_3005">
<rect width="57" height="32" fill="white" transform="translate(30 39)"/>
</clipPath>
<clipPath id="clip4_29_3005">
<rect width="158" height="25" fill="white" transform="translate(77 84)"/>
</clipPath>
</defs>
</svg>
