<svg width="567" height="78" viewBox="0 0 567 78" fill="none" xmlns="http://www.w3.org/2000/svg">
<g opacity="0.5">
<g clip-path="url(#clip0_29_2789)">
<path d="M24.684 51.6367C23.6197 51.2213 22.5412 50.8762 21.6967 50.0021C20.2682 48.5308 19.9263 46.7619 20.1034 44.8174C20.1481 44.3214 20.3984 43.9433 20.842 43.6622C23.4203 42.0318 25.9782 40.3704 28.5606 38.7462C29.5882 38.0994 30.1641 38.43 30.1702 39.6492C30.1845 43.0258 30.158 46.4023 30.1865 49.7789C30.1906 50.2811 30.0542 50.6758 29.8121 51.0064C29.5251 51.399 29.0917 51.6594 28.6257 51.7834C28.0213 51.9446 27.651 52.0003 27.1117 52.0003C26.3018 52.0003 25.6018 51.9466 24.684 51.6367Z" fill="#001514"/>
<path d="M102 43.4482C101.697 43.4586 101.391 43.4627 101.088 43.4772C100.75 43.4937 100.47 43.3924 100.39 43.0308C100.248 42.3799 100.026 42.6692 99.7614 42.9461C99.3097 43.4172 98.7114 43.5598 98.0969 43.5929C97.0652 43.6466 96.3143 43.099 96.1148 42.2063C95.8767 41.1442 96.2858 40.3238 97.2931 39.894C97.9198 39.6274 98.5914 39.5447 99.2629 39.4538C99.5335 39.4187 99.9405 39.4579 99.9161 38.9971C99.8978 38.6438 99.6251 38.4557 99.3158 38.3896C98.6015 38.2387 97.8852 38.2408 97.2809 38.7181C96.8311 39.0736 96.6236 38.8483 96.4506 38.4536C96.2797 38.0589 95.7872 37.6498 96.4954 37.2758C97.8588 36.5525 99.2568 36.4285 100.693 37.0195C101.455 37.3316 101.758 38.0176 101.996 38.7409V43.4482H102ZM98.6748 42.0864C99.4257 42.072 99.9466 41.6236 99.9649 41.0718C99.9792 40.6399 99.7248 40.5841 99.3748 40.5965C98.5995 40.6255 97.9707 41.0532 98.0419 41.545C98.1009 41.9583 98.4062 42.0761 98.6748 42.0864Z" fill="#001514"/>
<path d="M58.5725 51.6349C58.487 51.5853 58.4056 51.5171 58.314 51.4902C58.0902 51.4241 57.8134 51.42 57.8928 51.0604C57.9681 50.7174 58.1716 50.6761 58.4992 50.7277C59.0588 50.8166 59.6164 51.0459 60.1964 50.8455C60.41 50.7711 60.7193 50.767 60.6827 50.4467C60.6542 50.1966 60.3815 50.2152 60.1902 50.1904C59.7548 50.1367 59.3112 50.1388 58.8818 50.052C58.194 49.9156 58.0129 49.6201 58.2998 48.9795C58.4402 48.6675 58.3893 48.5001 58.2306 48.2604C57.5408 47.2251 58.369 46.0431 59.5085 46.0472C59.8117 46.0472 60.1312 46.0162 60.4121 46.103C60.7844 46.2187 61.1141 46.2849 61.4682 46.0638C61.6147 45.9708 61.808 45.9749 61.9098 46.1567C61.9952 46.3097 62.0278 46.5514 61.8915 46.632C61.4397 46.8965 61.5638 47.2809 61.5516 47.6859C61.5292 48.4071 60.8984 48.8514 59.9562 48.9506C59.6835 48.9795 59.1768 48.7336 59.1789 49.1076C59.1809 49.5581 59.7141 49.3081 60.0112 49.3577C60.3408 49.4135 60.6827 49.3845 61.0103 49.492C61.4194 49.6284 61.751 49.8433 61.8243 50.3041C61.9057 50.8083 61.6676 51.1513 61.2321 51.3786C61.0856 51.4551 60.9493 51.5481 60.8089 51.6328H58.5765L58.5725 51.6349ZM60.5443 47.4731C60.5342 47.035 60.2086 46.7374 59.7609 46.7601C59.3213 46.7808 59.0018 47.1156 59.0364 47.5392C59.071 47.9917 59.358 48.1674 59.7751 48.1798C60.2635 48.1943 60.5545 47.9256 60.5443 47.4751V47.4731Z" fill="#001514"/>
<path d="M20.011 34.1383C20.011 32.1607 20.0395 30.1831 20.0008 28.2056C19.9764 26.9037 20.5055 25.9717 22.225 26.0007C25.9103 26.0626 29.5956 25.9697 33.2808 26.0358C36.5998 26.0957 39.4874 27.2777 41.3921 30.1149C43.6773 33.5163 43.7954 37.1719 41.7971 40.7406C40.2363 43.5262 37.6234 44.6999 34.5221 44.8466C34.0846 44.8673 33.641 44.8735 33.2035 44.8342C32.2756 44.7516 31.9418 44.4023 31.9296 43.4683C31.9093 41.8999 31.9195 40.3314 31.9235 38.763C31.9256 37.8145 31.8543 36.8929 30.9081 36.3701C29.9537 35.8452 29.1438 36.3143 28.3583 36.8123C26.2114 38.172 24.0707 39.5379 21.9259 40.9018C21.7264 41.0299 21.5311 41.1684 21.3194 41.2717C20.6052 41.6188 20.1148 41.3626 20.0273 40.5794C19.9866 40.2095 20.011 39.8293 20.011 39.4553C20.011 37.6823 20.011 35.9093 20.011 34.1362V34.1383Z" fill="#001514"/>
<path d="M49.6028 39.412C49.6028 38.2899 49.6273 37.1678 49.5927 36.0457C49.5764 35.5064 49.79 35.3018 50.2927 35.3122C51.5035 35.337 52.7204 35.2192 53.9251 35.4258C55.3414 35.6697 56.1228 36.6285 56.1452 38.1432C56.1655 39.5628 55.3943 40.5382 54.0085 40.8192C53.4468 40.9329 52.8771 40.999 52.3012 40.9783C51.886 40.9618 51.6683 41.1457 51.6886 41.5817C51.6968 41.7512 51.6886 41.9206 51.6846 42.0922C51.6724 43.5345 51.595 43.5862 50.2133 43.487C49.7107 43.4498 49.5927 43.2204 49.5988 42.7762C49.613 41.6541 49.6028 40.532 49.6028 39.4099H49.6008L49.6028 39.412ZM51.6785 38.1969C51.6785 39.2653 51.6968 39.2901 52.4945 39.2859C53.5323 39.2797 54.0614 38.8809 54.039 38.1184C54.0166 37.3972 53.6137 37.1141 52.6084 37.112C51.6886 37.112 51.6805 37.1224 51.6785 38.1948V38.1969Z" fill="#001514"/>
<path d="M68.3949 40.0674C68.3949 42.9459 66.0323 44.4544 63.5049 43.291C63.0002 43.0575 62.581 42.7207 62.3267 42.2206C61.6368 40.865 61.6165 39.4888 62.2473 38.1063C62.3022 37.9844 62.3857 37.8728 62.4671 37.7654C63.2119 36.7838 64.8256 36.3664 66.2622 36.7797C67.5361 37.1454 68.2504 38.0505 68.3664 39.4516C68.3867 39.6892 68.3887 39.9269 68.3949 40.0674ZM66.4189 40.0901C66.3599 39.7698 66.3192 39.4661 66.248 39.1706C66.1259 38.6539 65.8145 38.3481 65.2631 38.315C64.7035 38.284 64.2578 38.4514 64.0564 39.0156C63.7837 39.7802 63.7938 40.5509 64.1154 41.2969C64.325 41.7846 64.7279 42.0078 65.2549 41.9561C65.7372 41.9086 66.0771 41.642 66.2114 41.175C66.3131 40.8196 66.3518 40.4435 66.4149 40.0901H66.4189Z" fill="#001514"/>
<path d="M79.2916 40.0336C79.2916 39.2153 79.2835 38.3969 79.2957 37.5807C79.2997 37.2521 79.2265 36.8285 79.6904 36.7624C80.1381 36.6983 80.6998 36.533 80.9033 37.1529C81.0946 37.7336 81.2431 37.5146 81.5524 37.2439C82.3603 36.5392 83.6403 36.44 84.4848 36.967C85.1115 37.3575 85.4066 37.9485 85.4168 38.6801C85.433 40.0418 85.4229 41.4057 85.4473 42.7675C85.4554 43.2965 85.2296 43.4701 84.7188 43.4866C83.5467 43.5279 83.4937 43.5052 83.4876 42.3645C83.4836 41.5813 83.4876 40.7982 83.4876 40.0129C83.4876 39.7753 83.4958 39.5335 83.4653 39.2979C83.4062 38.8288 83.2373 38.4445 82.692 38.3742C82.1303 38.3019 81.6867 38.5333 81.4527 39.0437C81.3062 39.3661 81.3225 39.7091 81.3204 40.048C81.3143 40.9676 81.3062 41.8872 81.3184 42.8088C81.3245 43.2841 81.1251 43.5011 80.655 43.4763C80.4535 43.4659 80.248 43.4597 80.0466 43.4804C79.4524 43.5424 79.2773 43.2324 79.2875 42.691C79.3058 41.8045 79.2916 40.9201 79.2916 40.0336Z" fill="#001514"/>
<path d="M72.0334 43.4807C70.9732 43.4807 70.9692 43.4807 70.6314 42.4536C70.1003 40.8356 69.5691 39.2196 69.0523 37.5975C68.8101 36.835 68.8671 36.7606 69.6017 36.7151C70.6924 36.6469 70.7616 36.6944 71.075 37.7773C71.3416 38.6927 71.598 39.6102 71.8605 40.5256C71.9175 40.7199 71.9866 40.9121 72.0518 41.1042C72.1189 40.9265 72.1983 40.7529 72.2532 40.5711C72.5422 39.5916 72.821 38.608 73.112 37.6305C73.3582 36.806 74.2291 36.4134 74.9943 36.7668C75.2914 36.9032 75.2385 37.1346 75.1632 37.3702C74.8783 38.2443 74.5893 39.1163 74.3024 39.9904C74.0379 40.8005 73.7672 41.6064 73.5128 42.4185C73.1181 43.6832 73.1201 43.4538 72.0334 43.4807Z" fill="#001514"/>
<path d="M89.8784 36.6533C90.3831 36.6244 90.9427 36.7236 91.4759 36.9674C92.1922 37.296 92.2308 37.391 91.9642 38.1205C91.7716 38.6467 91.4182 38.7969 90.904 38.571C90.0331 38.1887 89.2415 38.3416 88.8162 38.9781C88.3563 39.6683 88.4418 40.904 88.9892 41.4557C89.506 41.9785 90.2406 42.0488 91.1258 41.5322C91.5532 41.2821 91.6834 41.3896 91.8503 41.7781C92.2939 42.8051 92.2003 43.0428 91.1421 43.3941C89.3371 43.9933 87.4609 43.3341 86.8036 41.8153C86.3417 40.7469 86.3214 39.6228 86.7304 38.5317C87.1984 37.2836 88.2607 36.6595 89.8764 36.6533H89.8784Z" fill="#001514"/>
<path d="M57.1026 40.0864C57.1026 39.2371 57.0965 38.3857 57.1046 37.5364C57.1087 37.2099 57.0273 36.7904 57.5136 36.747C57.9613 36.7057 58.5331 36.5362 58.6939 37.1872C58.875 37.9166 59.0867 37.7058 59.3756 37.2739C59.4306 37.1913 59.5201 37.1314 59.5995 37.0694C60.1143 36.6623 60.8265 36.53 61.085 36.7904C61.2274 36.9351 61.2844 38.2452 61.1684 38.4849C61.0585 38.7101 60.857 38.6936 60.6556 38.7205C59.4061 38.8899 59.1172 39.1937 59.0622 40.4625C59.0297 41.2085 59.0582 41.9586 59.0358 42.7046C59.0114 43.4547 58.9707 43.4753 58.0834 43.4795C57.184 43.4836 57.1229 43.4526 57.1067 42.7356C57.0863 41.8532 57.1006 40.9688 57.1006 40.0843L57.1026 40.0864Z" fill="#001514"/>
<path d="M95.0617 40.1465C95.0617 40.9958 95.0516 41.8451 95.0658 42.6944C95.0739 43.2317 94.905 43.5479 94.3068 43.4838C94.0727 43.459 93.8347 43.4735 93.6006 43.4755C93.2282 43.4797 93.0451 43.302 93.0451 42.9217C93.0451 41.0537 93.0492 39.1835 93.041 37.3155C93.039 36.8691 93.271 36.7162 93.6698 36.7183C93.8713 36.7183 94.0748 36.7265 94.2762 36.7141C94.8318 36.679 95.076 36.9332 95.0678 37.4952C95.0515 38.3776 95.0638 39.2621 95.0638 40.1465H95.0617Z" fill="#001514"/>
<path d="M75.9656 40.0814C75.9656 39.199 75.9473 38.3166 75.9717 37.4363C75.99 36.7668 76.1019 36.7089 76.981 36.711C77.4775 36.711 77.9212 36.7027 77.911 37.428C77.8825 39.2259 77.8947 41.0237 77.9049 42.8194C77.9069 43.2947 77.7034 43.4579 77.2415 43.4869C76.0551 43.5571 75.9696 43.5013 75.9656 42.3193C75.9615 41.5733 75.9656 40.8273 75.9656 40.0814Z" fill="#001514"/>
<path d="M50.9375 50.5278C50.4959 50.443 50.0828 50.4947 49.7002 50.3211C49.4866 50.224 49.3665 50.0918 49.4642 49.852C49.5415 49.6619 49.6433 49.4698 49.8976 49.5214C50.1622 49.5751 50.4186 49.6743 50.6831 49.7095C51.2387 49.7839 51.7637 49.5131 51.8369 49.1226C51.9407 48.5605 51.5704 48.3373 51.1349 48.1638C50.8215 48.0398 50.5061 47.9158 50.2069 47.7608C49.6819 47.488 49.3991 47.0417 49.4255 46.4403C49.452 45.8266 49.8264 45.4505 50.3616 45.2294C51.086 44.9298 51.8146 45.0186 52.5349 45.2563C52.7974 45.3431 52.9378 45.4918 52.8076 45.7894C52.6977 46.0415 52.541 46.1779 52.2582 46.0663C51.9712 45.9506 51.6721 45.9155 51.3669 45.9196C51.0046 45.9237 50.6668 46.0188 50.561 46.4011C50.4491 46.8061 50.7442 47.0251 51.0596 47.1781C51.3017 47.2959 51.5622 47.3702 51.8125 47.4715C52.7486 47.8497 53.0559 48.3001 52.9541 49.1412C52.8727 49.821 52.3294 50.3211 51.493 50.474C51.2956 50.5092 51.0921 50.5154 50.9355 50.5298L50.9375 50.5278Z" fill="#001514"/>
<path d="M66.3332 48.2298C66.3332 48.7754 66.3556 49.3209 66.3271 49.8644C66.2966 50.4471 66.1236 50.5938 65.6536 50.319C65.3504 50.1434 65.1998 50.195 64.9495 50.3293C64.514 50.5628 64.0399 50.569 63.5698 50.4368C63.1465 50.319 62.8515 50.0586 62.7802 49.602C62.6215 48.5853 62.6724 47.5624 62.7009 46.5415C62.711 46.213 62.8922 46.0663 63.2279 46.0704C63.5861 46.0745 63.696 46.2708 63.698 46.587C63.7 47.302 63.698 48.0191 63.7102 48.734C63.7183 49.1825 63.7244 49.6598 64.3268 49.7342C64.8335 49.7962 65.2222 49.4222 65.271 48.7774C65.3158 48.1678 65.2832 47.552 65.3097 46.9383C65.3259 46.5519 65.2181 46.058 65.8672 46.0766C66.4655 46.0931 66.3231 46.556 66.3373 46.9011C66.3577 47.3433 66.3414 47.7876 66.3414 48.2298C66.3373 48.2298 66.3353 48.2298 66.3312 48.2298H66.3332Z" fill="#001514"/>
<path d="M70.2462 48.257C70.2625 48.0566 70.2665 47.8169 70.3011 47.5813C70.4517 46.5956 71.0317 46.0728 71.9983 46.0377C73.091 45.9984 73.6852 46.4179 73.9477 47.416C74.0434 47.7838 74.0454 48.1578 74.0271 48.5319C73.964 49.8069 73.3352 50.464 72.1672 50.4847C70.9747 50.5074 70.3601 49.8978 70.2686 48.6001C70.2604 48.4988 70.2543 48.3955 70.2441 48.257H70.2462ZM72.9811 48.2984C72.9567 47.9905 72.9628 47.7136 72.9099 47.449C72.8285 47.0461 72.6026 46.763 72.1509 46.7754C71.7215 46.7878 71.4631 47.0192 71.3878 47.447C71.2881 48.0235 71.286 48.6042 71.4183 49.1745C71.5038 49.5424 71.7459 49.7614 72.1427 49.7552C72.5335 49.749 72.7899 49.5362 72.8814 49.1745C72.9547 48.8811 72.9526 48.5691 72.9811 48.2984Z" fill="#001514"/>
<path d="M53.6585 48.0804C53.6727 47.9791 53.6788 47.634 53.7683 47.3117C54.0532 46.2867 54.8815 45.8362 55.9844 46.0739C56.8208 46.2536 57.4943 47.3117 57.3539 48.194C57.3051 48.4937 57.1341 48.5908 56.8696 48.5949C56.3975 48.6011 55.9254 48.5867 55.4533 48.6135C55.1867 48.628 54.7838 48.4751 54.7695 48.969C54.7594 49.3512 54.971 49.6261 55.3312 49.7211C55.6588 49.8079 56.0027 49.8017 56.3161 49.6302C56.66 49.4422 56.9205 49.5228 57.0059 49.9113C57.0955 50.3142 56.717 50.3473 56.4911 50.3907C54.8225 50.711 53.6381 50.3121 53.6585 48.0804ZM54.7675 47.51C54.7329 47.9295 55.0361 47.9399 55.2986 47.9089C55.6283 47.8696 56.08 48.1341 56.251 47.6402C56.3649 47.3137 55.9315 46.8137 55.5713 46.7806C55.1643 46.7434 54.798 47.074 54.7655 47.51H54.7675Z" fill="#001514"/>
<path d="M76.5933 46.0273C76.8151 46.0707 77.1183 46.1059 77.4073 46.1927C77.5884 46.2464 77.8224 46.3249 77.737 46.6059C77.6576 46.8663 77.4806 47.0151 77.1997 46.9159C76.9087 46.8126 76.6157 46.7485 76.3064 46.7754C76.0459 46.7981 75.8465 46.918 75.7936 47.1866C75.7488 47.4181 75.8953 47.5854 76.0805 47.6764C76.4122 47.8417 76.7602 47.9781 77.1041 48.1207C77.6291 48.3376 77.912 48.7137 77.8916 49.3006C77.8692 49.9102 77.4785 50.214 76.9698 50.3813C76.343 50.5859 75.702 50.5715 75.0773 50.3627C74.9023 50.3049 74.6581 50.2346 74.7354 49.9557C74.8046 49.7077 74.9552 49.5176 75.2503 49.5982C75.5107 49.6684 75.759 49.7779 76.0378 49.7635C76.3471 49.749 76.6788 49.7511 76.7805 49.3791C76.8884 48.9906 76.5954 48.8356 76.3105 48.7034C76.0948 48.6042 75.8689 48.5319 75.6532 48.4368C74.8921 48.1041 74.6438 47.7156 74.7517 47.0461C74.8412 46.4944 75.2686 46.1575 76.0073 46.0625C76.1741 46.0418 76.3451 46.0418 76.5933 46.0273Z" fill="#001514"/>
<path d="M67.4951 48.2519C67.4951 47.7085 67.4911 47.165 67.4972 46.6215C67.4992 46.4211 67.5053 46.1979 67.7454 46.1194C67.951 46.0512 68.1769 46.0615 68.2705 46.2806C68.4292 46.6525 68.592 46.6298 68.8545 46.3797C68.9949 46.2475 69.1923 46.1586 69.3775 46.0946C69.5749 46.0264 69.8028 46.0388 69.8842 46.2764C69.9676 46.5141 69.9534 46.8075 69.6644 46.8633C68.4719 47.1009 68.5024 47.9998 68.5248 48.9091C68.5309 49.1798 68.5269 49.4526 68.5228 49.7233C68.5167 50.0704 68.5248 50.4238 68.0303 50.4403C67.4606 50.4589 67.4931 50.0518 67.489 49.6757C67.4829 49.2004 67.489 48.7252 67.489 48.2499C67.4911 48.2499 67.4931 48.2499 67.4951 48.2499V48.2519Z" fill="#001514"/>
<path d="M93.9406 36.2883C93.5988 36.2387 93.0778 36.4371 93.0392 35.7304C93.0046 35.1063 93.1063 34.9555 93.731 34.91C93.9305 34.8955 94.1319 34.9141 94.3313 34.9038C94.8238 34.8831 95.0721 35.0815 95.0619 35.6126C95.0517 36.1478 94.777 36.3214 94.2967 36.2883C94.197 36.2821 94.0973 36.2883 93.9427 36.2883H93.9406Z" fill="#001514"/>
<path d="M77.0193 36.2895C76.1015 36.3081 75.9753 36.2275 75.9672 35.6075C75.9591 34.9938 76.071 34.9111 76.8951 34.9029C77.7478 34.8946 77.878 34.9773 77.8983 35.5352C77.9228 36.1758 77.8088 36.2729 77.0193 36.2895Z" fill="#001514"/>
</g>
<g clip-path="url(#clip1_29_2789)">
<path d="M138.024 45.0173C136.426 45.0173 134.828 45.0173 133.229 45.0173C133.122 45.0173 133.015 45.0162 132.909 45.0173C132.253 45.0226 131.514 44.468 131.729 43.5416C131.936 42.6513 132.117 41.7546 132.309 40.86C132.919 38.0095 133.526 35.158 134.139 32.3075C134.428 30.9604 134.726 29.6143 135.019 28.2682C135.044 28.1524 135.057 28.0334 135.076 27.9155C135.17 27.3481 135.588 26.972 136.169 26.9359C136.235 26.9317 136.302 26.9327 136.368 26.9327C139.738 26.9327 143.106 26.9327 146.476 26.9338C146.622 26.9338 146.772 26.9317 146.912 26.9667C147.548 27.1218 147.906 27.7678 147.774 28.333C147.519 29.4167 147.303 30.5088 147.068 31.5968C146.599 33.7726 146.128 35.9484 145.659 38.1243C145.271 39.9251 144.883 41.7259 144.498 43.5267C144.474 43.6425 144.457 43.7615 144.442 43.8794C144.356 44.5658 143.882 44.9992 143.178 45.0152C142.685 45.0258 142.192 45.0173 141.699 45.0173C140.474 45.0173 139.249 45.0173 138.024 45.0173ZM137.913 40.2417C138.54 40.2417 139.085 40.2396 139.629 40.2428C139.792 40.2428 139.866 40.1641 139.898 40.0111C139.971 39.6616 140.059 39.3142 140.133 38.9647C140.505 37.2159 140.875 35.4661 141.245 33.7174C141.31 33.4103 141.344 33.3795 141.673 33.3742C142.005 33.3689 142.338 33.3731 142.671 33.3721C142.807 33.3721 142.947 33.3721 142.987 33.2C143.093 32.7282 143.197 32.2555 143.315 31.7211C143.099 31.7211 142.956 31.7211 142.813 31.7211C141.482 31.7211 140.15 31.7211 138.819 31.7211C138.659 31.7211 138.498 31.7094 138.341 31.7306C138.264 31.7413 138.146 31.805 138.131 31.8656C138.011 32.3458 137.909 32.8324 137.798 33.3381C138.344 33.4231 138.838 33.3105 139.366 33.4284C138.881 35.7073 138.405 37.9437 137.916 40.2417H137.913Z" fill="#001514"/>
<path d="M124.608 45.0175C122.983 45.0175 121.359 45.0207 119.734 45.0143C119.524 45.0143 119.305 44.9973 119.105 44.9388C118.449 44.7476 118.168 44.2568 118.31 43.5938C118.555 42.4538 118.804 41.3149 119.047 40.1739C119.677 37.2193 120.307 34.2647 120.937 31.3101C121.153 30.2997 121.37 29.2883 121.593 28.2801C121.633 28.1005 121.684 27.9157 121.77 27.7552C122.054 27.224 122.483 26.9255 123.115 26.9297C124.62 26.9404 126.125 26.9329 127.63 26.9329C129.414 26.9329 131.199 26.9329 132.983 26.9329C133.143 26.9329 133.304 26.9276 133.462 26.951C134.152 27.0508 134.503 27.5502 134.365 28.2301C134.153 29.2692 133.938 30.3061 133.722 31.3441C133.311 33.3287 132.899 35.3133 132.485 37.2979C132.068 39.2953 131.647 41.2916 131.229 43.2889C131.188 43.4833 131.162 43.682 131.11 43.8732C130.891 44.6679 130.431 45.0164 129.603 45.0175C128.324 45.0196 127.046 45.0175 125.767 45.0175C125.381 45.0175 124.995 45.0175 124.609 45.0175H124.608ZM122.363 40.244C122.944 40.244 123.448 40.2302 123.951 40.2493C124.229 40.2599 124.361 40.1431 124.441 39.8934C124.559 39.5269 124.704 39.1699 124.827 38.8065C124.883 38.6451 124.981 38.5696 125.151 38.5707C125.524 38.5728 125.897 38.5749 126.27 38.5707C126.475 38.5686 126.554 38.6652 126.547 38.8639C126.534 39.222 126.536 39.58 126.52 39.938C126.511 40.1601 126.601 40.2504 126.823 40.2461C127.223 40.2387 127.622 40.2461 128.022 40.244C128.442 40.2408 128.452 40.2344 128.451 39.8233C128.446 37.2501 128.439 34.6759 128.43 32.1027C128.43 31.989 128.408 31.8742 128.392 31.7255C127.655 31.7255 126.951 31.7191 126.247 31.734C126.152 31.7361 126.035 31.8296 125.973 31.9136C125.889 32.0294 125.847 32.1749 125.79 32.3088C124.914 34.3295 124.038 36.3502 123.163 38.372C122.906 38.9659 122.654 39.5619 122.361 40.2451L122.363 40.244Z" fill="#001514"/>
<path d="M154.933 26.9338C156.638 26.9338 158.342 26.9306 160.047 26.9348C160.691 26.937 161.098 27.2397 161.247 27.8294C161.281 27.9643 161.282 28.1194 161.253 28.2565C160.783 30.4599 160.302 32.6602 159.83 34.8626C159.212 37.7524 158.599 40.6422 157.985 43.533C157.947 43.7147 157.928 43.9006 157.883 44.0802C157.738 44.6422 157.32 44.9801 156.737 45.0172C156.671 45.0215 156.604 45.0194 156.537 45.0194C153.208 45.0194 149.878 45.0172 146.549 45.0215C146.114 45.0215 145.728 44.9216 145.444 44.5763C145.226 44.3107 145.123 44.0175 145.202 43.6563C145.898 40.4446 146.586 37.2308 147.271 34.0169C147.696 32.0217 148.113 30.0233 148.525 28.0249C148.678 27.2791 149.078 26.937 149.859 26.9359C151.551 26.9327 153.241 26.9359 154.933 26.9359V26.9338ZM154.445 40.2459C154.95 40.2459 155.388 40.247 155.824 40.2459C156.295 40.2448 156.3 40.2438 156.398 39.7848C156.881 37.5293 157.363 35.2738 157.843 33.0172C157.931 32.6082 158.005 32.1959 158.093 31.754C157.928 31.7412 157.812 31.7242 157.696 31.7242C157.043 31.7221 156.39 31.7348 155.737 31.7168C155.456 31.7094 155.314 31.8039 155.203 32.0684C154.611 33.4889 154 34.9009 153.393 36.3149C153.335 36.4488 153.265 36.5784 153.201 36.7102C153.171 36.6995 153.141 36.6889 153.11 36.6783V31.7858C153.044 31.7603 153.008 31.7348 152.972 31.7348C152.173 31.7295 151.374 31.7295 150.574 31.7242C150.367 31.7232 150.309 31.8432 150.274 32.0206C150.173 32.5412 150.057 33.0586 149.946 33.5771C149.508 35.6254 149.068 37.6727 148.63 39.7211C148.597 39.8741 148.575 40.0281 148.536 40.2395C149.12 40.2395 149.662 40.2438 150.204 40.2374C150.378 40.2353 150.398 40.0929 150.423 39.9559C150.793 37.949 151.165 35.942 151.538 33.9351C151.557 33.8299 151.592 33.729 151.621 33.626C151.646 33.6313 151.671 33.6366 151.696 33.6419V40.247C152.025 40.247 152.319 40.2247 152.608 40.2523C152.979 40.2873 153.173 40.1567 153.32 39.7997C154.057 38.0084 154.824 36.23 155.584 34.4472C155.701 34.172 155.83 33.9022 155.953 33.6291C155.985 33.6398 156.018 33.6515 156.05 33.6621C155.522 35.8305 154.994 37.9989 154.446 40.2459H154.445Z" fill="#001514"/>
<path d="M148.653 47.0701C148.687 47.0701 148.753 47.068 148.82 47.0701C149.678 47.0999 150.221 47.6502 150.179 48.497C150.148 49.111 149.969 49.689 149.608 50.2064C149.083 50.9586 147.919 51.2805 146.99 50.9097C146.538 50.7291 146.313 50.3604 146.278 49.8909C146.221 49.1387 146.393 48.4364 146.867 47.8393C147.307 47.2826 147.907 47.0372 148.651 47.068L148.653 47.0701ZM147.173 49.4468C147.181 50.0608 147.494 50.2659 147.861 50.2967C148.206 50.3264 148.52 50.2223 148.749 49.9493C149.117 49.5094 149.225 48.9804 149.204 48.43C149.189 48.0369 148.953 47.8414 148.557 47.8181C148.064 47.7894 147.7 48.0125 147.499 48.4417C147.351 48.7583 147.279 49.11 147.174 49.4468H147.173Z" fill="#001514"/>
<path d="M133.09 47.3475C133.043 47.4388 133.005 47.5196 132.96 47.5971C132.805 47.8613 132.581 47.9538 132.286 47.8744C131.44 47.646 130.652 48.1092 130.467 48.9645C130.411 49.2195 130.375 49.4936 130.41 49.7486C130.474 50.2075 131.156 50.4901 131.55 50.2415C131.608 50.2043 131.65 50.1193 131.669 50.0482C131.706 49.909 131.722 49.7645 131.751 49.5913C131.526 49.5626 131.323 49.5382 131.074 49.5063C131.11 49.2991 131.116 49.1122 131.183 48.9496C131.217 48.8667 131.355 48.7828 131.451 48.7775C131.81 48.7573 132.169 48.769 132.529 48.769C132.745 48.769 132.805 48.8891 132.765 49.0824C132.659 49.5881 132.552 50.0928 132.448 50.5985C132.416 50.7557 132.337 50.8705 132.173 50.9002C131.637 50.998 131.107 51.1308 130.553 51.0245C129.806 50.8811 129.415 50.4774 129.431 49.7135C129.449 48.8678 129.682 48.0806 130.414 47.5504C131.198 46.982 132.058 46.9331 132.955 47.2434C133.001 47.2593 133.037 47.3039 133.091 47.3475H133.09Z" fill="#001514"/>
<path d="M140.818 50.9986C140.84 50.7935 140.841 50.6756 140.865 50.5619C141.084 49.5261 141.304 48.4902 141.528 47.4565C141.603 47.1059 141.613 47.0931 141.977 47.0984C142.401 47.1048 142.83 47.0984 143.248 47.16C144.133 47.2886 144.435 48.0578 143.885 48.7749C143.713 48.9991 143.464 49.1648 143.216 49.3879C143.436 49.865 143.673 50.3781 143.936 50.9486C143.619 51.0443 143.325 51.0188 143.037 50.971C142.973 50.9603 142.914 50.8424 142.878 50.7627C142.743 50.461 142.619 50.1529 142.49 49.849C142.427 49.7014 142.369 49.5516 142.159 49.5632C141.95 49.5749 141.953 49.7449 141.92 49.8777C141.848 50.1731 141.803 50.4759 141.719 50.768C141.692 50.8594 141.584 50.9763 141.498 50.9901C141.295 51.023 141.083 51.0007 140.817 51.0007L140.818 50.9986ZM142.139 48.8365C142.427 48.7887 142.634 48.7696 142.832 48.7165C143.025 48.6644 143.129 48.5104 143.18 48.3202C143.229 48.1396 143.167 48.0121 143.001 47.9335C142.624 47.7539 142.34 47.8878 142.248 48.2905C142.212 48.4413 142.187 48.5943 142.139 48.8365Z" fill="#001514"/>
<path d="M136.622 47.1316C136.487 47.7786 136.36 48.3576 136.245 48.9388C136.19 49.2107 136.134 49.4859 136.119 49.7611C136.098 50.1414 136.228 50.2604 136.606 50.2817C137.128 50.3103 137.415 50.1223 137.54 49.6145C137.704 48.9462 137.833 48.2694 137.986 47.599C138.106 47.0753 138.116 47.0721 138.649 47.0965C138.738 47.1008 138.827 47.1241 138.948 47.1433C138.936 47.2761 138.938 47.394 138.914 47.5055C138.766 48.2046 138.603 48.9005 138.463 49.6017C138.185 50.9892 136.712 51.2686 135.802 50.9372C135.424 50.7991 135.205 50.5005 135.166 50.0947C135.151 49.9385 135.161 49.7749 135.193 49.6219C135.336 48.9218 135.486 48.2227 135.644 47.5257C135.739 47.1029 135.766 47.0891 136.21 47.0965C136.327 47.0986 136.442 47.1156 136.624 47.1326L136.622 47.1316Z" fill="#001514"/>
<path d="M127.585 47.1386C127.565 47.2937 127.561 47.4106 127.536 47.5232C127.464 47.8409 127.435 47.8642 127.111 47.8727C126.872 47.8791 126.632 47.8865 126.393 47.8727C126.144 47.8568 126.022 47.9662 125.991 48.2021C125.976 48.3168 125.956 48.4305 125.927 48.609H127.181C127.153 48.8013 127.13 48.9266 127.115 49.052C127.092 49.2592 126.984 49.3506 126.77 49.3421C126.518 49.3314 126.264 49.3495 126.012 49.3378C125.814 49.3293 125.718 49.4175 125.687 49.6023C125.654 49.7957 125.617 49.988 125.572 50.2345C126.034 50.2515 126.46 50.2664 126.896 50.2823C126.905 50.3726 126.922 50.4247 126.914 50.4725C126.853 50.8217 126.641 50.9962 126.278 50.9962C125.84 50.9962 125.4 50.9984 124.962 50.9952C124.833 50.9952 124.704 50.9792 124.517 50.9676C124.58 50.6212 124.629 50.3142 124.693 50.0093C124.872 49.1551 125.058 48.3019 125.24 47.4478C125.308 47.128 125.335 47.0982 125.657 47.095C126.188 47.0897 126.721 47.0918 127.253 47.095C127.344 47.095 127.433 47.1173 127.586 47.1386H127.585Z" fill="#001514"/>
<path d="M122.862 47.3672C122.786 47.5011 122.742 47.5818 122.697 47.6615C122.491 48.0153 122.493 48.0047 122.084 47.9027C121.882 47.8517 121.665 47.8283 121.456 47.8326C121.252 47.8368 121.109 47.9707 121.057 48.1683C121.005 48.3659 121.164 48.4498 121.297 48.5359C121.554 48.7006 121.816 48.8578 122.072 49.0225C122.308 49.1744 122.385 49.4049 122.38 49.6737C122.37 50.1646 122.164 50.5502 121.733 50.7882C121.115 51.1303 120.463 51.1335 119.801 50.9189C119.636 50.8658 119.555 50.7712 119.61 50.5906C119.662 50.4164 119.707 50.2389 119.766 50.0201C119.959 50.087 120.116 50.1476 120.276 50.1964C120.556 50.2814 120.834 50.3813 121.133 50.2676C121.306 50.2018 121.442 50.1008 121.467 49.9096C121.491 49.7194 121.35 49.627 121.21 49.5441C121.026 49.4368 120.836 49.3391 120.657 49.2254C120.084 48.862 119.955 48.266 120.359 47.7221C120.505 47.5266 120.707 47.3364 120.926 47.2376C121.569 46.9486 122.211 46.9975 122.863 47.3662L122.862 47.3672Z" fill="#001514"/>
<path d="M152.132 50.0389C152.468 50.1366 152.743 50.2397 153.027 50.2885C153.201 50.3183 153.404 50.3034 153.568 50.2407C153.914 50.1069 153.938 49.7828 153.629 49.5735C153.476 49.4694 153.305 49.3918 153.146 49.2962C152.326 48.8086 152.308 47.8503 153.124 47.3424C153.81 46.9153 154.506 46.9918 155.222 47.3488C155.185 47.4487 155.169 47.5252 155.131 47.59C154.886 48.0128 154.886 48.0064 154.399 47.8864C154.233 47.846 154.058 47.8248 153.888 47.828C153.665 47.8322 153.514 47.9671 153.457 48.1775C153.403 48.3709 153.558 48.4622 153.69 48.5493C153.801 48.6216 153.92 48.6832 154.036 48.747C154.435 48.9637 154.794 49.2102 154.76 49.7382C154.724 50.296 154.429 50.688 153.924 50.8962C153.364 51.1278 152.785 51.1151 152.205 50.9324C152.015 50.8718 151.952 50.7677 152.006 50.5764C152.052 50.4139 152.084 50.2471 152.132 50.0378V50.0389Z" fill="#001514"/>
<path d="M126.925 33.3284C126.925 33.5112 126.936 33.695 126.923 33.8777C126.855 34.8413 126.781 35.8049 126.709 36.7675C126.682 37.1266 126.676 37.134 126.302 37.1404C126.042 37.1447 125.781 37.1404 125.444 37.1404C125.887 35.7954 126.372 34.5598 126.825 33.3125C126.858 33.3178 126.892 33.3231 126.925 33.3284Z" fill="#001514"/>
</g>
<path d="M277.733 34.621C276.482 33.258 274.917 32.5215 273.065 32.4847C269.338 32.4111 266.415 35.4342 266.409 39.3367C266.429 40.7435 267.037 42.2703 268.26 43.5305C269.526 44.8364 271.098 45.5099 272.916 45.5163C274.616 45.522 276.111 44.9214 277.353 43.7597C278.713 42.4893 279.422 40.9028 279.441 39.0491C279.459 37.3623 278.878 35.8697 277.733 34.621ZM269.889 40.9441C269.738 41.1961 269.505 41.2971 269.243 41.3072C268.939 41.3009 268.707 41.1961 268.561 40.9498C268.4 40.6781 268.397 40.3937 268.557 40.1213C268.974 39.4109 269.399 38.7056 269.82 37.9978C269.93 37.813 270.038 37.6276 270.147 37.4429C270.412 36.989 271.113 36.9598 271.435 37.3769C271.606 37.5984 271.627 38.0384 271.475 38.2853C271.086 38.9164 270.716 39.5601 270.338 40.1981C270.19 40.4476 270.039 40.6959 269.89 40.9447L269.889 40.9441ZM273.801 38.5621C273.613 38.8904 273.426 39.2198 273.237 39.5487C273.025 39.9182 272.811 40.2864 272.599 40.6559C272.526 40.7816 272.461 40.9098 272.355 41.0139C272.085 41.2761 271.638 41.3041 271.337 41.0742C271.127 40.9136 271.037 40.7003 271.041 40.4089C271.015 40.2299 271.127 40.0636 271.227 39.8953C271.567 39.3233 271.909 38.752 272.255 38.1831C272.604 37.6092 272.923 37.0163 273.309 36.4659C273.498 36.198 273.768 36.0285 274.103 35.9764C274.51 35.9129 274.836 36.0748 275.128 36.3344C275.226 36.4208 275.305 36.5236 275.384 36.6265C275.403 36.6512 275.42 36.676 275.401 36.7033C275.382 36.7325 275.356 36.7096 275.334 36.7001C275.123 36.6112 274.934 36.6665 274.798 36.8538C274.661 37.0436 274.558 37.2543 274.441 37.455C274.225 37.8225 274.014 38.1927 273.802 38.5621H273.801ZM277.003 41.2952C276.951 41.306 276.897 41.3028 276.837 41.3066C276.528 41.2996 276.297 41.1638 276.141 40.8863C275.952 40.5473 275.75 40.2159 275.556 39.8795C275.384 39.5811 275.216 39.2808 275.046 38.9818C274.913 38.7488 274.78 38.5152 274.641 38.2853C274.594 38.2073 274.579 38.1406 274.631 38.0587C274.81 37.7762 274.953 37.4721 275.142 37.1959C275.242 37.0499 275.389 36.9858 275.566 36.9845C275.62 36.9845 275.653 37.0042 275.681 37.0506C276.062 37.6759 276.449 38.2974 276.825 38.9253C277.07 39.3341 277.309 39.7474 277.535 40.167C277.769 40.6038 277.544 41.1853 277.004 41.2945L277.003 41.2952Z" fill="#001514"/>
<path d="M233.827 40.1902C233.459 39.2322 233.094 38.2728 232.724 37.3148C232.517 36.7771 232.302 36.242 232.094 35.7056C232.03 35.5415 231.917 35.4334 231.743 35.4281C231.367 35.4174 230.989 35.4121 230.613 35.4281C230.44 35.4347 230.319 35.5495 230.255 35.7256C230.144 36.0312 230.019 36.3301 229.902 36.633C229.457 37.7885 229.012 38.944 228.567 40.1008C228.246 40.9348 227.923 41.7687 227.602 42.604C227.497 42.8789 227.588 43.0083 227.881 43.011C228.1 43.0137 228.319 43.0057 228.536 43.0123C228.746 43.019 228.87 42.9149 228.942 42.7281C229.076 42.3759 229.213 42.0236 229.343 41.6687C229.377 41.5753 229.419 41.5299 229.526 41.5299C230.625 41.5326 231.725 41.5326 232.824 41.5299C232.923 41.5299 232.977 41.5579 233.013 41.6607C233.107 41.9289 233.214 42.1944 233.323 42.4573C233.553 43.011 233.555 43.0097 234.151 43.0097C234.29 43.0097 234.429 43.0163 234.569 43.0083C234.735 42.999 234.847 42.8362 234.792 42.6934C234.471 41.8581 234.148 41.0255 233.827 40.1902ZM232.111 40.2303C231.469 40.2303 230.827 40.2316 230.185 40.2316C229.97 40.2316 229.95 40.2023 230.026 40.0048C230.382 39.0708 230.741 38.1381 231.1 37.2054C231.119 37.1587 231.129 37.1013 231.205 37.072C231.314 37.3468 231.424 37.6204 231.53 37.8952C231.791 38.5744 232.05 39.2562 232.311 39.9354C232.425 40.2316 232.429 40.2303 232.112 40.2303H232.111Z" fill="#001514"/>
<path d="M247.323 35.3345C247.117 35.3319 246.911 35.3332 246.707 35.3345C246.433 35.3345 246.358 35.4119 246.358 35.6935C246.358 36.386 246.358 37.0785 246.357 37.7723C246.357 37.8351 246.392 37.9178 246.321 37.9565C246.244 37.9992 246.207 37.9138 246.159 37.8751C245.647 37.4561 245.077 37.248 244.404 37.3307C243.416 37.4521 242.821 38.0432 242.461 38.9252C242.203 39.559 242.221 40.2235 242.303 40.8853C242.395 41.6205 242.724 42.229 243.313 42.688C244.119 43.3164 245.387 43.2697 246.128 42.5812C246.181 42.5318 246.232 42.4638 246.313 42.5052C246.389 42.5439 246.352 42.6239 246.354 42.6866C246.364 42.9295 246.439 43.0095 246.678 43.0109C246.877 43.0122 247.076 43.0109 247.274 43.0109C247.561 43.0109 247.626 42.9455 247.626 42.6639C247.626 41.4978 247.626 40.3329 247.626 39.1667C247.626 38.0005 247.626 36.8223 247.626 35.6494C247.626 35.4173 247.551 35.3399 247.32 35.3372L247.323 35.3345ZM246.254 41.0961C246.068 41.6112 245.677 41.87 245.151 41.9261C244.82 41.9608 244.499 41.9061 244.195 41.7446C243.809 41.5391 243.668 41.1802 243.593 40.7906C243.503 40.3249 243.52 39.8592 243.652 39.3989C243.78 38.9572 244.07 38.6944 244.499 38.5676C244.922 38.4422 245.334 38.4769 245.718 38.6957C246.162 38.9492 246.321 39.3722 246.357 39.8579C246.366 39.9766 246.357 40.0967 246.357 40.2715C246.378 40.517 246.353 40.8146 246.251 41.0988L246.254 41.0961Z" fill="#001514"/>
<path d="M263.454 39.2081C263.373 38.5943 263.141 38.0699 262.605 37.7297C261.857 37.2533 261.049 37.1893 260.216 37.4441C259.595 37.6336 259.108 37.9952 258.871 38.633C258.794 38.8412 258.843 38.9279 259.056 38.9306C259.375 38.9346 259.692 38.9306 260.01 38.9332C260.108 38.9332 260.192 38.9065 260.264 38.8398C260.449 38.6624 260.663 38.549 260.92 38.5036C261.11 38.4689 261.289 38.5196 261.469 38.5383C261.88 38.581 262.176 38.9132 262.183 39.2895C262.184 39.4096 262.138 39.463 262.034 39.4803C261.697 39.539 261.36 39.5937 261.025 39.6511C260.546 39.7338 260.059 39.7845 259.607 39.9753C259.038 40.2155 258.554 40.5504 258.461 41.2269C258.38 41.8127 258.556 42.3144 259.019 42.696C259.307 42.9322 259.641 43.0563 260.013 43.1016C260.728 43.1897 261.375 43.0629 261.912 42.5426C261.979 42.4785 262.033 42.3424 262.14 42.3891C262.232 42.4305 262.176 42.5586 262.179 42.6466C262.189 42.8975 262.294 43.0069 262.542 43.0082C262.728 43.0082 262.914 43.0082 263.098 43.0082C263.39 43.0082 263.491 42.9095 263.492 42.6186C263.492 42.1062 263.492 41.5925 263.492 40.9601C263.462 40.457 263.537 39.8312 263.455 39.2068L263.454 39.2081ZM261.33 41.8087C261.093 41.8941 260.847 41.9381 260.575 41.9288C260.44 41.9555 260.291 41.9114 260.145 41.8781C259.97 41.838 259.791 41.7713 259.757 41.5605C259.702 41.2256 259.786 41.0535 260.022 40.9147C260.334 40.7306 260.689 40.7239 261.028 40.6545C261.362 40.5865 261.701 40.5478 262.034 40.4744C262.172 40.4437 262.175 40.4971 262.179 40.5998C262.2 41.1442 261.871 41.6152 261.329 41.8087H261.33Z" fill="#001514"/>
<path d="M240.95 39.2963C240.905 38.7692 240.735 38.2849 240.347 37.9059C239.973 37.5417 239.515 37.3816 238.998 37.3242C238.336 37.2521 237.781 37.4483 237.291 37.8766C237.247 37.9153 237.211 37.9847 237.145 37.962C237.06 37.9326 237.098 37.8472 237.097 37.7872C237.088 37.519 236.986 37.4149 236.72 37.4136C236.535 37.4136 236.349 37.4136 236.165 37.4136C235.89 37.4149 235.785 37.523 235.784 37.8019C235.784 38.6078 235.784 39.4137 235.784 40.2183C235.784 41.0376 235.784 41.8568 235.784 42.6748C235.784 42.927 235.865 43.0057 236.117 43.0084C236.309 43.0097 236.501 43.0084 236.692 43.0084C236.996 43.0084 237.094 42.911 237.094 42.6081C237.094 41.6821 237.096 40.7574 237.093 39.8314C237.093 39.7033 237.113 39.5805 237.139 39.4577C237.372 38.3516 238.569 38.2929 239.199 38.6985C239.554 38.9267 239.668 39.3203 239.674 39.7219C239.689 40.6933 239.678 41.666 239.68 42.6388C239.68 42.903 239.788 43.0084 240.051 43.0097C240.257 43.0097 240.461 43.011 240.666 43.0097C240.905 43.007 240.993 42.9256 240.989 42.6868C240.968 41.5566 241.044 40.4251 240.948 39.2963H240.95Z" fill="#001514"/>
<path d="M257.213 39.0144C256.95 37.7215 256.002 37.2985 254.959 37.2998C254.443 37.2998 253.989 37.5226 253.599 37.8642C253.552 37.9056 253.514 37.987 253.439 37.9576C253.359 37.9256 253.398 37.8415 253.395 37.7802C253.386 37.5173 253.281 37.4132 253.013 37.4119C252.834 37.4119 252.655 37.4119 252.476 37.4119C252.185 37.4119 252.082 37.516 252.082 37.8068C252.082 38.6061 252.082 39.4054 252.082 40.2046C252.082 41.0039 252.082 41.8298 252.082 42.6424C252.082 42.8959 252.193 43.0053 252.44 43.0067C252.632 43.0067 252.825 43.0067 253.016 43.0067C253.289 43.0067 253.391 42.9013 253.391 42.6197C253.391 42.034 253.384 41.4469 253.394 40.8611C253.4 40.4168 253.35 39.9698 253.431 39.5281C253.492 39.1985 253.637 38.9223 253.902 38.7075C254.184 38.478 254.509 38.486 254.841 38.4887C255.293 38.4927 255.621 38.6848 255.822 39.0998C256.006 39.4774 256.008 39.883 256.012 40.2847C256.021 41.0906 256.015 41.8965 256.015 42.7025C256.015 42.9199 256.093 43.0013 256.311 43.0053C256.516 43.0093 256.722 43.0053 256.926 43.0053C257.214 43.0053 257.286 42.932 257.286 42.6371C257.286 41.7177 257.283 40.7984 257.287 39.879C257.288 39.5868 257.267 39.2973 257.209 39.0104L257.213 39.0144Z" fill="#001514"/>
<path d="M250.169 37.4137C249.983 37.4123 249.798 37.4137 249.613 37.4137C249.324 37.4137 249.222 37.5191 249.222 37.8113C249.222 38.6239 249.222 39.4365 249.222 40.2491C249.222 41.0617 249.222 41.8743 249.222 42.6869C249.222 42.9257 249.306 43.0071 249.546 43.0098C249.738 43.0111 249.93 43.0098 250.121 43.0098C250.442 43.0098 250.533 42.9204 250.533 42.5988C250.533 41.0203 250.533 39.4418 250.533 37.8633C250.533 37.8233 250.535 37.7833 250.533 37.7433C250.51 37.5111 250.407 37.4163 250.17 37.4137H250.169Z" fill="#001514"/>
<path d="M250.315 35.3375C250.025 35.3309 249.733 35.3295 249.442 35.3375C249.278 35.3429 249.173 35.4229 249.18 35.6137C249.188 35.8593 249.18 36.1061 249.182 36.3516C249.185 36.5651 249.271 36.6478 249.486 36.6532C249.612 36.6559 249.737 36.6532 249.863 36.6532C249.989 36.6532 250.114 36.6532 250.24 36.6532C250.439 36.6518 250.565 36.5398 250.57 36.3423C250.576 36.0968 250.574 35.8499 250.57 35.6044C250.567 35.439 250.48 35.3402 250.314 35.3362L250.315 35.3375Z" fill="#001514"/>
<path d="M223.399 39.1883C223.399 38.0355 223.399 36.884 223.399 35.7311C223.399 35.4282 223.495 35.3348 223.805 35.3335C224.192 35.3335 224.275 35.4122 224.275 35.7938C224.275 38.0515 224.269 40.3105 224.279 42.5682C224.281 43.0619 224.027 43.0979 223.605 43.0245C223.458 42.9991 223.395 42.8724 223.397 42.7056C223.402 41.5327 223.399 40.3612 223.399 39.1883Z" fill="#001514"/>
<path d="M186.143 35.4888C185.874 35.3553 185.417 35.4567 185.268 35.7223C184.999 36.2026 184.749 36.6937 184.499 37.1834C184.103 37.9586 183.713 38.7365 183.321 39.5117C183.243 39.6652 183.158 39.8146 183.075 39.9667C183.048 40.0174 183.03 40.0842 182.956 40.0855C182.882 40.0868 182.862 40.0228 182.834 39.9707C182.725 39.7653 182.614 39.5624 182.508 39.3556C181.929 38.2201 181.344 37.0859 180.778 35.9451C180.607 35.6009 180.395 35.394 179.979 35.4474C179.717 35.4821 179.636 35.5315 179.635 35.7943C179.635 36.1079 179.635 36.4201 179.635 36.7337C179.635 38.7191 179.635 40.7033 179.632 42.6887C179.632 42.8195 179.648 42.9356 179.77 42.993C179.978 43.093 180.201 43.0837 180.403 42.9903C180.562 42.9169 180.549 42.7394 180.549 42.5847C180.549 40.9595 180.549 39.3343 180.549 37.7091C180.549 37.653 180.517 37.5743 180.586 37.5476C180.673 37.5129 180.68 37.6183 180.725 37.6584C180.749 37.6784 180.758 37.7157 180.773 37.7451C181.262 38.7031 181.769 39.6518 182.233 40.6219C182.431 41.0369 182.683 41.2557 183.148 41.169C183.155 41.169 183.162 41.169 183.168 41.169C183.273 41.1676 183.351 41.1303 183.418 41.0382C183.672 40.6873 183.829 40.2816 184.033 39.9027C184.403 39.2195 184.739 38.519 185.092 37.8265C185.134 37.7438 185.186 37.6664 185.232 37.5863C185.251 37.5543 185.273 37.5316 185.31 37.5409C185.349 37.5503 185.356 37.585 185.357 37.6197C185.357 37.673 185.357 37.7264 185.357 37.7798C185.357 39.3916 185.357 41.0035 185.357 42.6154C185.357 42.7675 185.379 42.9049 185.524 42.993C185.647 43.069 185.78 43.0463 185.911 43.0463C186.162 43.0463 186.272 42.9343 186.272 42.6847C186.272 41.5319 186.272 40.3804 186.272 39.2275C186.272 38.0747 186.272 36.9232 186.272 35.7703C186.272 35.6529 186.269 35.5488 186.142 35.4861L186.143 35.4888Z" fill="#001514"/>
<path d="M204.633 42.9579C205.646 43.2848 206.583 43.2141 207.332 42.3441C207.355 42.3174 207.375 42.2894 207.412 42.2987C207.461 42.3121 207.458 42.3574 207.459 42.3961C207.459 42.4829 207.455 42.5696 207.461 42.6563C207.479 42.9632 207.615 43.062 207.997 43.0486C208.239 43.0406 208.335 42.9272 208.335 42.643C208.335 42.0772 208.335 41.5101 208.335 40.9444C208.335 40.3786 208.345 39.8116 208.332 39.2458C208.318 38.6067 208.039 38.0903 207.522 37.7274C206.746 37.183 205.582 37.1976 204.772 37.7367C204.468 37.9395 204.232 38.1957 204.109 38.5493C204.072 38.6547 204.09 38.7241 204.166 38.7975C204.324 38.9523 204.765 38.9282 204.923 38.7588C205.138 38.5266 205.33 38.2584 205.669 38.1957C205.913 38.1517 206.153 38.1237 206.41 38.1637C207.055 38.2638 207.515 38.6133 207.467 39.3499C207.459 39.482 207.417 39.546 207.296 39.5647C206.869 39.6341 206.441 39.6981 206.014 39.7715C205.433 39.8703 204.864 40.005 204.374 40.364C203.938 40.6829 203.715 41.1219 203.694 41.6503C203.672 42.1773 204.107 42.7871 204.635 42.9579H204.633ZM204.869 40.9324C205.254 40.6629 205.697 40.5655 206.146 40.4907C206.508 40.4294 206.876 40.392 207.234 40.3133C207.425 40.2706 207.478 40.3173 207.459 40.4974C207.454 40.5561 207.459 40.6175 207.459 40.6775C207.526 41.5568 206.816 42.2093 205.975 42.2974C205.618 42.3348 205.28 42.3334 204.956 42.1706C204.476 41.9278 204.428 41.2433 204.869 40.9337V40.9324Z" fill="#001514"/>
<path d="M189.432 42.9765C190.205 43.2594 190.967 43.1793 191.696 42.8297C192.083 42.6443 192.396 42.3601 192.56 41.9371C192.606 41.817 192.569 41.7489 192.483 41.6809C192.337 41.5675 191.941 41.5661 191.81 41.7009C191.471 42.0492 191.085 42.2547 190.586 42.3107C189.612 42.4201 188.724 41.8997 188.694 40.7455C188.69 40.6041 188.738 40.5641 188.876 40.5654C189.472 40.5721 190.069 40.5681 190.664 40.5681C191.241 40.5681 191.817 40.5681 192.394 40.5681C192.675 40.5681 192.745 40.4934 192.753 40.2185C192.763 39.8916 192.747 39.5687 192.671 39.2511C192.526 38.6467 192.247 38.1263 191.731 37.7553C191.12 37.3163 190.435 37.239 189.729 37.3857C189.224 37.4911 188.789 37.7527 188.464 38.1797C188.109 38.6453 187.91 39.1604 187.855 39.7475C187.782 40.5267 187.861 41.2699 188.258 41.9544C188.531 42.4281 188.916 42.7844 189.432 42.9738V42.9765ZM188.696 39.5914C188.762 38.8468 189.196 38.3064 189.982 38.1716C190.505 38.0809 191 38.1596 191.414 38.5052C191.77 38.8041 191.906 39.2137 191.875 39.6794C191.867 39.7942 191.78 39.7702 191.713 39.7702C191.237 39.7715 190.761 39.7702 190.283 39.7702C189.814 39.7702 189.343 39.7662 188.873 39.7728C188.734 39.7755 188.682 39.7301 188.696 39.5914Z" fill="#001514"/>
<path d="M213.588 38.5147C213.946 38.8309 214.048 39.2526 214.055 39.6982C214.068 40.691 214.059 41.6837 214.06 42.6751C214.06 42.958 214.175 43.0487 214.519 43.0487C214.823 43.0487 214.933 42.9513 214.934 42.6751C214.934 41.6223 214.951 40.5696 214.927 39.5181C214.914 38.9484 214.715 38.4266 214.312 38.0077C213.828 37.5046 213.226 37.3112 212.54 37.3298C211.977 37.3459 211.498 37.5313 211.116 37.953C211.067 38.0063 211.017 38.0731 210.933 38.0424C210.849 38.0117 210.884 37.9276 210.883 37.8676C210.88 37.7275 210.906 37.5687 210.766 37.4873C210.581 37.3792 210.378 37.3765 210.177 37.4659C210.002 37.5447 210.008 37.7021 210.008 37.8542C210.006 38.6468 210.008 39.4394 210.008 40.232C210.008 41.0246 210.008 41.8305 210.008 42.6297C210.008 42.958 210.106 43.0474 210.461 43.0487C210.782 43.0487 210.882 42.9526 210.882 42.6404C210.882 42.1481 210.874 41.6544 210.884 41.162C210.895 40.5909 210.846 40.0198 210.92 39.4487C210.992 38.8897 211.252 38.472 211.784 38.2652C212.166 38.1171 212.562 38.0997 212.966 38.1958C213.203 38.2519 213.409 38.3533 213.592 38.5147H213.588Z" fill="#001514"/>
<path d="M198.749 39.5247C198.982 38.1237 200.339 37.8782 201.31 38.3719C201.561 38.4987 201.729 38.7268 201.849 38.991C201.981 39.2832 202.281 39.3913 202.572 39.2686C202.691 39.2178 202.747 39.1244 202.719 38.9977C202.647 38.6681 202.505 38.3692 202.266 38.1277C201.555 37.4085 200.687 37.1857 199.724 37.3938C198.875 37.578 198.32 38.121 198.024 38.9483C197.768 39.6635 197.774 40.392 197.892 41.1179C197.99 41.7224 198.27 42.2654 198.773 42.6284C199.676 43.2795 200.648 43.3089 201.631 42.8138C202.178 42.539 202.572 42.116 202.711 41.4915C202.741 41.3528 202.707 41.2567 202.581 41.1966C202.309 41.0685 201.992 41.1766 201.859 41.4408C201.835 41.4889 201.813 41.5369 201.788 41.5836C201.627 41.8891 201.387 42.1026 201.059 42.2147C200.908 42.2668 200.752 42.2801 200.596 42.3041C199.883 42.4162 199.175 42.0813 198.879 41.3688C198.727 41.0045 198.694 40.6256 198.718 40.2373C198.73 39.9998 198.712 39.7636 198.751 39.5234L198.749 39.5247Z" fill="#001514"/>
<path d="M219.661 42.4979C219.641 42.3165 219.522 42.2137 219.32 42.2111C219.115 42.2084 218.909 42.2137 218.705 42.2097C218.178 42.199 217.875 41.8868 217.875 41.3558C217.875 40.3964 217.88 39.437 217.869 38.4776C217.867 38.2855 217.93 38.2441 218.105 38.2495C218.475 38.2615 218.847 38.2521 219.218 38.2535C219.299 38.2535 219.37 38.2455 219.436 38.1841C219.615 38.0186 219.554 37.8105 219.519 37.625C219.486 37.4449 219.316 37.4155 219.157 37.4155C218.799 37.4129 218.441 37.4075 218.084 37.4182C217.924 37.4235 217.865 37.3808 217.869 37.21C217.88 36.7043 217.875 36.1973 217.872 35.6916C217.872 35.4527 217.757 35.342 217.518 35.338C217.458 35.338 217.398 35.3367 217.339 35.338C217.115 35.3447 216.999 35.4608 216.999 35.6809C216.999 36.1933 216.993 36.707 217.003 37.2194C217.006 37.3822 216.953 37.4275 216.799 37.4182C216.614 37.4062 216.427 37.4115 216.243 37.4182C216.081 37.4235 215.942 37.4756 215.894 37.6544C215.835 37.8785 215.901 38.1307 216.036 38.2241C216.091 38.2615 216.149 38.2561 216.207 38.2561C216.413 38.2561 216.618 38.2641 216.823 38.2535C216.965 38.2468 217.004 38.2975 217.002 38.4363C216.995 38.9286 216.999 39.4223 216.999 40.0335C217.028 40.5125 216.942 41.1142 217.042 41.708C217.126 42.2151 217.348 42.634 217.844 42.8595C218.344 43.0864 218.873 43.073 219.399 43.0357C219.632 43.0197 219.7 42.8409 219.661 42.5019V42.4979Z" fill="#001514"/>
<path d="M196.872 38.2514C196.943 38.2487 197.014 38.2567 197.076 38.2007C197.195 38.0939 197.254 37.8111 197.186 37.6229C197.124 37.4481 196.978 37.4148 196.819 37.4134C196.588 37.4108 196.358 37.4174 196.129 37.4481C195.845 37.4868 195.593 37.5802 195.386 37.7804C195.32 37.8458 195.256 37.9125 195.188 37.9779C195.151 38.0139 195.117 38.0659 195.054 38.0379C195 38.0139 195.021 37.9578 195.017 37.9138C195.015 37.8805 195.017 37.8471 195.017 37.8137C195.016 37.5082 194.913 37.4134 194.588 37.4121C194.247 37.4121 194.143 37.5055 194.143 37.8191C194.143 38.6183 194.143 39.4163 194.143 40.2155C194.143 41.0148 194.143 41.826 194.143 42.632C194.143 42.9549 194.24 43.0469 194.577 43.0469C194.919 43.0469 195.017 42.9575 195.017 42.6386C195.017 41.6205 195.02 40.6011 195.016 39.583C195.016 39.4229 195.032 39.2655 195.061 39.1094C195.145 38.673 195.508 38.3528 195.943 38.2848C196.254 38.2354 196.563 38.2621 196.872 38.2501V38.2514Z" fill="#001514"/>
<path d="M221.249 37.4121C220.922 37.4121 220.815 37.5082 220.815 37.8097C220.815 38.6143 220.815 39.4203 220.815 40.2248C220.815 41.0294 220.815 41.8487 220.815 42.66C220.815 42.9522 220.922 43.0496 221.235 43.0496C221.583 43.0496 221.69 42.9589 221.69 42.6546C221.69 41.0374 221.69 39.4216 221.69 37.8044C221.69 37.5082 221.581 37.4134 221.249 37.4134V37.4121Z" fill="#001514"/>
<path d="M220.696 36.037C220.696 36.3532 220.794 36.4439 221.112 36.4546C221.859 36.4773 221.826 36.3785 221.802 35.638C221.795 35.4258 221.675 35.3391 221.458 35.3351C221.306 35.3324 221.153 35.3298 221.002 35.3351C220.822 35.3431 220.709 35.4565 220.697 35.6367C220.692 35.7167 220.697 35.7968 220.697 35.8768C220.697 35.9302 220.697 35.9836 220.697 36.037H220.696Z" fill="#001514"/>
<g clip-path="url(#clip2_29_2789)">
<path d="M399.292 33.187V37.3154C401.826 35.4576 405.187 36.5182 405.861 39.6757C406.586 43.073 403.425 45.8931 400.18 44.4339C399.991 44.3492 399.312 43.8666 399.258 43.8652C398.97 43.8574 397.98 44.5678 397.584 44.5756V33.187H399.292ZM401.265 38.0442C398.672 38.4457 398.541 43.0267 401.685 43.2168C405.167 43.4268 405.21 37.4335 401.265 38.0442Z" fill="#001514"/>
<path d="M414.302 44.5758C414.189 44.6968 412.866 43.9088 412.633 43.933C412.539 43.943 412.019 44.3409 411.84 44.4249C409.74 45.4079 406.763 44.5025 407.135 41.7827C407.319 40.4417 408.807 39.5933 410.069 39.5933H412.595C412.547 38.3484 411.678 37.8772 410.502 38.033C410.116 38.0843 409.488 38.396 409.292 38.7441C409.198 38.9107 409.205 39.2367 409.18 39.2367H407.472C407.678 35.8578 413.326 35.2912 414.181 38.5391C414.205 38.6309 414.302 39.0125 414.302 39.0587V44.5751L414.302 44.5758ZM412.595 41.088H410.069C410.046 41.088 409.661 41.1756 409.605 41.1934C408.54 41.5336 408.487 42.8006 409.549 43.1743C410.948 43.6675 412.64 42.6319 412.595 41.088Z" fill="#001514"/>
<path d="M337.613 44.5755C337.508 44.6837 336.191 43.9072 335.944 43.9328C335.837 43.9435 335.502 44.2445 335.337 44.3278C333.754 45.13 331.109 45.0047 330.536 43.0082C329.963 41.0116 331.51 39.5937 333.38 39.5937H335.905C336.077 37.6819 333.103 37.5217 332.525 38.9545C332.487 39.0471 332.505 39.2378 332.491 39.2378H330.783C331.046 36.827 333.66 35.8754 335.762 36.6405C336.628 36.9559 337.613 38.0314 337.613 38.9887V44.5762V44.5755ZM335.905 41.0878H333.38C333.333 41.0878 332.909 41.2145 332.827 41.2458C331.816 41.6344 331.911 42.8601 332.918 43.1868C334.312 43.6381 335.995 42.6373 335.906 41.0878H335.905Z" fill="#001514"/>
<path d="M391.739 36.4075C397.198 36.2694 397.578 44.3233 392.284 44.7881C386.448 45.3006 386.049 36.552 391.739 36.4075ZM391.378 38.046C388.349 38.4831 388.745 43.4058 391.998 43.2236C395.485 43.0278 395.123 37.5058 391.378 38.046Z" fill="#001514"/>
<path d="M380.582 39.0233H378.875C378.854 39.0233 378.798 38.7507 378.72 38.6439C378.267 38.0196 377.442 37.8609 376.711 37.962C375.848 38.0816 375.374 39.0902 376.313 39.4859C377.676 40.0603 380.359 39.8119 380.634 41.8533C381.16 45.7482 373.828 45.798 373.752 42.0128H375.424C375.788 43.0783 377.077 43.4783 378.093 43.1886C378.646 43.0306 379.238 42.5018 378.769 41.9395C377.966 40.9757 374.408 41.5572 374.114 39.4083C373.575 35.4686 380.176 35.4223 380.581 39.0233H380.582Z" fill="#001514"/>
<path d="M347.145 44.5757H345.438V39.6288C345.438 39.5519 345.245 39.0586 345.192 38.9497C344.612 37.7781 342.881 37.7653 342.057 38.6664C341.781 38.9675 341.383 39.8758 341.383 40.2694V44.5757H339.675V36.6037L341.349 37.314C342.991 35.9837 345.773 35.9894 346.781 38.0714C346.861 38.2379 347.145 38.9981 347.145 39.1305V44.5757Z" fill="#001514"/>
<path d="M322.602 37.0307C322.612 37.0642 322.64 37.0948 322.673 37.1019C322.713 37.1098 322.769 37.1005 322.816 37.1019C322.862 37.1034 322.91 37.1012 322.958 37.1019C323.111 38.1974 325.316 38.3006 326.189 38.5305C327.616 38.9056 329.075 39.4174 329.217 41.1242C329.634 46.1316 320.827 45.9124 320.752 41.2296H322.602C322.693 42.9941 325.219 43.5358 326.586 42.9023C327.418 42.5165 327.827 41.2837 327.049 40.6609C326.409 40.1491 324.432 39.9797 323.527 39.6999C322.147 39.2729 321.223 38.6721 321.109 37.1019C321.154 37.1041 321.175 37.0322 321.18 37.0307C321.287 36.998 322.438 37.0065 322.603 37.0307H322.602Z" fill="#001514"/>
<path d="M299.684 35.3828C299.54 35.4739 298.533 35.1173 298.491 34.992C298.407 34.745 299.19 33.5948 299.381 33.335C303.342 27.9567 311.634 28.3347 315.09 34.0468C315.225 34.2689 315.564 34.7699 315.563 35.002C315.563 35.1216 315.134 36.1658 315.052 36.274C314.982 36.3651 314.952 36.4213 314.818 36.385C314.557 35.9885 314.425 35.5152 314.193 35.0867C311.209 29.5825 303.579 29.4074 300.119 34.5728C300.022 34.718 299.723 35.3586 299.684 35.3828Z" fill="#001514"/>
<path d="M353.762 37.0307C353.792 37.035 353.889 37.1375 353.975 37.1019C353.392 38.0358 353.249 39.5504 353.587 40.5868C354.607 43.713 359.495 44.0269 360.591 40.8032H362.299C362.016 42.5705 360.381 44.1621 358.671 44.6119C354.635 45.6732 351.248 42.5705 351.636 38.4991C351.658 38.2763 351.87 37.2934 351.977 37.1489C352.092 36.9958 353.512 36.9951 353.762 37.0314V37.0307Z" fill="#001514"/>
<path d="M384.067 34.1836V36.6037H386.913L386.202 38.2408H384.068V42.1912C384.068 42.3058 384.283 42.7727 384.387 42.8688C385.087 43.5208 386.073 42.8581 386.7 42.4403V44.291C385.403 45.1558 383.324 44.9373 382.632 43.4147C382.582 43.3058 382.361 42.6837 382.361 42.6183V34.1836H384.068H384.067Z" fill="#001514"/>
<path d="M415.903 33.1157H417.469C417.476 33.1157 417.575 33.2147 417.575 33.2225V44.5399C417.575 44.5477 417.476 44.6467 417.469 44.6467H415.903C415.896 44.6467 415.797 44.5477 415.797 44.5399V33.2225C415.797 33.2033 415.88 33.152 415.903 33.1157Z" fill="#001514"/>
<path d="M363.935 36.6035L365.609 37.3139C366.647 36.5245 367.909 36.1672 369.192 36.5394C369.243 36.5992 369.141 38.037 369.097 38.1018C369.008 38.2342 368.085 38.0128 367.814 38.0271C366.552 38.0954 365.643 39.2471 365.643 40.482V44.5748H363.935V36.6028V36.6035Z" fill="#001514"/>
<path d="M353.762 37.0304C353.993 37.0496 353.885 36.9913 353.817 36.8688C353.741 36.7315 353.636 36.614 353.584 36.461C353.165 35.2218 354.348 34.3384 355.383 33.9911C358.25 33.0287 361.733 34.5698 362.299 37.6717H360.591C359.948 35.5193 357.086 34.8381 355.253 35.9257C354.901 36.1343 354.186 36.7642 353.974 37.1023C353.888 37.1379 353.791 37.0354 353.761 37.0311L353.762 37.0304Z" fill="#001514"/>
<path d="M372.187 36.603H370.479V44.575H372.187V36.603Z" fill="#001514"/>
<path d="M322.815 37.1017C322.739 36.8612 322.442 36.7494 322.287 36.528C321.304 35.1301 322.85 33.9763 324.152 33.7763C326.576 33.404 328.799 34.6076 329.076 37.1729H327.298C327.226 34.8504 322.618 34.6703 322.958 37.1017C322.91 37.101 322.863 37.1032 322.815 37.1017Z" fill="#001514"/>
<path d="M394.312 33.187C394.336 33.308 394.252 33.3749 394.197 33.4639C393.781 34.1558 393.023 34.8426 392.569 35.5359H390.755L392.071 33.187H394.311H394.312Z" fill="#001514"/>
<path d="M370.479 35.4644V33.8984H372.151C372.159 33.8984 372.258 33.9974 372.258 34.0052V35.3576C372.258 35.3654 372.159 35.4644 372.151 35.4644H370.479Z" fill="#001514"/>
<path d="M321.108 37.1018L321.179 37.0308C321.174 37.0322 321.153 37.104 321.108 37.1018Z" fill="#001514"/>
<path d="M299.445 36.6748C299.712 36.7289 300.125 37.1609 300.459 37.2983C302.29 38.0528 303.509 36.5374 305.315 36.5317C304.892 36.2306 304.582 35.9936 304.538 35.4228C304.532 35.3402 304.533 34.6313 304.545 34.5907C304.593 34.4284 304.846 34.3643 304.886 34.1465C304.973 33.6867 304.866 33.2689 304.884 32.8696C304.935 31.7421 306.55 31.4175 307.45 31.6553C309.037 32.0738 309.185 33.3778 309.232 34.7871C309.246 35.2192 309.096 35.4875 308.753 35.7374C308.661 35.805 308.391 35.8812 308.38 35.8982C308.36 35.9274 308.599 36.2783 307.947 36.1773C307.869 36.2491 308.267 37.183 308.467 37.1645C308.565 37.1553 308.949 36.9616 309.152 36.9204C310.178 36.7097 311.25 36.9688 312.035 37.6741C312.494 38.087 313.243 39.2038 312.912 39.8287C312.831 39.981 312.643 40.0159 312.636 40.0672C312.625 40.1462 312.713 40.3412 312.717 40.4814C312.73 41.0779 312.722 41.5078 312.416 42.0381C312.253 42.3214 311.786 42.6816 311.699 42.888C311.605 43.1108 311.734 43.261 311.686 43.367C311.57 43.6183 311.01 43.4966 310.793 43.4389L310.864 43.7229C310.554 43.7749 310.294 43.6261 310.012 43.545C310.094 43.8097 310.324 44.3443 310.58 44.4745C310.752 44.5628 311.046 44.0126 311.267 43.8781C311.489 43.7435 311.809 43.7528 311.924 43.6104L314.562 37.3524C314.799 37.0044 315.279 37.23 315.479 37.5111L312.571 44.7208C312.514 44.7642 312.014 44.1343 311.88 44.0937C311.677 44.0325 311.305 44.1329 311.22 44.3301C311.136 44.5272 311.489 44.3528 311.593 44.3742C311.88 44.4318 312.08 44.7379 312.214 44.9707C311.799 44.8055 311.437 44.4012 311.077 44.9336C311.267 44.7941 312.07 45.3002 311.931 45.4319C311.707 45.3465 311.061 45.0646 310.944 45.4056C310.826 45.7465 311.047 45.6049 311.238 45.6611C311.354 45.6945 311.832 45.9821 311.61 46.0035C311.341 46.0291 310.747 45.7017 310.861 46.1707C310.875 46.2291 311.326 46.3871 311.428 46.4704C311.552 46.5715 311.829 46.9096 311.756 47.069C311.567 47.479 310.058 47.9879 309.599 48.1182C303.96 49.7126 298.184 45.8832 297.561 40.0544C297.541 39.8672 297.468 38.818 297.5 38.7141C297.524 38.6379 297.568 38.598 297.654 38.6066C297.733 38.6144 298.742 39.0201 298.775 39.0714C298.865 39.7348 298.908 40.3782 299.075 41.0324C299.388 42.2652 300.085 43.5649 300.939 44.5059C301.059 44.6383 301.937 45.4853 302.008 45.5009C302.204 45.5444 302.262 44.7258 302.262 44.5407C302.263 43.5663 301.589 42.8759 302.398 41.9071C302.495 41.7911 302.708 41.7085 302.742 41.611C302.811 41.4103 302.734 40.9071 302.762 40.6352C302.815 40.1241 303.11 39.7348 303.109 39.2386H302.078C301.108 39.2386 300.483 38.4749 299.766 38.2058C299.58 38.1361 298.602 38.0058 298.566 37.9482C298.54 37.9062 298.54 37.7225 298.566 37.682C298.628 37.5866 299.188 37.6514 299.126 37.3887C298.905 37.3524 298.688 37.6329 298.483 37.4976C298.361 37.4165 298.512 37.2656 298.455 37.1759C298.403 37.0948 298.248 37.1254 298.199 36.9239C298.168 36.8008 298.256 36.6769 298.379 36.6769C298.668 36.6769 299.201 36.6271 299.446 36.6769L299.445 36.6748ZM306.026 33.3301C305.75 33.3863 305.622 33.1643 305.387 33.1166C305.365 33.2767 305.054 33.7835 305.172 33.8995C305.198 33.9259 305.786 33.8141 305.741 34.1843C305.473 34.1387 304.863 34.4903 304.824 34.7281C304.794 34.9117 305.187 35.1587 305.086 35.3124C305.067 35.3423 304.915 35.3502 304.893 35.4349C304.78 35.879 305.713 36.3232 306.096 36.0356C306.143 36.1951 305.965 36.3018 305.959 36.425C305.953 36.5417 306.116 36.9061 306.149 37.0862C306.177 37.2385 306.096 37.7268 306.273 37.672C306.848 37.4941 307.372 36.583 307.454 36.0079C307.099 35.852 306.508 35.4121 306.451 35.0042C306.421 34.7921 306.832 34.9708 307.003 34.8078C307.244 34.5786 307.172 34.0647 306.733 34.2149C306.47 34.3053 306.53 34.6875 306.113 34.4882C305.602 34.244 306.071 33.3742 306.025 33.3315L306.026 33.3301ZM305.67 36.9595C303.408 37.1624 302.24 38.7141 299.955 37.4464C299.699 37.304 299.452 36.8876 299.053 37.0663C299.565 37.2627 299.527 37.2812 299.41 37.8137C299.884 37.7674 300.277 38.1496 300.713 38.3254C301.333 38.5753 302.196 38.776 302.863 38.7418C303.844 38.6927 304.701 38.0585 305.661 37.8756L305.671 36.9595H305.67ZM307.732 37.0314C307.612 36.9296 307.607 37.0755 307.575 37.1239C306.636 38.4884 306.067 38.1923 304.727 38.7561C303.607 39.2273 303.066 40.3213 303.109 41.5157C303.579 41.6075 303.524 41.2929 303.72 41.0231C303.935 40.7263 304.177 40.3241 304.608 40.4779C304.964 41.4075 305.262 42.3136 305.17 43.3293C305.066 44.4866 304.348 45.6006 304.107 46.7081C304.718 46.817 305.313 47.1203 305.947 47.059C306.044 46.6661 306.153 46.2718 306.218 45.8718C306.479 44.2866 306.093 42.6609 306.442 41.184C306.489 40.9825 306.651 40.7754 306.665 40.6188C306.681 40.4465 306.585 40.2579 306.588 40.0565C306.602 39.0927 307.098 38.2436 307.77 37.5994C307.819 37.5524 307.931 37.5368 307.941 37.5225C307.964 37.4898 307.751 37.0492 307.731 37.0321L307.732 37.0314ZM310.01 38.1688C309.503 38.0137 309.24 38.3938 308.906 38.524C308.696 38.6066 308.906 38.1603 308.695 38.2407C308.484 38.3212 308.19 38.6934 308.02 38.85C307.985 39.0066 308.564 39.1347 308.515 39.6209C308.485 39.9184 307.857 40.6131 307.876 40.6943C308.079 40.8409 308.307 40.89 308.511 41.0573C308.737 41.243 308.798 41.5021 309.138 41.5697C309.699 41.6808 310.718 41.3099 310.847 40.6793C311.047 39.7134 310.467 39.7326 310.161 39.0493C310.027 38.7489 309.976 38.502 310.01 38.1681V38.1688ZM307.236 40.8024C307.712 40.7476 308.272 39.3034 307.499 39.5348C307.201 39.6237 307.308 40.5085 307.236 40.8024ZM303.678 42.7243C303.616 42.6488 304.334 41.1583 304.283 40.8758C303.935 41.2729 303.653 41.7214 303.364 42.1612C303.272 42.3008 302.929 42.9755 302.894 43.009C302.854 43.0481 302.735 43.0517 302.764 42.915C302.814 42.6709 303.513 41.5904 302.892 42.0452C301.997 42.7008 302.544 43.7136 302.613 44.5372C302.651 44.987 302.577 45.4355 302.535 45.8803C302.8 46.002 303.218 46.3622 303.501 46.3608C303.628 46.3601 303.585 46.3352 303.626 46.2661C303.819 45.943 304.903 43.604 304.742 43.4389L304.531 43.4019C304.677 43.172 304.838 42.883 304.861 42.6082C304.866 42.5527 304.85 42.2189 304.745 42.2274C304.762 42.362 304.248 43.3044 304.105 43.152C304.288 42.6396 304.671 41.9712 304.604 41.4089C304.557 41.0167 304.433 41.5071 304.404 41.5633C304.23 41.9078 304.067 42.2609 303.853 42.5833C303.831 42.6182 303.79 42.8624 303.678 42.725L303.678 42.7243ZM308.659 42.3691C308.841 41.485 307.175 40.7056 307.022 41.7989C307.248 41.8573 307.128 41.6246 307.231 41.5441C307.365 41.4395 308.087 41.747 308.064 41.9769C308.054 42.073 307.859 42.1143 308.018 42.2616C308.177 42.4089 308.461 42.3684 308.659 42.3691ZM309.084 43.4368C308.332 43.7322 307.57 43.582 306.951 43.0809C306.891 43.1627 307.022 44.5913 307.111 44.6995C307.153 44.7507 307.661 44.9578 307.799 45.044C308.263 45.3344 308.675 45.6846 309.12 45.9999C309.194 45.9999 309.465 45.1237 309.359 45.0119C309.335 44.9863 309.193 45.0119 309.122 44.9322C308.919 44.708 309.024 43.7514 309.085 43.4368H309.084ZM304.781 43.2944V43.3656C304.827 43.3421 304.827 43.3179 304.781 43.2944Z" fill="#001514"/>
<path d="M322.673 37.1018C322.639 37.0947 322.612 37.0642 322.602 37.0308C322.635 37.0357 322.665 37.0677 322.673 37.1018Z" fill="#001514"/>
<path d="M308.95 39.7431C309.142 39.4683 310.237 39.9744 310.149 40.405C310.013 40.6492 309.862 40.4313 309.733 40.4157C309.604 40.4 309.531 40.4669 309.375 40.4121C309.184 40.3452 308.812 39.9395 308.95 39.7431Z" fill="#001514"/>
</g>
<g clip-path="url(#clip3_29_2789)">
<path d="M441.586 29.7333C450.129 28.9773 454.621 39.3976 448.122 44.9632C443.348 49.0507 435.856 46.7197 434.17 40.7164C432.741 35.6354 436.272 30.2032 441.586 29.7333ZM441.585 30.5683C438.04 30.9097 434.956 34.0743 434.693 37.6181C434.177 44.5617 442.078 48.8211 447.494 44.406C453.506 39.503 449.475 29.8101 441.585 30.5683Z" fill="#001514"/>
<path d="M470.625 33.8218V40.2293H469.09V39.742C467.834 40.8911 465.835 40.1113 465.479 38.5056C464.989 36.3009 467.076 34.6393 469.02 35.9113V33.8218H470.625ZM467.744 36.7616C466.875 36.9585 466.805 38.6494 467.643 38.9217C469.491 39.5227 469.558 36.3504 467.744 36.7616Z" fill="#001514"/>
<path d="M510.395 38.6265V40.2281H508.72V34.1689H511.964C512.496 34.1689 513.38 34.6486 513.71 35.0723C514.865 36.5559 513.628 38.6258 511.825 38.6258H510.394L510.395 38.6265ZM510.395 37.3036H511.686C511.72 37.3036 512.157 37.0997 512.205 37.0557C512.495 36.7939 512.492 36.1133 512.268 35.8165C512.197 35.723 511.843 35.4926 511.755 35.4926H510.394V37.3036H510.395Z" fill="#001514"/>
<path d="M459.461 34.1694V35.4924H456.391V36.8161H459.113V38.139H456.391V40.2285H454.716V34.1694H459.461Z" fill="#001514"/>
<path d="M538.722 40.2291H537.117V37.4086C537.117 36.8466 536.111 36.6414 535.684 37.0233C535.609 37.0903 535.372 37.5497 535.372 37.6174V40.2291H533.767V35.5628H535.302V36.0501C536.064 35.2877 537.652 35.2451 538.331 36.1255C538.44 36.2658 538.721 36.8459 538.721 36.9897V40.2284L538.722 40.2291Z" fill="#001514"/>
<path d="M505.022 40.2289H503.417V37.4776C503.417 37.3826 503.206 37.0273 503.104 36.954C502.59 36.5853 501.672 36.991 501.672 37.6172V40.2289H500.067V35.5626H501.603V36.0499C502.332 35.3147 503.872 35.2407 504.563 36.0555C504.72 36.2419 505.021 36.8332 505.021 37.0601V40.2289H505.022Z" fill="#001514"/>
<path d="M496.005 35.511C497.828 35.2652 499.404 36.1909 499.234 38.1764C499.027 40.5878 495.287 41.0185 494.251 38.9667C493.523 37.5265 494.386 35.7288 496.005 35.5103V35.511ZM497.324 36.9791C497.11 36.7718 496.698 36.7069 496.41 36.7515C495.252 36.9289 495.267 39.2264 496.89 38.9709C497.713 38.8411 497.847 37.4867 497.324 36.9791Z" fill="#001514"/>
<path d="M529.705 35.511C531.308 35.28 532.956 36.0535 532.974 37.8379C533.007 41.1694 527.352 41.0808 527.707 37.5559C527.808 36.5582 528.711 35.6542 529.705 35.511H529.705ZM530.051 36.7628C528.974 36.9855 529.011 39.2935 530.647 38.9591C531.684 38.7469 531.631 36.4354 530.051 36.7628Z" fill="#001514"/>
<path d="M517.651 37.4429C517.546 36.4822 516.521 36.6002 515.817 36.8313C515.647 36.8872 515.445 37.1022 515.314 36.9563C515.234 36.8669 514.842 36.0522 514.889 35.9789C515.91 35.2891 518.292 35.1921 518.963 36.3754C519.055 36.5374 519.255 37.0408 519.255 37.1985V40.2284H517.72V39.6713C517.182 40.2724 516.463 40.4134 515.695 40.1949C514.407 39.8284 514.2 38.1284 515.449 37.6488C515.583 37.5979 516.181 37.4429 516.289 37.4429H517.65H517.651ZM517.651 38.2792H516.569C516.251 38.2792 515.97 39.0011 516.411 39.2029C517.05 39.4947 517.802 38.9948 517.651 38.2792Z" fill="#001514"/>
<path d="M485.207 40.2288H483.741V39.6717L483.113 40.1241C481.905 40.6156 480.311 39.9642 480.617 38.4688C480.691 38.1099 481.13 37.7616 481.461 37.6387C481.625 37.578 482.164 37.4425 482.311 37.4425H483.602C483.507 36.3171 481.938 36.6062 481.3 37.0942L480.816 36.0218C481.766 35.3118 483.985 35.2029 484.778 36.1649C484.923 36.3423 485.207 36.9182 485.207 37.1298V40.2288ZM483.603 38.2789H482.591C482.109 38.2789 481.799 39.2305 482.728 39.2591C483.376 39.2793 483.691 38.9205 483.603 38.2789Z" fill="#001514"/>
<path d="M544.164 40.2292H542.699V39.672L542.071 40.1244C540.89 40.5761 539.377 40.0609 539.557 38.5906C539.612 38.1452 540.02 37.7871 540.418 37.6391C540.582 37.5783 541.122 37.4429 541.268 37.4429H542.559C542.464 36.3175 540.895 36.6065 540.258 37.0945L539.774 36.0222C540.702 35.3122 542.9 35.2263 543.706 36.1241C543.845 36.2791 544.164 36.9479 544.164 37.1294V40.2285V40.2292ZM542.559 38.2793H541.548C541.066 38.2793 540.755 39.2308 541.685 39.2594C542.332 39.2797 542.647 38.9208 542.559 38.2793Z" fill="#001514"/>
<path d="M461.485 38.2787C461.663 39.3099 463.059 39.1779 463.742 38.7074L464.48 39.5577C463.063 40.9875 460.008 40.2461 459.819 38.0965C459.541 34.9263 464.534 34.4704 464.884 37.5673C464.909 37.7907 464.976 38.1182 464.799 38.2794H461.485V38.2787ZM463.368 37.4424C463.245 36.3065 461.546 36.3009 461.415 37.4424H463.368Z" fill="#001514"/>
<path d="M476.486 38.2786H473.067C473.369 39.256 474.606 39.2162 475.325 38.7038L476.134 39.5597C474.765 40.9203 471.712 40.3123 471.47 38.2367C471.037 34.5331 477.03 34.5554 476.486 38.2793V38.2786ZM475.02 37.4422C474.867 36.3134 473.151 36.2966 473.067 37.4422H475.02Z" fill="#001514"/>
<path d="M490.928 36.7455L489.647 37.3095C489.308 36.4983 487.92 36.587 487.733 37.4226C487.513 38.4091 488.042 39.2329 489.117 38.9432C489.398 38.8678 489.613 38.4154 489.764 38.4294L490.928 38.9767C489.907 41.2345 486.074 40.4009 486.038 37.8953C486.001 35.338 489.875 34.5219 490.928 36.7455Z" fill="#001514"/>
<path d="M522.116 34.5176V35.7016H523.232V36.8857H522.116V38.6617C522.116 39.0296 522.901 39.1574 523.162 38.9054L523.5 39.9295C523.509 40.0747 523.313 40.1264 523.202 40.1634C522.39 40.4315 521.194 40.2863 520.731 39.4876C520.688 39.4143 520.511 38.9193 520.511 38.8711V36.8864H519.813V35.7023H520.511V34.5183H522.116V34.5176Z" fill="#001514"/>
<path d="M546.885 33.8218H545.28V40.2293H546.885V33.8218Z" fill="#001514"/>
<path d="M527.349 35.493V36.8858C526.855 36.8572 526.24 36.8621 525.962 37.348C525.935 37.3961 525.814 37.7312 525.814 37.7564V40.2292H524.209V35.5628H525.744C525.771 35.6368 525.66 36.129 525.848 36.0494C526.228 35.6061 526.777 35.4379 527.349 35.493Z" fill="#001514"/>
<path d="M480.392 35.4929V36.8857C479.914 36.857 479.398 36.8752 479.105 37.3066C479.07 37.3583 478.928 37.6592 478.928 37.6864V40.2283H477.323V35.562H478.858L478.892 36.0493C479.304 35.6604 479.816 35.437 480.392 35.4922V35.4929Z" fill="#001514"/>
<path d="M532.094 46.9496C531.877 48.563 529.732 48.593 528.676 47.786L528.892 47.4104C529.219 47.4627 529.487 47.6994 529.832 47.7448C530.973 47.8942 531.543 47.5626 531.535 46.3583C531.296 46.4372 531.136 46.625 530.886 46.7192C529.494 47.2407 528.097 46.0581 528.571 44.6178C528.971 43.4024 530.676 43.1741 531.535 44.06V43.572H532.094C531.992 44.6241 532.231 45.9289 532.094 46.9496H532.094ZM529.911 44.0747C528.911 44.2778 528.765 45.8123 529.753 46.2207C530.563 46.5552 531.559 46.0811 531.537 45.1414C531.517 44.2716 530.69 43.9162 529.911 44.0747Z" fill="#001514"/>
<path d="M493.161 35.5625H491.556V40.2288H493.161V35.5625Z" fill="#001514"/>
<path d="M521.303 43.178C521.124 43.3589 521.078 43.687 521.176 43.9188C521.485 44.6476 523.935 44.2748 523.916 45.7667C523.897 47.2586 521.337 47.3313 520.471 46.497L520.62 46.0753C521.254 46.4083 521.89 46.6031 522.623 46.4802C523.073 46.4048 523.459 46.0167 523.25 45.5391C522.906 44.7565 520.389 45.2187 520.509 43.6081C520.614 42.2062 522.691 42.1574 523.619 42.7347C523.709 42.8527 523.592 43.1899 523.469 43.2178C522.978 42.9239 521.718 42.7578 521.302 43.178H521.303Z" fill="#001514"/>
<path d="M527.907 45.4522H525.046C525.254 46.5985 526.526 46.7821 527.375 46.1545C527.749 46.4519 527.651 46.6104 527.272 46.8038C526.182 47.3588 524.653 46.8638 524.496 45.5499C524.184 42.9333 528.081 42.8153 527.907 45.4529V45.4522ZM527.349 45.034C527.16 43.6594 525.259 43.6601 525.046 45.034H527.349Z" fill="#001514"/>
<path d="M541.638 43.5213C543.761 43.3216 544.343 46.1484 542.606 46.8577C539.927 47.951 539.006 43.7691 541.638 43.5213ZM540.978 44.3612C540.35 44.9881 540.653 46.3837 541.615 46.4982C543.598 46.7341 543.478 43.6567 541.493 44.0749C541.387 44.0973 541.055 44.2844 540.978 44.3612Z" fill="#001514"/>
<path d="M533.907 43.572V45.8353C533.907 45.9149 534.113 46.2437 534.204 46.3122C534.663 46.6543 535.478 46.5363 535.78 46.0336C535.808 45.9875 535.931 45.7146 535.931 45.6957V43.5713H536.558V46.9838H536V46.4965C535.773 46.5188 535.692 46.7555 535.491 46.8581C534.77 47.2281 533.71 46.9963 533.403 46.1984C533.38 46.1397 533.279 45.7907 533.279 45.7648V43.5713H533.907L533.907 43.572Z" fill="#001514"/>
<path d="M546.675 44.2686C546.25 44.0243 544.822 43.8044 544.788 44.5102C544.761 45.0757 545.965 45.0422 546.396 45.2104C547.057 45.4687 547.214 46.2115 546.678 46.6737C546.038 47.2259 544.8 47.0751 544.125 46.6388L544.35 46.2248C544.866 46.4182 545.306 46.5669 545.876 46.4992C546.195 46.4615 546.521 46.215 546.362 45.8715C546.137 45.3835 544.388 45.6949 544.239 44.7873C544.01 43.3869 545.894 43.301 546.787 43.7778L546.675 44.2686H546.675Z" fill="#001514"/>
<path d="M537.745 43.5713H538.304L538.338 44.1284C538.665 43.7074 539.094 43.5245 539.629 43.5015L539.625 44.0558C539.197 44.0097 538.373 44.3776 538.373 44.86V46.9845H537.745V43.572V43.5713Z" fill="#001514"/>
<path d="M493.138 34.7033C492.197 35.6702 490.633 34.1902 491.769 33.4418C492.747 32.7974 493.9 33.9193 493.138 34.7033Z" fill="#001514"/>
<path d="M498.463 33.6816L496.963 34.9355H495.812C496.127 34.5648 496.45 34.2031 496.791 33.8548C496.849 33.7954 496.849 33.6816 496.858 33.6816H498.463Z" fill="#001514"/>
<path d="M439.611 35.8414L439.516 36.0034L439.971 36.8914C440.342 37.082 441.847 36.8188 442.054 37.0233C442.2 37.1679 442.21 38.3079 442.094 38.4594C441.751 38.7212 441.299 38.6032 440.902 38.6277C440.881 38.7498 440.919 38.8448 440.956 38.9558C441.177 39.6141 442.06 40.7933 442.153 41.3825C442.21 41.7434 442.221 43.6158 442.158 43.9551C442.094 44.2944 441.686 44.1715 441.585 43.8993L437.213 34.9708C437.268 34.5952 437.532 34.2071 437.934 34.168L447.302 34.2224C447.612 34.4137 447.857 34.776 447.78 35.1468L446.138 38.509C446.106 38.5453 445.919 38.627 445.889 38.627H444.528C444.422 39.5708 444.685 40.8638 444.498 41.7651C444.451 41.9906 443.555 43.8155 443.403 44.0145C443.239 44.2309 443.104 44.2051 442.919 44.0291L442.9 37.1099C443.046 36.7685 444.725 37.0918 445.11 36.8907C445.273 36.5584 445.539 36.2317 445.505 35.8407H439.609L439.611 35.8414Z" fill="#001514"/>
</g>
</g>
<defs>
<clipPath id="clip0_29_2789">
<rect width="82" height="26" fill="white" transform="translate(20 26)"/>
</clipPath>
<clipPath id="clip1_29_2789">
<rect width="43" height="24.1404" fill="white" transform="translate(118.274 26.9297)"/>
</clipPath>
<clipPath id="clip2_29_2789">
<rect width="120.083" height="18.957" fill="white" transform="translate(297.493 29.5215)"/>
</clipPath>
<clipPath id="clip3_29_2789">
<rect width="113.15" height="18.6116" fill="white" transform="translate(433.85 29.6943)"/>
</clipPath>
</defs>
</svg>
