<svg width="1405" height="78" viewBox="0 0 1405 78" fill="none" xmlns="http://www.w3.org/2000/svg">
<g opacity="0.5">
<g clip-path="url(#clip0_1_7013)">
<path d="M157.073 56.423C155.605 55.8503 154.118 55.3745 152.954 54.1693C150.984 52.1406 150.513 49.7017 150.757 47.0207C150.819 46.3369 151.164 45.8155 151.775 45.428C155.33 43.18 158.857 40.8892 162.417 38.6498C163.834 37.758 164.628 38.2139 164.637 39.8949C164.656 44.5504 164.62 49.206 164.659 53.8615C164.665 54.5539 164.477 55.0981 164.143 55.554C163.747 56.0953 163.15 56.4543 162.507 56.6252C161.674 56.8475 161.163 56.9244 160.42 56.9244C159.303 56.9244 158.338 56.8503 157.073 56.423Z" fill="#001514"/>
<path d="M263.674 45.1328C263.256 45.147 262.836 45.1527 262.417 45.1727C261.952 45.1955 261.565 45.0559 261.455 44.5573C261.259 43.6598 260.953 44.0587 260.588 44.4404C259.965 45.0901 259.14 45.2866 258.293 45.3322C256.871 45.4063 255.835 44.6513 255.56 43.4204C255.232 41.956 255.796 40.8248 257.185 40.2322C258.049 39.8647 258.975 39.7507 259.901 39.6253C260.274 39.5769 260.835 39.631 260.801 38.9957C260.776 38.5084 260.4 38.2492 259.974 38.158C258.989 37.95 258.001 37.9529 257.168 38.611C256.548 39.1011 256.262 38.7905 256.023 38.2463C255.788 37.7021 255.109 37.138 256.085 36.6223C257.965 35.6251 259.892 35.4541 261.873 36.269C262.923 36.6992 263.341 37.6451 263.669 38.6424V45.1328H263.674ZM259.09 43.2552C260.125 43.2352 260.843 42.617 260.869 41.8562C260.888 41.2608 260.538 41.1838 260.055 41.2009C258.986 41.2408 258.119 41.8306 258.217 42.5087C258.299 43.0785 258.72 43.2409 259.09 43.2552Z" fill="#001514"/>
<path d="M203.797 56.4206C203.679 56.3523 203.567 56.2582 203.441 56.2212C203.132 56.13 202.751 56.1243 202.86 55.6286C202.964 55.1556 203.245 55.0986 203.696 55.1698C204.468 55.2924 205.237 55.6086 206.036 55.3323C206.331 55.2297 206.757 55.224 206.707 54.7824C206.668 54.4376 206.292 54.4633 206.028 54.4291C205.427 54.355 204.816 54.3578 204.224 54.2382C203.275 54.0501 203.026 53.6427 203.421 52.7594C203.615 52.3292 203.545 52.0984 203.326 51.7679C202.375 50.3405 203.517 48.7108 205.088 48.7165C205.506 48.7165 205.947 48.6737 206.334 48.7934C206.847 48.9529 207.302 49.0441 207.79 48.7393C207.992 48.611 208.258 48.6167 208.399 48.8675C208.517 49.0783 208.561 49.4117 208.374 49.5228C207.751 49.8875 207.922 50.4174 207.905 50.9759C207.874 51.9702 207.004 52.5828 205.705 52.7196C205.329 52.7594 204.631 52.4204 204.633 52.9361C204.636 53.5572 205.371 53.2125 205.781 53.2808C206.236 53.3578 206.707 53.3179 207.159 53.466C207.723 53.6541 208.18 53.9504 208.281 54.5858C208.393 55.281 208.065 55.7539 207.464 56.0673C207.262 56.1728 207.074 56.301 206.881 56.4178H203.803L203.797 56.4206ZM206.516 50.6824C206.502 50.0784 206.053 49.6681 205.436 49.6994C204.83 49.7279 204.389 50.1895 204.437 50.7736C204.485 51.3975 204.88 51.6397 205.456 51.6568C206.129 51.6768 206.53 51.3064 206.516 50.6852V50.6824Z" fill="#001514"/>
<path d="M150.629 32.2967C150.629 29.57 150.669 26.8433 150.615 24.1167C150.582 22.3217 151.311 21.0367 153.682 21.0766C158.763 21.1621 163.844 21.0338 168.926 21.125C173.502 21.2076 177.483 22.8374 180.109 26.7493C183.26 31.4391 183.423 36.4793 180.668 41.3998C178.516 45.2405 174.913 46.8588 170.637 47.0611C170.034 47.0896 169.422 47.0981 168.819 47.044C167.54 46.93 167.079 46.4485 167.063 45.1607C167.035 42.9982 167.049 40.8356 167.054 38.6731C167.057 37.3653 166.959 36.0946 165.654 35.3738C164.338 34.6501 163.222 35.2968 162.139 35.9835C159.178 37.8583 156.227 39.7416 153.27 41.622C152.995 41.7987 152.725 41.9896 152.433 42.132C151.449 42.6107 150.772 42.2574 150.652 41.1776C150.596 40.6675 150.629 40.1433 150.629 39.6276C150.629 37.183 150.629 34.7384 150.629 32.2938V32.2967Z" fill="#001514"/>
<path d="M191.43 39.5679C191.43 38.0208 191.464 36.4737 191.416 34.9266C191.394 34.1829 191.688 33.9009 192.381 33.9151C194.051 33.9493 195.729 33.7869 197.39 34.0718C199.342 34.408 200.42 35.73 200.451 37.8185C200.479 39.7759 199.415 41.1207 197.505 41.5082C196.73 41.6649 195.945 41.756 195.151 41.7275C194.578 41.7048 194.278 41.9583 194.306 42.5595C194.317 42.7931 194.306 43.0268 194.3 43.2633C194.284 45.252 194.177 45.3232 192.272 45.1865C191.579 45.1352 191.416 44.8189 191.425 44.2063C191.444 42.6592 191.43 41.1121 191.43 39.565H191.427L191.43 39.5679ZM194.292 37.8926C194.292 39.3656 194.317 39.3998 195.417 39.3941C196.848 39.3855 197.578 38.8356 197.547 37.7843C197.516 36.7899 196.96 36.3996 195.574 36.3967C194.306 36.3967 194.295 36.411 194.292 37.8897V37.8926Z" fill="#001514"/>
<path d="M217.34 40.4714C217.34 44.4403 214.083 46.5202 210.598 44.9161C209.902 44.5942 209.324 44.1298 208.974 43.4403C208.022 41.5712 207.994 39.6737 208.864 37.7676C208.94 37.5994 209.055 37.4456 209.167 37.2974C210.194 35.9441 212.419 35.3685 214.4 35.9384C216.156 36.4427 217.141 37.6906 217.301 39.6224C217.329 39.95 217.332 40.2777 217.34 40.4714ZM214.616 40.5028C214.535 40.0611 214.479 39.6423 214.38 39.2349C214.212 38.5226 213.783 38.1009 213.022 38.0553C212.251 38.0126 211.636 38.2434 211.359 39.0212C210.983 40.0754 210.997 41.1381 211.44 42.1667C211.729 42.8391 212.284 43.1468 213.011 43.0756C213.676 43.01 214.145 42.6425 214.33 41.9986C214.47 41.5085 214.523 40.99 214.61 40.5028H214.616Z" fill="#001514"/>
<path d="M232.365 40.4248C232.365 39.2965 232.353 38.1682 232.37 37.0428C232.376 36.5898 232.275 36.0057 232.915 35.9145C233.532 35.8262 234.306 35.5982 234.587 36.453C234.85 37.2536 235.055 36.9516 235.482 36.5784C236.596 35.6068 238.36 35.47 239.525 36.1966C240.389 36.7351 240.796 37.5499 240.81 38.5585C240.832 40.4361 240.818 42.3166 240.852 44.1942C240.863 44.9236 240.552 45.1629 239.848 45.1857C238.231 45.2427 238.158 45.2114 238.15 43.6386C238.144 42.5588 238.15 41.4789 238.15 40.3963C238.15 40.0686 238.161 39.7353 238.119 39.4104C238.038 38.7637 237.805 38.2337 237.053 38.1369C236.279 38.0371 235.667 38.3562 235.344 39.06C235.142 39.5045 235.165 39.9774 235.162 40.4447C235.153 41.7126 235.142 42.9805 235.159 44.2512C235.168 44.9065 234.893 45.2057 234.244 45.1715C233.967 45.1572 233.683 45.1487 233.406 45.1772C232.586 45.2627 232.345 44.8353 232.359 44.0888C232.384 42.8665 232.365 41.647 232.365 40.4248Z" fill="#001514"/>
<path d="M222.357 45.178C220.895 45.178 220.89 45.178 220.424 43.762C219.692 41.5311 218.959 39.303 218.247 37.0664C217.913 36.015 217.991 35.9125 219.004 35.8498C220.508 35.7558 220.604 35.8213 221.036 37.3143C221.403 38.5765 221.757 39.8415 222.119 41.1037C222.197 41.3715 222.293 41.6365 222.382 41.9014C222.475 41.6564 222.584 41.4171 222.66 41.1664C223.059 39.8158 223.443 38.4596 223.844 37.112C224.184 35.9752 225.385 35.4338 226.44 35.921C226.849 36.1091 226.776 36.4282 226.672 36.753C226.28 37.9582 225.881 39.1605 225.486 40.3657C225.121 41.4826 224.748 42.5938 224.397 43.7135C223.853 45.4572 223.855 45.141 222.357 45.178Z" fill="#001514"/>
<path d="M246.962 35.764C247.657 35.7242 248.429 35.8609 249.164 36.1971C250.152 36.6501 250.205 36.7812 249.837 37.787C249.572 38.5126 249.085 38.7196 248.376 38.4081C247.175 37.881 246.083 38.0918 245.497 38.9694C244.863 39.921 244.981 41.6248 245.735 42.3855C246.448 43.1064 247.461 43.2033 248.681 42.491C249.271 42.1462 249.45 42.2944 249.68 42.83C250.292 44.2461 250.163 44.5737 248.704 45.0581C246.215 45.8843 243.628 44.9754 242.722 42.8813C242.085 41.4083 242.057 39.8583 242.621 38.354C243.266 36.633 244.731 35.7726 246.959 35.764H246.962Z" fill="#001514"/>
<path d="M201.771 40.498C201.771 39.3269 201.762 38.1531 201.774 36.9821C201.779 36.5319 201.667 35.9535 202.337 35.8937C202.955 35.8367 203.743 35.6031 203.965 36.5006C204.215 37.5063 204.506 37.2157 204.905 36.6202C204.98 36.5063 205.104 36.4236 205.213 36.3382C205.923 35.7769 206.905 35.5945 207.262 35.9535C207.458 36.153 207.537 37.9593 207.377 38.2898C207.225 38.6004 206.947 38.5776 206.67 38.6147C204.947 38.8483 204.548 39.2671 204.473 41.0165C204.428 42.0451 204.467 43.0793 204.436 44.1079C204.403 45.1421 204.346 45.1706 203.123 45.1763C201.883 45.182 201.799 45.1393 201.776 44.1506C201.748 42.934 201.768 41.7146 201.768 40.4951L201.771 40.498Z" fill="#001514"/>
<path d="M254.108 40.5806C254.108 41.7517 254.094 42.9227 254.114 44.0937C254.125 44.8345 253.892 45.2704 253.067 45.1821C252.745 45.1479 252.416 45.1678 252.094 45.1707C251.58 45.1764 251.328 44.9313 251.328 44.4071C251.328 41.8314 251.333 39.2529 251.322 36.6773C251.319 36.0618 251.639 35.851 252.189 35.8539C252.467 35.8539 252.747 35.8653 253.025 35.8482C253.791 35.7997 254.128 36.1502 254.117 36.9251C254.094 38.1417 254.111 39.3612 254.111 40.5806H254.108Z" fill="#001514"/>
<path d="M227.779 40.4908C227.779 39.2742 227.753 38.0576 227.787 36.8439C227.812 35.9207 227.967 35.841 229.179 35.8438C229.863 35.8438 230.475 35.8324 230.461 36.8325C230.422 39.3113 230.439 41.7901 230.453 44.266C230.455 44.9213 230.175 45.1464 229.538 45.1863C227.902 45.2832 227.784 45.2062 227.779 43.5765C227.773 42.5479 227.779 41.5194 227.779 40.4908Z" fill="#001514"/>
<path d="M193.27 54.8944C192.662 54.7776 192.092 54.8488 191.564 54.6095C191.27 54.4756 191.104 54.2932 191.239 53.9627C191.346 53.7006 191.486 53.4356 191.837 53.5069C192.201 53.5809 192.555 53.7177 192.92 53.7661C193.686 53.8687 194.409 53.4955 194.511 52.957C194.654 52.182 194.143 51.8743 193.543 51.6349C193.11 51.464 192.676 51.293 192.263 51.0794C191.539 50.7033 191.149 50.0878 191.186 49.2587C191.222 48.4125 191.738 47.894 192.476 47.5891C193.475 47.176 194.48 47.2985 195.473 47.6261C195.835 47.7458 196.028 47.951 195.849 48.3612C195.697 48.7088 195.481 48.8969 195.091 48.743C194.696 48.5835 194.283 48.535 193.862 48.5407C193.363 48.5464 192.897 48.6775 192.751 49.2046C192.597 49.763 193.004 50.065 193.439 50.2759C193.773 50.4383 194.132 50.5409 194.477 50.6805C195.767 51.2019 196.191 51.823 196.051 52.9826C195.939 53.92 195.189 54.6095 194.036 54.8203C193.764 54.8688 193.484 54.8773 193.268 54.8973L193.27 54.8944Z" fill="#001514"/>
<path d="M214.498 51.7256C214.498 52.4777 214.529 53.2299 214.489 53.9793C214.447 54.7827 214.209 54.985 213.561 54.6061C213.143 54.3639 212.935 54.4351 212.59 54.6203C211.989 54.9423 211.336 54.9508 210.688 54.7685C210.104 54.6061 209.697 54.2471 209.599 53.6174C209.38 52.2156 209.45 50.8053 209.49 49.3978C209.504 48.9448 209.753 48.7425 210.216 48.7482C210.71 48.7539 210.862 49.0245 210.864 49.4605C210.867 50.4463 210.864 51.4349 210.881 52.4208C210.892 53.039 210.901 53.6972 211.731 53.7998C212.43 53.8852 212.966 53.3695 213.033 52.4806C213.095 51.6401 213.05 50.791 213.087 49.9448C213.109 49.412 212.96 48.7311 213.855 48.7567C214.68 48.7795 214.484 49.4177 214.503 49.8935C214.531 50.5033 214.509 51.1158 214.509 51.7256C214.503 51.7256 214.501 51.7256 214.495 51.7256H214.498Z" fill="#001514"/>
<path d="M219.893 51.7632C219.915 51.4868 219.921 51.1563 219.969 50.8315C220.176 49.4724 220.976 48.7516 222.309 48.7032C223.815 48.649 224.635 49.2274 224.996 50.6036C225.128 51.1107 225.131 51.6264 225.106 52.1421C225.019 53.9001 224.152 54.8061 222.541 54.8346C220.897 54.8659 220.05 54.0254 219.924 52.2362C219.912 52.0965 219.904 51.9541 219.89 51.7632H219.893ZM223.664 51.8202C223.63 51.3956 223.638 51.0139 223.566 50.6492C223.453 50.0936 223.142 49.7032 222.519 49.7203C221.927 49.7374 221.571 50.0565 221.467 50.6463C221.329 51.4412 221.327 52.2419 221.509 53.0282C221.627 53.5354 221.961 53.8374 222.508 53.8288C223.046 53.8203 223.4 53.5268 223.526 53.0282C223.627 52.6236 223.624 52.1934 223.664 51.8202Z" fill="#001514"/>
<path d="M197.022 51.5197C197.042 51.3801 197.05 50.9043 197.173 50.4598C197.566 49.0466 198.708 48.4255 200.229 48.7532C201.382 49.001 202.311 50.4598 202.117 51.6764C202.05 52.0896 201.814 52.2235 201.449 52.2292C200.798 52.2377 200.148 52.2178 199.497 52.2548C199.129 52.2748 198.574 52.0639 198.554 52.7449C198.54 53.272 198.832 53.6509 199.328 53.782C199.78 53.9016 200.254 53.8931 200.686 53.6566C201.16 53.3973 201.52 53.5085 201.637 54.0441C201.761 54.5997 201.239 54.6453 200.928 54.7051C198.627 55.1467 196.994 54.5968 197.022 51.5197ZM198.551 50.7333C198.503 51.3117 198.921 51.326 199.283 51.2832C199.738 51.2291 200.361 51.5938 200.596 50.9128C200.754 50.4627 200.156 49.7732 199.659 49.7276C199.098 49.6763 198.593 50.1322 198.548 50.7333H198.551Z" fill="#001514"/>
<path d="M228.644 48.689C228.95 48.7488 229.368 48.7972 229.766 48.9169C230.016 48.991 230.339 49.0992 230.221 49.4867C230.112 49.8457 229.867 50.0509 229.48 49.9141C229.079 49.7717 228.675 49.6833 228.249 49.7204C227.889 49.7517 227.614 49.917 227.542 50.2874C227.48 50.6065 227.682 50.8372 227.937 50.9626C228.394 51.1905 228.874 51.3786 229.348 51.5752C230.072 51.8743 230.462 52.3929 230.434 53.2021C230.403 54.0426 229.865 54.4614 229.163 54.6922C228.299 54.9743 227.415 54.9543 226.554 54.6665C226.313 54.5868 225.976 54.4899 226.083 54.1053C226.178 53.7634 226.386 53.5012 226.792 53.6123C227.152 53.7092 227.494 53.8602 227.878 53.8403C228.305 53.8203 228.762 53.8232 228.902 53.3103C229.051 52.7747 228.647 52.561 228.254 52.3787C227.957 52.2419 227.645 52.1422 227.348 52.0111C226.299 51.5524 225.956 51.0167 226.105 50.0936C226.228 49.3329 226.818 48.8685 227.836 48.7374C228.066 48.7089 228.302 48.7089 228.644 48.689Z" fill="#001514"/>
<path d="M216.1 51.7561C216.1 51.0068 216.094 50.2574 216.103 49.5081C216.105 49.2317 216.114 48.924 216.445 48.8157C216.728 48.7217 217.04 48.736 217.169 49.038C217.388 49.5508 217.612 49.5195 217.974 49.1747C218.168 48.9924 218.44 48.8699 218.695 48.7816C218.967 48.6875 219.282 48.7046 219.394 49.0323C219.509 49.3599 219.489 49.7645 219.091 49.8414C217.447 50.1691 217.489 51.4085 217.52 52.6621C217.528 53.0354 217.522 53.4115 217.517 53.7847C217.508 54.2634 217.52 54.7506 216.838 54.7734C216.052 54.799 216.097 54.2377 216.091 53.7192C216.083 53.0639 216.091 52.4086 216.091 51.7532C216.094 51.7532 216.097 51.7532 216.1 51.7532V51.7561Z" fill="#001514"/>
<path d="M252.562 35.261C252.091 35.1927 251.373 35.4662 251.319 34.4918C251.272 33.6313 251.412 33.4233 252.273 33.3606C252.548 33.3407 252.826 33.3663 253.101 33.3521C253.78 33.3236 254.122 33.5971 254.108 34.3294C254.094 35.0673 253.716 35.3066 253.053 35.261C252.916 35.2525 252.778 35.261 252.565 35.261H252.562Z" fill="#001514"/>
<path d="M229.232 35.2626C227.966 35.2883 227.792 35.1772 227.781 34.3224C227.77 33.4762 227.924 33.3622 229.06 33.3508C230.236 33.3394 230.416 33.4534 230.444 34.2227C230.477 35.1059 230.32 35.2398 229.232 35.2626Z" fill="#001514"/>
</g>
<g clip-path="url(#clip1_1_7013)">
<path d="M331.77 49.998C328.85 49.998 325.93 49.998 323.007 49.998C322.812 49.998 322.617 49.996 322.422 49.998C321.223 50.0077 319.872 48.9941 320.266 47.3009C320.644 45.6736 320.976 44.0348 321.327 42.3998C322.442 37.19 323.551 31.9783 324.67 26.7685C325.198 24.3063 325.744 21.8461 326.279 19.3859C326.325 19.1742 326.349 18.9567 326.384 18.7412C326.555 17.7043 327.32 17.0169 328.38 16.9509C328.501 16.9431 328.624 16.945 328.745 16.945C334.903 16.945 341.06 16.945 347.219 16.947C347.486 16.947 347.761 16.9431 348.016 17.0072C349.178 17.2907 349.833 18.4713 349.591 19.5043C349.125 21.4849 348.73 23.4811 348.301 25.4694C347.443 29.4462 346.583 33.423 345.725 37.3997C345.016 40.691 344.308 43.9824 343.604 47.2737C343.559 47.4853 343.528 47.7028 343.501 47.9183C343.345 49.1727 342.477 49.965 341.191 49.9941C340.29 50.0135 339.389 49.998 338.489 49.998C336.249 49.998 334.01 49.998 331.77 49.998ZM331.568 41.2697C332.714 41.2697 333.71 41.2658 334.705 41.2716C335.003 41.2716 335.137 41.1279 335.196 40.8483C335.33 40.2095 335.49 39.5745 335.627 38.9357C336.305 35.7395 336.982 32.5414 337.658 29.3452C337.777 28.7841 337.839 28.7277 338.44 28.718C339.048 28.7083 339.656 28.7161 340.265 28.7142C340.512 28.7142 340.77 28.7142 340.842 28.3996C341.037 27.5374 341.226 26.6733 341.442 25.6966C341.046 25.6966 340.785 25.6966 340.524 25.6966C338.091 25.6966 335.658 25.6966 333.225 25.6966C332.932 25.6966 332.638 25.6753 332.351 25.7141C332.209 25.7335 331.995 25.85 331.967 25.9607C331.747 26.8384 331.562 27.7277 331.359 28.652C332.355 28.8074 333.26 28.6015 334.225 28.8171C333.338 32.9822 332.468 37.0696 331.574 41.2697H331.568Z" fill="#001514"/>
<path d="M307.25 49.9983C304.281 49.9983 301.312 50.0041 298.343 49.9925C297.959 49.9925 297.559 49.9614 297.193 49.8546C295.994 49.5051 295.481 48.608 295.74 47.3963C296.189 45.3128 296.643 43.2312 297.087 41.1457C298.24 35.7457 299.39 30.3456 300.542 24.9455C300.936 23.0989 301.334 21.2503 301.741 19.4075C301.813 19.0794 301.907 18.7415 302.065 18.4483C302.583 17.4774 303.367 16.9318 304.523 16.9395C307.274 16.959 310.023 16.9454 312.774 16.9454C316.035 16.9454 319.297 16.9454 322.558 16.9454C322.851 16.9454 323.145 16.9357 323.434 16.9784C324.695 17.1609 325.337 18.0735 325.083 19.3163C324.697 21.2153 324.303 23.1105 323.909 25.0076C323.157 28.6349 322.404 32.2621 321.648 35.8893C320.886 39.5399 320.116 43.1885 319.351 46.839C319.277 47.1944 319.231 47.5575 319.135 47.907C318.735 49.3595 317.893 49.9964 316.38 49.9983C314.043 50.0022 311.707 49.9983 309.37 49.9983C308.664 49.9983 307.958 49.9983 307.252 49.9983H307.25ZM303.149 41.2739C304.209 41.2739 305.131 41.2487 306.05 41.2836C306.558 41.303 306.8 41.0894 306.946 40.6331C307.161 39.9632 307.426 39.3108 307.652 38.6467C307.753 38.3515 307.933 38.2137 308.243 38.2156C308.925 38.2195 309.608 38.2234 310.288 38.2156C310.664 38.2117 310.808 38.3884 310.795 38.7515C310.771 39.4059 310.775 40.0603 310.746 40.7147C310.729 41.1205 310.894 41.2856 311.3 41.2778C312.031 41.2642 312.76 41.2778 313.491 41.2739C314.259 41.2681 314.277 41.2564 314.275 40.505C314.265 35.802 314.253 31.097 314.236 26.3941C314.236 26.1863 314.197 25.9766 314.168 25.7047C312.82 25.7047 311.534 25.6931 310.247 25.7203C310.073 25.7241 309.859 25.895 309.746 26.0484C309.592 26.2601 309.516 26.5261 309.411 26.7708C307.81 30.464 306.209 34.1573 304.611 37.8525C304.141 38.9379 303.679 40.0273 303.145 41.2758L303.149 41.2739Z" fill="#001514"/>
<path d="M362.676 16.9469C365.792 16.9469 368.907 16.9411 372.022 16.9489C373.2 16.9527 373.943 17.5062 374.216 18.5838C374.278 18.8304 374.28 19.1139 374.227 19.3644C373.368 23.3917 372.488 27.4131 371.627 31.4384C370.496 36.72 369.377 42.0017 368.254 47.2853C368.184 47.6173 368.151 47.9571 368.067 48.2853C367.802 49.3125 367.039 49.93 365.973 49.9979C365.852 50.0057 365.729 50.0018 365.608 50.0018C359.524 50.0018 353.437 49.9979 347.353 50.0057C346.557 50.0057 345.851 49.8232 345.333 49.1921C344.935 48.7066 344.746 48.1707 344.89 47.5105C346.163 41.6405 347.421 35.7666 348.672 29.8928C349.448 26.2461 350.211 22.5936 350.963 18.9411C351.244 17.578 351.975 16.9527 353.402 16.9508C356.494 16.945 359.584 16.9508 362.676 16.9508V16.9469ZM361.783 41.2774C362.707 41.2774 363.507 41.2793 364.304 41.2774C365.166 41.2755 365.174 41.2735 365.353 40.4347C366.236 36.3123 367.117 32.1899 367.995 28.0655C368.154 27.318 368.291 26.5645 368.451 25.7568C368.151 25.7335 367.938 25.7024 367.726 25.7024C366.532 25.6985 365.339 25.7218 364.146 25.6888C363.631 25.6752 363.372 25.848 363.169 26.3315C362.087 28.9277 360.97 31.5083 359.861 34.0928C359.756 34.3375 359.627 34.5744 359.51 34.8152C359.455 34.7957 359.401 34.7763 359.344 34.7569V25.815C359.223 25.7684 359.157 25.7218 359.091 25.7218C357.631 25.7121 356.17 25.7121 354.708 25.7024C354.33 25.7005 354.225 25.9199 354.16 26.2442C353.975 27.1956 353.765 28.1413 353.562 29.0889C352.761 32.8326 351.956 36.5744 351.156 40.3182C351.096 40.5978 351.055 40.8793 350.985 41.2658C352.051 41.2658 353.041 41.2735 354.032 41.2619C354.352 41.258 354.387 40.9978 354.433 40.7473C355.11 37.0793 355.788 33.4113 356.471 29.7432C356.506 29.551 356.57 29.3665 356.623 29.1782C356.668 29.1879 356.714 29.1976 356.759 29.2073V41.2793C357.362 41.2793 357.898 41.2386 358.426 41.2891C359.105 41.3531 359.459 41.1143 359.728 40.4619C361.076 37.188 362.477 33.9375 363.865 30.6792C364.08 30.1763 364.316 29.683 364.54 29.184C364.598 29.2034 364.659 29.2248 364.717 29.2442C363.752 33.2074 362.787 37.1705 361.785 41.2774H361.783Z" fill="#001514"/>
<path d="M351.198 53.7498C351.261 53.7498 351.382 53.7459 351.502 53.7498C353.072 53.8042 354.064 54.81 353.986 56.3576C353.93 57.4799 353.604 58.5363 352.943 59.4819C351.984 60.8567 349.857 61.4451 348.159 60.7674C347.332 60.4373 346.921 59.7635 346.857 58.9052C346.753 57.5304 347.067 56.2469 347.933 55.1556C348.738 54.1382 349.834 53.6896 351.194 53.7459L351.198 53.7498ZM348.492 58.0936C348.508 59.2159 349.079 59.5907 349.75 59.647C350.381 59.7013 350.955 59.511 351.374 59.012C352.046 58.2081 352.243 57.2411 352.204 56.2353C352.177 55.5168 351.746 55.1595 351.023 55.1168C350.122 55.0644 349.455 55.4722 349.089 56.2566C348.818 56.8353 348.687 57.478 348.494 58.0936H348.492Z" fill="#001514"/>
<path d="M322.753 54.2566C322.668 54.4236 322.597 54.5712 322.515 54.713C322.233 55.1958 321.823 55.3648 321.283 55.2198C319.737 54.8023 318.299 55.6489 317.959 57.212C317.858 57.6781 317.792 58.179 317.856 58.6451C317.973 59.4839 319.219 60.0004 319.938 59.546C320.045 59.4781 320.121 59.3227 320.156 59.1926C320.225 58.9383 320.254 58.6742 320.307 58.3577C319.895 58.3053 319.525 58.2606 319.069 58.2023C319.135 57.8237 319.147 57.4819 319.267 57.1848C319.33 57.0334 319.583 56.88 319.759 56.8703C320.414 56.8334 321.071 56.8547 321.728 56.8547C322.124 56.8547 322.233 57.0742 322.159 57.4276C321.966 58.3519 321.771 59.2742 321.58 60.1985C321.521 60.4859 321.377 60.6956 321.077 60.75C320.098 60.9286 319.129 61.1713 318.117 60.9771C316.751 60.715 316.037 59.9771 316.066 58.581C316.099 57.0353 316.524 55.5965 317.862 54.6275C319.295 53.5887 320.868 53.4994 322.508 54.0664C322.591 54.0955 322.656 54.177 322.755 54.2566H322.753Z" fill="#001514"/>
<path d="M336.878 60.93C336.917 60.5552 336.919 60.3397 336.964 60.1319C337.364 58.2387 337.765 56.3454 338.175 54.4561C338.313 53.8153 338.331 53.792 338.996 53.8017C339.772 53.8133 340.555 53.8017 341.32 53.9143C342.936 54.1493 343.489 55.5551 342.483 56.8658C342.17 57.2755 341.713 57.5785 341.261 57.9862C341.663 58.8581 342.095 59.796 342.577 60.8387C341.998 61.0135 341.46 60.9669 340.933 60.8795C340.817 60.8601 340.709 60.6445 340.643 60.4989C340.395 59.9474 340.169 59.3843 339.933 58.829C339.818 58.5591 339.713 58.2853 339.329 58.3066C338.947 58.328 338.953 58.6387 338.892 58.8814C338.76 59.4212 338.678 59.9746 338.524 60.5086C338.475 60.6756 338.278 60.8892 338.12 60.9144C337.75 60.9746 337.362 60.9338 336.876 60.9338L336.878 60.93ZM339.292 56.9784C339.818 56.8911 340.197 56.8561 340.559 56.759C340.912 56.6639 341.101 56.3823 341.195 56.0347C341.284 55.7046 341.171 55.4716 340.867 55.3279C340.179 54.9998 339.66 55.2444 339.491 55.9804C339.426 56.2561 339.38 56.5357 339.292 56.9784Z" fill="#001514"/>
<path d="M329.209 53.8622C328.962 55.0448 328.73 56.1031 328.519 57.1652C328.42 57.6623 328.316 58.1652 328.289 58.6681C328.252 59.3633 328.488 59.5808 329.18 59.6196C330.133 59.672 330.658 59.3283 330.886 58.4002C331.186 57.1788 331.422 55.9419 331.703 54.7166C331.921 53.7593 331.939 53.7535 332.914 53.7982C333.077 53.8059 333.239 53.8486 333.459 53.8836C333.438 54.1263 333.442 54.3419 333.399 54.5457C333.128 55.8234 332.83 57.0953 332.574 58.3769C332.065 60.9128 329.373 61.4235 327.71 60.8177C327.02 60.5653 326.618 60.0196 326.548 59.2779C326.521 58.9924 326.538 58.6934 326.597 58.4138C326.858 57.1341 327.133 55.8564 327.422 54.5826C327.595 53.8098 327.644 53.7846 328.457 53.7982C328.669 53.802 328.88 53.8331 329.213 53.8642L329.209 53.8622Z" fill="#001514"/>
<path d="M312.691 53.8751C312.656 54.1586 312.649 54.3722 312.602 54.578C312.471 55.1586 312.418 55.2013 311.826 55.2168C311.389 55.2285 310.95 55.2421 310.514 55.2168C310.058 55.1877 309.835 55.3877 309.779 55.8188C309.751 56.0285 309.714 56.2363 309.662 56.5625H311.954C311.902 56.914 311.861 57.1431 311.834 57.3722C311.791 57.7509 311.594 57.9179 311.202 57.9023C310.742 57.8829 310.278 57.9159 309.818 57.8946C309.455 57.879 309.28 58.0402 309.223 58.3781C309.163 58.7315 309.094 59.0829 309.013 59.5334C309.857 59.5645 310.637 59.5917 311.432 59.6208C311.45 59.7859 311.481 59.881 311.465 59.9684C311.353 60.6066 310.966 60.9257 310.303 60.9257C309.502 60.9257 308.699 60.9296 307.897 60.9237C307.662 60.9237 307.426 60.8946 307.084 60.8732C307.199 60.2402 307.289 59.6791 307.406 59.1218C307.734 57.5606 308.073 56.0013 308.406 54.4401C308.531 53.8557 308.58 53.8013 309.169 53.7955C310.139 53.7858 311.112 53.7896 312.085 53.7955C312.251 53.7955 312.415 53.8362 312.693 53.8751H312.691Z" fill="#001514"/>
<path d="M304.06 54.2927C303.921 54.5374 303.841 54.6849 303.758 54.8306C303.381 55.4772 303.385 55.4578 302.638 55.2714C302.268 55.1782 301.872 55.1354 301.49 55.1432C301.118 55.151 300.857 55.3956 300.761 55.7568C300.666 56.118 300.956 56.2714 301.2 56.4287C301.67 56.7296 302.147 57.017 302.615 57.318C303.048 57.5957 303.188 58.017 303.178 58.5083C303.161 59.4054 302.785 60.1103 301.997 60.5452C300.866 61.1705 299.675 61.1763 298.464 60.7841C298.164 60.687 298.016 60.5142 298.115 60.1841C298.211 59.8656 298.293 59.5413 298.402 59.1413C298.755 59.2637 299.042 59.3743 299.334 59.4637C299.845 59.619 300.354 59.8015 300.899 59.5938C301.215 59.4734 301.465 59.2889 301.51 58.9394C301.555 58.5918 301.297 58.4229 301.04 58.2714C300.705 58.0753 300.357 57.8966 300.03 57.6889C298.983 57.0248 298.747 55.9354 299.486 54.9413C299.751 54.584 300.122 54.2364 300.521 54.0558C301.697 53.5276 302.87 53.617 304.062 54.2908L304.06 54.2927Z" fill="#001514"/>
<path d="M357.556 59.1756C358.17 59.3543 358.673 59.5426 359.192 59.632C359.509 59.6863 359.882 59.6591 360.18 59.5446C360.814 59.2999 360.857 58.7077 360.293 58.3251C360.012 58.1349 359.701 57.9931 359.41 57.8183C357.911 56.9271 357.878 55.1756 359.369 54.2474C360.623 53.4668 361.896 53.6066 363.204 54.2591C363.136 54.4416 363.106 54.5814 363.038 54.6998C362.59 55.4727 362.59 55.461 361.699 55.2416C361.397 55.1678 361.077 55.129 360.765 55.1348C360.358 55.1426 360.083 55.3892 359.977 55.7736C359.88 56.1271 360.163 56.294 360.404 56.4533C360.607 56.5853 360.823 56.6979 361.036 56.8144C361.765 57.2106 362.422 57.6611 362.36 58.6261C362.293 59.6456 361.755 60.3621 360.831 60.7427C359.808 61.166 358.749 61.1427 357.691 60.8087C357.342 60.698 357.227 60.5077 357.326 60.1582C357.41 59.8611 357.468 59.5562 357.556 59.1737V59.1756Z" fill="#001514"/>
<path d="M311.486 28.6346C311.486 28.9686 311.506 29.3045 311.482 29.6385C311.358 31.3997 311.223 33.1609 311.09 34.9201C311.042 35.5765 311.03 35.59 310.348 35.6017C309.872 35.6095 309.394 35.6017 308.778 35.6017C309.589 33.1434 310.474 30.8851 311.303 28.6055C311.363 28.6152 311.426 28.6249 311.486 28.6346Z" fill="#001514"/>
</g>
<path d="M639.439 28.8086C636.528 25.6362 632.884 23.9223 628.575 23.8366C619.9 23.6652 613.098 30.7014 613.083 39.784C613.129 43.0583 614.544 46.6118 617.39 49.5448C620.339 52.5842 623.996 54.1519 628.228 54.1666C632.183 54.1799 635.663 52.7822 638.555 50.0782C641.72 47.1216 643.369 43.4291 643.415 39.1146C643.457 35.1887 642.105 31.715 639.439 28.8086ZM621.183 43.5252C620.83 44.1118 620.288 44.3467 619.678 44.3704C618.97 44.3556 618.431 44.1118 618.092 43.5385C617.718 42.9061 617.71 42.2441 618.082 41.6103C619.053 39.9569 620.043 38.3153 621.023 36.6678C621.279 36.2378 621.529 35.8064 621.782 35.3764C622.4 34.3199 624.03 34.252 624.78 35.2227C625.178 35.7384 625.228 36.7623 624.874 37.3371C623.968 38.8058 623.108 40.3041 622.228 41.789C621.883 42.3697 621.532 42.9475 621.184 43.5267L621.183 43.5252ZM630.288 37.9813C629.85 38.7452 629.414 39.5121 628.975 40.2775C628.482 41.1374 627.984 41.9944 627.489 42.8544C627.321 43.1469 627.17 43.4454 626.921 43.6877C626.294 44.298 625.253 44.363 624.553 43.8281C624.064 43.4543 623.854 42.9578 623.864 42.2796C623.804 41.8629 624.064 41.4758 624.297 41.0842C625.089 39.7529 625.883 38.4231 626.688 37.0992C627.501 35.7635 628.245 34.3835 629.143 33.1024C629.582 32.4789 630.211 32.0844 630.99 31.9632C631.938 31.8154 632.697 32.1922 633.377 32.7965C633.604 32.9975 633.787 33.2369 633.972 33.4762C634.017 33.5339 634.055 33.5915 634.012 33.655C633.966 33.723 633.907 33.6698 633.855 33.6476C633.365 33.4408 632.924 33.5693 632.608 34.0052C632.289 34.447 632.05 34.9375 631.776 35.4045C631.274 36.26 630.784 37.1214 630.29 37.9813H630.288ZM637.741 44.3423C637.619 44.3674 637.492 44.36 637.354 44.3689C636.633 44.3526 636.096 44.0364 635.734 43.3907C635.293 42.6017 634.824 41.8304 634.372 41.0473C633.972 40.3528 633.581 39.654 633.184 38.958C632.875 38.4157 632.566 37.872 632.243 37.3371C632.133 37.1554 632.099 37.0002 632.219 36.8096C632.637 36.1521 632.968 35.4444 633.41 34.8016C633.642 34.4618 633.983 34.3125 634.396 34.3096C634.522 34.3096 634.597 34.3554 634.662 34.4632C635.549 35.9187 636.45 37.3652 637.326 38.8265C637.896 39.7781 638.453 40.74 638.977 41.7166C639.522 42.7332 638.998 44.0867 637.742 44.3408L637.741 44.3423Z" fill="#001514"/>
<path d="M537.251 41.7702C536.393 39.5405 535.544 37.3076 534.683 35.0778C534.201 33.8263 533.701 32.581 533.216 31.3326C533.068 30.9506 532.806 30.699 532.401 30.6866C531.524 30.6618 530.645 30.6493 529.771 30.6866C529.367 30.7021 529.086 30.9692 528.937 31.3791C528.678 32.0903 528.388 32.7859 528.116 33.4909C527.079 36.1803 526.045 38.8697 525.007 41.5622C524.26 43.5031 523.51 45.4441 522.763 47.3881C522.519 48.0279 522.729 48.3291 523.411 48.3353C523.921 48.3415 524.43 48.3229 524.936 48.3384C525.424 48.354 525.714 48.1117 525.881 47.677C526.193 46.8571 526.511 46.0372 526.813 45.2112C526.894 44.9938 526.992 44.8882 527.239 44.8882C529.799 44.8944 532.358 44.8944 534.917 44.8882C535.146 44.8882 535.272 44.9534 535.356 45.1925C535.575 45.8167 535.825 46.4347 536.078 47.0465C536.612 48.3353 536.618 48.3322 538.005 48.3322C538.329 48.3322 538.653 48.3477 538.977 48.3291C539.363 48.3074 539.625 47.9285 539.496 47.5962C538.749 45.6521 537.998 43.7143 537.251 41.7702ZM533.256 41.8634C531.762 41.8634 530.268 41.8665 528.774 41.8665C528.274 41.8665 528.227 41.7982 528.403 41.3386C529.234 39.1647 530.067 36.9939 530.904 34.8232C530.947 34.7145 530.972 34.5809 531.148 34.5126C531.401 35.1524 531.657 35.789 531.904 36.4287C532.512 38.0094 533.114 39.5964 533.723 41.1771C533.988 41.8665 533.997 41.8634 533.259 41.8634H533.256Z" fill="#001514"/>
<path d="M568.661 30.4689C568.182 30.4627 567.703 30.4658 567.228 30.4689C566.589 30.4689 566.416 30.649 566.416 31.3043C566.416 32.9161 566.416 34.5278 566.413 36.1427C566.413 36.2887 566.493 36.4812 566.33 36.5713C566.151 36.6707 566.064 36.4719 565.953 36.3818C564.761 35.4067 563.434 34.9222 561.869 35.1148C559.569 35.3974 558.183 36.7731 557.346 38.8259C556.744 40.301 556.787 41.8476 556.979 43.3879C557.192 45.0991 557.957 46.5152 559.328 47.5835C561.205 49.0462 564.156 48.9375 565.879 47.335C566.002 47.2201 566.123 47.0618 566.311 47.158C566.487 47.2481 566.401 47.4344 566.407 47.5804C566.428 48.1456 566.604 48.3319 567.16 48.335C567.623 48.3381 568.086 48.335 568.546 48.335C569.216 48.335 569.367 48.1828 569.367 47.5276C569.367 44.8134 569.367 42.1022 569.367 39.388C569.367 36.6738 569.367 33.9316 569.367 31.2018C569.367 30.6615 569.192 30.4813 568.654 30.4751L568.661 30.4689ZM566.172 43.8786C565.74 45.0773 564.829 45.6798 563.607 45.8102C562.835 45.891 562.088 45.7636 561.381 45.3879C560.483 44.9096 560.155 44.0742 559.979 43.1674C559.769 42.0836 559.809 40.9998 560.118 39.9284C560.415 38.9004 561.091 38.2886 562.088 37.9936C563.073 37.7017 564.033 37.7824 564.925 38.2917C565.959 38.8818 566.33 39.8662 566.413 40.9967C566.435 41.273 566.413 41.5525 566.413 41.9594C566.462 42.5308 566.404 43.2233 566.166 43.8848L566.172 43.8786Z" fill="#001514"/>
<path d="M606.204 39.4844C606.016 38.0558 605.476 36.8354 604.228 36.0435C602.487 34.9348 600.607 34.7857 598.668 35.3789C597.224 35.8199 596.091 36.6615 595.538 38.1459C595.359 38.6304 595.473 38.8322 595.97 38.8384C596.711 38.8478 597.449 38.8384 598.19 38.8446C598.418 38.8446 598.613 38.7825 598.779 38.6273C599.212 38.2142 599.709 37.9503 600.308 37.8447C600.749 37.7639 601.166 37.8819 601.586 37.9254C602.543 38.0248 603.231 38.7981 603.247 39.6738C603.25 39.9533 603.142 40.0775 602.901 40.1179C602.117 40.2546 601.333 40.3819 600.552 40.5154C599.437 40.708 598.304 40.826 597.251 41.2701C595.927 41.8291 594.8 42.6085 594.584 44.1831C594.396 45.5464 594.806 46.7141 595.884 47.6022C596.554 48.1519 597.332 48.4407 598.196 48.5463C599.86 48.7513 601.367 48.4563 602.617 47.2451C602.771 47.096 602.898 46.7793 603.148 46.888C603.361 46.9842 603.231 47.2824 603.237 47.4873C603.262 48.0712 603.506 48.3258 604.083 48.3289C604.515 48.3289 604.948 48.3289 605.377 48.3289C606.056 48.3289 606.291 48.0991 606.294 47.4221C606.294 46.2296 606.294 45.034 606.294 43.5619C606.223 42.3912 606.399 40.9347 606.207 39.4813L606.204 39.4844ZM601.262 45.5371C600.709 45.7358 600.138 45.8383 599.505 45.8166C599.19 45.8787 598.844 45.7762 598.505 45.6985C598.097 45.6054 597.68 45.4501 597.6 44.9594C597.474 44.1799 597.668 43.7793 598.218 43.4564C598.943 43.0278 599.77 43.0123 600.558 42.8508C601.336 42.6924 602.126 42.6023 602.901 42.4315C603.222 42.3601 603.228 42.4843 603.237 42.7235C603.287 43.9905 602.521 45.0868 601.258 45.5371H601.262Z" fill="#001514"/>
<path d="M553.83 39.6894C553.725 38.4627 553.33 37.3354 552.425 36.4534C551.555 35.6056 550.489 35.233 549.285 35.0994C547.745 34.9317 546.455 35.3882 545.312 36.3851C545.21 36.4752 545.127 36.6367 544.973 36.5839C544.775 36.5155 544.865 36.3168 544.862 36.177C544.84 35.5528 544.602 35.3106 543.985 35.3075C543.553 35.3075 543.12 35.3075 542.691 35.3075C542.052 35.3106 541.808 35.5622 541.805 36.2112C541.805 38.0869 541.805 39.9627 541.805 41.8353C541.805 43.7421 541.805 45.6489 541.805 47.5526C541.805 48.1395 541.993 48.3228 542.58 48.329C543.028 48.3321 543.475 48.329 543.92 48.329C544.627 48.329 544.855 48.1023 544.855 47.3973C544.855 45.2421 544.858 43.0899 544.852 40.9347C544.852 40.6366 544.899 40.3509 544.96 40.0652C545.501 37.4907 548.288 37.354 549.755 38.2981C550.579 38.8292 550.845 39.7453 550.86 40.6801C550.894 42.9409 550.869 45.2048 550.872 47.4687C550.872 48.0836 551.125 48.329 551.737 48.3321C552.215 48.3321 552.691 48.3352 553.169 48.3321C553.725 48.3259 553.929 48.1364 553.919 47.5805C553.87 44.9502 554.049 42.3167 553.824 39.6894H553.83Z" fill="#001514"/>
<path d="M591.679 39.0341C591.068 36.0248 588.86 35.0404 586.434 35.0435C585.233 35.0435 584.177 35.5621 583.269 36.3571C583.158 36.4534 583.072 36.6428 582.896 36.5745C582.711 36.5 582.8 36.3043 582.794 36.1615C582.772 35.5497 582.529 35.3074 581.905 35.3043C581.488 35.3043 581.071 35.3043 580.655 35.3043C579.978 35.3043 579.738 35.5466 579.738 36.2236C579.738 38.0838 579.738 39.944 579.738 41.8042C579.738 43.6644 579.738 45.5867 579.738 47.478C579.738 48.0681 579.997 48.3227 580.571 48.3258C581.019 48.3258 581.467 48.3258 581.911 48.3258C582.547 48.3258 582.785 48.0805 582.785 47.4252C582.785 46.0619 582.769 44.6954 582.791 43.3321C582.806 42.298 582.689 41.2576 582.877 40.2297C583.019 39.4626 583.356 38.8198 583.973 38.3198C584.631 37.7856 585.387 37.8043 586.159 37.8105C587.212 37.8198 587.974 38.267 588.444 39.2328C588.87 40.1117 588.876 41.0558 588.885 41.9905C588.907 43.8663 588.891 45.742 588.891 47.6177C588.891 48.124 589.073 48.3134 589.58 48.3227C590.058 48.332 590.537 48.3227 591.012 48.3227C591.682 48.3227 591.849 48.1519 591.849 47.4656C591.849 45.3259 591.843 43.1862 591.852 41.0465C591.855 40.3663 591.806 39.6924 591.67 39.0248L591.679 39.0341Z" fill="#001514"/>
<path d="M575.286 35.3075C574.853 35.3044 574.421 35.3075 573.992 35.3075C573.319 35.3075 573.081 35.5529 573.081 36.233C573.081 38.1242 573.081 40.0155 573.081 41.9068C573.081 43.798 573.081 45.6893 573.081 47.5806C573.081 48.1365 573.276 48.3259 573.835 48.3321C574.282 48.3352 574.73 48.3321 575.175 48.3321C575.922 48.3321 576.132 48.124 576.132 47.3756C576.132 43.7018 576.132 40.0279 576.132 36.3541C576.132 36.2609 576.138 36.1678 576.132 36.0746C576.079 35.5342 575.838 35.3137 575.289 35.3075H575.286Z" fill="#001514"/>
<path d="M575.625 30.4752C574.949 30.4597 574.27 30.4566 573.594 30.4752C573.211 30.4877 572.967 30.674 572.983 31.1181C573.001 31.6895 572.983 32.264 572.989 32.8354C572.995 33.3323 573.196 33.5249 573.696 33.5373C573.989 33.5435 574.279 33.5373 574.573 33.5373C574.866 33.5373 575.156 33.5373 575.449 33.5373C575.912 33.5342 576.206 33.2733 576.218 32.8137C576.233 32.2423 576.227 31.6678 576.218 31.0963C576.212 30.7113 576.008 30.4815 575.622 30.4721L575.625 30.4752Z" fill="#001514"/>
<path d="M512.981 39.4387C512.981 36.7555 512.981 34.0754 512.981 31.3922C512.981 30.6873 513.203 30.4699 513.926 30.4668C514.827 30.4668 515.018 30.65 515.018 31.5382C515.018 36.7928 515.006 42.0504 515.028 47.305C515.034 48.454 514.441 48.5379 513.459 48.3671C513.117 48.3081 512.972 48.013 512.975 47.6248C512.987 44.8951 512.981 42.1684 512.981 39.4387Z" fill="#001514"/>
<path d="M426.27 30.8268C425.644 30.5163 424.579 30.7523 424.233 31.3703C423.606 32.4883 423.026 33.6311 422.442 34.7708C421.522 36.5751 420.615 38.3857 419.701 40.19C419.519 40.5471 419.321 40.8949 419.13 41.249C419.065 41.367 419.025 41.5222 418.852 41.5254C418.679 41.5285 418.633 41.3794 418.568 41.2583C418.315 40.78 418.055 40.308 417.808 39.8266C416.462 37.1838 415.101 34.5441 413.783 31.8889C413.384 31.0877 412.89 30.6063 411.924 30.7305C411.313 30.8113 411.124 30.9262 411.121 31.538C411.121 32.2678 411.121 32.9945 411.121 33.7243C411.121 38.3453 411.121 42.9632 411.115 47.5842C411.115 47.8886 411.152 48.1588 411.436 48.2923C411.921 48.5252 412.44 48.5035 412.909 48.2861C413.279 48.1153 413.248 47.7022 413.248 47.342C413.248 43.5595 413.248 39.7769 413.248 35.9944C413.248 35.864 413.174 35.6807 413.335 35.6186C413.539 35.5379 413.554 35.7832 413.659 35.8764C413.715 35.923 413.736 36.0099 413.77 36.0783C414.909 38.308 416.089 40.5161 417.169 42.7738C417.629 43.7396 418.216 44.2489 419.299 44.047C419.315 44.047 419.33 44.047 419.346 44.047C419.59 44.0439 419.772 43.957 419.926 43.7427C420.519 42.9259 420.883 41.9819 421.359 41.0999C422.22 39.5099 423.001 37.8795 423.822 36.2677C423.921 36.0751 424.041 35.895 424.149 35.7087C424.193 35.6342 424.245 35.5814 424.332 35.6031C424.421 35.6248 424.437 35.7056 424.44 35.7863C424.44 35.9106 424.44 36.0348 424.44 36.159C424.44 39.9105 424.44 43.662 424.44 47.4134C424.44 47.7675 424.492 48.0873 424.829 48.2923C425.116 48.4693 425.424 48.4165 425.73 48.4165C426.314 48.4165 426.57 48.1557 426.57 47.5749C426.57 44.8917 426.57 42.2117 426.57 39.5285C426.57 36.8453 426.57 34.1652 426.57 31.4821C426.57 31.2088 426.564 30.9666 426.267 30.8206L426.27 30.8268Z" fill="#001514"/>
<path d="M469.303 48.2116C471.662 48.9724 473.841 48.8078 475.586 46.783C475.638 46.7209 475.684 46.6557 475.771 46.6774C475.885 46.7085 475.879 46.8141 475.882 46.9041C475.882 47.106 475.873 47.3079 475.885 47.5097C475.928 48.224 476.243 48.4538 477.132 48.4228C477.697 48.4041 477.92 48.1401 477.92 47.4787C477.92 46.1619 477.92 44.8421 477.92 43.5253C477.92 42.2086 477.944 40.8887 477.913 39.572C477.879 38.0845 477.231 36.8826 476.027 36.0379C474.221 34.7709 471.514 34.805 469.627 36.0596C468.92 36.5317 468.371 37.1279 468.084 37.9509C467.997 38.1962 468.041 38.3577 468.217 38.5285C468.584 38.8888 469.612 38.8329 469.979 38.4385C470.479 37.8981 470.927 37.2739 471.714 37.1279C472.282 37.0255 472.841 36.9602 473.44 37.0534C474.94 37.2863 476.012 38.1 475.901 39.8142C475.882 40.1217 475.783 40.2707 475.502 40.3142C474.508 40.4757 473.511 40.6248 472.517 40.7956C471.165 41.0254 469.84 41.339 468.701 42.1744C467.686 42.9167 467.167 43.9384 467.117 45.1682C467.068 46.3948 468.081 47.8141 469.309 48.2116H469.303ZM469.853 43.4974C470.748 42.8701 471.779 42.6434 472.826 42.4695C473.669 42.3266 474.524 42.2396 475.357 42.0564C475.802 41.957 475.925 42.0657 475.882 42.485C475.87 42.6216 475.882 42.7645 475.882 42.9042C476.036 44.9508 474.385 46.4694 472.427 46.6743C471.597 46.7613 470.81 46.7582 470.056 46.3793C468.939 45.8141 468.828 44.221 469.853 43.5005V43.4974Z" fill="#001514"/>
<path d="M433.924 48.2551C435.724 48.9134 437.496 48.7271 439.194 47.9135C440.095 47.4818 440.824 46.8203 441.203 45.8359C441.312 45.5564 441.225 45.398 441.024 45.2396C440.685 44.9756 439.765 44.9725 439.459 45.2862C438.669 46.0967 437.77 46.575 436.61 46.7054C434.344 46.9601 432.275 45.7489 432.207 43.0626C432.198 42.7334 432.309 42.6403 432.63 42.6434C434.016 42.6589 435.406 42.6496 436.792 42.6496C438.135 42.6496 439.475 42.6496 440.818 42.6496C441.472 42.6496 441.636 42.4757 441.654 41.8359C441.676 41.0751 441.639 40.3235 441.463 39.5844C441.126 38.1776 440.475 36.9665 439.274 36.1031C437.854 35.0814 436.258 34.9013 434.615 35.2429C433.439 35.4882 432.427 36.0969 431.67 37.0907C430.846 38.1745 430.383 39.3733 430.253 40.7397C430.083 42.5533 430.269 44.2831 431.192 45.8762C431.828 46.9787 432.723 47.8079 433.924 48.2489V48.2551ZM432.21 40.3763C432.365 38.6435 433.374 37.3857 435.205 37.0721C436.421 36.8609 437.573 37.0441 438.536 37.8484C439.367 38.5441 439.681 39.4975 439.61 40.5813C439.592 40.8484 439.388 40.7925 439.234 40.7925C438.126 40.7956 437.017 40.7925 435.906 40.7925C434.813 40.7925 433.717 40.7832 432.624 40.7987C432.3 40.8049 432.18 40.6993 432.21 40.3763Z" fill="#001514"/>
<path d="M490.144 37.8699C490.978 38.6059 491.216 39.5873 491.231 40.6245C491.262 42.935 491.24 45.2456 491.243 47.553C491.243 48.2113 491.512 48.4225 492.312 48.4225C493.019 48.4225 493.275 48.1958 493.278 47.553C493.278 45.1027 493.318 42.6524 493.262 40.2053C493.232 38.8792 492.769 37.665 491.83 36.6898C490.703 35.5191 489.302 35.0687 487.706 35.1122C486.397 35.1495 485.282 35.5812 484.393 36.5625C484.279 36.6867 484.161 36.842 483.967 36.7706C483.769 36.6992 483.853 36.5035 483.85 36.3638C483.843 36.0377 483.902 35.6681 483.578 35.4787C483.146 35.2271 482.673 35.2209 482.207 35.429C481.8 35.6122 481.812 35.9787 481.812 36.3327C481.809 38.1774 481.812 40.0221 481.812 41.8667C481.812 43.7114 481.812 45.5872 481.812 47.4474C481.812 48.2113 482.04 48.4194 482.868 48.4225C483.615 48.4225 483.847 48.1989 483.847 47.4722C483.847 46.3263 483.828 45.1772 483.853 44.0313C483.877 42.7021 483.763 41.373 483.936 40.0438C484.103 38.7426 484.708 37.7706 485.946 37.2892C486.835 36.9445 487.758 36.9041 488.697 37.1277C489.249 37.2581 489.728 37.4942 490.154 37.8699H490.144Z" fill="#001514"/>
<path d="M455.608 40.2213C456.151 36.9605 459.31 36.3891 461.569 37.5381C462.153 37.8332 462.545 38.3642 462.823 38.9791C463.132 39.6592 463.829 39.9108 464.505 39.625C464.783 39.507 464.913 39.2896 464.848 38.9946C464.681 38.2276 464.351 37.5319 463.795 36.9698C462.141 35.2959 460.118 34.7773 457.877 35.2618C455.901 35.6903 454.611 36.9543 453.922 38.8797C453.327 40.5443 453.339 42.2399 453.614 43.9293C453.842 45.3361 454.494 46.6001 455.664 47.4448C457.766 48.9603 460.029 49.0286 462.317 47.8764C463.588 47.2367 464.505 46.2522 464.83 44.7989C464.901 44.4759 464.82 44.2523 464.527 44.1125C463.894 43.8144 463.156 44.066 462.848 44.6808C462.792 44.7926 462.739 44.9044 462.681 45.0131C462.307 45.7243 461.748 46.2212 460.986 46.4821C460.634 46.6032 460.27 46.6342 459.908 46.6901C458.248 46.951 456.599 46.1715 455.911 44.5131C455.559 43.6653 455.481 42.7834 455.537 41.8797C455.565 41.3269 455.522 40.7772 455.614 40.2182L455.608 40.2213Z" fill="#001514"/>
<path d="M504.281 47.1403C504.235 46.7179 503.957 46.4788 503.487 46.4726C503.009 46.4664 502.53 46.4788 502.055 46.4695C500.829 46.4446 500.122 45.7179 500.122 44.4819C500.122 42.249 500.135 40.0162 500.11 37.7833C500.104 37.3361 500.252 37.2398 500.66 37.2523C501.521 37.2802 502.385 37.2585 503.25 37.2616C503.438 37.2616 503.602 37.2429 503.756 37.1001C504.173 36.715 504.031 36.2305 503.951 35.7989C503.873 35.3796 503.478 35.3113 503.108 35.3113C502.274 35.3051 501.441 35.2927 500.61 35.3175C500.237 35.3299 500.101 35.2306 500.11 34.833C500.135 33.656 500.122 32.4759 500.116 31.299C500.116 30.7431 499.848 30.4853 499.292 30.476C499.153 30.476 499.014 30.4729 498.875 30.476C498.353 30.4915 498.085 30.7617 498.085 31.2741C498.085 32.4666 498.069 33.6623 498.094 34.8548C498.1 35.2337 497.977 35.3392 497.619 35.3175C497.19 35.2896 496.754 35.302 496.325 35.3175C495.948 35.3299 495.624 35.451 495.513 35.8672C495.374 36.3889 495.529 36.9759 495.844 37.1932C495.97 37.2802 496.106 37.2678 496.242 37.2678C496.72 37.2678 497.199 37.2864 497.674 37.2616C498.005 37.246 498.097 37.364 498.091 37.687C498.076 38.833 498.085 39.982 498.085 41.4043C498.153 42.5192 497.952 43.9198 498.184 45.3018C498.381 46.4819 498.897 47.457 500.051 47.9818C501.215 48.5098 502.447 48.4787 503.67 48.3918C504.213 48.3545 504.37 47.9384 504.281 47.1496V47.1403Z" fill="#001514"/>
<path d="M451.24 37.2586C451.407 37.2523 451.57 37.271 451.715 37.1405C451.993 36.8921 452.129 36.2337 451.971 35.7958C451.826 35.389 451.487 35.3114 451.116 35.3083C450.579 35.3021 450.045 35.3176 449.511 35.389C448.85 35.4791 448.264 35.6965 447.782 36.1623C447.628 36.3145 447.48 36.4697 447.322 36.6219C447.236 36.7058 447.155 36.8269 447.01 36.7617C446.884 36.7058 446.933 36.5753 446.924 36.4729C446.918 36.3952 446.924 36.3176 446.924 36.2399C446.921 35.5288 446.68 35.3083 445.924 35.3052C445.13 35.3052 444.889 35.5226 444.889 36.2524C444.889 38.1126 444.889 39.9697 444.889 41.8299C444.889 43.6901 444.889 45.5783 444.889 47.454C444.889 48.2055 445.115 48.4198 445.899 48.4198C446.695 48.4198 446.924 48.2118 446.924 47.4695C446.924 45.1 446.93 42.7274 446.921 40.3579C446.921 39.9852 446.958 39.6188 447.026 39.2554C447.22 38.2399 448.066 37.4946 449.079 37.3362C449.801 37.2213 450.52 37.2834 451.24 37.2554V37.2586Z" fill="#001514"/>
<path d="M507.977 35.3052C507.214 35.3052 506.967 35.5288 506.967 36.2306C506.967 38.1033 506.967 39.979 506.967 41.8516C506.967 43.7243 506.967 45.6311 506.967 47.5192C506.967 48.1993 507.214 48.426 507.943 48.426C508.755 48.426 509.002 48.2149 509.002 47.5068C509.002 43.7429 509.002 39.9821 509.002 36.2182C509.002 35.5288 508.748 35.3083 507.977 35.3083V35.3052Z" fill="#001514"/>
<path d="M506.689 32.1031C506.689 32.8391 506.917 33.0503 507.658 33.0751C509.396 33.1279 509.319 32.8981 509.264 31.1745C509.248 30.6808 508.967 30.4789 508.464 30.4696C508.109 30.4634 507.754 30.4572 507.402 30.4696C506.982 30.4882 506.72 30.7522 506.692 31.1714C506.68 31.3578 506.692 31.5441 506.692 31.7304C506.692 31.8546 506.692 31.9789 506.692 32.1031H506.689Z" fill="#001514"/>
<g clip-path="url(#clip2_1_7013)">
<path d="M916.481 25.4702V35.0787C922.379 30.7549 930.201 33.2233 931.77 40.5721C933.458 48.4792 926.101 55.0428 918.548 51.6467C918.109 51.4495 916.529 50.3263 916.403 50.323C915.732 50.3048 913.428 51.9581 912.507 51.9763V25.4702H916.481ZM921.075 36.7751C915.04 37.7094 914.735 48.3715 922.052 48.8138C930.156 49.3025 930.256 35.3537 921.075 36.7751Z" fill="#001514"/>
<path d="M951.418 51.9766C951.155 52.2582 948.075 50.4243 947.533 50.4806C947.314 50.5038 946.103 51.4299 945.686 51.6254C940.799 53.9132 933.871 51.8059 934.737 45.476C935.165 42.3549 938.627 40.3802 941.566 40.3802H947.444C947.333 37.4827 945.31 36.386 942.573 36.7488C941.675 36.8681 940.213 37.5937 939.757 38.4038C939.538 38.7914 939.555 39.5502 939.495 39.5502H935.521C936 31.6861 949.145 30.3675 951.135 37.9267C951.191 38.1404 951.416 39.0283 951.416 39.136V51.9749L951.418 51.9766ZM947.444 43.8591H941.566C941.511 43.8591 940.615 44.0628 940.486 44.1043C938.006 44.8961 937.883 47.8449 940.355 48.7147C943.612 49.8627 947.548 47.4523 947.444 43.8591Z" fill="#001514"/>
<path d="M772.928 51.977C772.684 52.2288 769.62 50.4214 769.043 50.481C768.795 50.5059 768.016 51.2066 767.632 51.4005C763.947 53.2675 757.791 52.9759 756.458 48.3291C755.124 43.6822 758.724 40.3822 763.076 40.3822H768.954C769.353 35.9325 762.433 35.5597 761.086 38.8945C760.998 39.1099 761.04 39.5539 761.007 39.5539H757.032C757.644 33.9429 763.729 31.728 768.621 33.5088C770.637 34.2427 772.928 36.7459 772.928 38.9741V51.9786V51.977ZM768.954 43.8595H763.076C762.967 43.8595 761.981 44.1544 761.789 44.2272C759.436 45.1318 759.657 47.9845 762.002 48.7449C765.246 49.7952 769.162 47.466 768.955 43.8595H768.954Z" fill="#001514"/>
<path d="M898.904 32.9655C911.608 32.6441 912.493 51.3889 900.171 52.4707C886.588 53.6635 885.659 33.3018 898.904 32.9655ZM898.064 36.7791C891.013 37.7963 891.936 49.2535 899.507 48.8294C907.622 48.3738 906.779 35.5217 898.064 36.7791Z" fill="#001514"/>
<path d="M872.936 39.0547H868.962C868.914 39.0547 868.783 38.4202 868.602 38.1717C867.549 36.7188 865.628 36.3494 863.925 36.5846C861.918 36.8629 860.814 39.2104 862.999 40.1315C866.172 41.4684 872.416 40.8902 873.057 45.6414C874.281 54.7065 857.216 54.8225 857.039 46.0125H860.93C861.777 48.4925 864.777 49.4235 867.143 48.7493C868.43 48.3815 869.806 47.1506 868.716 45.8419C866.846 43.5988 858.566 44.9523 857.882 39.9509C856.626 30.7814 871.99 30.6738 872.934 39.0547H872.936Z" fill="#001514"/>
<path d="M795.115 51.9763H791.14V40.4627C791.14 40.2838 790.691 39.1357 790.567 38.8823C789.219 36.1555 785.19 36.1256 783.271 38.2229C782.63 38.9237 781.703 41.0376 781.703 41.9537V51.9763H777.728V33.422L781.625 35.0753C785.445 31.9791 791.921 31.9923 794.266 36.838C794.454 37.2256 795.115 38.9949 795.115 39.3031V51.9763Z" fill="#001514"/>
<path d="M737.991 34.4167C738.015 34.4945 738.079 34.5658 738.157 34.5823C738.25 34.6006 738.381 34.579 738.488 34.5823C738.596 34.5857 738.709 34.5807 738.82 34.5823C739.176 37.1319 744.308 37.3721 746.341 37.9072C749.661 38.7802 753.057 39.9714 753.386 43.944C754.357 55.5984 733.86 55.0881 733.686 44.1891H737.991C738.203 48.2959 744.083 49.5566 747.264 48.0822C749.2 47.1843 750.153 44.3151 748.34 42.8655C746.851 41.6744 742.251 41.2801 740.145 40.629C736.933 39.6351 734.781 38.2369 734.516 34.5823C734.622 34.5873 734.67 34.42 734.681 34.4167C734.932 34.3405 737.609 34.3603 737.993 34.4167H737.991Z" fill="#001514"/>
<path d="M684.652 30.5811C684.316 30.7931 681.972 29.9632 681.874 29.6716C681.678 29.0967 683.501 26.4196 683.946 25.815C693.164 13.2974 712.464 14.1771 720.508 27.4716C720.821 27.9885 721.61 29.1547 721.608 29.6948C721.608 29.9731 720.609 32.4034 720.419 32.6552C720.256 32.8672 720.185 32.9981 719.875 32.9136C719.267 31.9909 718.959 30.8892 718.419 29.8919C711.475 17.0812 693.715 16.6737 685.664 28.6958C685.437 29.0338 684.741 30.5248 684.652 30.5811Z" fill="#001514"/>
<path d="M810.514 34.4163C810.585 34.4262 810.81 34.6648 811.011 34.5819C809.652 36.7554 809.319 40.2808 810.106 42.6928C812.48 49.9687 823.856 50.6993 826.409 43.1964H830.383C829.725 47.3098 825.919 51.0141 821.939 52.0611C812.546 54.5311 804.662 47.3098 805.567 37.8339C805.617 37.3154 806.11 35.0276 806.36 34.6913C806.627 34.3351 809.932 34.3334 810.514 34.4179V34.4163Z" fill="#001514"/>
<path d="M881.048 27.7896V33.4221H887.671L886.016 37.2324H881.049V46.4267C881.049 46.6934 881.55 47.7801 881.792 48.0038C883.422 49.5213 885.716 47.9789 887.176 47.0065V51.3137C884.156 53.3265 879.317 52.818 877.706 49.2744C877.59 49.021 877.075 47.5731 877.075 47.4206V27.7896H881.049H881.048Z" fill="#001514"/>
<path d="M955.144 25.3047H958.787C958.805 25.3047 959.035 25.535 959.035 25.5532V51.8936C959.035 51.9119 958.805 52.1421 958.787 52.1421H955.144C955.126 52.1421 954.896 51.9119 954.896 51.8936V25.5532C954.896 25.5085 955.089 25.3892 955.144 25.3047Z" fill="#001514"/>
<path d="M834.191 33.4219L838.087 35.0752C840.502 33.238 843.44 32.4064 846.427 33.2728C846.544 33.4119 846.307 36.7583 846.205 36.9091C845.997 37.2172 843.849 36.702 843.219 36.7351C840.282 36.8942 838.165 39.5746 838.165 42.4489V51.9745H834.191V33.4202V33.4219Z" fill="#001514"/>
<path d="M810.514 34.4162C811.051 34.461 810.801 34.3251 810.642 34.0402C810.464 33.7205 810.221 33.4471 810.1 33.0909C809.124 30.2067 811.877 28.1509 814.286 27.3424C820.959 25.1027 829.065 28.6893 830.382 35.9089H826.408C824.91 30.8992 818.249 29.3138 813.983 31.8451C813.165 32.3305 811.5 33.7967 811.008 34.5836C810.807 34.6664 810.582 34.4278 810.511 34.4179L810.514 34.4162Z" fill="#001514"/>
<path d="M853.397 33.4219H849.422V51.9762H853.397V33.4219Z" fill="#001514"/>
<path d="M738.488 34.5821C738.309 34.0222 737.618 33.7621 737.257 33.2469C734.971 29.9932 738.568 27.3078 741.598 26.8423C747.24 25.9759 752.415 28.7773 753.06 34.7478H748.92C748.754 29.3422 738.029 28.9231 738.819 34.5821C738.708 34.5805 738.599 34.5854 738.488 34.5821Z" fill="#001514"/>
<path d="M904.891 25.4702C904.946 25.7518 904.751 25.9076 904.625 26.1146C903.656 27.7249 901.891 29.3235 900.834 30.9371H896.612L899.675 25.4702H904.89H904.891Z" fill="#001514"/>
<path d="M849.422 30.7715V27.127H853.314C853.332 27.127 853.562 27.3572 853.562 27.3754V30.523C853.562 30.5413 853.332 30.7715 853.314 30.7715H849.422Z" fill="#001514"/>
<path d="M734.514 34.5812L734.679 34.4165C734.667 34.4198 734.619 34.5861 734.514 34.5812Z" fill="#001514"/>
<path d="M684.096 33.5879C684.716 33.7138 685.678 34.7194 686.455 35.0391C690.718 36.7952 693.554 33.2682 697.757 33.2549C696.773 32.5542 696.05 32.0025 695.949 30.6739C695.935 30.4817 695.938 28.8317 695.966 28.7373C696.077 28.3596 696.665 28.2105 696.76 27.7036C696.962 26.6334 696.713 25.6609 696.755 24.7316C696.872 22.1075 700.633 21.352 702.727 21.9054C706.421 22.8795 706.766 25.9144 706.873 29.1945C706.906 30.2001 706.557 30.8247 705.76 31.4061C705.545 31.5635 704.917 31.7408 704.89 31.7805C704.844 31.8485 705.401 32.6652 703.883 32.4299C703.701 32.5973 704.629 34.7708 705.092 34.7277C705.323 34.7062 706.216 34.2555 706.688 34.1595C709.075 33.6691 711.571 34.2721 713.397 35.9138C714.466 36.8747 716.208 39.4739 715.438 40.9285C715.251 41.283 714.813 41.3642 714.797 41.4834C714.77 41.6673 714.976 42.1212 714.984 42.4476C715.016 43.8359 714.996 44.8365 714.285 46.0706C713.906 46.73 712.817 47.5682 712.615 48.0487C712.396 48.5672 712.698 48.9167 712.585 49.1636C712.315 49.7484 711.012 49.4651 710.508 49.3309L710.672 49.9919C709.951 50.1128 709.347 49.7666 708.689 49.5777C708.879 50.194 709.416 51.4381 710.011 51.7413C710.412 51.9467 711.096 50.6661 711.611 50.353C712.126 50.0399 712.872 50.0615 713.14 49.7301L719.28 35.165C719.831 34.3549 720.948 34.8801 721.414 35.5345L714.645 52.3145C714.514 52.4156 713.349 50.9494 713.038 50.855C712.565 50.7125 711.699 50.9461 711.502 51.405C711.305 51.8639 712.126 51.458 712.37 51.5077C713.036 51.6419 713.501 52.3543 713.815 52.896C712.849 52.5116 712.006 51.5707 711.169 52.8098C711.611 52.4851 713.478 53.663 713.155 53.9695C712.633 53.7707 711.131 53.1146 710.857 53.9082C710.584 54.7017 711.099 54.372 711.543 54.5029C711.812 54.5808 712.925 55.25 712.408 55.2997C711.782 55.3594 710.4 54.5973 710.665 55.6891C710.698 55.8249 711.749 56.1927 711.986 56.3865C712.274 56.6217 712.918 57.4086 712.748 57.7797C712.309 58.7339 708.797 59.9184 707.728 60.2216C694.603 63.9325 681.161 55.0198 679.711 41.4536C679.665 41.0179 679.494 38.576 679.569 38.3342C679.623 38.1569 679.726 38.0641 679.926 38.084C680.11 38.1022 682.459 39.0465 682.536 39.1658C682.744 40.7098 682.845 42.2074 683.233 43.7298C683.962 46.5991 685.586 49.6241 687.572 51.8142C687.852 52.1223 689.894 54.0937 690.06 54.1302C690.517 54.2312 690.652 52.3261 690.652 51.8954C690.655 49.6274 689.086 48.0205 690.968 45.7658C691.193 45.4958 691.69 45.3036 691.768 45.0767C691.929 44.6095 691.75 43.4383 691.816 42.8054C691.939 41.616 692.626 40.7098 692.623 39.5551H690.222C687.966 39.5551 686.512 37.7775 684.843 37.1513C684.409 36.989 682.133 36.6858 682.05 36.5516C681.989 36.4539 681.989 36.0265 682.05 35.9321C682.193 35.7101 683.498 35.8608 683.352 35.2495C682.839 35.165 682.334 35.8178 681.856 35.503C681.572 35.3141 681.923 34.9629 681.79 34.7542C681.671 34.5653 681.31 34.6366 681.195 34.1677C681.124 33.8811 681.328 33.5929 681.615 33.5929C682.287 33.5929 683.528 33.4769 684.098 33.5929L684.096 33.5879ZM699.412 25.8034C698.771 25.9343 698.471 25.4174 697.924 25.3064C697.873 25.6792 697.149 26.8587 697.424 27.1287C697.485 27.19 698.853 26.9299 698.749 27.7914C698.126 27.6853 696.707 28.5037 696.615 29.057C696.546 29.4844 697.459 30.0593 697.225 30.4171C697.18 30.4867 696.826 30.5049 696.776 30.7021C696.513 31.7358 698.685 32.7695 699.576 32.1003C699.683 32.4714 699.271 32.7198 699.256 33.0064C699.243 33.2781 699.622 34.1263 699.698 34.5455C699.765 34.9 699.576 36.0364 699.987 35.9089C701.325 35.4947 702.544 33.3742 702.735 32.0357C701.91 31.6729 700.533 30.6491 700.401 29.6998C700.331 29.2061 701.287 29.6219 701.686 29.2426C702.246 28.7091 702.079 27.5131 701.057 27.8626C700.446 28.073 700.586 28.9626 699.616 28.4987C698.426 27.9305 699.518 25.9061 699.41 25.8067L699.412 25.8034ZM698.583 34.2506C693.319 34.7227 690.6 38.3342 685.282 35.3837C684.686 35.0524 684.113 34.0833 683.183 34.4991C684.375 34.9563 684.287 34.9994 684.013 36.2385C685.117 36.1309 686.033 37.0205 687.047 37.4297C688.49 38.0111 690.497 38.4783 692.051 38.3988C694.334 38.2845 696.329 36.8084 698.564 36.3827L698.585 34.2506H698.583ZM703.383 34.4179C703.104 34.181 703.093 34.5206 703.017 34.6333C700.832 37.809 699.508 37.1199 696.388 38.4319C693.783 39.5286 692.522 42.0749 692.623 44.8547C693.716 45.0684 693.589 44.3362 694.044 43.7083C694.546 43.0175 695.108 42.0815 696.112 42.4393C696.94 44.6029 697.634 46.7118 697.421 49.0758C697.179 51.7695 695.507 54.3621 694.946 56.9398C696.369 57.1933 697.752 57.899 699.228 57.7565C699.453 56.8421 699.707 55.9243 699.859 54.9933C700.465 51.3039 699.569 47.5202 700.379 44.0827C700.49 43.6139 700.866 43.1318 700.899 42.7673C700.938 42.3664 700.714 41.9274 700.721 41.4586C700.754 39.2155 701.907 37.2391 703.472 35.7399C703.585 35.6306 703.845 35.5941 703.868 35.561C703.923 35.4848 703.427 34.4593 703.379 34.4196L703.383 34.4179ZM708.686 37.0652C707.504 36.7041 706.893 37.5887 706.116 37.8919C705.627 38.084 706.116 37.0453 705.624 37.2325C705.132 37.4197 704.448 38.2861 704.054 38.6506C703.972 39.0151 705.319 39.3132 705.205 40.4447C705.135 41.1372 703.673 42.7541 703.717 42.9429C704.191 43.2842 704.721 43.3985 705.195 43.7878C705.722 44.2202 705.864 44.8232 706.655 44.9806C707.96 45.239 710.332 44.3759 710.634 42.9081C711.098 40.6601 709.749 40.7048 709.037 39.1145C708.724 38.4154 708.604 37.8405 708.686 37.0635V37.0652ZM702.228 43.1947C703.336 43.0672 704.64 39.7059 702.841 40.2443C702.147 40.4514 702.397 42.5105 702.228 43.1947ZM693.948 47.6676C693.804 47.492 695.474 44.0231 695.356 43.3654C694.546 44.2898 693.889 45.3334 693.216 46.3572C693.002 46.6819 692.204 48.2524 692.123 48.3303C692.03 48.4214 691.753 48.4297 691.819 48.1116C691.937 47.5434 693.562 45.0286 692.118 46.0872C690.035 47.613 691.308 49.9704 691.468 51.8871C691.556 52.9341 691.384 53.9778 691.288 55.0132C691.904 55.2964 692.876 56.1347 693.536 56.1314C693.831 56.1297 693.731 56.0717 693.827 55.911C694.275 55.1589 696.798 49.7152 696.425 49.3309L695.933 49.2448C696.272 48.7097 696.647 48.0371 696.702 47.3976C696.713 47.2684 696.675 46.4914 696.432 46.5113C696.471 46.8244 695.274 49.0178 694.941 48.6633C695.366 47.4705 696.259 45.9149 696.103 44.6062C695.994 43.6934 695.704 44.8348 695.638 44.9657C695.232 45.7675 694.853 46.5892 694.356 47.3396C694.303 47.4208 694.208 47.989 693.947 47.6693L693.948 47.6676ZM705.54 46.841C705.964 44.7834 702.087 42.9694 701.731 45.514C702.256 45.6499 701.976 45.1081 702.216 44.9209C702.528 44.6774 704.209 45.3931 704.155 45.9282C704.132 46.1518 703.679 46.2479 704.049 46.5908C704.418 46.9338 705.079 46.8393 705.54 46.841ZM706.53 49.3259C704.779 50.0134 703.005 49.6639 701.565 48.4976C701.426 48.6881 701.729 52.013 701.938 52.2648C702.036 52.3841 703.217 52.8662 703.538 53.0666C704.619 53.7425 705.578 54.5576 706.613 55.2915C706.785 55.2915 707.417 53.2521 707.17 52.9921C707.113 52.9324 706.784 52.9921 706.618 52.8065C706.146 52.2847 706.39 50.0582 706.532 49.3259H706.53ZM696.514 48.9946V49.1603C696.622 49.1056 696.622 49.0493 696.514 48.9946Z" fill="#001514"/>
<path d="M738.155 34.5812C738.078 34.5647 738.014 34.4939 737.991 34.4165C738.068 34.428 738.137 34.5021 738.155 34.5812Z" fill="#001514"/>
<path d="M706.218 40.7284C706.663 40.089 709.213 41.2669 709.009 42.2691C708.693 42.8373 708.34 42.3304 708.04 42.294C707.74 42.2575 707.569 42.4132 707.207 42.2857C706.763 42.13 705.896 41.1857 706.218 40.7284Z" fill="#001514"/>
</g>
<g clip-path="url(#clip3_1_7013)">
<path d="M1009.04 17.4326C1028.92 15.6729 1039.38 39.9255 1024.25 52.8789C1013.14 62.3925 995.706 56.9671 991.781 42.9949C988.456 31.1692 996.673 18.5261 1009.04 17.4326ZM1009.04 19.3759C1000.79 20.1705 993.612 27.536 992.999 35.7838C991.799 51.9446 1010.19 61.8579 1022.79 51.5823C1036.78 40.1709 1027.4 17.6113 1009.04 19.3759Z" fill="#001514"/>
<path d="M1076.63 26.9478V41.8607H1073.05V40.7266C1070.13 43.4011 1065.48 41.5861 1064.65 37.8489C1063.51 32.7176 1068.37 28.8505 1072.89 31.811V26.9478H1076.63ZM1069.92 33.79C1067.9 34.2483 1067.74 38.1837 1069.69 38.8174C1073.99 40.2164 1074.14 32.833 1069.92 33.79Z" fill="#001514"/>
<path d="M1169.19 38.1316V41.859H1165.29V27.7568H1172.84C1174.08 27.7568 1176.14 28.8731 1176.91 29.8594C1179.59 33.3122 1176.71 38.1299 1172.52 38.1299H1169.19L1169.19 38.1316ZM1169.19 35.0525H1172.19C1172.27 35.0525 1173.29 34.578 1173.4 34.4756C1174.08 33.8663 1174.07 32.2821 1173.55 31.5915C1173.38 31.3738 1172.56 30.8376 1172.35 30.8376H1169.19V35.0525H1169.19Z" fill="#001514"/>
<path d="M1050.64 27.7588V30.8379H1043.5V33.9186H1049.83V36.9978H1043.5V41.861H1039.6V27.7588H1050.64Z" fill="#001514"/>
<path d="M1235.12 41.8606H1231.38V35.2962C1231.38 33.9882 1229.04 33.5105 1228.05 34.3993C1227.87 34.5553 1227.32 35.6244 1227.32 35.782V41.8606H1223.59V31.0001H1227.16V32.1342C1228.93 30.3599 1232.63 30.2608 1234.21 32.3097C1234.46 32.6363 1235.12 33.9866 1235.12 34.3213V41.859L1235.12 41.8606Z" fill="#001514"/>
<path d="M1156.68 41.8609H1152.95V35.4573C1152.95 35.2363 1152.46 34.4093 1152.22 34.2386C1151.03 33.3807 1148.89 34.3248 1148.89 35.7823V41.8609H1145.15V31.0003H1148.73V32.1345C1150.42 30.4235 1154.01 30.2512 1155.62 32.1475C1155.98 32.5813 1156.68 33.9575 1156.68 34.4856V41.8609H1156.68Z" fill="#001514"/>
<path d="M1135.7 30.8798C1139.94 30.3079 1143.61 32.4625 1143.21 37.0836C1142.73 42.6958 1134.03 43.6984 1131.61 38.9229C1129.92 35.5708 1131.93 31.3868 1135.7 30.8782V30.8798ZM1138.77 34.2969C1138.27 33.8143 1137.31 33.6632 1136.64 33.7672C1133.94 34.1799 1133.98 39.5273 1137.76 38.9326C1139.67 38.6304 1139.98 35.4782 1138.77 34.2969Z" fill="#001514"/>
<path d="M1214.13 30.8799C1217.86 30.342 1221.7 32.1424 1221.74 36.2955C1221.82 44.0494 1208.66 43.843 1209.48 35.6391C1209.72 33.3172 1211.82 31.213 1214.13 30.8799H1214.13ZM1214.94 33.7932C1212.43 34.3116 1212.52 39.6834 1216.33 38.9051C1218.74 38.4111 1218.61 33.0312 1214.94 33.7932Z" fill="#001514"/>
<path d="M1186.08 35.3759C1185.83 33.1401 1183.45 33.4147 1181.81 33.9525C1181.41 34.0825 1180.94 34.583 1180.64 34.2434C1180.45 34.0354 1179.54 32.1392 1179.65 31.9686C1182.03 30.3632 1187.57 30.1374 1189.13 32.8915C1189.35 33.2685 1189.81 34.44 1189.81 34.8072V41.8591H1186.24V40.5625C1184.99 41.9615 1183.31 42.2897 1181.53 41.7811C1178.53 40.9281 1178.05 36.9715 1180.95 35.8552C1181.26 35.7366 1182.66 35.3759 1182.91 35.3759H1186.07H1186.08ZM1186.08 37.3225H1183.56C1182.82 37.3225 1182.16 39.0026 1183.19 39.4722C1184.68 40.1514 1186.43 38.988 1186.08 37.3225Z" fill="#001514"/>
<path d="M1110.57 41.8607H1107.16V40.5641L1105.69 41.617C1102.88 42.7609 1099.17 41.2449 1099.88 37.7644C1100.05 36.9293 1101.08 36.1185 1101.85 35.8325C1102.23 35.6911 1103.48 35.3759 1103.83 35.3759H1106.83C1106.61 32.7566 1102.96 33.4293 1101.47 34.5651L1100.35 32.0693C1102.56 30.4168 1107.72 30.1633 1109.57 32.4024C1109.91 32.8151 1110.57 34.1556 1110.57 34.648V41.8607ZM1106.83 37.3225H1104.48C1103.36 37.3225 1102.63 39.5372 1104.8 39.6038C1106.3 39.6509 1107.04 38.8157 1106.83 37.3225Z" fill="#001514"/>
<path d="M1247.79 41.8608H1244.37V40.5641L1242.91 41.617C1240.16 42.6683 1236.64 41.4692 1237.06 38.0472C1237.19 37.0106 1238.14 36.177 1239.07 35.8325C1239.45 35.6912 1240.7 35.376 1241.05 35.376H1244.05C1243.83 32.7567 1240.18 33.4294 1238.69 34.5651L1237.57 32.0694C1239.73 30.4169 1244.84 30.217 1246.72 32.3066C1247.04 32.6673 1247.79 34.2239 1247.79 34.6464V41.8591V41.8608ZM1244.05 37.3225H1241.7C1240.57 37.3225 1239.85 39.5372 1242.02 39.6038C1243.52 39.651 1244.25 38.8158 1244.05 37.3225Z" fill="#001514"/>
<path d="M1055.35 37.3223C1055.77 39.7222 1059.02 39.4151 1060.61 38.3199L1062.33 40.299C1059.03 43.6267 1051.92 41.9011 1051.48 36.8982C1050.83 29.5197 1062.45 28.4587 1063.27 35.6665C1063.32 36.1865 1063.48 36.9486 1063.07 37.3239H1055.35V37.3223ZM1059.74 35.3757C1059.45 32.732 1055.5 32.719 1055.19 35.3757H1059.74Z" fill="#001514"/>
<path d="M1090.27 37.3226H1082.31C1083.01 39.5974 1085.89 39.5048 1087.57 38.3122L1089.45 40.3043C1086.26 43.4711 1079.16 42.0559 1078.59 37.2251C1077.59 28.6053 1091.54 28.6573 1090.27 37.3243V37.3226ZM1086.86 35.3761C1086.5 32.7487 1082.51 32.7097 1082.31 35.3761H1086.86Z" fill="#001514"/>
<path d="M1123.88 33.7524L1120.9 35.0653C1120.11 33.1772 1116.88 33.3836 1116.45 35.3286C1115.93 37.6245 1117.16 39.5418 1119.67 38.8675C1120.32 38.692 1120.82 37.6391 1121.17 37.6716L1123.88 38.9455C1121.51 44.2003 1112.59 42.2602 1112.5 36.4286C1112.41 30.4767 1121.43 28.5773 1123.88 33.7524Z" fill="#001514"/>
<path d="M1196.47 28.5679V31.3236H1199.07V34.0794H1196.47V38.213C1196.47 39.0693 1198.3 39.3667 1198.9 38.7801L1199.69 41.1638C1199.71 41.5018 1199.25 41.622 1199 41.7081C1197.11 42.3321 1194.32 41.9941 1193.25 40.1353C1193.15 39.9646 1192.73 38.8126 1192.73 38.7005V34.081H1191.11V31.3253H1192.73V28.5695H1196.47V28.5679Z" fill="#001514"/>
<path d="M1254.12 26.9478H1250.38V41.8607H1254.12V26.9478Z" fill="#001514"/>
<path d="M1208.65 30.8375V34.0791C1207.5 34.0125 1206.07 34.0239 1205.42 35.1548C1205.36 35.2669 1205.08 36.0468 1205.08 36.1053V41.8606H1201.34V31H1204.91C1204.98 31.1722 1204.72 32.3178 1205.16 32.1325C1206.04 31.1007 1207.32 30.7091 1208.65 30.8375Z" fill="#001514"/>
<path d="M1099.36 30.8378V34.0794C1098.25 34.0128 1097.05 34.0551 1096.36 35.0592C1096.28 35.1795 1095.95 35.8798 1095.95 35.9432V41.8593H1092.22V30.9987H1095.79L1095.87 32.1329C1096.83 31.2278 1098.02 30.7079 1099.36 30.8362V30.8378Z" fill="#001514"/>
<path d="M1219.69 57.503C1219.19 61.258 1214.19 61.3279 1211.74 59.4495L1212.24 58.5754C1213 58.6972 1213.62 59.2481 1214.43 59.3537C1217.08 59.7014 1218.41 58.9296 1218.39 56.1267C1217.84 56.3103 1217.46 56.7474 1216.88 56.9668C1213.64 58.1805 1210.39 55.428 1211.49 52.0759C1212.43 49.247 1216.39 48.7157 1218.39 50.7777V49.6419H1219.69C1219.46 52.0905 1220.01 55.1274 1219.69 57.503H1219.69ZM1214.61 50.8118C1212.29 51.2846 1211.94 54.8561 1214.24 55.8066C1216.13 56.5849 1218.45 55.4816 1218.4 53.2946C1218.35 51.27 1216.43 50.4429 1214.61 50.8118Z" fill="#001514"/>
<path d="M1129.08 31H1125.34V41.8606H1129.08V31Z" fill="#001514"/>
<path d="M1194.58 48.7243C1194.16 49.1451 1194.05 49.9088 1194.28 50.4482C1195 52.1446 1200.7 51.2769 1200.66 54.7492C1200.62 58.2216 1194.66 58.3906 1192.64 56.4488L1192.99 55.4674C1194.46 56.2425 1195.94 56.6958 1197.65 56.4099C1198.7 56.2344 1199.6 55.3309 1199.11 54.2195C1198.31 52.3981 1192.45 53.4737 1192.73 49.7252C1192.97 46.4625 1197.81 46.3487 1199.97 47.6925C1200.18 47.9671 1199.91 48.7519 1199.62 48.8169C1198.48 48.1328 1195.54 47.7461 1194.58 48.7243H1194.58Z" fill="#001514"/>
<path d="M1209.95 54.0181H1203.29C1203.77 56.6861 1206.74 57.1134 1208.71 55.6527C1209.58 56.3449 1209.35 56.7137 1208.47 57.1638C1205.93 58.4556 1202.37 57.3035 1202.01 54.2455C1201.28 48.1556 1210.35 47.881 1209.95 54.0197V54.0181ZM1208.65 53.0448C1208.21 49.8454 1203.78 49.847 1203.29 53.0448H1208.65Z" fill="#001514"/>
<path d="M1241.9 49.5234C1246.85 49.0587 1248.2 55.6378 1244.16 57.2887C1237.92 59.8332 1235.78 50.1003 1241.9 49.5234ZM1240.37 51.4782C1238.91 52.9373 1239.61 56.1854 1241.85 56.4519C1246.47 57.0011 1246.19 49.8387 1241.57 50.812C1241.32 50.864 1240.55 51.2994 1240.37 51.4782Z" fill="#001514"/>
<path d="M1223.91 49.6403V54.9081C1223.91 55.0933 1224.39 55.8586 1224.6 56.0179C1225.67 56.8141 1227.57 56.5395 1228.27 55.3696C1228.34 55.2623 1228.62 54.627 1228.62 54.5831V49.6387H1230.08V57.581H1228.78V56.4468C1228.25 56.4988 1228.07 57.0497 1227.6 57.2885C1225.92 58.1497 1223.45 57.6102 1222.74 55.753C1222.69 55.6165 1222.45 54.8041 1222.45 54.744V49.6387H1223.91L1223.91 49.6403Z" fill="#001514"/>
<path d="M1253.63 51.2621C1252.64 50.6934 1249.32 50.1816 1249.24 51.8243C1249.17 53.1405 1251.98 53.0625 1252.98 53.4541C1254.52 54.0553 1254.88 55.7841 1253.64 56.8598C1252.15 58.1451 1249.26 57.7941 1247.69 56.7785L1248.22 55.815C1249.42 56.2651 1250.44 56.6112 1251.77 56.4536C1252.51 56.3658 1253.27 55.7923 1252.9 54.9928C1252.38 53.857 1248.31 54.5817 1247.96 52.4694C1247.43 49.2099 1251.81 49.0101 1253.89 50.1199L1253.63 51.2621H1253.63Z" fill="#001514"/>
<path d="M1232.84 49.6405H1234.14L1234.22 50.9372C1234.99 49.9574 1235.99 49.5316 1237.23 49.478L1237.22 50.7682C1236.22 50.6609 1234.31 51.5172 1234.31 52.64V57.5845H1232.84V49.6421V49.6405Z" fill="#001514"/>
<path d="M1129.02 28.9997C1126.84 31.2501 1123.2 27.8054 1125.84 26.0635C1128.12 24.5638 1130.8 27.1749 1129.02 28.9997Z" fill="#001514"/>
<path d="M1141.42 26.6226L1137.93 29.5408H1135.25C1135.98 28.678 1136.73 27.8363 1137.53 27.0255C1137.66 26.8874 1137.66 26.6226 1137.68 26.6226H1141.42Z" fill="#001514"/>
<path d="M1004.44 31.6487L1004.22 32.0257L1005.28 34.0925C1006.15 34.5361 1009.65 33.9235 1010.13 34.3996C1010.47 34.7359 1010.49 37.3893 1010.22 37.7419C1009.43 38.3513 1008.37 38.0766 1007.45 38.1335C1007.4 38.4179 1007.49 38.6389 1007.58 38.8972C1008.09 40.4294 1010.15 43.1738 1010.36 44.5452C1010.49 45.3853 1010.52 49.7432 1010.37 50.5328C1010.22 51.3225 1009.27 51.0365 1009.04 50.4028L998.863 29.6225C998.993 28.7483 999.608 27.8449 1000.54 27.7539L1022.35 27.8806C1023.07 28.3259 1023.64 29.1692 1023.46 30.032L1019.64 37.8573C1019.56 37.9418 1019.13 38.1319 1019.06 38.1319H1015.89C1015.64 40.3287 1016.25 43.3379 1015.82 45.4356C1015.71 45.9605 1013.62 50.2079 1013.27 50.6709C1012.89 51.1747 1012.57 51.1145 1012.14 50.7051L1012.1 34.6011C1012.44 33.8065 1016.35 34.5588 1017.24 34.0909C1017.62 33.3174 1018.24 32.557 1018.16 31.6471H1004.44L1004.44 31.6487Z" fill="#001514"/>
</g>
</g>
<defs>
<clipPath id="clip0_1_7013">
<rect width="113.06" height="35.8484" fill="white" transform="translate(150.614 21.0757)"/>
</clipPath>
<clipPath id="clip1_1_7013">
<rect width="78.5907" height="44.1211" fill="white" transform="translate(295.675 16.9395)"/>
</clipPath>
<clipPath id="clip2_1_7013">
<rect width="279.485" height="44.1211" fill="white" transform="translate(679.552 16.9395)"/>
</clipPath>
<clipPath id="clip3_1_7013">
<rect width="263.348" height="43.3172" fill="white" transform="translate(991.038 17.3413)"/>
</clipPath>
</defs>
</svg>
