<svg width="52" height="57" viewBox="0 0 52 57" fill="none" xmlns="http://www.w3.org/2000/svg">
    <path d="M14.0537 38.9517C14.0537 42.6943 10.9596 45.7301 7.16309 45.6655L6.81738 45.6509C3.27007 45.4132 0.5 42.4112 0.5 38.8364V17.9175C0.500133 15.349 1.88335 12.9671 4.12988 11.6753L7.52637 9.72314L7.77734 9.57861V9.57275L14.0537 5.97119V38.9517Z" fill="#003049" stroke="#003049"/>
    <path d="M43.9673 10.8523H43.9683C47.6794 10.9114 50.6303 13.9915 50.6304 17.6814V38.6003C50.6303 41.1745 49.2482 43.5515 47.0015 44.8435L43.605 46.7947L43.354 46.9392V46.9441L37.0767 50.5457V17.5662C37.0767 13.8236 40.1709 10.7878 43.9673 10.8523Z" fill="#003049" stroke="#003049"/>
    <path d="M25.9622 0.501953C26.8124 0.562844 27.6201 0.78211 28.3606 1.12598L29.3567 1.69531L29.8391 1.97168V1.97266L32.5081 3.50879H32.509L36.3362 5.70312L39.4006 7.46387C38.2473 7.93021 37.1849 8.57523 36.2551 9.37109C33.9734 11.3134 32.4616 14.1265 32.2532 17.2979C32.2345 17.5507 32.2288 17.8005 32.2288 18.0508C32.2288 18.2888 32.2346 18.5264 32.2512 18.7666V49.1924C32.2511 52.9505 29.2316 56.081 25.4524 56.1133C24.2808 56.124 23.1875 55.8446 22.217 55.3408L21.6946 55.0381L21.6917 55.0361L18.4524 53.1768L14.8049 51.0859L11.8 49.3584C12.9394 48.8727 13.9814 48.2098 14.8879 47.4004C17.227 45.3291 18.7034 42.3131 18.7034 38.9521V7.11816C18.7034 6.71008 18.7413 6.30681 18.8118 5.91992L18.8127 5.91309C18.8338 5.78794 18.8601 5.66197 18.8918 5.53613C18.9214 5.41909 18.9478 5.31514 18.9788 5.21289L18.9807 5.20605C18.9869 5.18462 18.9908 5.17222 18.9944 5.16113C18.9976 5.1512 18.9995 5.14628 19.0002 5.14453L19.0159 5.10742L19.0256 5.06836C19.0268 5.06395 19.0297 5.05627 19.0334 5.0459C19.0371 5.03567 19.0418 5.02399 19.0471 5.01172L19.0608 4.97656C19.2779 4.34718 19.5815 3.76107 19.9612 3.22852C20.0204 3.14635 20.0735 3.07254 20.1252 3.00586L20.1243 3.00488C21.586 1.1385 24.0406 0.452719 25.9622 0.501953Z" fill="#003049" stroke="#003049"/>
</svg>
