<svg xmlns="http://www.w3.org/2000/svg" width="168" height="63" fill="none" viewBox="0 0 168 63">
  <path fill="#003049" d="m81.485 22.376-.013-5.735-2.816 4.728h-.994l-2.797-4.6v5.607h-2.078v-9.558h1.828l3.58 5.94 3.52-5.94h1.816l.032 9.558h-2.078Zm11.745-1.771v1.77h-7.402v-9.557h7.223v1.777h-5.023v2.078h4.439v1.72h-4.439v2.212h5.202Zm7.851 1.771-1.84-2.662h-2.034v2.662h-2.213v-9.558h4.137c2.553 0 4.15 1.322 4.15 3.47 0 1.43-.724 2.483-1.969 3.015l2.143 3.073h-2.374Zm-2.078-7.755h-1.802v3.329h1.802c1.353 0 2.033-.629 2.033-1.668 0-1.04-.68-1.668-2.033-1.668m5.421 2.984c0-2.88 2.213-4.946 5.189-4.946 1.655 0 3.034.603 3.932 1.694l-1.418 1.308c-.641-.737-1.449-1.122-2.405-1.122-1.79 0-3.06 1.257-3.06 3.06 0 1.802 1.27 3.059 3.06 3.059.956 0 1.757-.385 2.405-1.135l1.418 1.308c-.905 1.103-2.277 1.706-3.945 1.706-2.963 0-5.176-2.059-5.176-4.945m12.822-4.767h-2.213v9.558h2.213v-9.558Zm-36.473 19.59c0 1.623-1.2 2.553-3.592 2.553h-4.4v-9.558h4.125c2.13 0 3.36.898 3.36 2.457 0 1.09-.59 1.815-1.462 2.174 1.232.276 1.97 1.078 1.97 2.374Zm-6.978-6.17v3.47h3.046c1.527 0 2.419-.59 2.419-1.733 0-1.141-.886-1.731-2.419-1.731h-3.046v-.007Zm5.965 6.086c0-1.244-.917-1.79-2.591-1.79h-3.374v3.593h3.374c1.68 0 2.591-.546 2.591-1.803Zm9.854 2.643-2.188-3.072a7.25 7.25 0 0 1-.763.038h-2.566v3.034h-1.013V25.41h3.58c2.43 0 3.905 1.232 3.905 3.278 0 1.5-.788 2.553-2.187 3.002l2.335 3.277h-1.103Zm-.052-6.28c0-1.526-1.013-2.405-2.924-2.405h-2.54v4.792h2.54c1.91 0 2.924-.885 2.924-2.393m2.545 1.501c0-2.784 2.13-4.862 5.023-4.862s5.009 2.06 5.009 4.862c0 2.803-2.142 4.862-5.01 4.862-2.866 0-5.022-2.072-5.022-4.862Zm9.025 0c0-2.277-1.706-3.957-4.002-3.957s-4.028 1.68-4.028 3.957 1.719 3.958 4.028 3.958c2.309 0 4.002-1.68 4.002-3.958Zm6.242.288-1.95 1.983v2.508h-1.014v-9.558h1.014v5.78l5.612-5.78h1.161l-4.137 4.33 4.419 5.228h-1.199l-3.906-4.49Zm13.508 3.618v.873h-6.761v-9.558h6.555v.88h-5.541v3.399h4.939v.86h-4.939v3.546h5.747Zm8.904.879-2.188-3.072a7.24 7.24 0 0 1-.763.038h-2.566v3.034h-1.013V25.41h3.579c2.431 0 3.906 1.232 3.906 3.278 0 1.5-.789 2.553-2.187 3.002l2.335 3.277h-1.103Zm-.052-6.28c0-1.526-1.013-2.405-2.925-2.405h-2.54v4.792h2.54c1.912 0 2.925-.885 2.925-2.393m-56.947 9.23h3.894c3.06 0 5.118 1.963 5.118 4.779s-2.065 4.778-5.118 4.778h-3.894v-9.557Zm3.836 8.685c2.54 0 4.175-1.61 4.175-3.906 0-2.297-1.635-3.907-4.175-3.907h-2.829v7.813h2.829Zm14.202-.006v.878h-6.76v-9.557h6.555v.872h-5.542v3.4h4.945v.86h-4.945v3.547h5.747Zm5.042-.282.398-.776c.686.667 1.898 1.16 3.156 1.16 1.789 0 2.565-.75 2.565-1.693 0-2.623-5.882-1.013-5.882-4.547 0-1.405 1.09-2.624 3.522-2.624 1.078 0 2.2.314 2.963.847l-.34.808a4.926 4.926 0 0 0-2.623-.789c-1.745 0-2.527.776-2.527 1.732 0 2.623 5.882 1.039 5.882 4.522 0 1.405-1.116 2.61-3.567 2.61-1.436 0-2.841-.506-3.547-1.244m16.067.276v.878h-6.754v-9.557h6.549v.872h-5.542v3.4h4.945v.86h-4.945v3.547h5.747Zm9.057-3.9h.969v3.643c-.898.808-2.187 1.212-3.509 1.212-2.905 0-5.035-2.059-5.035-4.862s2.13-4.862 5.054-4.862c1.45 0 2.707.462 3.548 1.38l-.629.64c-.808-.788-1.764-1.122-2.88-1.122-2.361 0-4.099 1.68-4.099 3.958 0 2.277 1.732 3.958 4.08 3.958.917 0 1.764-.206 2.501-.738v-3.22.013Zm3.739.693v-5.478h1.008v5.433c0 2.264 1.064 3.303 2.924 3.303 1.861 0 2.938-1.039 2.938-3.303v-5.433h.982v5.478c0 2.745-1.476 4.163-3.92 4.163-2.443 0-3.932-1.418-3.932-4.163Zm17.423 4.085-2.188-3.072a7.199 7.199 0 0 1-.763.038h-2.565v3.034h-1.014v-9.557h3.579c2.431 0 3.906 1.232 3.906 3.278 0 1.5-.788 2.553-2.187 3.002l2.335 3.277h-1.103Zm-.052-6.28c0-1.526-1.013-2.405-2.924-2.405h-2.54v4.792h2.54c1.911 0 2.924-.885 2.924-2.393m2.553 1.508c0-2.784 2.13-4.862 5.023-4.862 2.892 0 5.009 2.06 5.009 4.862 0 2.803-2.142 4.862-5.009 4.862-2.868 0-5.023-2.078-5.023-4.862Zm9.025 0c0-2.277-1.706-3.957-4.002-3.957-2.297 0-4.029 1.68-4.029 3.957s1.72 3.958 4.029 3.958 4.002-1.68 4.002-3.958Zm2.36 3.618.398-.776c.686.667 1.898 1.16 3.156 1.16 1.789 0 2.565-.75 2.565-1.693 0-2.623-5.882-1.013-5.882-4.547 0-1.405 1.091-2.624 3.522-2.624 1.077 0 2.2.314 2.963.847l-.34.808a4.928 4.928 0 0 0-2.623-.789c-1.745 0-2.527.776-2.527 1.732 0 2.623 5.881 1.039 5.881 4.522 0 1.405-1.116 2.61-3.566 2.61-1.437 0-2.841-.506-3.547-1.244m8.492-.077c0-.789.584-1.308 1.322-1.308.737 0 1.327.52 1.327 1.308 0 .79-.583 1.34-1.327 1.34s-1.322-.557-1.322-1.34ZM8.832 10.317l-3.74 2.168A8.578 8.578 0 0 0 .82 19.9v23.232c0 4.394 3.483 8.07 7.877 8.14 4.484.077 8.146-3.54 8.146-8.012V5.673L8.832 10.31v.007ZM49.1 52.452l3.739-2.168a8.57 8.57 0 0 0 4.272-7.415V19.637c0-4.394-3.483-8.07-7.877-8.14-4.484-.077-8.146 3.541-8.146 8.012v37.587l8.011-4.637v-.007Z"/>
  <path fill="#003049" d="M45.514 8.412a12.065 12.065 0 0 0-4.425 2.418 12.118 12.118 0 0 0-4.215 10.013v33.79c0 4.47-3.56 8.204-8.03 8.242a8.027 8.027 0 0 1-3.83-.923l-.59-.347-3.566-2.065-4.015-2.322-4.323-2.508a11.857 11.857 0 0 0 4.323-2.482 11.989 11.989 0 0 0 4.015-8.967V7.905a8.079 8.079 0 0 1 .327-2.277c.013-.045.026-.09.045-.134a.999.999 0 0 1 .051-.148 8.2 8.2 0 0 1 1.258-2.348c1.75-2.257 4.65-3.053 6.876-2.995 1.02.07 1.988.333 2.873.75l1.123.648.532.308 2.938 1.706 4.214 2.438 4.426 2.565-.007-.006Z"/>
</svg>
