<svg width="57" height="32" viewBox="0 0 57 32" fill="none" xmlns="http://www.w3.org/2000/svg">
    <g clip-path="url(#clip0_260_1167)">
        <path d="M26.1795 23.9766C24.0614 23.9766 21.9433 23.9766 19.8237 23.9766C19.6823 23.9766 19.5409 23.9752 19.3995 23.9766C18.53 23.9836 17.5501 23.2485 17.8357 22.0204C18.11 20.8403 18.3504 19.6516 18.6049 18.4658C19.4137 14.6873 20.2182 10.9073 21.0299 7.12879C21.413 5.34303 21.8089 3.55868 22.1964 1.77433C22.2303 1.62082 22.2473 1.46309 22.2727 1.30676C22.3972 0.554718 22.9514 0.0561708 23.7206 0.00828771C23.8083 0.0026544 23.8974 0.00406273 23.985 0.00406273C28.4518 0.00406273 32.9171 0.00406273 37.3838 0.00547106C37.5776 0.00547106 37.7769 0.0026544 37.9622 0.0491292C38.8049 0.254745 39.28 1.11101 39.1046 1.86024C38.7667 3.29673 38.4797 4.74449 38.1686 6.18662C37.5464 9.07087 36.9229 11.9551 36.3007 14.8394C35.7861 17.2265 35.2728 19.6136 34.7623 22.0007C34.7298 22.1542 34.7072 22.312 34.6874 22.4683C34.5743 23.3781 33.9451 23.9527 33.0118 23.9738C32.3586 23.9879 31.7053 23.9766 31.0521 23.9766C29.4274 23.9766 27.8042 23.9766 26.1795 23.9766ZM26.0325 17.6462C26.8639 17.6462 27.5864 17.6434 28.3076 17.6476C28.5239 17.6476 28.6215 17.5434 28.6639 17.3406C28.7614 16.8772 28.8774 16.4167 28.9764 15.9534C29.4684 13.6353 29.9591 11.3157 30.4497 8.99764C30.536 8.59063 30.5812 8.54979 31.0167 8.54275C31.4579 8.53571 31.899 8.54134 32.3402 8.53993C32.5198 8.53993 32.7064 8.53993 32.7587 8.31178C32.9001 7.68648 33.0373 7.05978 33.1942 6.35139C32.9072 6.35139 32.7177 6.35139 32.5283 6.35139C30.7636 6.35139 28.999 6.35139 27.2344 6.35139C27.0223 6.35139 26.8088 6.3359 26.6009 6.36407C26.4977 6.37815 26.3421 6.46265 26.3223 6.54292C26.1626 7.17949 26.0282 7.8245 25.8812 8.49486C26.6037 8.60753 27.2598 8.45825 27.9597 8.61457C27.3164 11.6354 26.6857 14.6 26.0367 17.6462H26.0325Z" fill="currentColor"/>
        <path d="M8.39575 23.9768C6.24228 23.9768 4.0888 23.981 1.93532 23.9726C1.65677 23.9726 1.3669 23.9501 1.10108 23.8726C0.231486 23.6191 -0.140389 22.9685 0.0476695 22.0897C0.372883 20.5785 0.702338 19.0688 1.02472 17.5563C1.86038 13.6397 2.69462 9.72315 3.53028 5.80659C3.8159 4.46727 4.10435 3.12654 4.39987 1.79004C4.45219 1.55204 4.52006 1.30699 4.63459 1.09433C5.01071 0.390166 5.57912 -0.00557398 6.41761 5.93301e-05C8.41272 0.0141426 10.4064 0.00428431 12.4015 0.00428431C14.7671 0.00428431 17.1327 0.00428431 19.4983 0.00428431C19.7103 0.00428431 19.9239 -0.00275732 20.1331 0.0282259C21.048 0.160609 21.5132 0.822522 21.3293 1.72385C21.0494 3.10119 20.7638 4.47572 20.4781 5.85166C19.9323 8.48241 19.3865 11.1132 18.8379 13.7439C18.2851 16.3916 17.7265 19.0378 17.1723 21.6855C17.1185 21.9432 17.0846 22.2066 17.0153 22.4601C16.7255 23.5135 16.1146 23.9754 15.0174 23.9768C13.322 23.9796 11.6281 23.9768 9.93274 23.9768C9.42088 23.9768 8.90903 23.9768 8.39717 23.9768H8.39575ZM5.42076 17.6492C6.18996 17.6492 6.85877 17.6309 7.52475 17.6563C7.89379 17.6703 8.06913 17.5154 8.17517 17.1845C8.33071 16.6986 8.52301 16.2254 8.68703 15.7437C8.76056 15.5297 8.89064 15.4297 9.11547 15.4311C9.61035 15.4339 10.1052 15.4367 10.5987 15.4311C10.8716 15.4283 10.9762 15.5564 10.9664 15.8198C10.9494 16.2944 10.9522 16.769 10.931 17.2436C10.9183 17.538 11.0385 17.6577 11.3326 17.652C11.8628 17.6422 12.3916 17.652 12.9219 17.6492C13.479 17.645 13.4917 17.6365 13.4903 17.0915C13.4832 13.6805 13.4747 10.2682 13.462 6.8572C13.462 6.70651 13.4337 6.55441 13.4125 6.35725C12.4355 6.35725 11.5022 6.3488 10.569 6.36851C10.4432 6.37133 10.2876 6.49526 10.2056 6.60652C10.0939 6.76003 10.0388 6.95297 9.96243 7.13042C8.80156 9.80906 7.64069 12.4877 6.48124 15.1677C6.14047 15.955 5.80536 16.7451 5.41793 17.6506L5.42076 17.6492Z" fill="currentColor"/>
        <path d="M48.5948 0.00542724C50.8543 0.00542724 53.1138 0.00120226 55.3733 0.00683557C56.2274 0.00965222 56.7661 0.411025 56.964 1.19265C57.0093 1.3715 57.0107 1.57712 56.9725 1.75879C56.349 4.67966 55.7113 7.59631 55.0863 10.5158C54.2662 14.3464 53.4546 18.1771 52.6401 22.0091C52.5892 22.2499 52.5652 22.4964 52.5044 22.7344C52.3121 23.4794 51.7592 23.9273 50.9858 23.9766C50.8981 23.9822 50.809 23.9794 50.7214 23.9794C46.3084 23.9794 41.8939 23.9766 37.4809 23.9822C36.904 23.9822 36.3922 23.8498 36.0161 23.3921C35.7276 23.04 35.5905 22.6513 35.6951 22.1725C36.6184 17.9151 37.5304 13.6549 38.4382 9.39474C39.001 6.7499 39.5538 4.10084 40.0996 1.45178C40.3032 0.463133 40.8335 0.00965222 41.8685 0.0082439C44.111 0.00401892 46.3522 0.0082439 48.5948 0.0082439V0.00542724ZM47.9472 17.6518C48.6174 17.6518 49.1971 17.6532 49.7754 17.6518C50.4004 17.6504 50.406 17.6489 50.5361 17.0405C51.1767 14.0507 51.8158 11.0608 52.4521 8.06951C52.568 7.5273 52.667 6.98087 52.7829 6.39501C52.5652 6.37811 52.4111 6.35557 52.2569 6.35557C51.3916 6.35276 50.5262 6.36966 49.6609 6.34571C49.2876 6.33586 49.0995 6.4612 48.9525 6.81187C48.1677 8.6948 47.3575 10.5665 46.553 12.441C46.4766 12.6184 46.3833 12.7902 46.2985 12.9648C46.2589 12.9508 46.2193 12.9367 46.1783 12.9226V6.43725C46.0906 6.40346 46.0425 6.36966 45.9945 6.36966C44.9354 6.36261 43.8763 6.36261 42.8158 6.35557C42.5415 6.35416 42.4652 6.5133 42.4185 6.7485C42.2842 7.43858 42.1315 8.12443 41.9844 8.81169C41.4033 11.5269 40.8193 14.2408 40.2396 16.956C40.1958 17.1588 40.1661 17.3631 40.1152 17.6433C40.8886 17.6433 41.6069 17.6489 42.3252 17.6405C42.5571 17.6377 42.5825 17.449 42.6165 17.2673C43.1071 14.607 43.5992 11.9466 44.0941 9.2863C44.1195 9.14688 44.1662 9.01308 44.2044 8.87648C44.2369 8.88352 44.2708 8.89056 44.3033 8.8976V17.6532C44.7403 17.6532 45.1291 17.6236 45.5123 17.6602C46.0044 17.7067 46.2617 17.5335 46.4568 17.0603C47.4339 14.6858 48.4505 12.3283 49.4573 9.96511C49.6128 9.60036 49.7839 9.24264 49.9465 8.8807C49.9889 8.89478 50.0328 8.91028 50.0752 8.92436C49.3753 11.7988 48.6753 14.6731 47.9486 17.6518H47.9472Z" fill="currentColor"/>
        <path d="M40.2701 26.6976C40.3153 26.6976 40.403 26.6948 40.4907 26.6976C41.6289 26.7371 42.3486 27.4666 42.2921 28.589C42.251 29.403 42.0149 30.1692 41.5356 30.855C40.8399 31.8521 39.2973 32.2788 38.0657 31.7873C37.4662 31.5479 37.1678 31.0592 37.1212 30.4367C37.0462 29.4396 37.2739 28.5087 37.9017 27.7173C38.4856 26.9793 39.2803 26.654 40.2672 26.6948L40.2701 26.6976ZM38.3075 29.8481C38.3188 30.6621 38.7331 30.9339 39.2195 30.9747C39.6776 31.0142 40.0933 30.8761 40.3973 30.5142C40.8852 29.9311 41.028 29.2298 40.9997 28.5003C40.9799 27.9792 40.6674 27.7201 40.1428 27.6891C39.4896 27.6511 39.006 27.9468 38.7402 28.5158C38.5436 28.9355 38.4489 29.4016 38.3089 29.8481H38.3075Z" fill="currentColor"/>
        <path d="M19.6396 27.0652C19.5774 27.1863 19.5265 27.2933 19.4671 27.3962C19.2626 27.7464 18.9647 27.8689 18.5735 27.7637C17.4522 27.4609 16.4087 28.075 16.1627 29.2087C16.0891 29.5467 16.0411 29.91 16.0877 30.248C16.1726 30.8564 17.0761 31.231 17.5978 30.9015C17.6756 30.8522 17.7307 30.7395 17.7562 30.6452C17.8057 30.4607 17.8269 30.2691 17.8651 30.0396C17.5667 30.0016 17.2981 29.9692 16.9672 29.9269C17.0153 29.6523 17.0238 29.4044 17.1114 29.189C17.1567 29.0791 17.3405 28.9678 17.4678 28.9608C17.9428 28.934 18.4194 28.9495 18.8959 28.9495C19.1829 28.9495 19.2621 29.1087 19.2084 29.365C19.0684 30.0354 18.927 30.7043 18.7884 31.3747C18.746 31.5831 18.6413 31.7352 18.4236 31.7746C17.7138 31.9042 17.011 32.0802 16.2772 31.9394C15.286 31.7493 14.7685 31.2141 14.7897 30.2015C14.8137 29.0805 15.122 28.0369 16.092 27.3342C17.1312 26.5807 18.2723 26.5159 19.4615 26.9272C19.5223 26.9483 19.5689 27.0075 19.641 27.0652H19.6396Z" fill="currentColor"/>
        <path d="M29.8842 31.9054C29.9125 31.6336 29.9139 31.4772 29.9464 31.3265C30.2363 29.9534 30.5276 28.5803 30.8245 27.21C30.9249 26.7452 30.9376 26.7283 31.4198 26.7354C31.9826 26.7438 32.551 26.7354 33.1053 26.8171C34.2774 26.9875 34.679 28.0071 33.9494 28.9577C33.7217 29.2549 33.3909 29.4746 33.0628 29.7703C33.3541 30.4027 33.668 31.0829 34.0173 31.8392C33.5973 31.9659 33.2071 31.9321 32.8253 31.8687C32.7404 31.8547 32.6627 31.6983 32.6146 31.5927C32.435 31.1927 32.271 30.7843 32.0999 30.3815C32.0165 30.1858 31.9401 29.9872 31.6616 30.0027C31.3844 30.0182 31.3887 30.2435 31.3449 30.4196C31.2487 30.8111 31.1893 31.2125 31.0776 31.5998C31.0423 31.7209 30.8995 31.8758 30.7849 31.8941C30.5163 31.9378 30.2349 31.9082 29.8828 31.9082L29.8842 31.9054ZM31.6347 29.0394C32.0165 28.976 32.2908 28.9507 32.5538 28.8803C32.8097 28.8113 32.9469 28.6071 33.0148 28.355C33.0798 28.1156 32.9978 27.9466 32.7772 27.8423C32.2781 27.6043 31.902 27.7818 31.7789 28.3155C31.7323 28.5155 31.6984 28.7183 31.6347 29.0394Z" fill="currentColor"/>
        <path d="M24.322 26.7793C24.1424 27.6369 23.9742 28.4045 23.8215 29.1748C23.7493 29.5354 23.6744 29.9001 23.6546 30.2649C23.6277 30.7691 23.7988 30.9268 24.3008 30.955C24.9922 30.993 25.3726 30.7437 25.538 30.0705C25.7558 29.1847 25.9269 28.2876 26.1305 27.3989C26.2888 26.7046 26.3016 26.7004 27.0085 26.7328C27.1273 26.7384 27.2447 26.7694 27.4045 26.7948C27.3889 26.9708 27.3917 27.1271 27.3606 27.275C27.1641 28.2017 26.9477 29.1241 26.7625 30.0536C26.3935 31.8929 24.4408 32.2633 23.2347 31.8239C22.7341 31.6408 22.4428 31.2451 22.3919 30.7071C22.3721 30.5001 22.3849 30.2832 22.4273 30.0804C22.6168 29.1523 22.8161 28.2256 23.0254 27.3018C23.1512 26.7412 23.1866 26.7229 23.7762 26.7328C23.9303 26.7356 24.083 26.7581 24.3248 26.7807L24.322 26.7793Z" fill="currentColor"/>
        <path d="M12.342 26.7886C12.3165 26.9942 12.3109 27.1491 12.2769 27.2984C12.1822 27.7195 12.144 27.7505 11.7142 27.7617C11.3974 27.7702 11.0793 27.7801 10.7626 27.7617C10.4317 27.7406 10.2705 27.8857 10.2295 28.1983C10.2097 28.3504 10.1828 28.5011 10.1447 28.7377H11.8075C11.7693 28.9926 11.7396 29.1588 11.7198 29.325C11.6887 29.5996 11.5459 29.7207 11.2617 29.7095C10.928 29.6954 10.5915 29.7193 10.2578 29.7038C9.99478 29.6926 9.86752 29.8095 9.82652 30.0545C9.78268 30.3108 9.73319 30.5657 9.67381 30.8925C10.2861 30.915 10.8516 30.9347 11.4285 30.9558C11.4413 31.0755 11.4639 31.1445 11.4526 31.2079C11.3715 31.6708 11.0906 31.9022 10.6099 31.9022C10.0287 31.9022 9.44616 31.905 8.86502 31.9008C8.69393 31.9008 8.52284 31.8797 8.27539 31.8642C8.35881 31.4051 8.42386 30.9981 8.5087 30.5939C8.74624 29.4616 8.99227 28.3307 9.23406 27.1984C9.32456 26.7745 9.35991 26.7351 9.78693 26.7309C10.4911 26.7238 11.1967 26.7266 11.9022 26.7309C12.0224 26.7309 12.1412 26.7604 12.3434 26.7886H12.342Z" fill="currentColor"/>
        <path d="M6.08156 27.0913C5.98117 27.2688 5.92319 27.3758 5.86239 27.4814C5.5895 27.9504 5.59233 27.9363 5.05078 27.8011C4.78212 27.7335 4.49508 27.7026 4.21795 27.7082C3.94788 27.7138 3.75841 27.8913 3.68912 28.1532C3.61984 28.4152 3.83052 28.5264 4.00726 28.6405C4.34803 28.8588 4.69445 29.0672 5.03381 29.2855C5.34771 29.4869 5.44951 29.7925 5.44245 30.1488C5.42972 30.7995 5.15682 31.3107 4.58558 31.6261C3.76548 32.0796 2.90154 32.0839 2.02346 31.7994C1.80571 31.729 1.69825 31.6036 1.77036 31.3642C1.83965 31.1332 1.89903 30.898 1.97822 30.6079C2.23414 30.6967 2.442 30.7769 2.65409 30.8417C3.02455 30.9544 3.3936 31.0868 3.78951 30.9361C4.01858 30.8488 4.19956 30.715 4.23209 30.4615C4.26461 30.2094 4.07796 30.0868 3.89132 29.977C3.64812 29.8348 3.39643 29.7052 3.15888 29.5545C2.39958 29.0729 2.22849 28.2828 2.76438 27.5617C2.95668 27.3026 3.22534 27.0505 3.5152 26.9195C4.36783 26.5365 5.21904 26.6012 6.08297 27.0899L6.08156 27.0913Z" fill="currentColor"/>
        <path d="M44.8812 30.6328C45.3266 30.7624 45.6914 30.899 46.0675 30.9638C46.298 31.0032 46.5681 30.9835 46.7844 30.9004C47.2439 30.723 47.2751 30.2934 46.8664 30.016C46.6628 29.878 46.4366 29.7751 46.2259 29.6484C45.1385 29.002 45.1145 27.7317 46.1962 27.0585C47.1054 26.4923 48.0287 26.5937 48.9775 27.0669C48.928 27.1993 48.9068 27.3007 48.8573 27.3866C48.5321 27.9471 48.5321 27.9387 47.8859 27.7796C47.6667 27.726 47.4348 27.6979 47.2086 27.7021C46.9131 27.7077 46.7137 27.8866 46.6374 28.1654C46.5667 28.4217 46.7717 28.5429 46.947 28.6583C47.0941 28.7541 47.251 28.8358 47.4051 28.9203C47.934 29.2076 48.4105 29.5343 48.3652 30.2343C48.3172 30.9736 47.9269 31.4933 47.2567 31.7693C46.5143 32.0764 45.7466 32.0595 44.9788 31.8172C44.7257 31.7369 44.6422 31.5989 44.7144 31.3454C44.7752 31.13 44.8176 30.9089 44.8812 30.6314V30.6328Z" fill="currentColor"/>
        <path d="M11.4679 8.48206C11.4679 8.72429 11.4821 8.96794 11.4651 9.21017C11.3746 10.4875 11.277 11.7649 11.1809 13.0408C11.1455 13.5168 11.137 13.5267 10.6422 13.5351C10.2971 13.5408 9.95072 13.5351 9.50391 13.5351C10.0921 11.7522 10.7341 10.1143 11.335 8.46094C11.3788 8.46798 11.4241 8.47502 11.4679 8.48206Z" fill="currentColor"/>
    </g>
    <defs>
        <clipPath id="clip0_260_1167">
            <rect width="57" height="32" fill="black"/>
        </clipPath>
    </defs>
</svg>