<svg width="264" height="44" viewBox="0 0 264 44" fill="none" xmlns="http://www.w3.org/2000/svg">
<g clip-path="url(#clip0_441_1695)">
<path d="M18.0038 0.0912707C37.8873 -1.66845 48.3433 22.5842 33.2158 35.5376C22.105 45.0512 4.66861 39.6258 0.742941 25.6536C-2.58152 13.8278 5.6354 1.1848 18.0038 0.0912707ZM18.0022 2.0346C9.75117 2.82916 2.57416 10.1947 1.96159 18.4424C0.760814 34.6033 19.1494 44.5166 31.7534 34.241C45.7467 22.8296 36.3648 0.270005 18.0022 2.0346Z" fill="currentColor"/>
<path d="M85.5894 9.6062V24.5192H82.0163V23.385C79.0932 26.0595 74.4412 24.2446 73.6125 20.5074C72.4735 15.3761 77.3286 11.5089 81.8538 14.4694V9.6062H85.5894ZM78.8836 16.4485C76.8623 16.9067 76.6998 20.8421 78.6496 21.4758C82.9506 22.8748 83.1066 15.4914 78.8836 16.4485Z" fill="currentColor"/>
<path d="M178.152 20.79V24.5175H174.254V10.4153H181.805C183.043 10.4153 185.1 11.5316 185.868 12.5179C188.556 15.9707 185.677 20.7884 181.48 20.7884H178.15L178.152 20.79ZM178.152 17.7109H181.156C181.236 17.7109 182.253 17.2364 182.365 17.1341C183.04 16.5248 183.033 14.9405 182.511 14.25C182.347 14.0322 181.522 13.496 181.317 13.496H178.15V17.7109H178.152Z" fill="currentColor"/>
<path d="M59.607 10.4172V13.4963H52.4625V16.5771H58.7962V19.6562H52.4625V24.5194H48.5645V10.4172H59.607Z" fill="currentColor"/>
<path d="M244.08 24.5193H240.345V17.9549C240.345 16.6469 238.005 16.1692 237.011 17.058C236.837 17.214 236.284 18.2831 236.284 18.4407V24.5193H232.549V13.6588H236.122V14.7929C237.895 13.0186 241.591 12.9195 243.172 14.9684C243.424 15.295 244.079 16.6453 244.079 16.98V24.5177L244.08 24.5193Z" fill="currentColor"/>
<path d="M165.647 24.5193H161.911V18.1157C161.911 17.8948 161.421 17.0677 161.183 16.8971C159.987 16.0392 157.851 16.9832 157.851 18.4407V24.5193H154.115V13.6587H157.688V14.7929C159.386 13.0819 162.969 12.9097 164.578 14.8059C164.945 15.2397 165.645 16.616 165.645 17.1441V24.5193H165.647Z" fill="currentColor"/>
<path d="M144.659 13.5385C148.902 12.9666 152.571 15.1211 152.174 19.7422C151.693 25.3545 142.989 26.3571 140.576 21.5816C138.883 18.2295 140.891 14.0455 144.659 13.5369V13.5385ZM147.729 16.9556C147.232 16.473 146.271 16.3219 145.602 16.4259C142.906 16.8386 142.942 22.186 146.718 21.5913C148.634 21.2891 148.946 18.1369 147.729 16.9556Z" fill="currentColor"/>
<path d="M223.093 13.5383C226.824 13.0005 230.66 14.8008 230.703 18.954C230.781 26.7078 217.618 26.5015 218.445 18.2975C218.679 15.9756 220.781 13.8714 223.095 13.5383H223.093ZM223.899 16.4517C221.392 16.97 221.478 22.3418 225.287 21.5635C227.7 21.0696 227.576 15.6896 223.899 16.4517Z" fill="currentColor"/>
<path d="M195.039 18.0346C194.795 15.7988 192.41 16.0734 190.772 16.6112C190.375 16.7412 189.906 17.2417 189.6 16.9021C189.415 16.6941 188.502 14.7979 188.611 14.6273C190.988 13.0219 196.53 12.796 198.093 15.5502C198.308 15.9272 198.773 17.0987 198.773 17.4659V24.5178H195.2V23.2212C193.948 24.6202 192.275 24.9484 190.487 24.4398C187.49 23.5868 187.009 19.6302 189.916 18.5139C190.226 18.3953 191.618 18.0346 191.87 18.0346H195.037H195.039ZM195.039 19.9812H192.522C191.781 19.9812 191.126 21.6613 192.155 22.1309C193.641 22.8101 195.391 21.6467 195.039 19.9812Z" fill="currentColor"/>
<path d="M119.528 24.5192H116.117V23.2225L114.655 24.2754C111.844 25.4193 108.133 23.9033 108.846 20.4229C109.017 19.5877 110.04 18.7769 110.809 18.4909C111.191 18.3496 112.447 18.0343 112.788 18.0343H115.792C115.571 15.4151 111.919 16.0878 110.435 17.2235L109.309 14.7277C111.519 13.0753 116.684 12.8218 118.529 15.0608C118.868 15.4736 119.528 16.8141 119.528 17.3064V24.5192ZM115.794 19.9809H113.44C112.318 19.9809 111.595 22.1956 113.76 22.2622C115.266 22.3093 115.999 21.4742 115.794 19.9809Z" fill="currentColor"/>
<path d="M256.748 24.5195H253.337V23.2228L251.875 24.2757C249.127 25.327 245.606 24.1279 246.025 20.7059C246.152 19.6693 247.103 18.8357 248.029 18.4912C248.411 18.3499 249.667 18.0346 250.008 18.0346H253.012C252.791 15.4154 249.139 16.0881 247.655 17.2238L246.529 14.7281C248.69 13.0756 253.805 12.8757 255.682 14.9653C256.005 15.326 256.748 16.8826 256.748 17.3051V24.5178V24.5195ZM253.012 19.9812H250.658C249.537 19.9812 248.814 22.1959 250.978 22.2625C252.484 22.3097 253.217 21.4745 253.012 19.9812Z" fill="currentColor"/>
<path d="M64.317 19.9812C64.7313 22.3811 67.9794 22.074 69.5702 20.9789L71.2876 22.958C67.9908 26.2857 60.8788 24.5601 60.4401 19.5571C59.7934 12.1786 71.4128 11.1176 72.2284 18.3255C72.2869 18.8454 72.4429 19.6075 72.0302 19.9828H64.317V19.9812ZM68.7009 18.0346C68.4133 15.391 64.46 15.378 64.1545 18.0346H68.7009Z" fill="currentColor"/>
<path d="M99.2305 19.9811H91.2735C91.9755 22.2559 94.8547 22.1633 96.5283 20.9706L98.4116 22.9627C95.2268 26.1296 88.1197 24.7143 87.5559 19.8836C86.5501 11.2637 100.498 11.3157 99.2305 19.9827V19.9811ZM95.8199 18.0345C95.4624 15.4071 91.4685 15.3681 91.2735 18.0345H95.8199Z" fill="currentColor"/>
<path d="M132.844 16.4111L129.862 17.724C129.074 15.8359 125.842 16.0423 125.409 17.9872C124.897 20.2832 126.127 22.2005 128.629 21.5262C129.282 21.3507 129.783 20.2978 130.135 20.3303L132.844 21.6042C130.468 26.859 121.548 24.9189 121.464 19.0873C121.377 13.1354 130.394 11.236 132.844 16.4111Z" fill="currentColor"/>
<path d="M205.431 11.2263V13.9821H208.029V16.7378H205.431V20.8715C205.431 21.7278 207.257 22.0251 207.865 21.4386L208.653 23.8222C208.674 24.1602 208.216 24.2805 207.958 24.3666C206.07 24.9905 203.286 24.6525 202.207 22.7937C202.108 22.6231 201.696 21.4711 201.696 21.359V16.7395H200.072V13.9837H201.696V11.2279H205.431V11.2263Z" fill="currentColor"/>
<path d="M263.081 9.6062H259.346V24.5192H263.081V9.6062Z" fill="currentColor"/>
<path d="M217.611 13.4962V16.7378C216.463 16.6712 215.031 16.6826 214.384 17.8135C214.319 17.9256 214.038 18.7055 214.038 18.764V24.5193H210.303V13.6587H213.876C213.939 13.8309 213.681 14.9765 214.118 14.7912C215.002 13.7594 216.281 13.3678 217.611 13.4962Z" fill="currentColor"/>
<path d="M108.323 13.4963V16.7379C107.21 16.6713 106.009 16.7135 105.327 17.7177C105.246 17.8379 104.914 18.5382 104.914 18.6016V24.5177H101.179V13.6572H104.752L104.831 14.7913C105.79 13.8863 106.981 13.3663 108.323 13.4947V13.4963Z" fill="currentColor"/>
<path d="M228.654 40.1619C228.15 43.917 223.157 43.9868 220.7 42.1085L221.202 41.2343C221.963 41.3562 222.587 41.907 223.389 42.0126C226.046 42.3603 227.372 41.5885 227.354 38.7856C226.798 38.9693 226.426 39.4063 225.843 39.6257C222.603 40.8395 219.352 38.087 220.455 34.7349C221.388 31.906 225.354 31.3747 227.354 33.4366V32.3008H228.656C228.418 34.7495 228.974 37.7864 228.656 40.1619H228.654ZM223.575 33.4707C221.248 33.9436 220.907 37.515 223.207 38.4655C225.092 39.2439 227.409 38.1406 227.359 35.9535C227.312 33.9289 225.388 33.1019 223.575 33.4707Z" fill="currentColor"/>
<path d="M138.042 13.6587H134.307V24.5193H138.042V13.6587Z" fill="currentColor"/>
<path d="M203.54 31.383C203.124 31.8038 203.017 32.5675 203.245 33.1069C203.963 34.8033 209.666 33.9356 209.622 37.4079C209.578 40.8803 203.62 41.0492 201.604 39.1075L201.95 38.1261C203.427 38.9012 204.907 39.3545 206.611 39.0685C207.659 38.8931 208.558 37.9896 208.07 36.8782C207.271 35.0568 201.413 36.1324 201.693 32.3839C201.937 29.1211 206.771 29.0074 208.93 30.3512C209.14 30.6258 208.868 31.4106 208.581 31.4756C207.438 30.7915 204.506 30.4048 203.539 31.383H203.54Z" fill="currentColor"/>
<path d="M218.911 36.6765H212.252C212.737 39.3445 215.697 39.7719 217.671 38.3111C218.542 39.0033 218.315 39.3721 217.433 39.8222C214.895 41.114 211.336 39.962 210.972 36.904C210.246 30.814 219.314 30.5394 218.911 36.6781V36.6765ZM217.611 35.7032C217.173 32.5039 212.746 32.5055 212.252 35.7032H217.611Z" fill="currentColor"/>
<path d="M250.867 32.1821C255.808 31.7174 257.163 38.2965 253.121 39.9473C246.884 42.4919 244.743 32.759 250.867 32.1821ZM249.331 34.1368C247.869 35.596 248.576 38.8441 250.815 39.1105C255.429 39.6597 255.15 32.4974 250.53 33.4707C250.284 33.5226 249.51 33.9581 249.331 34.1368Z" fill="currentColor"/>
<path d="M232.875 32.2992V37.567C232.875 37.7523 233.353 38.5176 233.566 38.6768C234.634 39.473 236.531 39.1984 237.235 38.0285C237.3 37.9213 237.584 37.2859 237.584 37.2421V32.2976H239.045V40.2399H237.745V39.1058C237.217 39.1578 237.029 39.7086 236.561 39.9475C234.884 40.8086 232.416 40.2692 231.701 38.412C231.649 38.2755 231.413 37.463 231.413 37.4029V32.2976H232.874L232.875 32.2992Z" fill="currentColor"/>
<path d="M262.591 33.9206C261.603 33.3519 258.279 32.8401 258.199 34.4828C258.136 35.7989 260.94 35.7209 261.941 36.1125C263.48 36.7137 263.845 38.4426 262.599 39.5182C261.109 40.8035 258.227 40.4525 256.655 39.437L257.18 38.4735C258.381 38.9235 259.406 39.2696 260.732 39.112C261.475 39.0243 262.232 38.4507 261.863 37.6513C261.338 36.5155 257.268 37.2402 256.922 35.1279C256.389 31.8684 260.773 31.6685 262.852 32.7783L262.593 33.9206H262.591Z" fill="currentColor"/>
<path d="M241.808 32.2992H243.108L243.187 33.5958C243.949 32.6161 244.948 32.1903 246.191 32.1367L246.183 33.4269C245.187 33.3196 243.268 34.1759 243.268 35.2987V40.2432H241.808V32.3008V32.2992Z" fill="currentColor"/>
<path d="M137.986 11.6586C135.798 13.909 132.158 10.4643 134.801 8.72247C137.078 7.22273 139.761 9.83388 137.986 11.6586Z" fill="currentColor"/>
<path d="M150.382 9.28125L146.89 12.1995H144.211C144.944 11.3367 145.696 10.495 146.489 9.68422C146.624 9.5461 146.624 9.28125 146.647 9.28125H150.382Z" fill="currentColor"/>
<path d="M13.4066 14.3071L13.1856 14.6841L14.245 16.7509C15.1078 17.1945 18.611 16.582 19.0936 17.058C19.4332 17.3944 19.456 20.0478 19.1862 20.4004C18.3868 21.0097 17.3355 20.7351 16.411 20.792C16.3638 21.0763 16.4516 21.2973 16.5377 21.5557C17.0512 23.0879 19.1082 25.8323 19.3243 27.2037C19.456 28.0437 19.4819 32.4016 19.3341 33.1913C19.1862 33.981 18.2357 33.695 18.0017 33.0613L7.8252 12.2809C7.95518 11.4068 8.56938 10.5033 9.50368 10.4124L31.3077 10.5391C32.0291 10.9843 32.5995 11.8276 32.4207 12.6904L28.5974 20.5157C28.5243 20.6002 28.0888 20.7903 28.019 20.7903H24.8521C24.6051 22.9872 25.2161 25.9964 24.7806 28.0941C24.6718 28.6189 22.5854 32.8663 22.2328 33.3294C21.851 33.8331 21.5358 33.773 21.1052 33.3635L21.0629 17.2595C21.4025 16.465 25.3087 17.2173 26.2056 16.7493C26.5842 15.9759 27.2049 15.2154 27.1253 14.3055H13.4033L13.4066 14.3071Z" fill="currentColor"/>
</g>
<defs>
<clipPath id="clip0_441_1695">
<rect width="263.348" height="43.3172" fill="white"/>
</clipPath>
</defs>
</svg>
