<svg width="97" height="62" viewBox="0 0 97 62" fill="none" xmlns="http://www.w3.org/2000/svg">
    <g clip-path="url(#clip0_530_1175)">
        <path d="M39.2733 3.35566C39.2733 3.35566 37.1738 5.67709 38.6072 6.7823C40.0406 7.88751 42.2559 7.88751 41.9277 5.8991C42.3717 5.45508 44.5773 7.44832 44.0271 8.22052C43.4721 8.99272 41.8408 10.764 41.1121 10.542C40.3785 10.3199 38.6121 11.8692 38.6121 11.8692C38.6121 11.8692 38.168 13.0854 38.6121 13.6404C39.0561 14.1906 38.0619 13.9734 37.2848 13.0902C36.6188 13.0902 34.9586 15.9667 37.2848 14.9676C37.7289 15.8508 37.835 17.178 37.835 17.178L38.168 18.2833C38.168 18.2833 40.9335 20.8267 43.5879 22.0429C45.7983 23.1481 45.9721 25.6916 44.114 27.2408C42.2559 28.79 40.7356 29.4512 40.7356 29.4512C40.7356 29.4512 39.8234 33.0999 37.946 32.8778C37.0628 34.3209 36.0879 36.9705 36.0879 36.9705C36.0879 36.9705 34.7366 36.8595 34.9586 35.6433C35.1806 34.4271 36.5078 30.2282 36.0686 28.1288C35.6246 26.0294 35.7984 25.3634 34.9345 24.4802C34.0754 23.597 33.5831 20.1655 34.9345 18.9541C36.2858 17.7379 37.835 17.0767 36.6188 16.0777C35.4026 15.0786 33.1873 14.0892 32.5262 11.1018C32.4151 10.4358 31.754 10.5468 31.8601 12.207C31.5271 12.651 29.9827 11.2128 29.8717 8.23018C29.7607 7.56415 29.0995 7.45315 28.2115 8.78037C27.3283 10.1076 24.7848 7.67516 26.0011 5.46473C27.2173 3.25431 27.6613 1.70508 33.4094 1.37207C38.8292 1.59408 37.8302 3.24948 39.2733 3.36049V3.35566Z" fill="#001514"/>
        <path d="M21.2538 18.3949C21.2538 18.3949 20.2596 23.5928 18.9324 22.9267C17.6051 22.2656 21.6544 16.7395 21.2538 18.3949Z" fill="#001514"/>
        <path d="M18.0449 30.3349C18.0449 30.3349 19.3721 32.7142 22.6733 34.8667C22.3403 33.8725 22.4658 32.8783 21.6936 32.3812C20.9214 31.8841 19.2611 29.3406 18.0449 30.3349Z" fill="#001514"/>
        <path d="M15.1718 24.6988C14.723 22.9903 12.2954 15.1911 19.0087 7.16504C20.2732 8.60326 20.8089 12.8648 20.2008 14.4141C19.5927 15.9633 17.3823 17.8407 17.3823 19.1679C17.3823 20.4951 16.2722 21.6004 16.499 22.4836C16.7211 23.3668 15.6641 26.5907 15.1718 24.694V24.6988Z" fill="#001514"/>
        <path d="M61.1428 38.2601C50.858 38.2601 42.4941 29.8962 42.4941 19.6115C42.4941 9.32673 50.8629 0.958008 61.1428 0.958008C71.4227 0.958008 79.7962 9.32673 79.7962 19.6066C79.7962 29.8866 71.4275 38.2553 61.1428 38.2553V38.2601Z" fill="white"/>
        <path d="M61.1428 1.62507C71.0607 1.62507 79.1302 9.69457 79.1302 19.6125C79.1302 29.5305 71.0607 37.6 61.1428 37.6C51.2248 37.6 43.1553 29.5305 43.1553 19.6125C43.1553 9.69457 51.2248 1.62507 61.1428 1.62507ZM61.1428 0.297852C50.4768 0.297852 41.8281 8.9465 41.8281 19.6125C41.8281 30.2785 50.4719 38.9272 61.1428 38.9272C71.8136 38.9272 80.4575 30.2834 80.4575 19.6125C80.4575 8.94167 71.8136 0.297852 61.1428 0.297852Z" fill="#001514"/>
        <path d="M76.696 19.6107C76.696 28.2014 69.7317 35.1705 61.141 35.1705C52.5502 35.1705 45.5859 28.2014 45.5859 19.6107C45.5859 11.0199 52.5502 4.05566 61.141 4.05566C69.7317 4.05566 76.696 11.0199 76.696 19.6107Z" stroke="#001514" stroke-width="1.64208" stroke-miterlimit="10"/>
        <path d="M59.7993 29.6375C59.7993 29.6375 52.1641 15.7813 51.6526 15.0429C51.1362 14.3045 50.253 11.8721 52.3186 11.8721H69.2732C70.0889 11.8721 70.8224 13.1993 70.0888 14.5265C69.3456 15.8537 67.14 19.3914 67.14 19.3914H63.752V26.8383L61.614 30.2311V19.6182C61.614 18.6626 62.058 17.6298 63.0908 17.6298H65.5232L66.7008 15.6414C66.7008 15.6414 67.4392 14.2369 65.9624 14.2369H55.3736C54.8331 14.2369 53.8775 14.6086 54.6111 15.8586C55.3446 17.1134 55.3736 17.4802 55.3736 17.4802L59.6979 17.5526C59.6979 17.5526 59.5435 18.8798 58.8099 19.1742C58.0763 19.4686 56.8215 20.1346 57.1931 20.5014C57.5599 20.8682 59.8089 25.8103 59.8089 25.8103V29.6423L59.7993 29.6375Z" fill="#001514"/>
        <path d="M4.17768 48.8401H3.90258C3.8495 48.6471 3.74332 48.4396 3.57923 48.2176C3.41996 48.0004 3.26069 47.8797 3.11108 47.8556C3.03386 47.8459 2.94699 47.8363 2.84081 47.8363C2.73463 47.8315 2.6188 47.8266 2.48367 47.8266H1.61011V49.9212H2.20857C2.39197 49.9212 2.53193 49.9019 2.62845 49.8681C2.7298 49.8295 2.81668 49.7668 2.88907 49.6896C2.93733 49.6365 2.98077 49.5544 3.02421 49.4386C3.06764 49.3276 3.09177 49.2021 3.10143 49.0718H3.37652V51.123H3.10143C3.09177 51.012 3.06764 50.8913 3.02903 50.7562C2.9856 50.621 2.93733 50.5197 2.88907 50.4618C2.81668 50.3701 2.72015 50.3073 2.60915 50.2735C2.49814 50.2398 2.36301 50.2253 2.20857 50.2253H1.61011V52.0158C1.61011 52.0979 1.62459 52.1703 1.65355 52.233C1.68733 52.2957 1.74525 52.3488 1.82247 52.3874C1.86108 52.4019 1.9383 52.426 2.06378 52.4454C2.18444 52.4695 2.28096 52.484 2.33888 52.484V52.7446H0.0898438V52.484C0.162238 52.484 0.263589 52.4695 0.384245 52.4647C0.509728 52.4502 0.586948 52.4405 0.625558 52.4164C0.697952 52.3874 0.751041 52.3343 0.784824 52.2764C0.818608 52.2185 0.833087 52.1413 0.833087 52.0496V48.2899C0.833087 48.2079 0.818608 48.1355 0.794477 48.0728C0.765519 48.01 0.71243 47.9618 0.625558 47.9183C0.562817 47.8894 0.471118 47.8604 0.360114 47.8363C0.24911 47.8121 0.157411 47.7977 0.09467 47.7928V47.5322H4.18251V48.8353L4.17768 48.8401Z" fill="#001514"/>
        <path d="M9.31825 51.2098L9.22173 52.7398H4.8974V52.4791C4.97462 52.4791 5.07115 52.4647 5.19181 52.4502C5.31246 52.4357 5.39451 52.4212 5.42829 52.4019C5.50551 52.3633 5.56343 52.315 5.59238 52.2571C5.62134 52.1992 5.64065 52.122 5.64065 52.0351V48.2899C5.64065 48.2079 5.62617 48.1355 5.59721 48.0728C5.56825 48.01 5.51517 47.9618 5.42829 47.9183C5.36555 47.8894 5.27385 47.8604 5.16285 47.8363C5.05184 47.8121 4.96015 47.7977 4.89258 47.7928V47.5322H8.92733V48.7871H8.65223C8.60397 48.5988 8.49779 48.4058 8.33852 48.1934C8.17443 47.9859 8.01999 47.8749 7.8752 47.8508C7.79798 47.8411 7.70628 47.8315 7.60493 47.8315C7.49875 47.8266 7.3781 47.8218 7.24296 47.8218H6.42733V49.8971H7.0113C7.19953 49.8971 7.33949 49.8778 7.42636 49.844C7.51323 49.8054 7.58563 49.7475 7.6532 49.6654C7.70628 49.593 7.75455 49.5013 7.79316 49.3807C7.83177 49.2648 7.8559 49.1538 7.87038 49.0477H8.14547V51.0892H7.87038C7.86072 50.9685 7.83177 50.8479 7.78833 50.7176C7.74489 50.5824 7.70146 50.4859 7.6532 50.4328C7.57598 50.3363 7.49393 50.2735 7.3974 50.2446C7.29605 50.2156 7.17057 50.2011 7.0113 50.2011H6.42733V51.7648C6.42733 51.9193 6.43698 52.0448 6.46111 52.1316C6.48042 52.2233 6.52385 52.2909 6.59142 52.3392C6.65416 52.3826 6.74103 52.4116 6.85204 52.426C6.95821 52.4405 7.11748 52.4454 7.32018 52.4454H7.63872C7.77385 52.4454 7.88486 52.4405 7.97173 52.4309C8.06343 52.4212 8.15995 52.4019 8.2613 52.3778C8.36265 52.3537 8.43022 52.3199 8.47366 52.2764C8.58949 52.1606 8.70532 51.9772 8.8308 51.7407C8.95628 51.4994 9.0335 51.3257 9.06729 51.2147H9.33273L9.31825 51.2098Z" fill="#001514"/>
        <path d="M15.1435 50.1683C15.1435 50.6123 15.0615 50.9984 14.8925 51.3218C14.7236 51.6499 14.5064 51.9154 14.241 52.1229C13.9707 52.3304 13.6715 52.4897 13.3337 52.5862C12.9958 52.6924 12.6532 52.7407 12.296 52.7407H10.1387V52.4801C10.2062 52.4801 10.3028 52.4752 10.4138 52.4608C10.5248 52.4463 10.602 52.4366 10.6406 52.4125C10.713 52.3835 10.7613 52.3304 10.795 52.2725C10.8288 52.2146 10.8433 52.1374 10.8433 52.0457V48.286C10.8433 48.204 10.8337 48.1268 10.7999 48.0592C10.7709 47.9965 10.7178 47.9434 10.6358 47.9048C10.5586 47.8662 10.4765 47.8372 10.3848 47.8227C10.2979 47.8082 10.2207 47.7938 10.158 47.7889V47.5283H12.436C12.7497 47.5283 13.0537 47.5766 13.3578 47.6731C13.6618 47.7696 13.9273 47.8999 14.1541 48.064C14.4582 48.2812 14.6995 48.5708 14.8732 48.9231C15.047 49.2754 15.1338 49.6905 15.1338 50.1683H15.1435ZM14.2458 50.1683C14.2458 49.8208 14.1976 49.5023 14.1059 49.2175C14.0142 48.9376 13.8742 48.6914 13.7004 48.4791C13.5315 48.2812 13.3192 48.1219 13.0779 48.0061C12.8317 47.8903 12.5566 47.8324 12.2574 47.8324C12.156 47.8324 12.045 47.8324 11.9147 47.8372C11.7893 47.8372 11.6976 47.842 11.6348 47.842V51.843C11.6348 52.0698 11.6976 52.2243 11.8279 52.3063C11.9582 52.3932 12.156 52.4318 12.4263 52.4318C12.7352 52.4318 13.0103 52.3787 13.242 52.2677C13.4736 52.1615 13.6618 52.0071 13.8066 51.8092C13.9611 51.6065 14.0672 51.37 14.1396 51.0997C14.2072 50.8295 14.2458 50.5158 14.2458 50.1635V50.1683Z" fill="#001514"/>
        <path d="M20.4667 51.2098L20.3653 52.7398H16.041V52.4791C16.1134 52.4791 16.2099 52.4647 16.3354 52.4502C16.4561 52.4357 16.5333 52.4212 16.5719 52.4019C16.6491 52.3633 16.707 52.315 16.736 52.2571C16.765 52.1992 16.7843 52.122 16.7843 52.0351V48.2899C16.7843 48.2079 16.7698 48.1355 16.7408 48.0728C16.7167 48.01 16.6588 47.9618 16.5719 47.9183C16.5043 47.8894 16.4175 47.8604 16.3065 47.8363C16.1955 47.8121 16.1086 47.7977 16.041 47.7928V47.5322H20.0709V48.7871H19.7958C19.7476 48.5988 19.6414 48.4058 19.4773 48.1934C19.318 47.9859 19.1588 47.8749 19.014 47.8508C18.9368 47.8411 18.8451 47.8315 18.7389 47.8315C18.6375 47.8266 18.5169 47.8218 18.3817 47.8218H17.5613V49.8971H18.1501C18.3431 49.8971 18.4783 49.8778 18.5651 49.844C18.652 49.8054 18.7292 49.7475 18.7968 49.6654C18.8499 49.593 18.8982 49.5013 18.9368 49.3807C18.9754 49.2648 18.9995 49.1538 19.0092 49.0477H19.2843V51.0892H19.0092C19.0043 50.9685 18.9706 50.8479 18.9319 50.7176C18.8885 50.5824 18.8451 50.4859 18.7968 50.4328C18.7196 50.3363 18.6327 50.2735 18.541 50.2446C18.4445 50.2156 18.319 50.2011 18.1549 50.2011H17.5661V51.7648C17.5661 51.9193 17.5758 52.0448 17.5999 52.1316C17.624 52.2233 17.6675 52.2909 17.7302 52.3392C17.7929 52.3826 17.8798 52.4116 17.9908 52.426C18.1018 52.4405 18.2611 52.4454 18.4638 52.4454H18.7823C18.9175 52.4454 19.0285 52.4405 19.1202 52.4309C19.2119 52.4212 19.3084 52.4019 19.4097 52.3778C19.5063 52.3537 19.5787 52.3199 19.6221 52.2764C19.7331 52.1606 19.8538 51.9772 19.9744 51.7407C20.0999 51.4994 20.1771 51.3257 20.2109 51.2147H20.4763L20.4667 51.2098Z" fill="#001514"/>
        <path d="M26.3749 52.7398H24.9705C24.6568 52.2571 24.3768 51.8372 24.1259 51.4801C23.8749 51.123 23.6046 50.761 23.3102 50.3845H22.7793V52.0351C22.7793 52.122 22.7938 52.1944 22.818 52.262C22.8469 52.3247 22.9048 52.373 22.9869 52.4067C23.0351 52.426 23.1075 52.4405 23.2185 52.455C23.3295 52.4695 23.4212 52.4791 23.4985 52.4791V52.7398H21.2929V52.4791C21.3508 52.4791 21.4376 52.4647 21.5486 52.455C21.6597 52.4405 21.7369 52.426 21.7803 52.4067C21.8527 52.3778 21.9106 52.3295 21.9396 52.2716C21.9734 52.2089 21.9878 52.1268 21.9878 52.0351V48.2658C21.9878 48.1789 21.9734 48.1065 21.9492 48.039C21.9251 47.9714 21.8672 47.9232 21.7755 47.8845C21.7127 47.8652 21.6355 47.8459 21.5342 47.8266C21.4376 47.8121 21.3508 47.7977 21.2832 47.7928V47.5322H23.6867C23.9087 47.5322 24.1162 47.5515 24.3093 47.5998C24.5023 47.6481 24.6809 47.7204 24.8353 47.817C24.9849 47.9183 25.1056 48.0438 25.1973 48.2031C25.2842 48.3575 25.3324 48.5506 25.3324 48.7726C25.3324 48.9753 25.3035 49.1538 25.2407 49.3035C25.178 49.4579 25.0863 49.5979 24.9705 49.7089C24.8595 49.8102 24.7291 49.9019 24.5747 49.9791C24.4203 50.0564 24.2513 50.1191 24.0631 50.1722C24.3189 50.5148 24.5313 50.7996 24.705 51.0361C24.8739 51.2629 25.0815 51.5477 25.3324 51.8807C25.4386 52.0255 25.5351 52.1365 25.622 52.204C25.7089 52.2764 25.7957 52.3295 25.8826 52.373C25.9454 52.4067 26.0226 52.4309 26.1191 52.4502C26.2156 52.4647 26.2929 52.4791 26.3604 52.4791V52.7398H26.3749ZM24.4444 48.8643C24.4444 48.5506 24.3527 48.2948 24.1693 48.1114C23.9907 47.928 23.7349 47.8363 23.4068 47.8363H22.7842V50.0708H23.262C23.5998 50.0708 23.8797 49.9598 24.1066 49.7475C24.3334 49.5303 24.4444 49.2359 24.4444 48.8691V48.8643Z" fill="#001514"/>
        <path d="M31.731 52.7409H29.5688V52.4803C29.7571 52.4658 29.9163 52.4465 30.0418 52.4079C30.1673 52.3741 30.23 52.3259 30.23 52.2728C30.23 52.2486 30.23 52.2245 30.2204 52.1907C30.2204 52.1618 30.2107 52.1328 30.2011 52.1087L29.7715 50.9407H27.9424C27.8748 51.1145 27.8169 51.2641 27.7735 51.3896C27.73 51.5199 27.6914 51.6357 27.6576 51.7467C27.6239 51.8481 27.6045 51.9349 27.5901 51.9977C27.5804 52.0652 27.5708 52.1183 27.5708 52.1618C27.5708 52.2583 27.648 52.3355 27.8024 52.3886C27.9569 52.4417 28.1306 52.4755 28.3237 52.4803V52.7409H26.3594V52.4803C26.4221 52.4803 26.5042 52.461 26.6007 52.4417C26.6972 52.4176 26.7744 52.3886 26.8372 52.35C26.9337 52.2824 27.0109 52.2149 27.064 52.1425C27.1171 52.0749 27.1702 51.9735 27.2233 51.8481C27.4839 51.1917 27.7735 50.4581 28.0872 49.6425C28.4057 48.8268 28.6856 48.0981 28.9318 47.4658H29.2262L30.9636 51.9639C31.0022 52.0556 31.0408 52.1328 31.0891 52.1907C31.1325 52.2486 31.2001 52.3114 31.2822 52.3693C31.3352 52.4079 31.4125 52.432 31.4993 52.4562C31.591 52.4803 31.6634 52.4948 31.7262 52.4948V52.7554L31.731 52.7409ZM29.6364 50.6125L28.8497 48.5903L28.0679 50.6125H29.6364Z" fill="#001514"/>
        <path d="M34.5104 52.8669C34.2015 52.8669 33.9023 52.809 33.6176 52.6835C33.3328 52.5628 33.077 52.3842 32.8599 52.1574C32.6427 51.9257 32.4689 51.6458 32.3434 51.3128C32.2131 50.9798 32.1504 50.6082 32.1504 50.1883C32.1504 49.7684 32.2131 49.3968 32.3386 49.059C32.4641 48.7163 32.6427 48.4267 32.8647 48.1806C33.0867 47.9344 33.3521 47.751 33.6562 47.6207C33.9554 47.4856 34.2836 47.4229 34.6263 47.4229C34.882 47.4229 35.1137 47.4518 35.3212 47.5194C35.5288 47.5821 35.7266 47.6738 35.9149 47.7848L36.0693 47.5387H36.3637L36.3975 49.392H36.0983C36.0548 49.2134 35.9969 49.0155 35.9197 48.8032C35.8425 48.5956 35.7508 48.4122 35.6494 48.2626C35.5288 48.0985 35.3936 47.9682 35.2295 47.8717C35.0703 47.78 34.8821 47.7269 34.6745 47.7269C34.438 47.7269 34.216 47.7752 34.0133 47.8813C33.8058 47.9875 33.6321 48.142 33.4824 48.3495C33.3376 48.5474 33.2266 48.7983 33.1494 49.1024C33.0674 49.4113 33.0288 49.7539 33.0288 50.1256C33.0288 50.4634 33.0722 50.7723 33.1543 51.0474C33.2411 51.3225 33.3618 51.5686 33.5162 51.781C33.6707 51.9885 33.8589 52.1478 34.0712 52.2636C34.2836 52.3842 34.5249 52.4422 34.7855 52.4422C34.9834 52.4422 35.1668 52.4084 35.3357 52.3505C35.4998 52.2877 35.6446 52.2057 35.7701 52.0995C35.8907 51.9885 35.9969 51.8678 36.0934 51.7327C36.1851 51.5976 36.2624 51.4479 36.3251 51.2887L36.6002 51.4238C36.3927 51.9402 36.1079 52.307 35.7604 52.529C35.4129 52.751 34.9979 52.862 34.5201 52.862L34.5104 52.8669Z" fill="#001514"/>
        <path d="M39.6258 52.7407H37.2754V52.4801C37.343 52.4801 37.4395 52.4656 37.565 52.4608C37.6856 52.4511 37.7725 52.4366 37.8256 52.4125C37.9076 52.3835 37.9655 52.3401 38.0042 52.2822C38.0428 52.2291 38.0621 52.1519 38.0621 52.0505V48.2764C38.0621 48.1943 38.0476 48.1219 38.0235 48.064C37.9945 48.0061 37.9318 47.9579 37.8304 47.9192C37.758 47.8903 37.6663 47.8662 37.5553 47.8372C37.4443 47.8131 37.3526 47.7938 37.2802 47.7889V47.5283H39.6306V47.7889C39.5534 47.7889 39.4617 47.7986 39.3555 47.8131C39.2542 47.8275 39.1576 47.8517 39.0852 47.871C38.9935 47.8999 38.9308 47.953 38.897 48.0158C38.8681 48.0833 38.8487 48.1509 38.8487 48.233V52.0023C38.8487 52.0843 38.8632 52.1567 38.9018 52.2194C38.9356 52.2822 38.9984 52.3304 39.0852 52.3642C39.1335 52.3884 39.2204 52.4077 39.3362 52.4318C39.452 52.4559 39.5534 52.4704 39.6354 52.4704V52.731L39.6258 52.7407Z" fill="#001514"/>
        <path d="M44.7858 48.1505C45.0175 48.3918 45.1961 48.6765 45.3264 49.0192C45.4567 49.357 45.5194 49.7335 45.5194 50.1437C45.5194 50.5539 45.4518 50.9352 45.3215 51.2731C45.1864 51.6109 45.003 51.8956 44.7713 52.137C44.5445 52.3686 44.2791 52.552 43.9798 52.6775C43.6758 52.8078 43.3573 52.8657 43.0146 52.8657C42.6526 52.8657 42.3148 52.7982 42.0107 52.663C41.7019 52.5279 41.4412 52.3397 41.2192 52.0935C41.002 51.857 40.8283 51.5675 40.698 51.2296C40.5773 50.8918 40.5098 50.5298 40.5098 50.1389C40.5098 49.719 40.5773 49.3426 40.7076 49.0095C40.8428 48.6765 41.0213 48.3918 41.2578 48.1505C41.4895 47.9092 41.7549 47.7258 42.059 47.6003C42.363 47.4651 42.6816 47.4072 43.0146 47.4072C43.3476 47.4072 43.6854 47.4748 43.9895 47.6003C44.2935 47.7306 44.559 47.914 44.7858 48.1505ZM44.2356 51.8426C44.3708 51.6254 44.4721 51.3696 44.5349 51.0897C44.5976 50.8097 44.6266 50.4912 44.6266 50.1437C44.6266 49.7962 44.5879 49.4584 44.5252 49.1592C44.4576 48.8648 44.3515 48.609 44.2163 48.3966C44.0812 48.1891 43.9123 48.0298 43.7096 47.9092C43.5069 47.7982 43.2752 47.7354 43.0098 47.7354C42.7154 47.7354 42.4692 47.803 42.2617 47.9333C42.0542 48.0684 41.8901 48.247 41.7549 48.4738C41.6343 48.691 41.5426 48.942 41.4847 49.2315C41.4268 49.5211 41.393 49.8252 41.393 50.1389C41.393 50.496 41.4219 50.8146 41.4895 51.0945C41.5522 51.3744 41.6536 51.6302 41.7887 51.8522C41.9239 52.0646 42.088 52.2335 42.2858 52.359C42.4885 52.4796 42.7298 52.5375 43.0049 52.5375C43.2656 52.5375 43.502 52.4796 43.7144 52.3541C43.9268 52.2335 44.0957 52.0597 44.2308 51.8377L44.2356 51.8426Z" fill="#001514"/>
        <path d="M51.8171 47.7995C51.7495 47.7995 51.6433 47.8188 51.5034 47.8574C51.3586 47.896 51.2572 47.9346 51.1993 47.9733C51.1076 48.0312 51.0497 48.1518 51.0208 48.3256C50.9918 48.4993 50.9725 48.7165 50.9725 48.9819V52.7947H50.6588L47.4976 48.5331V51.2165C47.4976 51.5206 47.5169 51.7474 47.5555 51.9115C47.5941 52.0756 47.652 52.1866 47.7341 52.259C47.792 52.3121 47.9078 52.3603 48.0816 52.4086C48.2601 52.4568 48.3711 52.481 48.4291 52.481V52.7416H46.291V52.481C46.3586 52.481 46.4696 52.452 46.6289 52.4086C46.7881 52.3651 46.8798 52.3265 46.9233 52.2928C47.0053 52.2252 47.0681 52.119 47.1018 51.979C47.1308 51.8391 47.1501 51.5978 47.1501 51.2551V48.6875C47.1501 48.5765 47.1308 48.4607 47.0922 48.3497C47.0536 48.2387 47.0005 48.1518 46.9329 48.0891C46.846 48.0119 46.7254 47.9395 46.5758 47.8816C46.4213 47.8236 46.3055 47.7899 46.209 47.7899V47.5292H47.6955L50.625 51.4964V49.0157C50.625 48.7165 50.6057 48.4848 50.5671 48.3159C50.5285 48.1518 50.4754 48.0457 50.403 47.9926C50.3354 47.9491 50.2196 47.9009 50.0652 47.8574C49.9107 47.8092 49.7949 47.7899 49.7128 47.785V47.5244H51.8316V47.785L51.8171 47.7995Z" fill="#001514"/>
        <path d="M58.6481 48.8199C58.6481 49.0902 58.5902 49.3315 58.4889 49.539C58.3779 49.7466 58.2331 49.9203 58.0449 50.0554C57.8566 50.1954 57.6539 50.2919 57.4319 50.3595C57.2099 50.4222 56.9686 50.4512 56.7225 50.4512H56.1385V52.0342C56.1385 52.1211 56.153 52.1935 56.1819 52.261C56.2061 52.3238 56.2688 52.372 56.3557 52.4058C56.3991 52.4251 56.4763 52.4396 56.5873 52.4541C56.6983 52.4686 56.7997 52.4782 56.8914 52.4782V52.7388H54.6568V52.4782C54.7147 52.4782 54.8016 52.4637 54.9126 52.4541C55.0236 52.4396 55.1008 52.4251 55.1443 52.4058C55.2167 52.3769 55.2698 52.3286 55.3036 52.2707C55.3373 52.2079 55.3518 52.1259 55.3518 52.0342V48.2746C55.3518 48.1829 55.3373 48.1105 55.3132 48.0429C55.2842 47.9753 55.2312 47.9222 55.1395 47.8885C55.0478 47.8595 54.9512 47.8354 54.8595 47.8209C54.7678 47.8064 54.6906 47.7968 54.623 47.7968V47.5361H57.0024C57.4898 47.5361 57.8856 47.6471 58.1848 47.8836C58.4889 48.1201 58.6385 48.4338 58.6385 48.8199H58.6481ZM57.5333 49.7128C57.6105 49.5921 57.6684 49.4715 57.6974 49.346C57.7215 49.2205 57.736 49.1095 57.736 49.0081C57.736 48.873 57.7215 48.7234 57.6877 48.5834C57.6539 48.4386 57.596 48.3132 57.5188 48.207C57.4319 48.096 57.3209 48.0043 57.181 47.9367C57.041 47.8788 56.8673 47.845 56.6597 47.845H56.1433V50.1423H56.5198C56.7852 50.1423 56.9976 50.1037 57.1665 50.0217C57.3306 49.9348 57.4512 49.8334 57.5381 49.7176L57.5333 49.7128Z" fill="#001514"/>
        <path d="M64.4 52.7409H62.2378V52.4803C62.4309 52.4658 62.5853 52.4465 62.7156 52.4079C62.8363 52.3741 62.9039 52.3259 62.9039 52.2728C62.9039 52.2486 62.9039 52.2245 62.899 52.1907C62.8942 52.1618 62.8846 52.1328 62.8749 52.1087L62.4405 50.9407H60.6114C60.5438 51.1145 60.4907 51.2641 60.4425 51.3896C60.4039 51.5199 60.3604 51.6357 60.3315 51.7467C60.2977 51.8481 60.2736 51.9349 60.2591 51.9977C60.2494 52.0652 60.2446 52.1183 60.2446 52.1618C60.2446 52.2583 60.3218 52.3355 60.4763 52.3886C60.6307 52.4417 60.7996 52.4755 60.9927 52.4803V52.7409H59.0332V52.4803C59.1008 52.4803 59.178 52.461 59.2745 52.4417C59.3662 52.4176 59.4483 52.3886 59.511 52.35C59.6075 52.2824 59.6847 52.2149 59.7378 52.1425C59.7958 52.0749 59.8488 51.9735 59.8923 51.8481C60.1577 51.1917 60.4425 50.4581 60.761 49.6425C61.0747 48.8268 61.3546 48.0981 61.6056 47.4658H61.9L63.6326 51.9639C63.6712 52.0556 63.7098 52.1328 63.7581 52.1907C63.8064 52.2486 63.8691 52.3114 63.9512 52.3693C64.0091 52.4079 64.0863 52.432 64.1732 52.4562C64.2649 52.4803 64.3421 52.4948 64.4 52.4948V52.7554V52.7409ZM62.3054 50.6125L61.5236 48.5903L60.7417 50.6125H62.3054Z" fill="#001514"/>
        <path d="M69.1255 48.9482H68.8745C68.8456 48.8613 68.807 48.7551 68.7539 48.6345C68.696 48.5138 68.6332 48.4028 68.556 48.2918C68.4884 48.1808 68.4015 48.0794 68.3147 47.9974C68.2278 47.9105 68.1458 47.8623 68.0637 47.8526C67.9913 47.8478 67.8948 47.8381 67.779 47.8333C67.668 47.8285 67.5618 47.8236 67.4604 47.8236H67.2481V51.9935C67.2481 52.0756 67.2626 52.148 67.2963 52.2107C67.3301 52.2783 67.3929 52.3314 67.4797 52.3651C67.5183 52.3796 67.6149 52.4038 67.75 52.4327C67.8948 52.4665 68.001 52.481 68.083 52.481V52.7416H65.6216V52.481C65.6892 52.481 65.7954 52.4665 65.9353 52.452C66.0753 52.4375 66.1766 52.4182 66.2297 52.3989C66.307 52.3651 66.3697 52.3169 66.4083 52.259C66.4469 52.2011 66.4614 52.119 66.4614 52.0177V47.814H66.249C66.1766 47.814 66.0849 47.814 65.9691 47.8188C65.8581 47.8188 65.7471 47.8333 65.6458 47.8429C65.5637 47.8526 65.4817 47.9009 65.3948 47.9877C65.3079 48.0746 65.2307 48.1711 65.1535 48.2821C65.0811 48.3931 65.0135 48.509 64.9556 48.6296C64.8977 48.7551 64.8591 48.8565 64.8398 48.9337H64.584V47.5244H69.1255V48.9337V48.9482Z" fill="#001514"/>
        <path d="M74.916 52.7398H73.5116C73.1979 52.2571 72.918 51.8372 72.667 51.4801C72.416 51.123 72.1458 50.761 71.8514 50.3845H71.3205V52.0351C71.3205 52.122 71.335 52.1944 71.3591 52.262C71.388 52.3247 71.446 52.373 71.5328 52.4067C71.5763 52.426 71.6535 52.4405 71.7645 52.455C71.8755 52.4695 71.9672 52.4791 72.0444 52.4791V52.7398H69.8388V52.4791C69.8967 52.4791 69.9836 52.4647 70.0994 52.455C70.2104 52.4405 70.2877 52.426 70.3311 52.4067C70.4035 52.3778 70.4566 52.3295 70.4904 52.2716C70.5241 52.2089 70.5386 52.1268 70.5386 52.0351V48.2658C70.5386 48.1789 70.5241 48.1065 70.5 48.039C70.4759 47.9714 70.4131 47.9232 70.3263 47.8845C70.2587 47.8652 70.1815 47.8459 70.085 47.8266C69.9836 47.8121 69.9064 47.7977 69.834 47.7928V47.5322H72.2423C72.4595 47.5322 72.6718 47.5515 72.8649 47.5998C73.0579 47.6481 73.2317 47.7204 73.3909 47.817C73.5406 47.9183 73.6612 48.0438 73.7529 48.2031C73.8446 48.3575 73.888 48.5506 73.888 48.7726C73.888 48.9753 73.8591 49.1538 73.8012 49.3035C73.7336 49.4579 73.6467 49.5979 73.5309 49.7089C73.4199 49.8102 73.2896 49.9019 73.1303 49.9791C72.9759 50.0564 72.807 50.1191 72.6187 50.1722C72.8794 50.5148 73.0917 50.7996 73.2655 51.0361C73.4295 51.2629 73.6467 51.5477 73.888 51.8807C73.9942 52.0255 74.0956 52.1365 74.1824 52.204C74.2693 52.2764 74.3562 52.3295 74.4431 52.373C74.5058 52.4067 74.583 52.4309 74.6795 52.4502C74.7761 52.4647 74.8533 52.4791 74.9209 52.4791V52.7398H74.916ZM72.9807 48.8643C72.9807 48.5506 72.889 48.2948 72.7104 48.1114C72.5319 47.928 72.2761 47.8363 71.9479 47.8363H71.3253V50.0708H71.8031C72.1409 50.0708 72.4257 49.9598 72.6477 49.7475C72.8745 49.5303 72.9855 49.2359 72.9855 48.8691L72.9807 48.8643Z" fill="#001514"/>
        <path d="M79.6267 48.1505C79.8535 48.3918 80.0369 48.6765 80.1672 49.0192C80.2976 49.357 80.3651 49.7335 80.3651 50.1437C80.3651 50.5539 80.2976 50.9352 80.1672 51.2731C80.0369 51.6109 79.8535 51.8956 79.6171 52.137C79.3902 52.3686 79.1248 52.552 78.8255 52.6775C78.5215 52.8078 78.203 52.8657 77.8603 52.8657C77.4983 52.8657 77.1605 52.7982 76.8564 52.663C76.5524 52.5279 76.2869 52.3397 76.0649 52.0935C75.8429 51.857 75.674 51.5675 75.5485 51.2296C75.423 50.8918 75.3555 50.5298 75.3555 50.1389C75.3555 49.719 75.423 49.3426 75.5533 49.0095C75.6885 48.6765 75.8671 48.3918 76.1035 48.1505C76.3352 47.9092 76.6006 47.7258 76.9047 47.6003C77.2088 47.4651 77.5273 47.4072 77.8603 47.4072C78.1933 47.4072 78.5311 47.4748 78.8352 47.6003C79.1393 47.7306 79.4047 47.914 79.6315 48.1505H79.6267ZM79.0765 51.8426C79.2116 51.6254 79.313 51.3696 79.3757 51.0897C79.4385 50.8097 79.4723 50.4912 79.4723 50.1437C79.4723 49.7962 79.4337 49.4584 79.3661 49.1592C79.2985 48.8648 79.1923 48.609 79.0572 48.3966C78.9221 48.1891 78.7532 48.0298 78.5505 47.9092C78.3478 47.7982 78.1161 47.7354 77.8506 47.7354C77.5562 47.7354 77.3101 47.803 77.1026 47.9333C76.895 48.0684 76.731 48.247 76.5958 48.4738C76.4752 48.691 76.3883 48.942 76.3256 49.2315C76.2676 49.5211 76.2339 49.8252 76.2339 50.1389C76.2339 50.496 76.2676 50.8146 76.3304 51.0945C76.3931 51.3744 76.4945 51.6302 76.6296 51.8522C76.7647 52.0646 76.9288 52.2335 77.1315 52.359C77.3342 52.4796 77.5755 52.5375 77.8506 52.5375C78.1257 52.5375 78.3477 52.4796 78.5601 52.3541C78.7676 52.2335 78.9414 52.0597 79.0717 51.8377L79.0765 51.8426Z" fill="#001514"/>
        <path d="M86.6578 47.7995C86.5903 47.7995 86.4841 47.8188 86.3441 47.8574C86.1994 47.896 86.098 47.9346 86.0401 47.9733C85.9484 48.0312 85.8953 48.1518 85.8615 48.3256C85.8326 48.4993 85.8181 48.7165 85.8181 48.9819V52.7947H85.4947L82.3384 48.5331V51.2165C82.3384 51.5206 82.3577 51.7474 82.3963 51.9115C82.4349 52.0756 82.4928 52.1866 82.5748 52.259C82.6328 52.3121 82.7486 52.3603 82.9223 52.4086C83.1009 52.4568 83.2167 52.481 83.2698 52.481V52.7416H81.1318V52.481C81.1994 52.481 81.3104 52.452 81.4648 52.4086C81.6241 52.3651 81.7206 52.3265 81.7592 52.2928C81.8413 52.2252 81.904 52.119 81.933 51.979C81.9619 51.8391 81.9812 51.5978 81.9812 51.2551V48.6875C81.9812 48.5765 81.9619 48.4607 81.9233 48.3497C81.8799 48.2387 81.8316 48.1518 81.764 48.0891C81.6723 48.0119 81.5565 47.9395 81.4069 47.8816C81.2573 47.8236 81.1366 47.7899 81.0449 47.7899V47.5292H82.5314L85.4609 51.4964V49.0157C85.4609 48.7165 85.4368 48.4848 85.3982 48.3159C85.3596 48.1518 85.3065 48.0457 85.2293 47.9926C85.1617 47.9491 85.0507 47.9009 84.8963 47.8574C84.7418 47.8092 84.626 47.7899 84.5391 47.785V47.5244H86.6578V47.785V47.7995Z" fill="#001514"/>
        <path d="M92.2368 52.7409H90.0699V52.4803C90.2629 52.4658 90.4174 52.4465 90.5428 52.4079C90.6683 52.3741 90.7311 52.3259 90.7311 52.2728C90.7311 52.2486 90.7311 52.2245 90.7262 52.1907C90.7214 52.1618 90.7118 52.1328 90.7021 52.1087L90.2726 50.9407H88.4434C88.3759 51.1145 88.3228 51.2641 88.2793 51.3896C88.2359 51.5199 88.1973 51.6357 88.1635 51.7467C88.1297 51.8481 88.1104 51.9349 88.0959 51.9977C88.0815 52.0652 88.0766 52.1183 88.0766 52.1618C88.0766 52.2583 88.1538 52.3355 88.3083 52.3886C88.4627 52.4417 88.6316 52.4755 88.8295 52.4803V52.7409H86.8652V52.4803C86.9328 52.4803 87.01 52.461 87.1065 52.4417C87.2031 52.4176 87.2803 52.3886 87.343 52.35C87.4396 52.2824 87.5168 52.2149 87.5699 52.1425C87.6278 52.0749 87.6809 51.9735 87.7291 51.8481C87.9897 51.1917 88.2793 50.4581 88.593 49.6425C88.9116 48.8268 89.1915 48.0981 89.4425 47.4658H89.7369L91.4743 51.9639C91.5129 52.0556 91.5515 52.1328 91.595 52.1907C91.6432 52.2486 91.706 52.3114 91.7928 52.3693C91.8507 52.4079 91.9231 52.432 92.01 52.4562C92.1017 52.4803 92.1741 52.4948 92.2368 52.4948V52.7554V52.7409ZM90.1423 50.6125L89.3556 48.5903L88.5737 50.6125H90.1423Z" fill="#001514"/>
        <path d="M96.909 51.1905L96.798 52.7398H92.7294V52.4791C92.7873 52.4791 92.8742 52.4647 92.9852 52.455C93.0962 52.4405 93.1686 52.426 93.2121 52.4067C93.2893 52.3778 93.3424 52.3295 93.3761 52.2716C93.4099 52.2089 93.4244 52.1268 93.4244 52.0351V48.3044C93.4244 48.2176 93.4099 48.1452 93.381 48.0824C93.352 48.0197 93.2989 47.9666 93.2121 47.928C93.159 47.899 93.0769 47.8701 92.9756 47.8411C92.8742 47.817 92.7874 47.7977 92.7246 47.7928V47.5322H94.9254V47.7928C94.8578 47.7928 94.7661 47.8073 94.6551 47.8315C94.5441 47.8508 94.4669 47.8749 94.4186 47.8894C94.3366 47.9183 94.2787 47.9714 94.2497 48.0438C94.2159 48.1114 94.2014 48.1886 94.2014 48.2706V51.7697C94.2014 51.9338 94.2111 52.0593 94.2256 52.1461C94.2449 52.2378 94.2787 52.3054 94.3366 52.3537C94.3945 52.4019 94.4814 52.4309 94.5875 52.4405C94.6985 52.455 94.8578 52.4647 95.0605 52.4647C95.1474 52.4647 95.2439 52.4647 95.3404 52.455C95.4418 52.455 95.5335 52.4405 95.6204 52.4309C95.7072 52.4116 95.7845 52.3923 95.8617 52.373C95.9341 52.344 95.9823 52.315 96.0209 52.2716C96.1223 52.1606 96.2381 51.9869 96.3684 51.76C96.5036 51.5332 96.5953 51.3498 96.6484 51.2002H96.909V51.1905Z" fill="#001514"/>
        <path d="M29.2417 59.4824C29.343 59.5934 29.4106 59.7092 29.4589 59.8395C29.5071 59.9698 29.5264 60.1194 29.5264 60.2884C29.5264 60.6938 29.3768 61.0316 29.0776 61.2922C28.7784 61.5577 28.4067 61.688 27.9579 61.688C27.7552 61.688 27.5477 61.659 27.3401 61.5915C27.1374 61.5287 26.9589 61.4515 26.8093 61.3598L26.6693 61.6011H26.4087L26.3652 60.0277H26.6259C26.6789 60.2208 26.7417 60.3994 26.8141 60.5538C26.8865 60.7131 26.983 60.8579 27.0988 60.9978C27.2098 61.1281 27.345 61.2295 27.4898 61.3019C27.6394 61.3791 27.8179 61.4129 28.0158 61.4129C28.1654 61.4129 28.2957 61.3936 28.4067 61.355C28.5177 61.3164 28.6094 61.2584 28.677 61.1909C28.7446 61.1233 28.7977 61.0364 28.8314 60.9399C28.8652 60.8386 28.8797 60.7324 28.8797 60.6021C28.8797 60.4187 28.8266 60.2498 28.7253 60.0905C28.6191 59.9312 28.4695 59.8106 28.262 59.7285C28.122 59.6706 27.9627 59.6079 27.7793 59.5403C27.6008 59.4727 27.4415 59.4052 27.3112 59.3472C27.0506 59.2314 26.8527 59.077 26.7079 58.8888C26.5631 58.7054 26.4907 58.4592 26.4907 58.1503C26.4907 57.9766 26.5245 57.8125 26.5969 57.6581C26.6693 57.5084 26.7658 57.3733 26.9009 57.2527C27.0264 57.1416 27.176 57.0548 27.345 56.992C27.5139 56.9245 27.6925 56.8955 27.8759 56.8955C28.0882 56.8955 28.2764 56.9245 28.4454 56.992C28.6094 57.0596 28.7639 57.132 28.9038 57.2189L29.0342 57.0017H29.2948L29.3189 58.522H29.0583C29.01 58.3482 28.9569 58.1841 28.899 58.0249C28.8411 57.8656 28.7639 57.7208 28.6674 57.5905C28.5757 57.465 28.4598 57.3685 28.3295 57.2913C28.1944 57.214 28.0303 57.1803 27.8372 57.1803C27.6297 57.1803 27.456 57.2478 27.3112 57.3733C27.1664 57.5084 27.094 57.6677 27.094 57.8608C27.094 58.0586 27.1423 58.2227 27.234 58.3579C27.3257 58.4882 27.4608 58.5944 27.6394 58.6812C27.7986 58.7536 27.9531 58.8212 28.1027 58.8743C28.2523 58.9322 28.4019 58.9901 28.5419 59.0528C28.6722 59.1059 28.7977 59.1735 28.9183 59.2411C29.039 59.3135 29.1403 59.3955 29.2272 59.492L29.2417 59.4824Z" fill="#001514"/>
        <path d="M33.9708 60.2385L33.884 61.5898H30.0664V61.363C30.134 61.3582 30.2208 61.3485 30.327 61.334C30.4332 61.3196 30.5056 61.3051 30.5394 61.2906C30.6118 61.2616 30.6552 61.2182 30.6842 61.1651C30.7083 61.112 30.7228 61.0493 30.7228 60.9672V57.6661C30.7228 57.5985 30.7131 57.5309 30.689 57.4779C30.6649 57.4199 30.6166 57.3765 30.5394 57.3427C30.4815 57.3138 30.4042 57.2896 30.3029 57.2703C30.2064 57.2462 30.1291 57.2317 30.0664 57.2317V57.0049H33.6234V58.1101H33.382C33.3386 57.946 33.2469 57.7723 33.1021 57.5889C32.9573 57.4006 32.8222 57.3041 32.6919 57.2848C32.6243 57.28 32.5423 57.2703 32.4506 57.2655C32.3589 57.2655 32.2527 57.2607 32.132 57.2607H31.4129V59.0898H31.9293C32.0934 59.0898 32.2141 59.0753 32.2913 59.0416C32.3685 59.0126 32.4361 58.9595 32.494 58.8871C32.5374 58.8244 32.5809 58.7423 32.6147 58.6362C32.6485 58.53 32.6726 58.4286 32.6822 58.3369H32.9284V60.1371H32.6822C32.6726 60.0358 32.6485 59.9248 32.6147 59.8138C32.5761 59.6979 32.5374 59.6111 32.4988 59.5628C32.4313 59.4759 32.354 59.4228 32.2672 59.3987C32.1803 59.3746 32.0693 59.3601 31.9293 59.3601H31.4129V60.7404C31.4129 60.8755 31.4226 60.9865 31.4419 61.0686C31.4612 61.1458 31.4998 61.2085 31.5529 61.2472C31.6108 61.2858 31.688 61.3147 31.7846 61.3244C31.8811 61.334 32.021 61.3389 32.1996 61.3389H32.4795C32.5954 61.3389 32.6919 61.3389 32.7739 61.3244C32.856 61.3147 32.938 61.3002 33.0297 61.2761C33.1166 61.2568 33.1793 61.223 33.2179 61.1844C33.3193 61.0831 33.4207 60.9286 33.5317 60.7211C33.6427 60.5087 33.7102 60.3543 33.7392 60.2578H33.9708V60.2385Z" fill="#001514"/>
        <path d="M38.8885 59.7584C38.8402 59.7632 38.7678 59.7729 38.6809 59.7874C38.5892 59.8018 38.5217 59.8211 38.4686 59.8453C38.401 59.879 38.3576 59.9273 38.3286 59.9852C38.2997 60.0431 38.29 60.1155 38.29 60.1928V60.5499C38.29 60.8105 38.29 60.9843 38.2948 61.076C38.2948 61.1677 38.2997 61.2401 38.3045 61.3028C38.0149 61.4283 37.735 61.5296 37.4454 61.5972C37.1607 61.6696 36.8759 61.6985 36.6057 61.6985C36.3112 61.6985 36.0313 61.6406 35.7562 61.5345C35.486 61.4235 35.2446 61.269 35.0419 61.0663C34.8392 60.8636 34.6703 60.6126 34.5497 60.3134C34.429 60.019 34.3711 59.6908 34.3711 59.3289C34.3711 58.9669 34.429 58.6532 34.5448 58.354C34.6607 58.0547 34.8248 57.7941 35.0371 57.5769C35.2446 57.3549 35.486 57.1908 35.7707 57.0702C36.0603 56.9495 36.3595 56.8916 36.6877 56.8916C36.9483 56.8916 37.1703 56.9206 37.3634 56.9833C37.5564 57.0412 37.7253 57.1184 37.8701 57.2101L38.0053 56.993H38.2611L38.29 58.6001H38.0246C37.9763 58.4215 37.9232 58.2478 37.8556 58.074C37.7881 57.9003 37.7012 57.7507 37.595 57.6107C37.4889 57.4756 37.3634 57.3694 37.2089 57.2874C37.0545 57.2053 36.8711 57.1667 36.6636 57.1667C36.4319 57.1667 36.2244 57.215 36.041 57.3067C35.8576 57.4032 35.6983 57.548 35.568 57.7265C35.4377 57.9051 35.3363 58.1271 35.2639 58.3974C35.1916 58.6677 35.1578 58.9669 35.1578 59.2951C35.1578 59.5895 35.1916 59.8646 35.2591 60.1204C35.3267 60.381 35.4329 60.603 35.568 60.7912C35.7031 60.9843 35.8721 61.1339 36.0748 61.2449C36.2775 61.3511 36.5043 61.409 36.7601 61.409C36.9483 61.409 37.1221 61.3752 37.2765 61.3173C37.4309 61.2594 37.5468 61.1966 37.6143 61.1339C37.6288 61.0229 37.6385 60.907 37.6385 60.7912V60.2458C37.6385 60.1541 37.624 60.0769 37.5999 60.0045C37.5757 59.937 37.5226 59.8839 37.4454 59.8501C37.373 59.8163 37.2765 59.797 37.151 59.7777C37.0304 59.7632 36.9338 59.7536 36.8663 59.7487V59.5123H38.8788V59.7487L38.8885 59.7584Z" fill="#001514"/>
        <path d="M43.9026 57.2248C43.8447 57.2248 43.7482 57.2441 43.6324 57.2634C43.5165 57.2876 43.4248 57.3213 43.3476 57.3648C43.28 57.4179 43.227 57.5192 43.198 57.6737C43.169 57.8281 43.1546 58.0212 43.1546 58.2432V60.2412C43.1546 60.497 43.1015 60.719 43.0001 60.9073C42.8891 61.0955 42.754 61.2499 42.5802 61.3706C42.4065 61.4816 42.2279 61.5684 42.0397 61.6215C41.8515 61.6698 41.6729 61.6988 41.4992 61.6988C41.2241 61.6988 40.9779 61.6602 40.7607 61.5926C40.5436 61.5154 40.3602 61.4188 40.2154 61.2982C40.0706 61.1727 39.9644 61.0327 39.892 60.8735C39.8196 60.7142 39.781 60.5501 39.781 60.3764V57.6592C39.781 57.5868 39.7714 57.5192 39.7424 57.471C39.7183 57.4179 39.67 57.3696 39.5928 57.331C39.5397 57.2972 39.4721 57.2731 39.3853 57.2538C39.3032 57.2393 39.2308 57.2248 39.1777 57.22V56.9932H41.0938V57.22C41.0358 57.22 40.9586 57.2296 40.8621 57.249C40.7704 57.2634 40.7077 57.2827 40.6594 57.2972C40.5918 57.3262 40.5387 57.3696 40.5146 57.4275C40.4905 57.4854 40.476 57.553 40.476 57.6254V60.164C40.476 60.2847 40.4905 60.415 40.5146 60.5501C40.5436 60.6852 40.5967 60.8107 40.6739 60.9266C40.7607 61.0472 40.8717 61.1437 41.0214 61.221C41.1662 61.2934 41.364 61.332 41.615 61.332C41.8563 61.332 42.0542 61.2934 42.2134 61.221C42.3775 61.1437 42.503 61.0472 42.5947 60.9217C42.6816 60.8059 42.7443 60.6804 42.7829 60.5549C42.8216 60.4295 42.8409 60.304 42.8409 60.1688V58.2866C42.8409 58.0453 42.8264 57.8474 42.7878 57.693C42.754 57.5385 42.7009 57.442 42.6333 57.3937C42.5609 57.3407 42.4548 57.2972 42.3245 57.2683C42.1941 57.2393 42.0928 57.22 42.0252 57.22V56.9932H43.9075V57.22L43.9026 57.2248Z" fill="#001514"/>
        <path d="M48.7425 61.5907H47.507C47.2368 61.1612 46.9906 60.7896 46.7638 60.4759C46.5418 60.1622 46.3005 59.8388 46.0447 59.5058H45.5765V60.9633C45.5765 61.0454 45.5862 61.1081 45.6103 61.166C45.6344 61.224 45.6875 61.2674 45.7647 61.2963C45.8034 61.3108 45.8758 61.3253 45.9674 61.335C46.0688 61.3543 46.146 61.3639 46.2184 61.3639V61.5907H44.2734V61.3639C44.3217 61.3591 44.3941 61.3494 44.4954 61.335C44.5968 61.3301 44.6644 61.3156 44.703 61.2963C44.7705 61.2674 44.814 61.2288 44.8478 61.1709C44.8767 61.1226 44.8912 61.0502 44.8912 60.9633V57.6429C44.8912 57.5705 44.8815 57.5029 44.8574 57.445C44.8381 57.3871 44.785 57.3436 44.703 57.3099C44.6499 57.2906 44.5823 57.2712 44.4954 57.2568C44.4086 57.2423 44.3313 57.2278 44.2783 57.2278V57.001H46.397C46.5949 57.001 46.7783 57.0203 46.9472 57.0589C47.1161 57.0975 47.2705 57.1602 47.4105 57.2519C47.5456 57.3388 47.6518 57.4498 47.7339 57.5898C47.8111 57.7346 47.8545 57.8987 47.8545 58.0965C47.8545 58.2751 47.8256 58.4296 47.7725 58.5647C47.7194 58.7046 47.6373 58.8205 47.5312 58.917C47.4346 59.0087 47.3188 59.0907 47.1837 59.1631C47.0485 59.2307 46.8989 59.2886 46.7348 59.3369C46.9617 59.6361 47.1451 59.8871 47.2995 60.0946C47.4491 60.3021 47.6325 60.5483 47.8497 60.8378C47.9414 60.973 48.0331 61.0647 48.1055 61.1274C48.1875 61.1853 48.2599 61.2384 48.3371 61.277C48.3951 61.306 48.4626 61.3301 48.5495 61.3446C48.6315 61.3591 48.7039 61.3736 48.757 61.3736V61.6004L48.7425 61.5907ZM47.0437 58.1641C47.0437 57.8842 46.9617 57.667 46.8024 57.5029C46.6431 57.3388 46.4163 57.2616 46.1267 57.2616H45.5765V59.2307H45.9964C46.2956 59.2307 46.5418 59.1342 46.7397 58.946C46.9375 58.7577 47.0389 58.4923 47.0389 58.1689L47.0437 58.1641Z" fill="#001514"/>
        <path d="M52.6326 57.5431C52.8353 57.7507 52.9994 58.0065 53.1056 58.3057C53.2214 58.6049 53.2841 58.9379 53.2841 59.2999C53.2841 59.6619 53.2262 59.9949 53.1056 60.2941C52.9849 60.5885 52.8256 60.8443 52.6229 61.0567C52.4202 61.2642 52.1886 61.4235 51.9231 61.5393C51.6577 61.6503 51.3729 61.7034 51.0785 61.7034C50.7552 61.7034 50.4656 61.6455 50.1905 61.5248C49.9202 61.4041 49.6837 61.2401 49.4907 61.0277C49.2976 60.8153 49.1432 60.5644 49.0322 60.2652C48.9212 59.9659 48.8633 59.6426 48.8633 59.3047C48.8633 58.9283 48.926 58.5953 49.0419 58.3057C49.1625 58.0113 49.3218 57.7603 49.5245 57.548C49.732 57.3356 49.9685 57.1715 50.2339 57.0653C50.5042 56.9543 50.7841 56.8916 51.0785 56.8916C51.3729 56.8916 51.6673 56.9495 51.9376 57.0653C52.2079 57.1812 52.4444 57.3453 52.6374 57.548L52.6326 57.5431ZM52.15 60.8009C52.2706 60.603 52.3575 60.381 52.4106 60.1348C52.4685 59.8839 52.4926 59.6088 52.4926 59.3047C52.4926 59.0007 52.4685 58.6966 52.4009 58.436C52.3382 58.1706 52.2465 57.9485 52.1307 57.7603C52.0148 57.5769 51.8652 57.4321 51.6866 57.3308C51.5081 57.2246 51.3005 57.1763 51.0737 57.1763C50.8131 57.1763 50.5959 57.2343 50.4125 57.3501C50.2291 57.4659 50.0843 57.6252 49.9685 57.8231C49.8575 58.0113 49.7803 58.2333 49.7272 58.4891C49.6693 58.7449 49.6451 59.0103 49.6451 59.2951C49.6451 59.604 49.6741 59.8887 49.7272 60.1348C49.7851 60.3858 49.872 60.6126 49.9926 60.8009C50.1133 60.9891 50.2532 61.1387 50.4366 61.2449C50.6152 61.3559 50.8276 61.409 51.0737 61.409C51.3005 61.409 51.5129 61.3559 51.6963 61.2449C51.8845 61.1387 52.0341 60.9843 52.15 60.7912V60.8009Z" fill="#001514"/>
        <path d="M56.7202 59.4824C56.8167 59.5934 56.8891 59.7092 56.9374 59.8395C56.9808 59.9698 57.0049 60.1194 57.0049 60.2884C57.0049 60.6938 56.8553 61.0316 56.5513 61.2922C56.2521 61.5577 55.8804 61.688 55.4364 61.688C55.2289 61.688 55.0262 61.659 54.8235 61.5915C54.616 61.5287 54.4422 61.4515 54.2926 61.3598L54.1526 61.6011H53.892L53.8438 60.0277H54.1044C54.1623 60.2208 54.2202 60.3994 54.2926 60.5538C54.365 60.7131 54.4615 60.8579 54.5822 60.9978C54.6932 61.1281 54.8235 61.2295 54.9731 61.3019C55.1227 61.3791 55.2965 61.4129 55.4943 61.4129C55.6439 61.4129 55.7743 61.3936 55.8853 61.355C55.9963 61.3164 56.0831 61.2584 56.1555 61.1909C56.2231 61.1233 56.2762 61.0364 56.31 60.9399C56.3437 60.8386 56.3631 60.7324 56.3631 60.6021C56.3631 60.4187 56.31 60.2498 56.2086 60.0905C56.1073 59.9312 55.948 59.8106 55.7453 59.7285C55.6053 59.6706 55.4461 59.6079 55.2627 59.5403C55.0841 59.4727 54.9248 59.4052 54.7945 59.3472C54.5339 59.2314 54.3312 59.077 54.1912 58.8888C54.0465 58.7054 53.9741 58.4592 53.9741 58.1503C53.9741 57.9766 54.0127 57.8125 54.0802 57.6581C54.1526 57.5084 54.254 57.3733 54.3843 57.2527C54.5049 57.1416 54.6546 57.0548 54.8235 56.992C54.9972 56.9245 55.1758 56.8955 55.3592 56.8955C55.5715 56.8955 55.7598 56.9245 55.9287 56.992C56.0976 57.0596 56.2521 57.132 56.3872 57.2189L56.5223 57.0017H56.7829L56.8071 58.522H56.5465C56.4982 58.3482 56.4451 58.1841 56.3872 58.0249C56.3293 57.8656 56.2521 57.7208 56.1555 57.5905C56.059 57.465 55.948 57.3685 55.8129 57.2913C55.6777 57.214 55.5136 57.1803 55.3206 57.1803C55.1131 57.1803 54.9393 57.2478 54.7945 57.3733C54.6497 57.5084 54.5773 57.6677 54.5773 57.8608C54.5773 58.0586 54.6256 58.2227 54.7221 58.3579C54.8138 58.4882 54.949 58.5944 55.1227 58.6812C55.282 58.7536 55.4364 58.8212 55.586 58.8743C55.7405 58.9322 55.8853 58.9901 56.0252 59.0528C56.1555 59.1059 56.281 59.1735 56.4017 59.2411C56.5223 59.3135 56.6237 59.3955 56.7154 59.492L56.7202 59.4824Z" fill="#001514"/>
        <path d="M62.0444 59.4825C62.1409 59.5935 62.2085 59.7093 62.2568 59.8396C62.305 59.97 62.3292 60.1196 62.3292 60.2885C62.3292 60.6939 62.1747 61.0317 61.8755 61.2923C61.5763 61.5578 61.2046 61.6881 60.7606 61.6881C60.5531 61.6881 60.3504 61.6591 60.1429 61.5916C59.9402 61.5288 59.7616 61.4516 59.6168 61.3599L59.4768 61.6012H59.2162L59.168 60.0279H59.4334C59.4865 60.2209 59.5492 60.3995 59.6216 60.5539C59.694 60.7132 59.7906 60.858 59.9112 60.9979C60.0222 61.1283 60.1525 61.2296 60.3021 61.302C60.4518 61.3792 60.6255 61.413 60.8234 61.413C60.973 61.413 61.1033 61.3937 61.2143 61.3551C61.3253 61.3165 61.417 61.2586 61.4846 61.191C61.5521 61.1234 61.6052 61.0366 61.639 60.94C61.6776 60.8387 61.6921 60.7325 61.6921 60.6022C61.6921 60.4188 61.639 60.2499 61.5328 60.0906C61.4315 59.9313 61.2819 59.8107 61.0695 59.7286C60.9295 59.6707 60.7655 59.608 60.5869 59.5404C60.4083 59.4729 60.249 59.4053 60.1187 59.3474C59.8581 59.2315 59.6554 59.0771 59.5155 58.8889C59.3707 58.7055 59.2983 58.4593 59.2983 58.1505C59.2983 57.9767 59.3321 57.8126 59.4045 57.6582C59.4768 57.5086 59.5782 57.3734 59.7085 57.2528C59.8292 57.1418 59.9788 57.0549 60.1525 56.9922C60.3214 56.9246 60.5 56.8956 60.6834 56.8956C60.8958 56.8956 61.0888 56.9246 61.2529 56.9922C61.4218 57.0597 61.5763 57.1321 61.7162 57.219L61.8465 57.0018H62.1072L62.1313 58.5221H61.8707C61.8224 58.3483 61.7693 58.1842 61.7114 58.025C61.6535 57.8657 61.5763 57.7209 61.4797 57.5906C61.388 57.4651 61.2722 57.3686 61.1419 57.2914C61.0068 57.2142 60.8427 57.1804 60.6496 57.1804C60.4421 57.1804 60.2684 57.2479 60.1236 57.3734C59.9788 57.5086 59.9064 57.6678 59.9064 57.8609C59.9064 58.0588 59.9546 58.2229 60.0463 58.358C60.138 58.4883 60.278 58.5945 60.4518 58.6813C60.611 58.7537 60.7655 58.8213 60.9151 58.8744C61.0695 58.9323 61.2143 58.9902 61.3591 59.053C61.4894 59.1061 61.6149 59.1736 61.7355 59.2412C61.8562 59.3136 61.9624 59.3956 62.0492 59.4922L62.0444 59.4825Z" fill="#001514"/>
        <path d="M63.9309 61.2184C63.9309 61.3391 63.8826 61.4404 63.7958 61.5273C63.7089 61.6094 63.6075 61.6528 63.482 61.6528C63.3566 61.6528 63.2552 61.6094 63.1683 61.5273C63.0815 61.4404 63.0332 61.3391 63.0332 61.2184C63.0332 61.0978 63.0815 60.9916 63.1683 60.9047C63.2552 60.8179 63.3614 60.7744 63.482 60.7744C63.6027 60.7744 63.7089 60.8179 63.7958 60.9047C63.8826 60.9964 63.9309 61.0978 63.9309 61.2184Z" fill="#001514"/>
        <path d="M68.9739 61.5919H67.0675V61.3651C67.2316 61.3506 67.3764 61.3313 67.4874 61.2975C67.5984 61.2637 67.6515 61.2251 67.6515 61.1768C67.6515 61.1575 67.6515 61.1334 67.6467 61.1093C67.6467 61.0803 67.637 61.0514 67.6273 61.0321L67.2461 60.0041H65.6293C65.5714 60.1585 65.5231 60.2888 65.4845 60.3998C65.4459 60.5108 65.4121 60.617 65.3831 60.7135C65.3542 60.8052 65.3349 60.8776 65.3252 60.9404C65.3107 60.9983 65.3059 61.0465 65.3059 61.0851C65.3059 61.172 65.3735 61.2396 65.5134 61.283C65.6486 61.3313 65.8079 61.3602 65.9768 61.3699V61.5967H64.2441V61.3699C64.2972 61.3651 64.3696 61.3506 64.4517 61.3313C64.5337 61.312 64.6061 61.283 64.6592 61.2492C64.7461 61.1913 64.8136 61.1286 64.8571 61.061C64.9053 60.9983 64.9488 60.9114 64.997 60.8004C65.2287 60.2212 65.4845 59.5745 65.7596 58.8554C66.0395 58.1363 66.2856 57.4944 66.5028 56.9346H66.7634L68.2934 60.9018C68.3272 60.9838 68.3609 61.0562 68.4044 61.1045C68.443 61.1527 68.5057 61.2058 68.5781 61.2541C68.6264 61.2879 68.6891 61.312 68.7712 61.3361C68.8532 61.3554 68.916 61.3699 68.969 61.3699V61.5967L68.9739 61.5919ZM67.1254 59.7145L66.4304 57.9288L65.7403 59.7145H67.1206H67.1254Z" fill="#001514"/>
        <path d="M70.1731 61.2184C70.1731 61.3391 70.1248 61.4404 70.0379 61.5273C69.9511 61.6094 69.8449 61.6528 69.7242 61.6528C69.6036 61.6528 69.4974 61.6094 69.4105 61.5273C69.3237 61.4404 69.2754 61.3391 69.2754 61.2184C69.2754 61.0978 69.3237 60.9916 69.4105 60.9047C69.4974 60.8179 69.6036 60.7744 69.7242 60.7744C69.8449 60.7744 69.9511 60.8179 70.0379 60.9047C70.1248 60.9964 70.1731 61.0978 70.1731 61.2184Z" fill="#001514"/>
    </g>
    <defs>
        <clipPath id="clip0_530_1175">
            <rect width="96.8195" height="61.4044" fill="white" transform="translate(0.0898438 0.297852)"/>
        </clipPath>
    </defs>
</svg>
