<svg width="248" height="29" viewBox="0 0 248 29" fill="none" xmlns="http://www.w3.org/2000/svg">
    <path d="M26.3538 4.06816C26.3538 4.06816 24.954 5.61596 25.9098 6.35286C26.8655 7.08975 28.3425 7.08975 28.1237 5.76398C28.4197 5.46794 29.8903 6.79693 29.5234 7.31179C29.1534 7.82665 28.0657 9.00761 27.5798 8.85959C27.0907 8.71157 25.913 9.74451 25.913 9.74451C25.913 9.74451 25.6169 10.5554 25.913 10.9255C26.209 11.2923 25.5461 11.1475 25.0281 10.5586C24.584 10.5586 23.477 12.4765 25.0281 11.8104C25.3241 12.3993 25.3949 13.2842 25.3949 13.2842L25.6169 14.0211C25.6169 14.0211 27.4608 15.7169 29.2306 16.5278C30.7044 17.2647 30.8203 18.9605 29.5814 19.9935C28.3425 21.0264 27.3288 21.4673 27.3288 21.4673C27.3288 21.4673 26.7207 23.9 25.4689 23.752C24.88 24.7141 24.23 26.4807 24.23 26.4807C24.23 26.4807 23.329 26.4067 23.477 25.5958C23.6251 24.7849 24.51 21.9854 24.2172 20.5856C23.9211 19.1858 24.0369 18.7417 23.4609 18.1528C22.8882 17.564 22.5599 15.2761 23.4609 14.4684C24.362 13.6575 25.3949 13.2166 24.584 12.5505C23.7731 11.8844 22.2961 11.2247 21.8552 9.23287C21.7812 8.7888 21.3404 8.86281 21.4112 9.96976C21.1891 10.2658 20.1594 9.30688 20.0854 7.31822C20.0114 6.87415 19.5705 6.80014 18.9784 7.68506C18.3896 8.56998 16.6937 6.94817 17.5046 5.47437C18.3155 4.00058 18.6116 2.96764 22.4441 2.74561C26.0578 2.89363 25.3917 3.99736 26.3538 4.07137V4.06816Z" fill="#001514"/>
    <path d="M14.3395 14.095C14.3395 14.095 13.6766 17.5607 12.7917 17.1166C11.9068 16.6757 14.6066 12.9913 14.3395 14.095Z" fill="#001514"/>
    <path d="M12.2002 22.0566C12.2002 22.0566 13.0851 23.643 15.2861 25.0782C15.0641 24.4153 15.1478 23.7524 14.6329 23.421C14.1181 23.0895 13.0111 21.3937 12.2002 22.0566Z" fill="#001514"/>
    <path d="M10.2839 18.2985C9.98462 17.1594 8.36603 11.9593 12.8421 6.60791C13.6852 7.56684 14.0424 10.4082 13.6369 11.4412C13.2315 12.4741 11.7577 13.7259 11.7577 14.6108C11.7577 15.4957 11.0176 16.2326 11.1688 16.8215C11.3168 17.4104 10.6121 19.5599 10.2839 18.2953V18.2985Z" fill="#001514"/>
    <path d="M40.9354 27.3408C34.0781 27.3408 28.5015 21.7642 28.5015 14.9069C28.5015 8.04954 34.0813 2.46973 40.9354 2.46973C47.7895 2.46973 53.3725 8.04954 53.3725 14.9036C53.3725 21.7577 47.7927 27.3376 40.9354 27.3376V27.3408Z" fill="white"/>
    <path d="M40.9351 2.91422C47.5479 2.91422 52.9282 8.29452 52.9282 14.9073C52.9282 21.52 47.5479 26.9003 40.9351 26.9003C34.3224 26.9003 28.942 21.52 28.942 14.9073C28.942 8.29452 34.3224 2.91422 40.9351 2.91422ZM40.9351 2.0293C33.8236 2.0293 28.0571 7.79575 28.0571 14.9073C28.0571 22.0188 33.8204 27.7853 40.9351 27.7853C48.0499 27.7853 53.8131 22.022 53.8131 14.9073C53.8131 7.79253 48.0499 2.0293 40.9351 2.0293Z" fill="#001514"/>
    <path d="M51.3055 14.9059C51.3055 20.6338 46.6621 25.2804 40.9342 25.2804C35.2064 25.2804 30.563 20.6338 30.563 14.9059C30.563 9.17808 35.2064 4.53467 40.9342 4.53467C46.6621 4.53467 51.3055 9.17808 51.3055 14.9059Z" stroke="#001514" stroke-width="1.09485" stroke-miterlimit="10"/>
    <path d="M40.0391 21.5916C40.0391 21.5916 34.9484 12.3531 34.6073 11.8607C34.263 11.3684 33.6741 9.74658 35.0514 9.74658H46.3558C46.8996 9.74658 47.3887 10.6315 46.8996 11.5164C46.4041 12.4013 44.9335 14.7601 44.9335 14.7601H42.6745V19.7253L41.249 21.9874V14.9113C41.249 14.2741 41.5451 13.5855 42.2337 13.5855H43.8555L44.6407 12.2598C44.6407 12.2598 45.133 11.3233 44.1483 11.3233H37.0883C36.7279 11.3233 36.0907 11.5711 36.5799 12.4046C37.069 13.2412 37.0883 13.4858 37.0883 13.4858L39.9715 13.534C39.9715 13.534 39.8685 14.419 39.3794 14.6152C38.8903 14.8115 38.0537 15.2556 38.3014 15.5002C38.546 15.7447 40.0455 19.0398 40.0455 19.0398V21.5948L40.0391 21.5916Z" fill="#001514"/>
    <path d="M69.4434 4.95113H68.9839C68.8952 4.62862 68.7178 4.28192 68.4437 3.91103C68.1776 3.5482 67.9115 3.34663 67.6616 3.30632C67.5326 3.29019 67.3874 3.27407 67.21 3.27407C67.0327 3.266 66.8392 3.25794 66.6134 3.25794H65.154V6.75719H66.1538C66.4602 6.75719 66.694 6.72494 66.8553 6.6685C67.0246 6.604 67.1697 6.49918 67.2907 6.37017C67.3713 6.28148 67.4439 6.14442 67.5164 5.95091C67.589 5.76547 67.6293 5.55583 67.6454 5.33814H68.105V8.76482H67.6454C67.6293 8.57938 67.589 8.37781 67.5245 8.15205C67.4519 7.9263 67.3713 7.75698 67.2907 7.66022C67.1697 7.50703 67.0085 7.40222 66.823 7.34578C66.6376 7.28934 66.4118 7.26514 66.1538 7.26514H65.154V10.2564C65.154 10.3935 65.1782 10.5144 65.2266 10.6193C65.283 10.7241 65.3798 10.8128 65.5088 10.8773C65.5733 10.9015 65.7023 10.9418 65.9119 10.974C66.1135 11.0143 66.2748 11.0385 66.3715 11.0385V11.4739H62.6143V11.0385C62.7352 11.0385 62.9045 11.0143 63.1061 11.0063C63.3157 10.9821 63.4447 10.966 63.5092 10.9256C63.6302 10.8773 63.7189 10.7886 63.7753 10.6918C63.8317 10.5951 63.8559 10.4661 63.8559 10.3129V4.03197C63.8559 3.8949 63.8317 3.77396 63.7914 3.66914C63.743 3.56433 63.6544 3.4837 63.5092 3.41113C63.4044 3.36276 63.2512 3.31438 63.0658 3.27407C62.8803 3.23375 62.7271 3.20957 62.6223 3.2015V2.76611H69.4515V4.94306L69.4434 4.95113Z" fill="#001514"/>
    <path d="M78.0308 8.90995L77.8695 11.4659H70.6453V11.0305C70.7743 11.0305 70.9355 11.0063 71.1371 10.9821C71.3387 10.9579 71.4757 10.9337 71.5322 10.9015C71.6612 10.837 71.7579 10.7563 71.8063 10.6596C71.8547 10.5628 71.8869 10.4338 71.8869 10.2887V4.03197C71.8869 3.8949 71.8628 3.77396 71.8144 3.66914C71.766 3.56433 71.6773 3.4837 71.5322 3.41113C71.4274 3.36276 71.2742 3.31438 71.0887 3.27407C70.9033 3.23375 70.7501 3.20957 70.6372 3.2015V2.76611H77.3777V4.86244H76.9181C76.8375 4.54799 76.6601 4.22547 76.394 3.87071C76.1199 3.52401 75.8619 3.33857 75.62 3.29825C75.491 3.28213 75.3378 3.266 75.1685 3.266C74.9911 3.25794 74.7895 3.24988 74.5638 3.24988H73.2012V6.71687H74.1768C74.4912 6.71687 74.725 6.68463 74.8702 6.62819C75.0153 6.56369 75.1362 6.46693 75.2491 6.32986C75.3378 6.20892 75.4184 6.05573 75.4829 5.85416C75.5474 5.66065 75.5878 5.47521 75.6119 5.29783H76.0715V8.70838H75.6119C75.5958 8.50681 75.5474 8.30525 75.4749 8.08755C75.4023 7.86179 75.3297 7.70053 75.2491 7.61184C75.1201 7.45059 74.983 7.34577 74.8218 7.2974C74.6525 7.24902 74.4428 7.22483 74.1768 7.22483H73.2012V9.83717C73.2012 10.0952 73.2173 10.3048 73.2576 10.4499C73.2899 10.6031 73.3624 10.716 73.4753 10.7966C73.5801 10.8692 73.7253 10.9176 73.9107 10.9418C74.0881 10.966 74.3542 10.974 74.6928 10.974H75.2249C75.4507 10.974 75.6361 10.966 75.7813 10.9498C75.9345 10.9337 76.0957 10.9015 76.265 10.8612C76.4344 10.8208 76.5472 10.7644 76.6198 10.6918C76.8133 10.4983 77.0068 10.1919 77.2164 9.79686C77.4261 9.39372 77.5551 9.10346 77.6115 8.91802H78.055L78.0308 8.90995Z" fill="#001514"/>
    <path d="M87.763 7.17158C87.763 7.91335 87.6259 8.55837 87.3437 9.09858C87.0615 9.64685 86.6987 10.0903 86.2552 10.437C85.8037 10.7837 85.3038 11.0498 84.7394 11.211C84.175 11.3884 83.6026 11.469 83.0059 11.469H79.4019V11.0337C79.5147 11.0337 79.676 11.0256 79.8614 11.0014C80.0469 10.9772 80.1759 10.9611 80.2404 10.9208C80.3613 10.8724 80.442 10.7837 80.4984 10.687C80.5548 10.5902 80.579 10.4612 80.579 10.308V4.02709C80.579 3.89002 80.5629 3.76101 80.5065 3.64814C80.4581 3.54332 80.3694 3.45463 80.2323 3.39013C80.1033 3.32562 79.9663 3.27725 79.8131 3.25306C79.6679 3.22887 79.5389 3.20468 79.4341 3.19662V2.76123H83.2397C83.7638 2.76123 84.2718 2.84186 84.7797 3.00312C85.2877 3.16437 85.7311 3.38207 86.1101 3.6562C86.618 4.01903 87.0212 4.50279 87.3114 5.09138C87.6017 5.67996 87.7468 6.37336 87.7468 7.17158H87.763ZM86.2633 7.17158C86.2633 6.59105 86.1827 6.05891 86.0295 5.58321C85.8763 5.11556 85.6425 4.70436 85.3522 4.3496C85.07 4.01903 84.7152 3.75295 84.3121 3.55944C83.9009 3.36594 83.4413 3.26918 82.9414 3.26918C82.7721 3.26918 82.5867 3.26919 82.369 3.27725C82.1593 3.27725 82.0061 3.28531 81.9013 3.28531V9.96936C81.9013 10.3483 82.0061 10.6063 82.2238 10.7434C82.4415 10.8885 82.7721 10.953 83.2236 10.953C83.7396 10.953 84.1992 10.8643 84.5862 10.6789C84.9732 10.5015 85.2877 10.2435 85.5296 9.91292C85.7876 9.57429 85.965 9.17921 86.0859 8.72769C86.1988 8.27618 86.2633 7.75209 86.2633 7.16351V7.17158Z" fill="#001514"/>
    <path d="M96.6558 8.90995L96.4865 11.4659H89.2622V11.0305C89.3831 11.0305 89.5444 11.0063 89.754 10.9821C89.9556 10.9579 90.0846 10.9337 90.1491 10.9015C90.2781 10.837 90.3749 10.7563 90.4233 10.6596C90.4716 10.5628 90.5039 10.4338 90.5039 10.2887V4.03197C90.5039 3.8949 90.4797 3.77396 90.4313 3.66914C90.391 3.56433 90.2942 3.4837 90.1491 3.41113C90.0362 3.36276 89.8911 3.31438 89.7057 3.27407C89.5202 3.23375 89.3751 3.20957 89.2622 3.2015V2.76611H95.9946V4.86244H95.5351C95.4544 4.54799 95.277 4.22547 95.0029 3.87071C94.7368 3.52401 94.4708 3.33857 94.2289 3.29825C94.0999 3.28213 93.9467 3.266 93.7693 3.266C93.6 3.25794 93.3984 3.24988 93.1727 3.24988H91.802V6.71687H92.7856C93.1082 6.71687 93.3339 6.68463 93.479 6.62819C93.6242 6.56369 93.7532 6.46693 93.8661 6.32986C93.9547 6.20892 94.0354 6.05573 94.0999 5.85416C94.1644 5.66065 94.2047 5.47521 94.2208 5.29783H94.6804V8.70838H94.2208C94.2128 8.50681 94.1563 8.30525 94.0918 8.08755C94.0193 7.86179 93.9467 7.70053 93.8661 7.61184C93.7371 7.45059 93.5919 7.34577 93.4387 7.2974C93.2775 7.24902 93.0678 7.22483 92.7937 7.22483H91.81V9.83717C91.81 10.0952 91.8262 10.3048 91.8665 10.4499C91.9068 10.6031 91.9794 10.716 92.0842 10.7966C92.189 10.8692 92.3341 10.9176 92.5196 10.9418C92.705 10.966 92.9711 10.974 93.3097 10.974H93.8419C94.0676 10.974 94.2531 10.966 94.4063 10.9498C94.5595 10.9337 94.7207 10.9015 94.89 10.8612C95.0513 10.8208 95.1722 10.7644 95.2448 10.6918C95.4302 10.4983 95.6318 10.1919 95.8334 9.79686C96.043 9.39372 96.172 9.10346 96.2285 8.91802H96.6719L96.6558 8.90995Z" fill="#001514"/>
    <path d="M106.527 11.4659H104.18C103.656 10.6596 103.189 9.95812 102.769 9.36147C102.35 8.76483 101.899 8.16011 101.407 7.53122H100.52V10.2887C100.52 10.4338 100.544 10.5548 100.584 10.6676C100.633 10.7725 100.73 10.8531 100.867 10.9095C100.947 10.9418 101.068 10.966 101.254 10.9902C101.439 11.0143 101.592 11.0305 101.721 11.0305V11.4659H98.0366V11.0305C98.1334 11.0305 98.2785 11.0063 98.464 10.9902C98.6494 10.966 98.7784 10.9418 98.851 10.9095C98.9719 10.8611 99.0687 10.7805 99.117 10.6838C99.1735 10.579 99.1977 10.4419 99.1977 10.2887V3.99165C99.1977 3.84652 99.1735 3.72558 99.1332 3.6127C99.0929 3.49982 98.9961 3.4192 98.8429 3.35469C98.7381 3.32244 98.6091 3.29019 98.4398 3.25794C98.2785 3.23376 98.1334 3.20957 98.0205 3.2015V2.76611H102.036C102.407 2.76611 102.753 2.79836 103.076 2.87899C103.398 2.95962 103.697 3.08056 103.955 3.24181C104.205 3.41113 104.406 3.62077 104.559 3.88684C104.705 4.14485 104.785 4.46736 104.785 4.83825C104.785 5.17689 104.737 5.47521 104.632 5.72515C104.527 5.98316 104.374 6.21698 104.18 6.40243C103.995 6.57174 103.777 6.72494 103.519 6.85395C103.261 6.98295 102.979 7.08776 102.665 7.17645C103.092 7.74891 103.447 8.22462 103.737 8.61969C104.019 8.99864 104.366 9.47435 104.785 10.0307C104.963 10.2726 105.124 10.458 105.269 10.5709C105.414 10.6918 105.559 10.7805 105.704 10.8531C105.809 10.9095 105.938 10.9498 106.099 10.9821C106.261 11.0063 106.39 11.0305 106.503 11.0305V11.4659H106.527ZM103.302 4.99144C103.302 4.46736 103.148 4.04003 102.842 3.73365C102.544 3.42726 102.116 3.27407 101.568 3.27407H100.528V7.00713H101.326C101.891 7.00713 102.358 6.82169 102.737 6.46693C103.116 6.1041 103.302 5.61227 103.302 4.9995V4.99144Z" fill="#001514"/>
    <path d="M115.476 11.4679H111.864V11.0325C112.178 11.0083 112.444 10.9761 112.654 10.9116C112.863 10.8551 112.968 10.7745 112.968 10.6858C112.968 10.6455 112.968 10.6052 112.952 10.5487C112.952 10.5004 112.936 10.452 112.92 10.4117L112.202 8.46048H109.147C109.034 8.75074 108.937 9.00068 108.864 9.21032C108.792 9.42801 108.727 9.62152 108.671 9.80696C108.614 9.97628 108.582 10.1214 108.558 10.2262C108.542 10.3391 108.526 10.4278 108.526 10.5004C108.526 10.6616 108.655 10.7906 108.913 10.8793C109.171 10.968 109.461 11.0244 109.784 11.0325V11.4679H106.502V11.0325C106.607 11.0325 106.744 11.0003 106.905 10.968C107.066 10.9277 107.195 10.8793 107.3 10.8148C107.461 10.7019 107.59 10.5891 107.679 10.4681C107.768 10.3552 107.857 10.1859 107.945 9.97628C108.381 8.87974 108.864 7.6542 109.388 6.29159C109.921 4.92897 110.388 3.7115 110.799 2.65527H111.291L114.194 10.1698C114.258 10.323 114.323 10.452 114.403 10.5487C114.476 10.6455 114.589 10.7503 114.726 10.8471C114.815 10.9116 114.944 10.9519 115.089 10.9922C115.242 11.0325 115.363 11.0567 115.468 11.0567V11.4921L115.476 11.4679ZM111.977 7.91221L110.662 4.5339L109.356 7.91221H111.977Z" fill="#001514"/>
    <path d="M120.118 11.6793C119.602 11.6793 119.103 11.5825 118.627 11.3729C118.151 11.1713 117.724 10.873 117.361 10.4941C116.998 10.107 116.708 9.63941 116.498 9.08308C116.281 8.52674 116.176 7.90591 116.176 7.20445C116.176 6.50299 116.281 5.88215 116.49 5.31776C116.7 4.7453 116.998 4.26153 117.369 3.85033C117.74 3.43913 118.183 3.13275 118.691 2.91505C119.191 2.68929 119.74 2.58447 120.312 2.58447C120.739 2.58447 121.126 2.63285 121.473 2.74573C121.82 2.85054 122.15 3.00374 122.465 3.18918L122.723 2.77798H123.215L123.271 5.87409H122.771C122.699 5.57577 122.602 5.24519 122.473 4.89043C122.344 4.54373 122.191 4.23734 122.021 3.9874C121.82 3.71326 121.594 3.49557 121.32 3.33431C121.054 3.18112 120.739 3.09243 120.393 3.09243C119.998 3.09243 119.627 3.17305 119.288 3.35043C118.941 3.52782 118.651 3.78583 118.401 4.13253C118.159 4.4631 117.974 4.88237 117.845 5.39032C117.708 5.90634 117.643 6.4788 117.643 7.09963C117.643 7.66403 117.716 8.18005 117.853 8.63963C117.998 9.09921 118.2 9.5104 118.458 9.86517C118.716 10.2119 119.03 10.4779 119.385 10.6714C119.74 10.873 120.143 10.9698 120.578 10.9698C120.909 10.9698 121.215 10.9133 121.497 10.8166C121.771 10.7118 122.013 10.5747 122.223 10.3973C122.424 10.2119 122.602 10.0103 122.763 9.78454C122.916 9.55878 123.045 9.30884 123.15 9.04277L123.61 9.26852C123.263 10.1312 122.787 10.744 122.207 11.1149C121.626 11.4858 120.933 11.6712 120.135 11.6712L120.118 11.6793Z" fill="#001514"/>
    <path d="M128.664 11.469H124.738V11.0337C124.851 11.0337 125.012 11.0095 125.222 11.0014C125.423 10.9853 125.568 10.9611 125.657 10.9208C125.794 10.8724 125.891 10.7998 125.955 10.7031C126.02 10.6144 126.052 10.4854 126.052 10.3161V4.01096C126.052 3.8739 126.028 3.75295 125.988 3.6562C125.939 3.55945 125.834 3.47882 125.665 3.41431C125.544 3.36594 125.391 3.32563 125.205 3.27725C125.02 3.23693 124.867 3.20468 124.746 3.19662V2.76123H128.672V3.19662C128.543 3.19662 128.39 3.21274 128.213 3.23693C128.044 3.26112 127.882 3.30144 127.761 3.33369C127.608 3.38206 127.503 3.47076 127.447 3.57557C127.399 3.68845 127.366 3.80133 127.366 3.9384V10.2354C127.366 10.3725 127.39 10.4934 127.455 10.5983C127.511 10.7031 127.616 10.7837 127.761 10.8401C127.842 10.8805 127.987 10.9127 128.181 10.953C128.374 10.9933 128.543 11.0175 128.68 11.0175V11.4529L128.664 11.469Z" fill="#001514"/>
    <path d="M137.284 3.80026C137.671 4.2034 137.969 4.6791 138.187 5.25156C138.404 5.81596 138.509 6.44485 138.509 7.13019C138.509 7.81553 138.396 8.45249 138.179 9.01689C137.953 9.58128 137.647 10.057 137.26 10.4601C136.881 10.8471 136.437 11.1535 135.937 11.3632C135.429 11.5808 134.897 11.6776 134.325 11.6776C133.72 11.6776 133.156 11.5647 132.648 11.339C132.132 11.1132 131.696 10.7988 131.325 10.3876C130.963 9.99248 130.672 9.50871 130.455 8.94432C130.253 8.37992 130.14 7.77521 130.14 7.12213C130.14 6.42067 130.253 5.79177 130.471 5.23544C130.696 4.67911 130.995 4.2034 131.39 3.80026C131.777 3.39712 132.22 3.09074 132.728 2.88111C133.236 2.65535 133.768 2.55859 134.325 2.55859C134.881 2.55859 135.445 2.67147 135.953 2.88111C136.461 3.0988 136.905 3.40519 137.284 3.80026ZM136.365 9.9683C136.59 9.60547 136.76 9.17814 136.864 8.7105C136.969 8.24286 137.018 7.71071 137.018 7.13019C137.018 6.54967 136.953 5.98528 136.848 5.48538C136.735 4.99355 136.558 4.56623 136.332 4.21147C136.107 3.86477 135.824 3.59869 135.486 3.39712C135.147 3.21168 134.76 3.10686 134.317 3.10686C133.825 3.10686 133.414 3.21974 133.067 3.43743C132.72 3.66319 132.446 3.96152 132.22 4.34047C132.019 4.70329 131.866 5.12256 131.769 5.60633C131.672 6.09009 131.616 6.59805 131.616 7.12213C131.616 7.71877 131.664 8.25092 131.777 8.71856C131.882 9.1862 132.051 9.61353 132.277 9.98442C132.503 10.3392 132.777 10.6214 133.107 10.831C133.446 11.0326 133.849 11.1293 134.309 11.1293C134.744 11.1293 135.139 11.0326 135.494 10.8229C135.849 10.6214 136.131 10.3311 136.357 9.96023L136.365 9.9683Z" fill="#001514"/>
    <path d="M149.032 3.213C148.919 3.213 148.741 3.24525 148.507 3.30975C148.266 3.37425 148.096 3.43876 148 3.50326C147.846 3.60001 147.75 3.80158 147.701 4.09184C147.653 4.3821 147.621 4.74493 147.621 5.18838V11.558H147.096L141.815 4.43854V8.92145C141.815 9.42941 141.848 9.80836 141.912 10.0825C141.977 10.3566 142.073 10.5421 142.21 10.663C142.307 10.7517 142.501 10.8323 142.791 10.913C143.089 10.9936 143.275 11.0339 143.371 11.0339V11.4693H139.8V11.0339C139.913 11.0339 140.098 10.9855 140.364 10.913C140.63 10.8404 140.783 10.7759 140.856 10.7195C140.993 10.6066 141.098 10.4292 141.154 10.1954C141.203 9.96155 141.235 9.55841 141.235 8.98595V4.69655C141.235 4.51111 141.203 4.3176 141.138 4.13215C141.074 3.94671 140.985 3.80158 140.872 3.69676C140.727 3.56776 140.525 3.44682 140.275 3.35006C140.017 3.25331 139.824 3.19687 139.663 3.19687V2.76148H142.146L147.04 9.38909V5.24482C147.04 4.74493 147.008 4.35791 146.943 4.07571C146.879 3.80158 146.79 3.6242 146.669 3.53551C146.556 3.46294 146.363 3.38232 146.105 3.30975C145.847 3.22912 145.653 3.19687 145.516 3.18881V2.75342H149.056V3.18881L149.032 3.213Z" fill="#001514"/>
    <path d="M160.443 4.91717C160.443 5.36868 160.346 5.77182 160.177 6.11852C159.991 6.46522 159.749 6.75548 159.435 6.98124C159.12 7.21506 158.782 7.37632 158.411 7.4892C158.04 7.59401 157.637 7.64238 157.226 7.64238H156.25V10.287C156.25 10.4321 156.274 10.5531 156.323 10.6659C156.363 10.7707 156.468 10.8514 156.613 10.9078C156.685 10.9401 156.814 10.9643 157 10.9884C157.185 11.0126 157.355 11.0288 157.508 11.0288V11.4641H153.775V11.0288C153.871 11.0288 154.017 11.0046 154.202 10.9884C154.387 10.9643 154.516 10.9401 154.589 10.9078C154.71 10.8594 154.799 10.7788 154.855 10.6821C154.912 10.5772 154.936 10.4402 154.936 10.287V4.00607C154.936 3.85288 154.912 3.73193 154.871 3.61906C154.823 3.50618 154.734 3.41749 154.581 3.36105C154.428 3.31267 154.267 3.27236 154.113 3.24817C153.96 3.22398 153.831 3.20785 153.718 3.20785V2.77246H157.693C158.508 2.77246 159.169 2.95791 159.669 3.35298C160.177 3.74806 160.427 4.27214 160.427 4.91717H160.443ZM158.58 6.40878C158.709 6.20721 158.806 6.00564 158.854 5.79601C158.895 5.58637 158.919 5.40093 158.919 5.23161C158.919 5.00586 158.895 4.75591 158.838 4.52209C158.782 4.28021 158.685 4.07057 158.556 3.89319C158.411 3.70774 158.225 3.55455 157.992 3.44167C157.758 3.34492 157.467 3.28848 157.121 3.28848H156.258V7.12637H156.887C157.33 7.12637 157.685 7.06186 157.967 6.9248C158.241 6.77967 158.443 6.61035 158.588 6.41684L158.58 6.40878Z" fill="#001514"/>
    <path d="M170.053 11.4679H166.441V11.0325C166.763 11.0083 167.021 10.9761 167.239 10.9116C167.44 10.8551 167.553 10.7745 167.553 10.6858C167.553 10.6455 167.553 10.6052 167.545 10.5487C167.537 10.5004 167.521 10.452 167.505 10.4117L166.779 8.46048H163.723C163.611 8.75074 163.522 9.00068 163.441 9.21032C163.377 9.42801 163.304 9.62152 163.256 9.80696C163.199 9.97628 163.159 10.1214 163.135 10.2262C163.119 10.3391 163.111 10.4278 163.111 10.5004C163.111 10.6616 163.24 10.7906 163.498 10.8793C163.756 10.968 164.038 11.0244 164.36 11.0325V11.4679H161.087V11.0325C161.2 11.0325 161.329 11.0003 161.49 10.968C161.643 10.9277 161.78 10.8793 161.885 10.8148C162.046 10.7019 162.175 10.5891 162.264 10.4681C162.361 10.3552 162.45 10.1859 162.522 9.97628C162.966 8.87974 163.441 7.6542 163.973 6.29159C164.497 4.92897 164.965 3.7115 165.384 2.65527H165.876L168.771 10.1698C168.835 10.323 168.9 10.452 168.98 10.5487C169.061 10.6455 169.166 10.7503 169.303 10.8471C169.4 10.9116 169.529 10.9519 169.674 10.9922C169.827 11.0325 169.956 11.0567 170.053 11.0567V11.4921V11.4679ZM166.553 7.91221L165.247 4.5339L163.941 7.91221H166.553Z" fill="#001514"/>
    <path d="M177.945 5.13194H177.526C177.478 4.98681 177.413 4.80943 177.325 4.60786C177.228 4.40629 177.123 4.22085 176.994 4.0354C176.881 3.84996 176.736 3.68064 176.591 3.54357C176.446 3.39844 176.309 3.31781 176.172 3.30169C176.051 3.29362 175.889 3.2775 175.696 3.26944C175.511 3.26137 175.333 3.25331 175.164 3.25331H174.809V10.2196C174.809 10.3566 174.833 10.4776 174.89 10.5824C174.946 10.6953 175.051 10.784 175.196 10.8404C175.261 10.8646 175.422 10.9049 175.648 10.9533C175.889 11.0097 176.067 11.0339 176.204 11.0339V11.4693H172.092V11.0339C172.205 11.0339 172.382 11.0097 172.616 10.9855C172.85 10.9613 173.019 10.9291 173.108 10.8968C173.237 10.8404 173.342 10.7598 173.406 10.663C173.471 10.5663 173.495 10.4292 173.495 10.2599V3.23718H173.14C173.019 3.23718 172.866 3.23719 172.672 3.24525C172.487 3.24525 172.302 3.26944 172.132 3.28556C171.995 3.30169 171.858 3.38231 171.713 3.52744C171.568 3.67257 171.439 3.83383 171.31 4.01928C171.189 4.20472 171.076 4.39823 170.979 4.5998C170.882 4.80943 170.818 4.97875 170.786 5.10775H170.358V2.75342H177.945V5.10775V5.13194Z" fill="#001514"/>
    <path d="M187.62 11.4659H185.273C184.749 10.6596 184.282 9.95812 183.862 9.36147C183.443 8.76483 182.991 8.16011 182.5 7.53122H181.613V10.2887C181.613 10.4338 181.637 10.5548 181.677 10.6676C181.726 10.7725 181.822 10.8531 181.967 10.9095C182.04 10.9418 182.169 10.966 182.355 10.9902C182.54 11.0143 182.693 11.0305 182.822 11.0305V11.4659H179.137V11.0305C179.234 11.0305 179.379 11.0063 179.573 10.9902C179.758 10.966 179.887 10.9418 179.96 10.9095C180.081 10.8611 180.169 10.7805 180.226 10.6838C180.282 10.579 180.307 10.4419 180.307 10.2887V3.99165C180.307 3.84652 180.282 3.72558 180.242 3.6127C180.202 3.49982 180.097 3.4192 179.952 3.35469C179.839 3.32244 179.71 3.29019 179.549 3.25794C179.379 3.23376 179.25 3.20957 179.129 3.2015V2.76611H183.153C183.516 2.76611 183.87 2.79836 184.193 2.87899C184.515 2.95962 184.806 3.08056 185.072 3.24181C185.322 3.41113 185.523 3.62077 185.676 3.88684C185.83 4.14485 185.902 4.46736 185.902 4.83825C185.902 5.17689 185.854 5.47521 185.757 5.72515C185.644 5.98316 185.499 6.21698 185.305 6.40243C185.12 6.57174 184.902 6.72494 184.636 6.85395C184.378 6.98295 184.096 7.08776 183.782 7.17645C184.217 7.74891 184.572 8.22462 184.862 8.61969C185.136 8.99864 185.499 9.47435 185.902 10.0307C186.08 10.2726 186.249 10.458 186.394 10.5709C186.539 10.6918 186.684 10.7805 186.829 10.8531C186.934 10.9095 187.063 10.9498 187.224 10.9821C187.386 11.0063 187.515 11.0305 187.628 11.0305V11.4659H187.62ZM184.386 4.99144C184.386 4.46736 184.233 4.04003 183.935 3.73365C183.636 3.42726 183.209 3.27407 182.661 3.27407H181.621V7.00713H182.419C182.983 7.00713 183.459 6.82169 183.83 6.46693C184.209 6.1041 184.394 5.61227 184.394 4.9995L184.386 4.99144Z" fill="#001514"/>
    <path d="M195.49 3.80026C195.869 4.2034 196.175 4.6791 196.393 5.25156C196.61 5.81596 196.723 6.44485 196.723 7.13019C196.723 7.81553 196.61 8.45249 196.393 9.01689C196.175 9.58128 195.869 10.057 195.473 10.4601C195.094 10.8471 194.651 11.1535 194.151 11.3632C193.643 11.5808 193.111 11.6776 192.539 11.6776C191.934 11.6776 191.369 11.5647 190.862 11.339C190.354 11.1132 189.91 10.7988 189.539 10.3876C189.168 9.99248 188.886 9.50871 188.677 8.94432C188.467 8.37992 188.354 7.77521 188.354 7.12213C188.354 6.42067 188.467 5.79177 188.685 5.23544C188.91 4.67911 189.209 4.2034 189.604 3.80026C189.991 3.39712 190.434 3.09074 190.942 2.88111C191.45 2.65535 191.982 2.55859 192.539 2.55859C193.095 2.55859 193.659 2.67147 194.167 2.88111C194.675 3.0988 195.119 3.40519 195.498 3.80026H195.49ZM194.57 9.9683C194.796 9.60547 194.965 9.17814 195.07 8.7105C195.175 8.24286 195.232 7.71071 195.232 7.13019C195.232 6.54967 195.167 5.98528 195.054 5.48538C194.941 4.99355 194.764 4.56623 194.538 4.21147C194.312 3.86477 194.03 3.59869 193.692 3.39712C193.353 3.21168 192.966 3.10686 192.522 3.10686C192.031 3.10686 191.619 3.21974 191.273 3.43743C190.926 3.66319 190.652 3.96152 190.426 4.34047C190.225 4.70329 190.079 5.12256 189.975 5.60633C189.878 6.09009 189.821 6.59805 189.821 7.12213C189.821 7.71877 189.878 8.25092 189.983 8.71856C190.088 9.1862 190.257 9.61353 190.483 9.98442C190.708 10.3392 190.982 10.6214 191.321 10.831C191.66 11.0326 192.063 11.1293 192.522 11.1293C192.982 11.1293 193.353 11.0326 193.708 10.8229C194.054 10.6214 194.345 10.3311 194.562 9.96023L194.57 9.9683Z" fill="#001514"/>
    <path d="M207.236 3.213C207.123 3.213 206.946 3.24525 206.712 3.30975C206.47 3.37425 206.301 3.43876 206.204 3.50326C206.051 3.60001 205.962 3.80158 205.906 4.09184C205.857 4.3821 205.833 4.74493 205.833 5.18838V11.558H205.293L200.02 4.43854V8.92145C200.02 9.42941 200.052 9.80836 200.116 10.0825C200.181 10.3566 200.278 10.5421 200.415 10.663C200.512 10.7517 200.705 10.8323 200.995 10.913C201.294 10.9936 201.487 11.0339 201.576 11.0339V11.4693H198.004V11.0339C198.117 11.0339 198.302 10.9855 198.56 10.913C198.826 10.8404 198.988 10.7759 199.052 10.7195C199.189 10.6066 199.294 10.4292 199.342 10.1954C199.391 9.96155 199.423 9.55841 199.423 8.98595V4.69655C199.423 4.51111 199.391 4.3176 199.326 4.13215C199.254 3.94671 199.173 3.80158 199.06 3.69676C198.907 3.56776 198.714 3.44682 198.464 3.35006C198.214 3.25331 198.012 3.19687 197.859 3.19687V2.76148H200.342L205.236 9.38909V5.24482C205.236 4.74493 205.196 4.35791 205.132 4.07571C205.067 3.80158 204.978 3.6242 204.849 3.53551C204.736 3.46294 204.551 3.38232 204.293 3.30975C204.035 3.22912 203.841 3.19687 203.696 3.18881V2.75342H207.236V3.18881V3.213Z" fill="#001514"/>
    <path d="M216.555 11.4679H212.935V11.0325C213.257 11.0083 213.515 10.9761 213.725 10.9116C213.935 10.8551 214.039 10.7745 214.039 10.6858C214.039 10.6455 214.039 10.6052 214.031 10.5487C214.023 10.5004 214.007 10.452 213.991 10.4117L213.273 8.46048H210.218C210.105 8.75074 210.016 9.00068 209.943 9.21032C209.871 9.42801 209.806 9.62152 209.75 9.80696C209.694 9.97628 209.661 10.1214 209.637 10.2262C209.613 10.3391 209.605 10.4278 209.605 10.5004C209.605 10.6616 209.734 10.7906 209.992 10.8793C210.25 10.968 210.532 11.0244 210.863 11.0325V11.4679H207.581V11.0325C207.694 11.0325 207.823 11.0003 207.984 10.968C208.145 10.9277 208.274 10.8793 208.379 10.8148C208.541 10.7019 208.67 10.5891 208.758 10.4681C208.855 10.3552 208.944 10.1859 209.024 9.97628C209.46 8.87974 209.943 7.6542 210.468 6.29159C211 4.92897 211.467 3.7115 211.887 2.65527H212.378L215.281 10.1698C215.346 10.323 215.41 10.452 215.483 10.5487C215.563 10.6455 215.668 10.7503 215.813 10.8471C215.91 10.9116 216.031 10.9519 216.176 10.9922C216.329 11.0325 216.45 11.0567 216.555 11.0567V11.4921V11.4679ZM213.056 7.91221L211.741 4.5339L210.435 7.91221H213.056Z" fill="#001514"/>
    <path d="M224.362 8.8777L224.177 11.4659H217.38V11.0305C217.476 11.0305 217.622 11.0063 217.807 10.9902C217.992 10.966 218.113 10.9418 218.186 10.9095C218.315 10.8611 218.404 10.7805 218.46 10.6838C218.516 10.579 218.541 10.4419 218.541 10.2887V4.05616C218.541 3.91103 218.516 3.79009 218.468 3.68527C218.42 3.58045 218.331 3.49176 218.186 3.42726C218.097 3.37888 217.96 3.33051 217.791 3.28213C217.622 3.24182 217.476 3.20957 217.372 3.2015V2.76611H221.048V3.2015C220.935 3.2015 220.782 3.22569 220.597 3.266C220.411 3.29825 220.282 3.33857 220.202 3.36276C220.065 3.41113 219.968 3.49982 219.919 3.62077C219.863 3.73365 219.839 3.86265 219.839 3.99972V9.84524C219.839 10.1194 219.855 10.329 219.879 10.4741C219.911 10.6273 219.968 10.7402 220.065 10.8208C220.161 10.9015 220.306 10.9498 220.484 10.966C220.669 10.9902 220.935 11.0063 221.274 11.0063C221.419 11.0063 221.58 11.0063 221.742 10.9902C221.911 10.9902 222.064 10.966 222.209 10.9498C222.354 10.9176 222.483 10.8853 222.612 10.8531C222.733 10.8047 222.814 10.7563 222.878 10.6838C223.048 10.4983 223.241 10.2081 223.459 9.82911C223.685 9.45016 223.838 9.14378 223.927 8.89383H224.362V8.8777Z" fill="#001514"/>
    <path d="M111.316 22.7313C111.485 22.9168 111.598 23.1103 111.678 23.328C111.759 23.5457 111.791 23.7956 111.791 24.0778C111.791 24.7551 111.541 25.3195 111.042 25.7549C110.542 26.1983 109.921 26.416 109.171 26.416C108.832 26.416 108.486 26.3676 108.139 26.2548C107.8 26.1499 107.502 26.0209 107.252 25.8677L107.018 26.2709H106.583L106.51 23.6424H106.946C107.034 23.9649 107.139 24.2633 107.26 24.5213C107.381 24.7873 107.542 25.0292 107.736 25.263C107.921 25.4807 108.147 25.6501 108.389 25.771C108.639 25.9 108.937 25.9564 109.268 25.9564C109.518 25.9564 109.735 25.9242 109.921 25.8597C110.106 25.7952 110.259 25.6984 110.372 25.5855C110.485 25.4727 110.574 25.3275 110.63 25.1663C110.687 24.997 110.711 24.8196 110.711 24.6019C110.711 24.2955 110.622 24.0133 110.453 23.7472C110.276 23.4812 110.026 23.2796 109.679 23.1425C109.445 23.0458 109.179 22.941 108.873 22.8281C108.574 22.7152 108.308 22.6023 108.091 22.5056C107.655 22.3121 107.325 22.0541 107.083 21.7396C106.841 21.4332 106.72 21.022 106.72 20.506C106.72 20.2157 106.776 19.9416 106.897 19.6836C107.018 19.4336 107.179 19.2079 107.405 19.0063C107.615 18.8209 107.865 18.6757 108.147 18.5709C108.429 18.458 108.728 18.4097 109.034 18.4097C109.389 18.4097 109.703 18.458 109.985 18.5709C110.259 18.6838 110.517 18.8047 110.751 18.9499L110.969 18.5871H111.404L111.445 21.1268H111.009C110.929 20.8366 110.84 20.5624 110.743 20.2964C110.646 20.0303 110.517 19.7884 110.356 19.5707C110.203 19.3611 110.01 19.1998 109.792 19.0708C109.566 18.9418 109.292 18.8854 108.969 18.8854C108.623 18.8854 108.332 18.9983 108.091 19.2079C107.849 19.4336 107.728 19.6997 107.728 20.0222C107.728 20.3528 107.808 20.6269 107.962 20.8527C108.115 21.0704 108.341 21.2478 108.639 21.3929C108.905 21.5138 109.163 21.6267 109.413 21.7154C109.663 21.8122 109.913 21.9089 110.147 22.0137C110.364 22.1024 110.574 22.2153 110.775 22.3282C110.977 22.4491 111.146 22.5862 111.291 22.7475L111.316 22.7313Z" fill="#001514"/>
    <path d="M119.216 23.9943L119.071 26.2519H112.693V25.873C112.806 25.8649 112.951 25.8488 113.128 25.8246C113.306 25.8004 113.427 25.7762 113.483 25.752C113.604 25.7037 113.677 25.6311 113.725 25.5424C113.765 25.4537 113.789 25.3489 113.789 25.2118V19.6969C113.789 19.584 113.773 19.4711 113.733 19.3824C113.693 19.2857 113.612 19.2131 113.483 19.1567C113.386 19.1083 113.257 19.068 113.088 19.0357C112.927 18.9954 112.798 18.9712 112.693 18.9712V18.5923H118.635V20.4387H118.232C118.159 20.1645 118.006 19.8743 117.764 19.5679C117.522 19.2534 117.297 19.0922 117.079 19.0599C116.966 19.0519 116.829 19.0357 116.676 19.0277C116.523 19.0277 116.345 19.0196 116.144 19.0196H114.942V22.0754H115.805C116.079 22.0754 116.281 22.0512 116.41 21.9948C116.539 21.9464 116.652 21.8577 116.748 21.7368C116.821 21.632 116.894 21.4949 116.95 21.3175C117.006 21.1401 117.047 20.9708 117.063 20.8176H117.474V23.825H117.063C117.047 23.6557 117.006 23.4703 116.95 23.2848C116.886 23.0913 116.821 22.9462 116.757 22.8656C116.644 22.7204 116.515 22.6317 116.369 22.5914C116.224 22.5511 116.039 22.5269 115.805 22.5269H114.942V24.8329C114.942 25.0586 114.959 25.2441 114.991 25.3811C115.023 25.5102 115.088 25.615 115.176 25.6795C115.273 25.744 115.402 25.7924 115.563 25.8085C115.724 25.8246 115.958 25.8327 116.257 25.8327H116.724C116.918 25.8327 117.079 25.8327 117.216 25.8085C117.353 25.7924 117.49 25.7682 117.643 25.7278C117.789 25.6956 117.893 25.6392 117.958 25.5747C118.127 25.4053 118.297 25.1473 118.482 24.8006C118.667 24.4459 118.78 24.1879 118.829 24.0266H119.216V23.9943Z" fill="#001514"/>
    <path d="M127.433 23.1916C127.352 23.1997 127.231 23.2158 127.086 23.24C126.933 23.2642 126.82 23.2965 126.731 23.3368C126.618 23.3932 126.546 23.4738 126.497 23.5706C126.449 23.6673 126.433 23.7883 126.433 23.9173V24.5139C126.433 24.9493 126.433 25.2396 126.441 25.3928C126.441 25.546 126.449 25.6669 126.457 25.7717C125.973 25.9814 125.506 26.1507 125.022 26.2636C124.546 26.3845 124.07 26.4329 123.619 26.4329C123.127 26.4329 122.659 26.3361 122.2 26.1587C121.748 25.9733 121.345 25.7153 121.006 25.3767C120.668 25.038 120.386 24.6187 120.184 24.1189C119.982 23.627 119.886 23.0788 119.886 22.474C119.886 21.8693 119.982 21.3453 120.176 20.8454C120.37 20.3455 120.644 19.9101 120.998 19.5473C121.345 19.1764 121.748 18.9022 122.224 18.7007C122.708 18.4991 123.208 18.4023 123.756 18.4023C124.191 18.4023 124.562 18.4507 124.885 18.5555C125.207 18.6523 125.489 18.7813 125.731 18.9345L125.957 18.5717H126.384L126.433 21.2566H125.989C125.909 20.9582 125.82 20.668 125.707 20.3777C125.594 20.0875 125.449 19.8375 125.272 19.6037C125.094 19.3779 124.885 19.2006 124.627 19.0635C124.369 18.9264 124.062 18.8619 123.716 18.8619C123.329 18.8619 122.982 18.9426 122.675 19.0957C122.369 19.257 122.103 19.4989 121.885 19.7972C121.668 20.0955 121.498 20.4664 121.377 20.9179C121.256 21.3694 121.2 21.8693 121.2 22.4176C121.2 22.9094 121.256 23.369 121.369 23.7963C121.482 24.2317 121.66 24.6026 121.885 24.9171C122.111 25.2396 122.393 25.4895 122.732 25.675C123.071 25.8524 123.449 25.9491 123.877 25.9491C124.191 25.9491 124.482 25.8927 124.74 25.7959C124.998 25.6992 125.191 25.5943 125.304 25.4895C125.328 25.3041 125.344 25.1106 125.344 24.9171V24.006C125.344 23.8528 125.32 23.7238 125.28 23.6028C125.239 23.49 125.151 23.4013 125.022 23.3448C124.901 23.2884 124.74 23.2561 124.53 23.2239C124.328 23.1997 124.167 23.1836 124.054 23.1755V22.7804H127.416V23.1755L127.433 23.1916Z" fill="#001514"/>
    <path d="M135.809 18.9583C135.712 18.9583 135.55 18.9906 135.357 19.0228C135.163 19.0631 135.01 19.1196 134.881 19.1921C134.768 19.2808 134.68 19.4501 134.631 19.7081C134.583 19.9661 134.559 20.2887 134.559 20.6595V23.9975C134.559 24.4249 134.47 24.7958 134.301 25.1102C134.115 25.4247 133.89 25.6827 133.599 25.8842C133.309 26.0697 133.011 26.2148 132.696 26.3035C132.382 26.3841 132.084 26.4325 131.793 26.4325C131.334 26.4325 130.922 26.368 130.56 26.2551C130.197 26.1261 129.89 25.9649 129.649 25.7633C129.407 25.5537 129.229 25.3198 129.108 25.0538C128.987 24.7877 128.923 24.5136 128.923 24.2233V19.684C128.923 19.563 128.907 19.4501 128.858 19.3695C128.818 19.2808 128.737 19.2002 128.608 19.1357C128.52 19.0792 128.407 19.0389 128.262 19.0067C128.125 18.9825 128.004 18.9583 127.915 18.9502V18.5713H131.116V18.9502C131.019 18.9502 130.89 18.9664 130.729 18.9986C130.576 19.0228 130.471 19.0551 130.39 19.0792C130.277 19.1276 130.189 19.2002 130.148 19.2969C130.108 19.3937 130.084 19.5066 130.084 19.6275V23.8685C130.084 24.0701 130.108 24.2878 130.148 24.5136C130.197 24.7393 130.285 24.949 130.415 25.1425C130.56 25.344 130.745 25.5053 130.995 25.6343C131.237 25.7552 131.567 25.8197 131.987 25.8197C132.39 25.8197 132.72 25.7552 132.987 25.6343C133.261 25.5053 133.47 25.344 133.623 25.1344C133.769 24.9409 133.873 24.7313 133.938 24.5216C134.002 24.312 134.035 24.1024 134.035 23.8766V20.7321C134.035 20.329 134.011 19.9984 133.946 19.7404C133.89 19.4824 133.801 19.3211 133.688 19.2405C133.567 19.1518 133.39 19.0792 133.172 19.0309C132.954 18.9825 132.785 18.9502 132.672 18.9502V18.5713H135.817V18.9502L135.809 18.9583Z" fill="#001514"/>
    <path d="M143.893 26.2532H141.829C141.378 25.5356 140.967 24.9147 140.588 24.3907C140.217 23.8666 139.814 23.3264 139.386 22.77H138.604V25.205C138.604 25.3421 138.62 25.4469 138.661 25.5436C138.701 25.6404 138.79 25.713 138.919 25.7613C138.983 25.7855 139.104 25.8097 139.257 25.8258C139.427 25.8581 139.556 25.8742 139.677 25.8742V26.2532H136.427V25.8742C136.508 25.8661 136.629 25.85 136.798 25.8258C136.967 25.8178 137.08 25.7936 137.145 25.7613C137.258 25.713 137.33 25.6484 137.387 25.5517C137.435 25.4711 137.459 25.3501 137.459 25.205V19.6578C137.459 19.5369 137.443 19.424 137.403 19.3272C137.371 19.2305 137.282 19.1579 137.145 19.1015C137.056 19.0692 136.943 19.037 136.798 19.0128C136.653 18.9886 136.524 18.9644 136.435 18.9644V18.5854H139.975C140.305 18.5854 140.612 18.6177 140.894 18.6822C141.176 18.7467 141.434 18.8515 141.668 19.0047C141.894 19.1498 142.071 19.3353 142.208 19.5691C142.337 19.811 142.41 20.0851 142.41 20.4157C142.41 20.714 142.361 20.972 142.273 21.1978C142.184 21.4316 142.047 21.6251 141.87 21.7864C141.708 21.9396 141.515 22.0766 141.289 22.1976C141.063 22.3105 140.813 22.4072 140.539 22.4878C140.918 22.9877 141.225 23.407 141.483 23.7537C141.733 24.1004 142.039 24.5116 142.402 24.9954C142.555 25.2211 142.708 25.3743 142.829 25.4791C142.966 25.5759 143.087 25.6646 143.216 25.7291C143.313 25.7775 143.426 25.8178 143.571 25.842C143.708 25.8661 143.829 25.8903 143.918 25.8903V26.2693L143.893 26.2532ZM141.055 20.5286C141.055 20.0609 140.918 19.6981 140.652 19.424C140.386 19.1498 140.007 19.0208 139.523 19.0208H138.604V22.3105H139.306C139.806 22.3105 140.217 22.1492 140.547 21.8348C140.878 21.5203 141.047 21.0769 141.047 20.5366L141.055 20.5286Z" fill="#001514"/>
    <path d="M150.393 19.4908C150.732 19.8375 151.006 20.2648 151.183 20.7647C151.377 21.2646 151.482 21.821 151.482 22.4257C151.482 23.0304 151.385 23.5867 151.183 24.0866C150.982 24.5784 150.716 25.0058 150.377 25.3605C150.038 25.7072 149.651 25.9733 149.208 26.1668C148.765 26.3522 148.289 26.4409 147.797 26.4409C147.257 26.4409 146.773 26.3442 146.313 26.1426C145.862 25.941 145.467 25.6669 145.144 25.3122C144.822 24.9574 144.564 24.5381 144.378 24.0382C144.193 23.5383 144.096 22.9981 144.096 22.4337C144.096 21.8048 144.201 21.2485 144.395 20.7647C144.596 20.2729 144.862 19.8536 145.201 19.4989C145.547 19.1441 145.943 18.87 146.386 18.6926C146.838 18.5072 147.305 18.4023 147.797 18.4023C148.289 18.4023 148.781 18.4991 149.232 18.6926C149.684 18.8861 150.079 19.1602 150.401 19.4989L150.393 19.4908ZM149.587 24.9332C149.789 24.6026 149.934 24.2317 150.022 23.8205C150.119 23.4013 150.159 22.9417 150.159 22.4337C150.159 21.9258 150.119 21.4178 150.006 20.9824C149.901 20.539 149.748 20.1681 149.555 19.8536C149.361 19.5473 149.111 19.3054 148.813 19.1361C148.515 18.9587 148.168 18.878 147.789 18.878C147.354 18.878 146.991 18.9748 146.684 19.1683C146.378 19.3618 146.136 19.6279 145.943 19.9585C145.757 20.2729 145.628 20.6438 145.539 21.0711C145.443 21.4985 145.402 21.9419 145.402 22.4176C145.402 22.9336 145.451 23.4093 145.539 23.8205C145.636 24.2398 145.781 24.6188 145.983 24.9332C146.184 25.2476 146.418 25.4976 146.725 25.675C147.023 25.8604 147.378 25.9491 147.789 25.9491C148.168 25.9491 148.523 25.8604 148.829 25.675C149.143 25.4976 149.393 25.2396 149.587 24.9171V24.9332Z" fill="#001514"/>
    <path d="M157.221 22.7313C157.382 22.9168 157.503 23.1103 157.584 23.328C157.656 23.5457 157.697 23.7956 157.697 24.0778C157.697 24.7551 157.447 25.3195 156.939 25.7549C156.439 26.1983 155.818 26.416 155.076 26.416C154.73 26.416 154.391 26.3676 154.052 26.2548C153.706 26.1499 153.415 26.0209 153.165 25.8677L152.932 26.2709H152.496L152.416 23.6424H152.851C152.948 23.9649 153.044 24.2633 153.165 24.5213C153.286 24.7873 153.448 25.0292 153.649 25.263C153.835 25.4807 154.052 25.6501 154.302 25.771C154.552 25.9 154.842 25.9564 155.173 25.9564C155.423 25.9564 155.641 25.9242 155.826 25.8597C156.012 25.7952 156.157 25.6984 156.278 25.5855C156.39 25.4727 156.479 25.3275 156.536 25.1663C156.592 24.997 156.624 24.8196 156.624 24.6019C156.624 24.2955 156.536 24.0133 156.366 23.7472C156.197 23.4812 155.931 23.2796 155.592 23.1425C155.358 23.0458 155.092 22.941 154.786 22.8281C154.488 22.7152 154.222 22.6023 154.004 22.5056C153.569 22.3121 153.23 22.0541 152.996 21.7396C152.754 21.4332 152.633 21.022 152.633 20.506C152.633 20.2157 152.698 19.9416 152.811 19.6836C152.932 19.4336 153.101 19.2079 153.319 19.0063C153.52 18.8209 153.77 18.6757 154.052 18.5709C154.343 18.458 154.641 18.4097 154.947 18.4097C155.302 18.4097 155.616 18.458 155.899 18.5709C156.181 18.6838 156.439 18.8047 156.665 18.9499L156.89 18.5871H157.326L157.366 21.1268H156.931C156.85 20.8366 156.761 20.5624 156.665 20.2964C156.568 20.0303 156.439 19.7884 156.278 19.5707C156.116 19.3611 155.931 19.1998 155.705 19.0708C155.479 18.9418 155.205 18.8854 154.883 18.8854C154.536 18.8854 154.246 18.9983 154.004 19.2079C153.762 19.4336 153.641 19.6997 153.641 20.0222C153.641 20.3528 153.722 20.6269 153.883 20.8527C154.036 21.0704 154.262 21.2478 154.552 21.3929C154.818 21.5138 155.076 21.6267 155.326 21.7154C155.584 21.8122 155.826 21.9089 156.06 22.0137C156.278 22.1024 156.487 22.2153 156.689 22.3282C156.89 22.4491 157.06 22.5862 157.213 22.7475L157.221 22.7313Z" fill="#001514"/>
    <path d="M166.116 22.7313C166.277 22.9168 166.39 23.1103 166.471 23.328C166.551 23.5457 166.592 23.7956 166.592 24.0778C166.592 24.7551 166.334 25.3195 165.834 25.7549C165.334 26.1983 164.713 26.416 163.971 26.416C163.625 26.416 163.286 26.3676 162.939 26.2548C162.601 26.1499 162.302 26.0209 162.06 25.8677L161.827 26.2709H161.391L161.311 23.6424H161.754C161.843 23.9649 161.948 24.2633 162.068 24.5213C162.189 24.7873 162.351 25.0292 162.552 25.263C162.738 25.4807 162.955 25.6501 163.205 25.771C163.455 25.9 163.746 25.9564 164.076 25.9564C164.326 25.9564 164.544 25.9242 164.729 25.8597C164.915 25.7952 165.068 25.6984 165.181 25.5855C165.294 25.4727 165.382 25.3275 165.439 25.1663C165.503 24.997 165.527 24.8196 165.527 24.6019C165.527 24.2955 165.439 24.0133 165.261 23.7472C165.092 23.4812 164.842 23.2796 164.487 23.1425C164.253 23.0458 163.979 22.941 163.681 22.8281C163.383 22.7152 163.117 22.6023 162.899 22.5056C162.464 22.3121 162.125 22.0541 161.891 21.7396C161.649 21.4332 161.528 21.022 161.528 20.506C161.528 20.2157 161.585 19.9416 161.706 19.6836C161.827 19.4336 161.996 19.2079 162.214 19.0063C162.415 18.8209 162.665 18.6757 162.955 18.5709C163.238 18.458 163.536 18.4097 163.842 18.4097C164.197 18.4097 164.52 18.458 164.794 18.5709C165.076 18.6838 165.334 18.8047 165.568 18.9499L165.785 18.5871H166.221L166.261 21.1268H165.826C165.745 20.8366 165.656 20.5624 165.56 20.2964C165.463 20.0303 165.334 19.7884 165.173 19.5707C165.019 19.3611 164.826 19.1998 164.608 19.0708C164.382 18.9418 164.108 18.8854 163.786 18.8854C163.439 18.8854 163.149 18.9983 162.907 19.2079C162.665 19.4336 162.544 19.6997 162.544 20.0222C162.544 20.3528 162.625 20.6269 162.778 20.8527C162.931 21.0704 163.165 21.2478 163.455 21.3929C163.721 21.5138 163.979 21.6267 164.229 21.7154C164.487 21.8122 164.729 21.9089 164.971 22.0137C165.189 22.1024 165.398 22.2153 165.6 22.3282C165.802 22.4491 165.979 22.5862 166.124 22.7475L166.116 22.7313Z" fill="#001514"/>
    <path d="M169.267 25.6319C169.267 25.8335 169.187 26.0028 169.041 26.1479C168.896 26.285 168.727 26.3576 168.517 26.3576C168.308 26.3576 168.138 26.285 167.993 26.1479C167.848 26.0028 167.768 25.8335 167.768 25.6319C167.768 25.4303 167.848 25.253 167.993 25.1078C168.138 24.9627 168.316 24.8901 168.517 24.8901C168.719 24.8901 168.896 24.9627 169.041 25.1078C169.187 25.261 169.267 25.4303 169.267 25.6319Z" fill="#001514"/>
    <path d="M177.694 26.2552H174.509V25.8762C174.783 25.8521 175.025 25.8198 175.21 25.7634C175.396 25.7069 175.484 25.6424 175.484 25.5618C175.484 25.5295 175.484 25.4892 175.476 25.4489C175.476 25.4005 175.46 25.3522 175.444 25.3199L174.807 23.6025H172.106C172.009 23.8606 171.929 24.0782 171.864 24.2637C171.8 24.4491 171.743 24.6265 171.695 24.7878C171.646 24.941 171.614 25.0619 171.598 25.1667C171.574 25.2635 171.566 25.3441 171.566 25.4086C171.566 25.5537 171.679 25.6666 171.913 25.7392C172.138 25.8198 172.404 25.8682 172.687 25.8843V26.2633H169.792V25.8843C169.881 25.8762 170.002 25.8521 170.139 25.8198C170.276 25.7876 170.397 25.7392 170.485 25.6827C170.631 25.586 170.743 25.4812 170.816 25.3683C170.897 25.2635 170.969 25.1183 171.05 24.9329C171.437 23.9654 171.864 22.885 172.324 21.6836C172.791 20.4822 173.203 19.4099 173.565 18.4746H174.001L176.557 25.1022C176.613 25.2393 176.67 25.3602 176.742 25.4409C176.807 25.5215 176.911 25.6102 177.032 25.6908C177.113 25.7472 177.218 25.7876 177.355 25.8279C177.492 25.8601 177.597 25.8843 177.685 25.8843V26.2633L177.694 26.2552ZM174.605 23.1188L173.444 20.1355L172.291 23.1188H174.597H174.605Z" fill="#001514"/>
    <path d="M179.696 25.6319C179.696 25.8335 179.615 26.0028 179.47 26.1479C179.325 26.285 179.148 26.3576 178.946 26.3576C178.745 26.3576 178.567 26.285 178.422 26.1479C178.277 26.0028 178.196 25.8335 178.196 25.6319C178.196 25.4303 178.277 25.253 178.422 25.1078C178.567 24.9627 178.745 24.8901 178.946 24.8901C179.148 24.8901 179.325 24.9627 179.47 25.1078C179.615 25.261 179.696 25.4303 179.696 25.6319Z" fill="#001514"/>
</svg>