<svg width="149" height="54" viewBox="0 0 149 54" fill="none" xmlns="http://www.w3.org/2000/svg">
    <g clip-path="url(#clip0_260_1124)">
        <path d="M84.554 16.2844C84.554 14.0846 84.554 11.8872 84.554 9.68734C84.554 9.10937 84.7373 8.93114 85.3331 8.92859C86.0766 8.92859 86.2344 9.07881 86.2344 9.80701C86.2344 14.1151 86.2242 18.4257 86.2421 22.7338C86.2472 23.6759 85.7583 23.7447 84.9486 23.6046C84.666 23.5562 84.5463 23.3144 84.5489 22.9961C84.5591 20.758 84.554 18.5225 84.554 16.2844Z" fill="currentColor"/>
        <path d="M141.622 9.43772C136.616 3.97112 130.35 1.01758 122.941 0.869907C108.025 0.574553 96.3282 12.6993 96.3027 28.3505C96.3817 33.9928 98.8158 40.1163 103.709 45.1704C108.779 50.4079 115.068 53.1094 122.345 53.1348C129.146 53.1577 135.129 50.7491 140.102 46.0896C145.543 40.9948 148.379 34.6319 148.458 27.1971C148.529 20.432 146.205 14.446 141.622 9.43772ZM110.23 34.7974C109.624 35.8082 108.692 36.2131 107.643 36.2538C106.426 36.2284 105.499 35.8082 104.916 34.8203C104.272 33.7306 104.259 32.5899 104.899 31.4976C106.569 28.6484 108.27 25.8197 109.955 22.9807C110.396 22.2398 110.826 21.4963 111.261 20.7554C112.323 18.9349 115.126 18.8177 116.415 20.4906C117.1 21.3792 117.186 23.1437 116.578 24.1341C115.02 26.665 113.54 29.2468 112.028 31.8057C111.435 32.8063 110.831 33.8019 110.233 34.8L110.23 34.7974ZM125.887 25.2442C125.133 26.5606 124.384 27.8821 123.628 29.201C122.78 30.6828 121.925 32.1596 121.074 33.6415C120.784 34.1456 120.524 34.6599 120.097 35.0775C119.02 36.1291 117.23 36.2411 116.025 35.3194C115.185 34.6752 114.823 33.8197 114.841 32.651C114.737 31.933 115.185 31.2659 115.585 30.5912C116.947 28.2971 118.312 26.0055 119.697 23.7242C121.095 21.4225 122.373 19.0444 123.918 16.8368C124.672 15.7624 125.754 15.0825 127.093 14.8738C128.723 14.6191 130.029 15.2684 131.198 16.3098C131.587 16.6561 131.903 17.0685 132.221 17.481C132.298 17.5803 132.364 17.6796 132.29 17.7891C132.211 17.9062 132.109 17.8146 132.02 17.7764C131.177 17.4199 130.419 17.6414 129.876 18.3925C129.326 19.1538 128.916 19.9992 128.445 20.8037C127.582 22.278 126.739 23.7624 125.889 25.2442H125.887ZM138.701 36.2054C138.493 36.2487 138.274 36.236 138.037 36.2513C136.797 36.2233 135.873 35.6784 135.251 34.5657C134.493 33.2061 133.685 31.877 132.909 30.5275C132.221 29.3308 131.549 28.1265 130.867 26.9272C130.335 25.9928 129.802 25.0558 129.247 24.1341C129.059 23.8209 129 23.5536 129.207 23.2251C129.925 22.0921 130.495 20.8725 131.254 19.7649C131.654 19.1793 132.239 18.9221 132.95 18.917C133.166 18.917 133.296 18.996 133.408 19.1818C134.933 21.6898 136.481 24.1825 137.988 26.7006C138.969 28.3404 139.926 29.9979 140.827 31.6809C141.764 33.4327 140.863 35.7649 138.704 36.2029L138.701 36.2054Z" fill="currentColor"/>
        <path d="M29.2916 38.866C28.5838 37.0379 27.8836 35.2072 27.1732 33.3791C26.776 32.353 26.3635 31.332 25.9638 30.3084C25.8416 29.9952 25.6251 29.789 25.2916 29.7788C24.5685 29.7584 23.8428 29.7483 23.1223 29.7788C22.7887 29.7915 22.557 30.0105 22.4348 30.3466C22.2209 30.9297 21.9816 31.5 21.7575 32.078C20.902 34.283 20.0491 36.4879 19.1936 38.6954C18.5774 40.2868 17.9587 41.8781 17.3425 43.472C17.1414 43.9965 17.3145 44.2435 17.8772 44.2486C18.2973 44.2537 18.7174 44.2384 19.135 44.2511C19.5373 44.2639 19.7766 44.0653 19.9141 43.7088C20.1713 43.0366 20.4335 42.3644 20.6831 41.6872C20.7493 41.5089 20.8307 41.4224 21.0344 41.4224C23.1452 41.4275 25.2559 41.4275 27.3667 41.4224C27.5551 41.4224 27.6595 41.4758 27.7283 41.6719C27.909 42.1837 28.1153 42.6904 28.3241 43.1919C28.7646 44.2486 28.7696 44.2461 29.9129 44.2461C30.1802 44.2461 30.4476 44.2588 30.7149 44.2435C31.0332 44.2257 31.2496 43.9151 31.1427 43.6426C30.5265 42.0487 29.9078 40.4599 29.2916 38.866ZM25.9969 38.9424C24.7645 38.9424 23.5322 38.945 22.2999 38.945C21.8874 38.945 21.8492 38.8889 21.9943 38.5121C22.6792 36.7298 23.3667 34.95 24.0567 33.1703C24.0924 33.0812 24.1127 32.9717 24.2579 32.9157C24.4666 33.4402 24.678 33.9621 24.8817 34.4866C25.3833 35.7826 25.8798 37.0837 26.3813 38.3797C26.6003 38.945 26.608 38.9424 25.9994 38.9424H25.9969Z" fill="currentColor"/>
        <path d="M13.0401 9.22387C12.5232 8.96926 11.6448 9.16277 11.3596 9.66945C10.8428 10.5861 10.3641 11.523 9.88286 12.4575C9.1241 13.9368 8.37553 15.4212 7.62187 16.9005C7.47165 17.1933 7.30869 17.4785 7.15083 17.7688C7.09736 17.8655 7.06426 17.9928 6.92168 17.9954C6.77909 17.9979 6.7409 17.8757 6.68743 17.7764C6.47865 17.3843 6.26477 16.9973 6.06108 16.6026C4.95095 14.4359 3.8281 12.2716 2.74089 10.0947C2.41244 9.43775 2.00505 9.0431 1.20811 9.14494C0.703969 9.21114 0.548654 9.30535 0.546108 9.80694C0.546108 10.4053 0.546108 11.0011 0.546108 11.5994C0.546108 15.3881 0.546108 19.1742 0.541016 22.9629C0.541016 23.2124 0.571569 23.434 0.805816 23.5434C1.20556 23.7344 1.63332 23.7166 2.02033 23.5384C2.32587 23.3983 2.30041 23.0597 2.30041 22.7643C2.30041 19.6631 2.30041 16.5619 2.30041 13.4607C2.30041 13.3537 2.2393 13.2035 2.3717 13.1526C2.53975 13.0864 2.55248 13.2875 2.63905 13.3639C2.68488 13.4021 2.7027 13.4734 2.73071 13.5294C3.67024 15.3576 4.64287 17.1679 5.53402 19.0189C5.9134 19.8108 6.39717 20.2284 7.29087 20.0629C7.3036 20.0629 7.31633 20.0629 7.32906 20.0629C7.53021 20.0603 7.68043 19.989 7.80774 19.8133C8.2966 19.1437 8.59705 18.3697 8.98916 17.6466C9.69953 16.3429 10.3437 15.0062 11.021 13.6847C11.1025 13.5269 11.2018 13.3792 11.2909 13.2264C11.3265 13.1653 11.3698 13.122 11.4411 13.1399C11.5149 13.1577 11.5277 13.2239 11.5302 13.2901C11.5302 13.3919 11.5302 13.4938 11.5302 13.5956C11.5302 16.6714 11.5302 19.7471 11.5302 22.8229C11.5302 23.1131 11.5735 23.3754 11.851 23.5434C12.0878 23.6886 12.3424 23.6453 12.5945 23.6453C13.0757 23.6453 13.2871 23.4314 13.2871 22.9553C13.2871 20.7554 13.2871 18.5581 13.2871 16.3582C13.2871 14.1583 13.2871 11.961 13.2871 9.76111C13.2871 9.53705 13.282 9.33845 13.0375 9.21878L13.0401 9.22387Z" fill="currentColor"/>
        <path d="M55.1963 29.6007C54.8016 29.5956 54.407 29.5982 54.0149 29.6007C53.4878 29.6007 53.3452 29.7484 53.3452 30.2856C53.3452 31.6071 53.3452 32.9285 53.3427 34.2525C53.3427 34.3722 53.4089 34.5301 53.2739 34.6039C53.1263 34.6854 53.055 34.5224 52.9633 34.4486C51.9805 33.6491 50.8857 33.2519 49.5948 33.4098C47.6979 33.6415 46.5546 34.7694 45.8646 36.4524C45.3681 37.6618 45.4038 38.9298 45.5616 40.1927C45.7373 41.5957 46.3688 42.7567 47.4993 43.6326C49.0473 44.8318 51.4815 44.7427 52.9022 43.4289C53.0041 43.3347 53.1034 43.2048 53.2587 43.2838C53.4038 43.3576 53.3325 43.5104 53.3376 43.63C53.3554 44.0934 53.5006 44.2462 53.9589 44.2487C54.3408 44.2513 54.7227 44.2487 55.1021 44.2487C55.6546 44.2487 55.7794 44.124 55.7794 43.5867C55.7794 41.3614 55.7794 39.1386 55.7794 36.9133C55.7794 34.6879 55.7794 32.4397 55.7794 30.2016C55.7794 29.7586 55.6342 29.6109 55.1912 29.6058L55.1963 29.6007ZM53.1441 40.595C52.7876 41.5778 52.0365 42.0718 51.0282 42.1787C50.3917 42.2449 49.7755 42.1405 49.1925 41.8324C48.4515 41.4403 48.1816 40.7554 48.0365 40.0119C47.8634 39.1233 47.8965 38.2347 48.1511 37.3563C48.3955 36.5135 48.9531 36.0119 49.7755 35.77C50.5878 35.5307 51.3796 35.5969 52.1154 36.0145C52.9684 36.4983 53.2739 37.3054 53.3427 38.2322C53.3605 38.4588 53.3427 38.6879 53.3427 39.0215C53.3834 39.49 53.3351 40.0578 53.139 40.6001L53.1441 40.595Z" fill="currentColor"/>
        <path d="M86.1611 36.9922C86.0058 35.821 85.5603 34.8204 84.5316 34.1711C83.0956 33.2621 81.545 33.1399 79.946 33.6262C78.7544 33.9878 77.82 34.6778 77.3642 35.8948C77.2165 36.292 77.3107 36.4575 77.7206 36.4626C78.3317 36.4703 78.9403 36.4626 79.5513 36.4677C79.7398 36.4677 79.9002 36.4168 80.0377 36.2895C80.3941 35.9509 80.804 35.7344 81.298 35.6479C81.6621 35.5817 82.0058 35.6784 82.3521 35.7141C83.1414 35.7955 83.7092 36.4295 83.7219 37.1476C83.7245 37.3767 83.6354 37.4786 83.4368 37.5117C82.79 37.6237 82.1433 37.7281 81.4991 37.8376C80.58 37.9954 79.6455 38.0922 78.7773 38.4563C77.685 38.9146 76.7557 39.5537 76.5774 40.8446C76.4221 41.9623 76.7607 42.9197 77.6494 43.6479C78.2019 44.0986 78.8435 44.3354 79.5564 44.4219C80.9288 44.59 82.1713 44.3481 83.2025 43.3551C83.3298 43.2329 83.4342 42.9732 83.6405 43.0623C83.8161 43.1412 83.7092 43.3856 83.7143 43.5537C83.7347 44.0324 83.9358 44.2411 84.4119 44.2437C84.7684 44.2437 85.1249 44.2437 85.4788 44.2437C86.0389 44.2437 86.2324 44.0553 86.235 43.5002C86.235 42.5225 86.235 41.5422 86.235 40.3353C86.1764 39.3754 86.3216 38.1813 86.1637 36.9897L86.1611 36.9922ZM82.0848 41.9547C81.629 42.1177 81.158 42.2017 80.636 42.1838C80.3763 42.2348 80.0911 42.1507 79.811 42.0871C79.4749 42.0107 79.1312 41.8834 79.065 41.4811C78.9606 40.842 79.121 40.5136 79.5742 40.2488C80.1726 39.8974 80.855 39.8847 81.5042 39.7523C82.1459 39.6224 82.7977 39.5486 83.4368 39.4085C83.7016 39.35 83.7067 39.4518 83.7143 39.6479C83.755 40.6867 83.1236 41.5855 82.0822 41.9547H82.0848Z" fill="currentColor"/>
        <path d="M42.9641 37.1602C42.8776 36.1545 42.5517 35.2302 41.8056 34.5071C41.0876 33.812 40.2092 33.5065 39.2162 33.397C37.9457 33.2595 36.8814 33.6338 35.9393 34.4511C35.8553 34.525 35.7865 34.6574 35.6592 34.6141C35.4963 34.5581 35.5701 34.3951 35.5676 34.2805C35.5497 33.7688 35.3537 33.5702 34.8445 33.5676C34.488 33.5676 34.1315 33.5676 33.7776 33.5676C33.2506 33.5702 33.0494 33.7764 33.0469 34.3085C33.0469 35.8464 33.0469 37.3843 33.0469 38.9196C33.0469 40.483 33.0469 42.0463 33.0469 43.6071C33.0469 44.0883 33.2022 44.2385 33.686 44.2436C34.0552 44.2462 34.4243 44.2436 34.791 44.2436C35.3741 44.2436 35.5625 44.0578 35.5625 43.4798C35.5625 41.7128 35.565 39.9483 35.5599 38.1812C35.5599 37.9368 35.5981 37.7026 35.649 37.4683C36.0946 35.3576 38.3938 35.2455 39.6032 36.0196C40.283 36.4549 40.502 37.2061 40.5147 37.9725C40.5428 39.8261 40.5224 41.6822 40.5249 43.5383C40.5249 44.0425 40.7337 44.2436 41.2379 44.2462C41.6325 44.2462 42.0246 44.2487 42.4193 44.2462C42.8776 44.2411 43.0456 44.0858 43.038 43.63C42.9972 41.4734 43.1449 39.3143 42.9591 37.1602H42.9641Z" fill="currentColor"/>
        <path d="M74.1806 36.6229C73.6764 34.1557 71.8559 33.3485 69.8546 33.3511C68.8642 33.3511 67.9934 33.7763 67.2448 34.4281C67.1532 34.507 67.0819 34.6624 66.9367 34.6063C66.784 34.5452 66.8578 34.3848 66.8527 34.2677C66.8349 33.7661 66.6338 33.5675 66.1194 33.565C65.7757 33.565 65.432 33.565 65.0882 33.565C64.5306 33.565 64.332 33.7636 64.332 34.3186C64.332 35.8438 64.332 37.3689 64.332 38.8941C64.332 40.4192 64.332 41.9953 64.332 43.5459C64.332 44.0297 64.5459 44.2384 65.0195 44.241C65.3887 44.241 65.7579 44.241 66.1245 44.241C66.649 44.241 66.8451 44.0398 66.8451 43.5026C66.8451 42.3848 66.8324 41.2645 66.8502 40.1468C66.8629 39.2989 66.7662 38.4459 66.9215 37.6032C67.0386 36.9743 67.3161 36.4472 67.8254 36.0373C68.3677 35.5993 68.9915 35.6146 69.628 35.6197C70.4963 35.6273 71.1252 35.994 71.5122 36.7858C71.8636 37.5064 71.8687 38.2804 71.8763 39.0468C71.8941 40.5847 71.8814 42.1226 71.8814 43.6605C71.8814 44.0755 72.0316 44.2308 72.4492 44.2384C72.8438 44.2461 73.2385 44.2384 73.6306 44.2384C74.1831 44.2384 74.3206 44.0984 74.3206 43.5357C74.3206 41.7814 74.3155 40.0271 74.3231 38.2728C74.3257 37.7152 74.285 37.1627 74.1729 36.6153L74.1806 36.6229Z" fill="currentColor"/>
        <path d="M48.5307 23.4771C50.4759 24.101 52.2735 23.966 53.7121 22.3059C53.7554 22.255 53.7936 22.2015 53.8649 22.2193C53.9591 22.2448 53.954 22.3314 53.9565 22.4052C53.9565 22.5707 53.9489 22.7362 53.9591 22.9017C53.9947 23.4873 54.2544 23.6757 54.9877 23.6503C55.4537 23.635 55.637 23.4186 55.637 22.8763C55.637 21.7967 55.637 20.7146 55.637 19.635C55.637 18.5554 55.6574 17.4733 55.6319 16.3937C55.6039 15.1741 55.0692 14.1888 54.0762 13.4962C52.5867 12.4574 50.3537 12.4854 48.798 13.514C48.2149 13.9011 47.7617 14.3899 47.5249 15.0647C47.4536 15.2658 47.4893 15.3982 47.6344 15.5382C47.9374 15.8336 48.7853 15.7878 49.0883 15.4644C49.5008 15.0214 49.8699 14.5096 50.5192 14.3899C50.9877 14.3059 51.4486 14.2524 51.9425 14.3288C53.18 14.5198 54.0635 15.1869 53.9718 16.5923C53.9565 16.8444 53.875 16.9666 53.6433 17.0023C52.8235 17.1347 52.0011 17.2569 51.1812 17.3969C50.066 17.5853 48.9737 17.8425 48.0342 18.5274C47.1965 19.136 46.7687 19.9736 46.728 20.9819C46.6873 21.9876 47.5224 23.1512 48.5358 23.4771H48.5307ZM48.9839 19.6121C49.7223 19.0978 50.5727 18.9119 51.4358 18.7693C52.1309 18.6522 52.8362 18.5809 53.5237 18.4307C53.8903 18.3492 53.9922 18.4383 53.9565 18.782C53.9463 18.8941 53.9565 19.0112 53.9565 19.1258C54.0838 20.8037 52.7216 22.0488 51.1074 22.2168C50.4225 22.2881 49.7732 22.2856 49.1519 21.9749C48.2302 21.5115 48.1386 20.2053 48.9839 19.6146V19.6121Z" fill="currentColor"/>
        <path d="M19.3513 23.5128C20.8357 24.0526 22.2972 23.8999 23.6976 23.2328C24.4411 22.8789 25.042 22.3365 25.3551 21.5294C25.4443 21.3002 25.373 21.1704 25.2075 21.0405C24.9274 20.8241 24.1686 20.8216 23.9166 21.0787C23.2647 21.7433 22.5238 22.1354 21.5665 22.2423C19.6976 22.4511 17.9917 21.4581 17.9356 19.2557C17.928 18.9858 18.0197 18.9094 18.2845 18.9119C19.4277 18.9247 20.5735 18.917 21.7167 18.917C22.8243 18.917 23.9293 18.917 25.0369 18.917C25.5767 18.917 25.7116 18.7745 25.7269 18.2499C25.7447 17.6261 25.7141 17.01 25.569 16.404C25.2915 15.2506 24.7542 14.2576 23.7638 13.5497C22.5926 12.7121 21.2762 12.5644 19.9216 12.8445C18.9516 13.0456 18.1164 13.5447 17.4926 14.3594C16.8128 15.248 16.4309 16.2308 16.3239 17.3512C16.1839 18.8381 16.3367 20.2563 17.098 21.5625C17.6225 22.4664 18.3608 23.1462 19.3513 23.5078V23.5128ZM17.9382 17.0533C18.0655 15.6325 18.8981 14.6013 20.408 14.3441C21.4111 14.171 22.3609 14.3212 23.1553 14.9807C23.8402 15.551 24.0999 16.3327 24.0413 17.2213C24.026 17.4403 23.858 17.3944 23.7307 17.3944C22.8166 17.397 21.9026 17.3944 20.9859 17.3944C20.0846 17.3944 19.1807 17.3868 18.2794 17.3995C18.012 17.4046 17.9127 17.3181 17.9382 17.0533Z" fill="currentColor"/>
        <path d="M65.7209 14.9986C66.4083 15.602 66.6044 16.4066 66.6171 17.257C66.6426 19.1513 66.6247 21.0457 66.6273 22.9375C66.6273 23.4772 66.8488 23.6504 67.5083 23.6504C68.0913 23.6504 68.3027 23.4645 68.3052 22.9375C68.3052 20.9285 68.3383 18.9196 68.2925 16.9133C68.267 15.8261 67.8851 14.8305 67.1111 14.031C66.1817 13.0711 65.0258 12.7019 63.7094 12.7376C62.6298 12.7681 61.7107 13.122 60.9774 13.9266C60.8832 14.0285 60.7864 14.1558 60.626 14.0972C60.463 14.0387 60.5318 13.8782 60.5293 13.7637C60.5242 13.4963 60.5725 13.1933 60.3052 13.038C59.9487 12.8318 59.5592 12.8267 59.1747 12.9973C58.8386 13.1475 58.8488 13.4479 58.8488 13.7382C58.8462 15.2506 58.8488 16.763 58.8488 18.2755C58.8488 19.7879 58.8488 21.3257 58.8488 22.8509C58.8488 23.4772 59.0372 23.6478 59.7196 23.6504C60.3357 23.6504 60.5267 23.4671 60.5267 22.8713C60.5267 21.9317 60.5114 20.9897 60.5318 20.0501C60.5522 18.9604 60.458 17.8706 60.6005 16.7809C60.738 15.714 61.2371 14.9171 62.2581 14.5224C62.9914 14.2398 63.7527 14.2067 64.5267 14.39C64.9825 14.497 65.3771 14.6905 65.7285 14.9986H65.7209Z" fill="currentColor"/>
        <path d="M37.2362 16.9259C37.6843 14.2524 40.289 13.7839 42.1528 14.726C42.634 14.9679 42.9574 15.4033 43.1865 15.9074C43.4411 16.4651 44.0166 16.6713 44.5742 16.437C44.8033 16.3403 44.9103 16.1621 44.8568 15.9202C44.7193 15.2913 44.4469 14.7209 43.9886 14.2601C42.6238 12.8877 40.9561 12.4625 39.1076 12.8597C37.478 13.2111 36.4137 14.2473 35.846 15.826C35.3545 17.1907 35.3647 18.5809 35.5913 19.966C35.7798 21.1194 36.317 22.1557 37.282 22.8483C39.0159 24.0908 40.8823 24.1468 42.769 23.2022C43.818 22.6777 44.5742 21.8705 44.8415 20.6789C44.9001 20.4141 44.8339 20.2308 44.592 20.1162C44.07 19.8718 43.4615 20.078 43.2069 20.5822C43.1611 20.6738 43.1178 20.7655 43.0694 20.8546C42.7613 21.4377 42.3005 21.8451 41.6716 22.059C41.3813 22.1583 41.0809 22.1837 40.7829 22.2295C39.4131 22.4434 38.0535 21.8043 37.4857 20.4447C37.1954 19.7496 37.1318 19.0265 37.1776 18.2856C37.2005 17.8323 37.1649 17.3817 37.2412 16.9234L37.2362 16.9259Z" fill="currentColor"/>
        <path d="M77.3788 22.5989C77.3406 22.2526 77.1115 22.0565 76.7245 22.0514C76.3298 22.0463 75.9352 22.0565 75.5431 22.0489C74.5322 22.0285 73.9492 21.4327 73.9492 20.4193C73.9492 18.5887 73.9593 16.758 73.939 14.9273C73.9339 14.5606 74.0561 14.4817 74.3922 14.4919C75.1026 14.5148 75.8155 14.497 76.5284 14.4995C76.6837 14.4995 76.8187 14.4843 76.946 14.3671C77.2897 14.0514 77.1726 13.6542 77.1064 13.3003C77.0427 12.9566 76.7168 12.9006 76.4113 12.9006C75.7238 12.8955 75.0364 12.8853 74.3515 12.9056C74.0434 12.9158 73.9313 12.8344 73.939 12.5084C73.9593 11.5435 73.9492 10.5759 73.9441 9.61092C73.9441 9.15516 73.7226 8.94383 73.2642 8.93619C73.1497 8.93619 73.0351 8.93364 72.9205 8.93619C72.4902 8.94892 72.2687 9.17044 72.2687 9.59055C72.2687 10.5683 72.256 11.5485 72.2763 12.5263C72.2814 12.8369 72.1796 12.9235 71.8842 12.9056C71.5303 12.8827 71.1713 12.8929 70.8174 12.9056C70.5068 12.9158 70.2394 13.0151 70.1478 13.3563C70.0332 13.7841 70.1605 14.2653 70.4202 14.4435C70.5246 14.5148 70.6366 14.5046 70.7486 14.5046C71.1433 14.5046 71.538 14.5199 71.9301 14.4995C72.2025 14.4868 72.2789 14.5836 72.2738 14.8484C72.2611 15.7879 72.2687 16.73 72.2687 17.8961C72.3247 18.8102 72.1592 19.9585 72.3502 21.0915C72.5131 22.0591 72.9383 22.8586 73.8906 23.2889C74.8505 23.7217 75.8664 23.6962 76.8747 23.625C77.3228 23.5944 77.4527 23.2532 77.3788 22.6065V22.5989Z" fill="currentColor"/>
        <path d="M60.6617 33.5675C60.3052 33.565 59.9488 33.5675 59.5949 33.5675C59.0398 33.5675 58.8438 33.7687 58.8438 34.3263C58.8438 35.8769 58.8438 37.4275 58.8438 38.9781C58.8438 40.5287 58.8438 42.0793 58.8438 43.6299C58.8438 44.0857 59.0042 44.241 59.465 44.2461C59.8342 44.2487 60.2034 44.2461 60.57 44.2461C61.1862 44.2461 61.3594 44.0755 61.3594 43.4619C61.3594 40.4498 61.3594 37.4377 61.3594 34.4256C61.3594 34.3492 61.3644 34.2728 61.3594 34.1964C61.3161 33.7534 61.1175 33.5726 60.6643 33.5675H60.6617Z" fill="currentColor"/>
        <path d="M33.6339 14.4969C33.7714 14.4918 33.9064 14.5071 34.026 14.4002C34.2552 14.1965 34.3672 13.6567 34.2374 13.2977C34.1177 12.9641 33.8376 12.9005 33.5321 12.8979C33.089 12.8928 32.6486 12.9056 32.2081 12.9641C31.6632 13.038 31.1794 13.2162 30.7822 13.5981C30.6549 13.7229 30.5327 13.8502 30.4029 13.975C30.3316 14.0437 30.2654 14.143 30.1457 14.0895C30.0413 14.0437 30.082 13.9368 30.0744 13.8527C30.0693 13.7891 30.0744 13.7254 30.0744 13.6618C30.0719 13.0787 29.8733 12.8979 29.2494 12.8954C28.5951 12.8954 28.3965 13.0736 28.3965 13.672C28.3965 15.1971 28.3965 16.7197 28.3965 18.2449C28.3965 19.77 28.3965 21.3181 28.3965 22.8559C28.3965 23.4721 28.5824 23.6478 29.2291 23.6478C29.886 23.6478 30.0744 23.4772 30.0744 22.8687C30.0744 20.926 30.0795 18.9807 30.0719 17.038C30.0719 16.7324 30.1024 16.432 30.1584 16.1341C30.3188 15.3015 31.0165 14.6904 31.8516 14.5606C32.4474 14.4664 33.0407 14.5173 33.6339 14.4944V14.4969Z" fill="currentColor"/>
        <path d="M80.4263 12.8954C79.7974 12.8954 79.5938 13.0787 79.5938 13.6541C79.5938 15.1895 79.5938 16.7273 79.5938 18.2627C79.5938 19.798 79.5938 21.3614 79.5938 22.9094C79.5938 23.467 79.7974 23.6529 80.3983 23.6529C81.068 23.6529 81.2717 23.4798 81.2717 22.8992C81.2717 19.8133 81.2717 16.7299 81.2717 13.644C81.2717 13.0787 81.0629 12.8979 80.4263 12.8979V12.8954Z" fill="currentColor"/>
        <path d="M60.9418 29.6059C60.3842 29.5931 59.824 29.5906 59.2664 29.6059C58.9507 29.616 58.7496 29.7688 58.7623 30.1329C58.7776 30.6014 58.7623 31.0724 58.7674 31.5409C58.7725 31.9483 58.938 32.1062 59.3505 32.1164C59.5923 32.1215 59.8317 32.1164 60.0736 32.1164C60.3154 32.1164 60.5548 32.1164 60.7967 32.1164C61.1786 32.1138 61.4205 31.8999 61.4307 31.5231C61.4434 31.0546 61.4383 30.5836 61.4307 30.1151C61.4256 29.7994 61.2575 29.611 60.9393 29.6033L60.9418 29.6059Z" fill="currentColor"/>
        <path d="M79.3653 10.2702C79.3653 10.8736 79.5537 11.0468 80.1648 11.0672C81.5982 11.1104 81.5346 10.922 81.4888 9.50891C81.476 9.10407 81.2443 8.93857 80.8293 8.93093C80.5365 8.92584 80.2437 8.92074 79.9534 8.93093C79.6072 8.94621 79.3907 9.16263 79.3678 9.50636C79.3576 9.65913 79.3678 9.8119 79.3678 9.96467C79.3678 10.0665 79.3678 10.1684 79.3678 10.2702H79.3653Z" fill="currentColor"/>
    </g>
    <defs>
        <clipPath id="clip0_260_1124">
            <rect width="147.919" height="52.27" fill="white" transform="translate(0.541016 0.86499)"/>
        </clipPath>
    </defs>
</svg>