<svg width="137" height="44" viewBox="0 0 137 44" fill="none" xmlns="http://www.w3.org/2000/svg">
    <g clip-path="url(#clip0_260_1095)">
        <path d="M8.04795 43.0354C6.27632 42.3439 4.48098 41.7695 3.0752 40.3144C0.697219 37.8652 0.12813 34.9207 0.422837 31.6838C0.49736 30.8582 0.914015 30.2287 1.65247 29.7609C5.94435 27.0468 10.2024 24.2812 14.501 21.5774C16.2117 20.5008 17.1703 21.0511 17.1805 23.0807C17.2042 28.7014 17.1601 34.3222 17.2076 39.9429C17.2143 40.7788 16.9874 41.4358 16.5843 41.9862C16.1067 42.6398 15.3851 43.0732 14.6094 43.2796C13.6033 43.5479 12.9868 43.6408 12.0892 43.6408C10.741 43.6408 9.57568 43.5513 8.04795 43.0354Z" fill="currentColor"/>
        <path d="M136.75 29.4047C136.245 29.4219 135.737 29.4287 135.233 29.4528C134.67 29.4803 134.203 29.3118 134.071 28.7098C133.833 27.6262 133.464 28.1078 133.024 28.5688C132.272 29.3531 131.276 29.5904 130.253 29.6454C128.536 29.7349 127.286 28.8233 126.954 27.3373C126.557 25.5692 127.238 24.2036 128.915 23.4881C129.958 23.0443 131.076 22.9067 132.194 22.7554C132.645 22.6969 133.322 22.7623 133.281 21.9952C133.251 21.407 132.797 21.0939 132.282 20.9838C131.093 20.7327 129.901 20.7362 128.895 21.5308C128.146 22.1224 127.8 21.7475 127.513 21.0905C127.228 20.4335 126.408 19.7524 127.587 19.1298C129.857 17.9258 132.184 17.7194 134.575 18.7032C135.842 19.2226 136.347 20.3647 136.743 21.5686V29.4047H136.75ZM131.215 27.1378C132.465 27.1137 133.332 26.3673 133.363 25.4488C133.386 24.7299 132.963 24.637 132.38 24.6576C131.09 24.7058 130.043 25.4178 130.162 26.2365C130.26 26.9245 130.768 27.1206 131.215 27.1378Z" fill="currentColor"/>
        <path d="M64.4592 43.0325C64.3169 42.9499 64.1814 42.8364 64.029 42.7917C63.6564 42.6816 63.1957 42.6747 63.3278 42.0762C63.4531 41.5052 63.7919 41.4364 64.3373 41.5223C65.2688 41.6703 66.197 42.0521 67.1624 41.7184C67.5181 41.5946 68.033 41.5877 67.972 41.0545C67.9246 40.6383 67.4706 40.6693 67.1522 40.628C66.4273 40.5385 65.6889 40.542 64.9741 40.3975C63.8292 40.1705 63.5277 39.6786 64.0053 38.6122C64.239 38.0928 64.1543 37.8142 63.8901 37.4151C62.7418 35.6918 64.1205 33.7242 66.0174 33.731C66.5222 33.731 67.054 33.6794 67.5215 33.8239C68.1414 34.0165 68.6901 34.1266 69.2795 33.7586C69.5234 33.6038 69.8452 33.6106 70.0146 33.9133C70.1569 34.1679 70.2111 34.5704 69.9841 34.7045C69.2321 35.1448 69.4387 35.7846 69.4184 36.4589C69.3812 37.6594 68.3311 38.3989 66.7627 38.5641C66.3088 38.6122 65.4653 38.2029 65.4687 38.8255C65.4721 39.5754 66.3596 39.1592 66.8541 39.2417C67.4029 39.3346 67.972 39.2864 68.5174 39.4653C69.1982 39.6923 69.7504 40.0501 69.8723 40.8172C70.0078 41.6565 69.6115 42.2275 68.8866 42.6059C68.6427 42.7332 68.4157 42.888 68.182 43.029H64.466L64.4592 43.0325ZM67.7416 36.1045C67.7247 35.3753 67.1827 34.88 66.4375 34.9178C65.7058 34.9522 65.174 35.5094 65.2316 36.2146C65.2891 36.968 65.7668 37.2603 66.4612 37.281C67.2742 37.3051 67.7586 36.8579 67.7416 36.108V36.1045Z" fill="currentColor"/>
        <path d="M0.268271 13.9071C0.268271 10.6151 0.315695 7.32314 0.251334 4.03118C0.210685 1.86406 1.09142 0.312674 3.9538 0.360832C10.0884 0.464028 16.2231 0.309234 22.3577 0.41931C27.8826 0.519066 32.6894 2.48667 35.86 7.20962C39.6641 12.8717 39.8606 18.9568 36.5341 24.8975C33.936 29.5344 29.5865 31.4882 24.4241 31.7325C23.6958 31.7669 22.9573 31.7772 22.229 31.7118C20.6843 31.5742 20.1288 30.9929 20.1085 29.4381C20.0746 26.8272 20.0915 24.2164 20.0983 21.6055C20.1017 20.0266 19.9831 18.4924 18.408 17.6221C16.8193 16.7484 15.4711 17.5292 14.1635 18.3582C10.5898 20.6217 7.0262 22.8954 3.45585 25.1658C3.12388 25.379 2.79868 25.6095 2.44639 25.7815C1.2574 26.3594 0.44103 25.9329 0.29537 24.6291C0.227622 24.0134 0.268271 23.3805 0.268271 22.7578C0.268271 19.8064 0.268271 16.855 0.268271 13.9036V13.9071Z" fill="currentColor"/>
        <path d="M49.5281 22.6858C49.5281 20.818 49.5688 18.9501 49.5112 17.0823C49.4841 16.1844 49.8398 15.8439 50.6765 15.8611C52.692 15.9024 54.7177 15.7063 56.723 16.0503C59.0807 16.4562 60.3815 18.0523 60.4187 20.5737C60.4526 22.9369 59.1688 24.5605 56.8619 25.0284C55.927 25.2176 54.9785 25.3276 54.0199 25.2932C53.3288 25.2657 52.9664 25.5719 53.0003 26.2977C53.0138 26.5797 53.0003 26.8618 52.9935 27.1473C52.9732 29.5484 52.8444 29.6343 50.5444 29.4692C49.7077 29.4073 49.5112 29.0255 49.5214 28.2859C49.5451 26.4181 49.5281 24.5502 49.5281 22.6824H49.5248L49.5281 22.6858ZM52.9833 20.6632C52.9833 22.4416 53.0138 22.4829 54.3417 22.476C56.0693 22.4657 56.95 21.8018 56.9127 20.5324C56.8755 19.3319 56.2048 18.8607 54.5314 18.8572C53.0003 18.8572 52.9867 18.8744 52.9833 20.6597V20.6632Z" fill="currentColor"/>
        <path d="M80.8094 23.7767C80.8094 28.5685 76.8766 31.0796 72.6694 29.1429C71.8293 28.7542 71.1315 28.1935 70.7081 27.3611C69.5597 25.1045 69.5258 22.8136 70.5759 20.5123C70.6674 20.3093 70.8063 20.1236 70.9418 19.9447C72.1816 18.3108 74.8678 17.6159 77.2593 18.3039C79.3799 18.9128 80.5689 20.4194 80.762 22.7517C80.7958 23.1472 80.7992 23.5428 80.8094 23.7767ZM77.5202 23.8146C77.4219 23.2814 77.3542 22.7757 77.2356 22.2838C77.0324 21.4239 76.5141 20.9148 75.5961 20.8597C74.6646 20.8081 73.9227 21.0868 73.5874 22.0258C73.1335 23.2986 73.1504 24.5817 73.6856 25.8235C74.0345 26.6353 74.7052 27.0068 75.5826 26.9208C76.3854 26.8417 76.9511 26.3979 77.1747 25.6205C77.344 25.0289 77.4084 24.4028 77.5134 23.8146H77.5202Z" fill="currentColor"/>
        <path d="M98.9489 23.7205C98.9489 22.3583 98.9353 20.9961 98.9556 19.6373C98.9624 19.0904 98.8405 18.3852 99.6128 18.2751C100.358 18.1685 101.293 17.8933 101.632 18.9253C101.95 19.8919 102.197 19.5273 102.712 19.0766C104.057 17.9036 106.188 17.7385 107.594 18.6157C108.637 19.2658 109.128 20.2496 109.145 21.4674C109.172 23.7342 109.155 26.0045 109.196 28.2714C109.209 29.152 108.833 29.441 107.983 29.4685C106.032 29.5373 105.944 29.4995 105.934 27.6006C105.927 26.2969 105.934 24.9932 105.934 23.6861C105.934 23.2905 105.947 22.888 105.896 22.4959C105.798 21.715 105.517 21.0752 104.609 20.9582C103.674 20.8379 102.936 21.2231 102.546 22.0728C102.302 22.6094 102.33 23.1804 102.326 23.7445C102.316 25.2753 102.302 26.806 102.323 28.3402C102.333 29.1314 102.001 29.4926 101.218 29.4513C100.883 29.4341 100.541 29.4238 100.206 29.4582C99.2165 29.5614 98.9252 29.0454 98.9421 28.1441C98.9726 26.6684 98.9489 25.1962 98.9489 23.7205Z" fill="currentColor"/>
        <path d="M86.8658 29.4587C85.101 29.4587 85.0942 29.4587 84.5319 27.7491C83.6478 25.0556 82.7636 22.3657 81.9032 19.6654C81.5001 18.3961 81.595 18.2722 82.8178 18.1965C84.6335 18.083 84.7487 18.1621 85.2703 19.9646C85.7141 21.4885 86.1409 23.0158 86.5779 24.5397C86.6727 24.863 86.7879 25.1829 86.8963 25.5028C87.0081 25.207 87.1402 24.9181 87.2317 24.6153C87.7127 22.9848 88.1768 21.3475 88.6612 19.7204C89.071 18.3479 90.5209 17.6943 91.7945 18.2825C92.2891 18.5096 92.201 18.8948 92.0757 19.287C91.6015 20.742 91.1204 22.1937 90.6428 23.6487C90.2024 24.9972 89.7519 26.3387 89.3285 27.6906C88.6713 29.7958 88.6747 29.414 86.8658 29.4587Z" fill="currentColor"/>
        <path d="M116.572 18.0936C117.412 18.0454 118.344 18.2105 119.231 18.6164C120.424 19.1634 120.488 19.3216 120.044 20.5359C119.724 21.4119 119.135 21.6619 118.28 21.2858C116.83 20.6494 115.512 20.9039 114.804 21.9634C114.038 23.1123 114.181 25.1694 115.092 26.0878C115.952 26.9581 117.175 27.0751 118.649 26.2151C119.36 25.7989 119.577 25.9778 119.855 26.6245C120.593 28.3341 120.437 28.7297 118.676 29.3144C115.671 30.312 112.548 29.2147 111.454 26.6864C110.685 24.908 110.651 23.0367 111.332 21.2204C112.111 19.1427 113.879 18.1039 116.569 18.0936H116.572Z" fill="currentColor"/>
        <path d="M62.0115 23.8084C62.0115 22.3946 62.0013 20.9774 62.0148 19.5636C62.0216 19.0201 61.8861 18.3218 62.6957 18.2496C63.441 18.1808 64.3928 17.8987 64.6604 18.9823C64.9619 20.1966 65.3142 19.8457 65.7952 19.1268C65.8867 18.9892 66.0357 18.8894 66.1678 18.7862C67.0249 18.1086 68.2105 17.8884 68.6407 18.3218C68.8778 18.5626 68.9726 20.7435 68.7795 21.1425C68.5966 21.5175 68.2613 21.4899 67.9259 21.5347C65.846 21.8167 65.365 22.3224 65.2736 24.4345C65.2194 25.6763 65.2668 26.9249 65.2295 28.1667C65.1889 29.4154 65.1211 29.4498 63.6442 29.4567C62.1469 29.4636 62.0453 29.412 62.0182 28.2183C61.9844 26.7495 62.0081 25.2772 62.0081 23.805L62.0115 23.8084Z" fill="currentColor"/>
        <path d="M125.2 23.9085C125.2 25.3223 125.183 26.7361 125.206 28.1499C125.22 29.0443 124.939 29.5706 123.943 29.4639C123.553 29.4226 123.157 29.4467 122.768 29.4502C122.148 29.457 121.843 29.1612 121.843 28.5283C121.843 25.4186 121.85 22.3055 121.836 19.1959C121.833 18.4529 122.219 18.1983 122.883 18.2018C123.218 18.2018 123.557 18.2155 123.892 18.1949C124.817 18.1364 125.223 18.5595 125.21 19.4952C125.183 20.964 125.203 22.4363 125.203 23.9085H125.2Z" fill="currentColor"/>
        <path d="M93.4114 23.8001C93.4114 22.3313 93.3809 20.8624 93.4215 19.3971C93.452 18.2825 93.6383 18.1862 95.1017 18.1897C95.9282 18.1897 96.6667 18.1759 96.6498 19.3833C96.6023 22.376 96.6227 25.3687 96.6396 28.3579C96.643 29.1491 96.3042 29.4208 95.5353 29.469C93.5604 29.586 93.4181 29.4931 93.4114 27.5255C93.4046 26.2837 93.4114 25.0419 93.4114 23.8001Z" fill="currentColor"/>
        <path d="M51.7502 41.1895C51.0151 41.0485 50.3274 41.1345 49.6906 40.8456C49.3349 40.6839 49.1351 40.4637 49.2977 40.0647C49.4264 39.7482 49.5958 39.4283 50.0192 39.5143C50.4596 39.6038 50.8864 39.7689 51.3267 39.8274C52.2515 39.9512 53.1255 39.5006 53.2474 38.8504C53.4202 37.9148 52.8037 37.5433 52.0787 37.2543C51.5571 37.0479 51.032 36.8415 50.5341 36.5836C49.6601 36.1295 49.1893 35.3865 49.2333 34.3855C49.2773 33.3638 49.9006 32.7378 50.7915 32.3697C51.9974 31.8709 53.2101 32.0188 54.4093 32.4144C54.8463 32.5589 55.08 32.8066 54.8632 33.3019C54.6803 33.7216 54.4195 33.9486 53.9486 33.7629C53.471 33.5702 52.973 33.5118 52.4649 33.5186C51.8619 33.5255 51.2996 33.6837 51.1235 34.3201C50.9372 34.9943 51.4284 35.359 51.9534 35.6135C52.3565 35.8096 52.7901 35.9334 53.2068 36.102C54.765 36.7315 55.2765 37.4814 55.1071 38.8814C54.9716 40.0131 54.0672 40.8456 52.6749 41.1001C52.3463 41.1586 52.0076 41.1689 51.7468 41.193L51.7502 41.1895Z" fill="currentColor"/>
        <path d="M77.3774 37.3643C77.3774 38.2725 77.4146 39.1806 77.3672 40.0853C77.3164 41.0553 77.0285 41.2996 76.246 40.8421C75.7412 40.5497 75.4906 40.6357 75.0739 40.8593C74.349 41.248 73.5597 41.2583 72.7772 41.0381C72.0727 40.8421 71.5815 40.4086 71.4629 39.6484C71.1987 37.956 71.2834 36.2533 71.3308 34.554C71.3477 34.007 71.6492 33.7628 72.2082 33.7697C72.8043 33.7766 72.9873 34.1033 72.9907 34.6296C72.994 35.8198 72.9907 37.0135 73.011 38.2037C73.0245 38.9501 73.0347 39.7447 74.0374 39.8686C74.8808 39.9718 75.5278 39.3491 75.6091 38.2759C75.6837 37.2611 75.6295 36.2361 75.6735 35.2144C75.7006 34.5712 75.5211 33.749 76.6017 33.78C77.5976 33.8075 77.3604 34.578 77.3842 35.1525C77.418 35.8886 77.3909 36.6282 77.3909 37.3643C77.3842 37.3643 77.3808 37.3643 77.374 37.3643H77.3774Z" fill="currentColor"/>
        <path d="M83.8921 37.4095C83.9192 37.0759 83.9259 36.6768 83.9835 36.2847C84.2342 34.6439 85.1996 33.7736 86.8086 33.7151C88.6277 33.6498 89.6168 34.3481 90.0538 36.0095C90.213 36.6218 90.2164 37.2444 90.1859 37.867C90.0809 39.9894 89.0342 41.0833 87.0898 41.1177C85.1048 41.1556 84.0818 40.1408 83.9293 37.9806C83.9158 37.812 83.9056 37.64 83.8887 37.4095H83.8921ZM88.4448 37.4783C88.4041 36.9658 88.4143 36.5049 88.3262 36.0646C88.1907 35.3938 87.8147 34.9225 87.0627 34.9432C86.3479 34.9638 85.9177 35.3491 85.7924 36.0611C85.6264 37.0208 85.623 37.9874 85.8432 38.9368C85.9855 39.5491 86.3886 39.9138 87.0492 39.9034C87.6995 39.8931 88.1263 39.5388 88.2788 38.9368C88.4007 38.4484 88.3973 37.929 88.4448 37.4783Z" fill="currentColor"/>
        <path d="M56.2797 37.1154C56.3034 36.9469 56.3136 36.3724 56.4627 35.8358C56.9369 34.1296 58.3156 33.3797 60.1516 33.7753C61.5438 34.0746 62.665 35.8358 62.4313 37.3046C62.35 37.8034 62.0655 37.9651 61.6251 37.972C60.8392 37.9823 60.0533 37.9582 59.2674 38.0029C58.8237 38.027 58.153 37.7725 58.1293 38.5946C58.1123 39.231 58.4646 39.6885 59.0642 39.8467C59.6096 39.9912 60.1821 39.9809 60.7037 39.6954C61.2762 39.3823 61.7098 39.5165 61.8521 40.1632C62.0011 40.8339 61.371 40.889 60.995 40.9612C58.2173 41.4944 56.2459 40.8305 56.2797 37.1154ZM58.1259 36.166C58.0683 36.8643 58.573 36.8815 59.01 36.8299C59.5588 36.7646 60.3108 37.2049 60.5953 36.3828C60.785 35.8393 60.0635 35.0068 59.4639 34.9518C58.7864 34.8898 58.1767 35.4402 58.1225 36.166H58.1259Z" fill="currentColor"/>
        <path d="M94.4571 33.698C94.8263 33.7702 95.331 33.8287 95.812 33.9732C96.1135 34.0626 96.5031 34.1933 96.3608 34.6612C96.2287 35.0946 95.934 35.3423 95.4665 35.1771C94.9821 35.0051 94.4943 34.8985 93.9794 34.9432C93.5458 34.9811 93.2139 35.1806 93.1258 35.6278C93.0513 36.013 93.2952 36.2917 93.6034 36.443C94.1556 36.7182 94.7348 36.9452 95.3073 37.1826C96.1813 37.5438 96.6521 38.1698 96.6182 39.1468C96.581 40.1615 95.9306 40.6672 95.0837 40.9458C94.0404 41.2864 92.9734 41.2623 91.9334 40.9149C91.6421 40.8185 91.2356 40.7016 91.3643 40.2372C91.4795 39.8244 91.7302 39.5079 92.2214 39.6421C92.655 39.7591 93.0682 39.9414 93.5323 39.9173C94.0472 39.8932 94.5993 39.8966 94.7687 39.2775C94.9482 38.6308 94.4604 38.3728 93.9862 38.1526C93.6271 37.9875 93.2511 37.8671 92.8921 37.7089C91.6252 37.1551 91.2119 36.5084 91.3914 35.3939C91.5405 34.4754 92.2518 33.9147 93.4815 33.7565C93.7593 33.7221 94.0438 33.7221 94.4571 33.698Z" fill="currentColor"/>
        <path d="M79.3116 37.4011C79.3116 36.4964 79.3048 35.5918 79.3149 34.6871C79.3183 34.3534 79.3285 33.9819 79.7282 33.8512C80.0703 33.7377 80.4463 33.7549 80.6022 34.1195C80.8664 34.7387 81.1374 34.7008 81.5744 34.2846C81.8081 34.0645 82.1367 33.9165 82.4449 33.8099C82.7735 33.6964 83.1529 33.717 83.2884 34.1126C83.4273 34.5082 83.4036 34.9967 82.9226 35.0895C80.9375 35.4851 80.9883 36.9815 81.0256 38.495C81.0358 38.9456 81.029 39.3997 81.0222 39.8503C81.012 40.4282 81.0256 41.0164 80.2025 41.044C79.254 41.0749 79.3082 40.3973 79.3014 39.7712C79.2912 38.98 79.3014 38.1889 79.3014 37.3977C79.3048 37.3977 79.3082 37.3977 79.3116 37.3977V37.4011Z" fill="currentColor"/>
        <path d="M123.335 17.486C122.766 17.4034 121.898 17.7336 121.834 16.5572C121.777 15.5184 121.946 15.2672 122.986 15.1916C123.318 15.1675 123.653 15.1984 123.985 15.1812C124.805 15.1468 125.218 15.4771 125.201 16.3611C125.184 17.252 124.727 17.541 123.928 17.486C123.762 17.4756 123.596 17.486 123.338 17.486H123.335Z" fill="currentColor"/>
        <path d="M95.166 17.4879C93.6383 17.5188 93.4283 17.3847 93.4147 16.3527C93.4012 15.3311 93.5875 15.1935 94.9594 15.1797C96.3787 15.166 96.5955 15.3036 96.6294 16.2323C96.67 17.2987 96.4803 17.4604 95.166 17.4879Z" fill="currentColor"/>
    </g>
    <defs>
        <clipPath id="clip0_260_1095">
            <rect width="136.5" height="43.2805" fill="white" transform="translate(0.25 0.359741)"/>
        </clipPath>
    </defs>
</svg>