<svg width="166" height="27" viewBox="0 0 166 27" fill="none" xmlns="http://www.w3.org/2000/svg">
<path d="M140.513 5.05872V10.7571C144.011 8.1928 148.65 9.65669 149.58 14.0149C150.582 18.7043 146.218 22.5968 141.739 20.5828C141.479 20.4658 140.542 19.7997 140.467 19.7978C140.069 19.787 138.703 20.7675 138.156 20.7783V5.05872H140.513ZM143.238 11.7631C139.658 12.3172 139.478 18.6404 143.817 18.9027C148.624 19.1926 148.682 10.9201 143.238 11.7631Z" fill="currentColor"/>
<path d="M161.233 20.7782C161.077 20.9453 159.251 19.8577 158.929 19.8911C158.8 19.9048 158.082 20.454 157.834 20.57C154.936 21.9267 150.827 20.677 151.341 16.923C151.594 15.072 153.648 13.9009 155.391 13.9009H158.876C158.811 12.1826 157.611 11.5322 155.988 11.7474C155.455 11.8181 154.588 12.2484 154.318 12.7288C154.188 12.9587 154.198 13.4087 154.162 13.4087H151.805C152.089 8.74491 159.885 7.96287 161.065 12.4459C161.099 12.5726 161.232 13.0992 161.232 13.1631V20.7773L161.233 20.7782ZM158.876 15.9641H155.391C155.358 15.9641 154.827 16.085 154.75 16.1095C153.279 16.5792 153.206 18.328 154.672 18.8438C156.604 19.5246 158.938 18.0951 158.876 15.9641Z" fill="currentColor"/>
<path d="M55.3782 20.7783C55.2337 20.9276 53.4162 19.8558 53.0743 19.8911C52.9269 19.9059 52.4651 20.3215 52.2372 20.4364C50.0522 21.5437 46.4013 21.3707 45.6104 18.6149C44.8195 15.8591 46.9544 13.902 49.5354 13.902H53.0212C53.258 11.2631 49.1542 11.042 48.3554 13.0197C48.3034 13.1474 48.3279 13.4107 48.3083 13.4107H45.9513C46.3139 10.0831 49.9225 8.76955 52.8237 9.8257C54.0194 10.2609 55.3782 11.7455 55.3782 13.0669V20.7793V20.7783ZM53.0212 15.9642H49.5354C49.4706 15.9642 48.886 16.1391 48.772 16.1823C47.3769 16.7187 47.5076 18.4105 48.8988 18.8615C50.8224 19.4844 53.145 18.103 53.0222 15.9642H53.0212Z" fill="currentColor"/>
<path d="M130.089 9.5034C137.623 9.3128 138.148 20.4295 130.84 21.071C122.785 21.7784 122.234 9.70284 130.089 9.5034ZM129.591 11.7651C125.409 12.3683 125.957 19.1631 130.446 18.9116C135.26 18.6414 134.759 11.0194 129.591 11.7651Z" fill="currentColor"/>
<path d="M114.688 13.115H112.331C112.302 13.115 112.225 12.7388 112.117 12.5914C111.493 11.7298 110.354 11.5107 109.344 11.6502C108.153 11.8152 107.499 13.2074 108.795 13.7536C110.676 14.5465 114.379 14.2036 114.759 17.0214C115.485 22.3974 105.365 22.4662 105.26 17.2414H107.568C108.07 18.7122 109.849 19.2643 111.252 18.8645C112.015 18.6464 112.832 17.9164 112.185 17.1402C111.076 15.81 106.166 16.6126 105.76 13.6466C105.015 8.20857 114.127 8.14471 114.687 13.115H114.688Z" fill="currentColor"/>
<path d="M68.5376 20.7783H66.1807V13.9501C66.1807 13.844 65.9144 13.1631 65.8407 13.0128C65.041 11.3957 62.6516 11.378 61.5139 12.6218C61.1337 13.0374 60.5835 14.291 60.5835 14.8343V20.7783H58.2266V9.77458L60.5373 10.7551C62.8029 8.91884 66.6434 8.9267 68.0346 11.8004C68.1456 12.0303 68.5376 13.0796 68.5376 13.2624V20.7783Z" fill="currentColor"/>
<path d="M34.6589 10.3641C34.6727 10.4103 34.711 10.4525 34.7572 10.4624C34.8122 10.4732 34.8898 10.4604 34.9537 10.4624C35.0175 10.4643 35.0843 10.4614 35.1502 10.4624C35.3614 11.9744 38.4051 12.1168 39.6106 12.4342C41.5795 12.9519 43.5935 13.6583 43.789 16.0143C44.3648 22.926 32.2086 22.6234 32.1055 16.1597H34.6589C34.7847 18.5953 38.2715 19.3429 40.1578 18.4685C41.3063 17.936 41.8712 16.2344 40.7964 15.3747C39.9132 14.6683 37.1849 14.4345 35.9361 14.0484C34.0311 13.4589 32.7549 12.6297 32.5977 10.4624C32.6606 10.4653 32.6891 10.3661 32.6959 10.3641C32.8443 10.3189 34.432 10.3307 34.6599 10.3641H34.6589Z" fill="currentColor"/>
<path d="M3.02541 8.08965C2.82597 8.21541 1.43577 7.72319 1.37781 7.55027C1.26188 7.20935 2.3426 5.62168 2.60688 5.26308C8.07336 -2.16049 19.5192 -1.63879 24.2901 6.24555C24.4757 6.55208 24.9434 7.24374 24.9424 7.56403C24.9424 7.72908 24.35 9.17037 24.237 9.31971C24.1407 9.44546 24.0985 9.52308 23.9147 9.47297C23.5542 8.92573 23.3714 8.27239 23.0512 7.68094C18.9326 0.08348 8.40052 -0.158208 3.62571 6.9716C3.49111 7.17202 3.07847 8.05624 3.02541 8.08965Z" fill="currentColor"/>
<path d="M77.669 10.3641C77.7113 10.37 77.8449 10.5115 77.9638 10.4624C77.1582 11.7514 76.9607 13.8421 77.4274 15.2725C78.8352 19.5876 85.5819 20.0208 87.0959 15.5712H89.4528C89.0628 18.0107 86.8051 20.2075 84.4452 20.8284C78.8745 22.2933 74.1989 18.0107 74.7354 12.391C74.7648 12.0834 75.0576 10.7266 75.206 10.5272C75.3642 10.316 77.3242 10.315 77.669 10.3651V10.3641Z" fill="currentColor"/>
<path d="M119.499 6.4342V9.77461H123.426L122.445 12.0343H119.5V17.487C119.5 17.6452 119.796 18.2897 119.94 18.4223C120.906 19.3223 122.267 18.4076 123.133 17.8309V20.3853C121.342 21.579 118.472 21.2774 117.517 19.1759C117.448 19.0256 117.143 18.1669 117.143 18.0765V6.4342H119.5H119.499Z" fill="currentColor"/>
<path d="M163.442 4.96045H165.603C165.614 4.96045 165.75 5.09701 165.75 5.10782V20.7291C165.75 20.7399 165.614 20.8765 165.603 20.8765H163.442C163.431 20.8765 163.295 20.7399 163.295 20.7291V5.10782C163.295 5.08129 163.41 5.01056 163.442 4.96045Z" fill="currentColor"/>
<path d="M91.7109 9.77453L94.0217 10.755C95.4542 9.66547 97.1961 9.17227 98.9675 9.68611C99.0372 9.76863 98.8967 11.7532 98.8358 11.8426C98.713 12.0254 97.4388 11.7198 97.0654 11.7395C95.3235 11.8338 94.0679 13.4234 94.0679 15.128V20.7772H91.7109V9.77355V9.77453Z" fill="currentColor"/>
<path d="M77.668 10.3641C77.9863 10.3907 77.838 10.3101 77.7437 10.1411C77.6385 9.95151 77.4941 9.7894 77.4224 9.57817C76.8437 7.86769 78.4766 6.64844 79.9051 6.16899C83.8625 4.84069 88.6697 6.96774 89.4508 11.2494H87.0938C86.2057 8.27836 82.2552 7.33813 79.7253 8.83935C79.24 9.12722 78.2526 9.9967 77.9608 10.4634C77.8419 10.5125 77.7083 10.371 77.666 10.3651L77.668 10.3641Z" fill="currentColor"/>
<path d="M103.101 9.77454H100.744V20.7782H103.101V9.77454Z" fill="currentColor"/>
<path d="M34.9539 10.4623C34.8478 10.1302 34.4381 9.97596 34.2239 9.67041C32.8681 7.74083 35.0011 6.14824 36.798 5.87217C40.1443 5.35833 43.2136 7.0197 43.5957 10.5605H41.1405C41.0423 7.35472 34.6818 7.10615 35.1504 10.4623C35.0846 10.4613 35.0197 10.4642 34.9539 10.4623Z" fill="currentColor"/>
<path d="M133.641 5.05872C133.673 5.22574 133.557 5.31809 133.483 5.4409C132.908 6.39586 131.862 7.34395 131.235 8.30087H128.73L130.547 5.05872H133.64H133.641Z" fill="currentColor"/>
<path d="M100.744 8.20258V6.04114H103.052C103.063 6.04114 103.199 6.1777 103.199 6.18851V8.05521C103.199 8.06601 103.063 8.20258 103.052 8.20258H100.744Z" fill="currentColor"/>
<path d="M32.5977 10.4632L32.6967 10.3641C32.6898 10.3661 32.661 10.4661 32.5977 10.4632Z" fill="currentColor"/>
<path d="M2.69612 9.87289C3.06357 9.94756 3.63439 10.5439 4.09516 10.7335C6.62307 11.775 8.30506 9.68327 10.7976 9.67541C10.214 9.25983 9.78565 8.93266 9.72571 8.14472C9.71687 8.03075 9.71884 7.05221 9.73554 6.99621C9.80136 6.77221 10.1501 6.68378 10.2061 6.38315C10.326 5.74847 10.1786 5.17176 10.2032 4.62059C10.273 3.06436 12.5032 2.61635 13.745 2.94449C15.9359 3.52219 16.1403 5.32208 16.2041 7.26737C16.2238 7.86373 16.0165 8.23413 15.5439 8.57897C15.4162 8.67231 15.0438 8.77743 15.0281 8.80101C15.0006 8.84129 15.3307 9.32565 14.4308 9.18614C14.3227 9.28537 14.8729 10.5744 15.148 10.5488C15.2845 10.5361 15.8141 10.2688 16.0941 10.2118C17.5098 9.92103 18.9904 10.2787 20.0731 11.2523C20.7068 11.8221 21.7404 13.3636 21.2835 14.2262C21.1725 14.4365 20.9131 14.4846 20.9033 14.5554C20.8876 14.6644 21.0094 14.9336 21.0143 15.1272C21.033 15.9505 21.0212 16.5439 20.5997 17.2758C20.3747 17.6668 19.7292 18.164 19.6094 18.4489C19.4797 18.7564 19.6585 18.9637 19.5917 19.1101C19.4316 19.4569 18.6584 19.2889 18.3597 19.2093L18.4569 19.6013C18.0296 19.6731 17.671 19.4677 17.2809 19.3557C17.3939 19.7212 17.7122 20.459 18.0649 20.6388C18.3027 20.7607 18.7085 20.0012 19.014 19.8155C19.3196 19.6298 19.7617 19.6426 19.9208 19.4461L23.5619 10.8082C23.889 10.3278 24.5512 10.6392 24.8273 11.0273L20.8129 20.9788C20.7353 21.0387 20.0446 20.1692 19.8599 20.1132C19.5799 20.0287 19.0661 20.1672 18.9492 20.4394C18.8323 20.7115 19.3196 20.4708 19.464 20.5003C19.8589 20.5799 20.135 21.0023 20.3207 21.3236C19.7479 21.0957 19.2478 20.5376 18.7517 21.2725C19.014 21.08 20.1213 21.7785 19.9297 21.9603C19.6202 21.8424 18.7291 21.4533 18.567 21.9239C18.4049 22.3945 18.7104 22.199 18.9737 22.2766C19.1329 22.3228 19.7931 22.7197 19.4866 22.7492C19.1152 22.7845 18.2958 22.3326 18.453 22.9801C18.4727 23.0606 19.0956 23.2787 19.236 23.3937C19.407 23.5332 19.7892 23.9999 19.688 24.2199C19.4276 24.7858 17.3448 25.4883 16.7111 25.6681C8.92696 27.8688 0.955182 22.5831 0.0955186 14.5377C0.0680094 14.2793 -0.0331853 12.8311 0.0110259 12.6877C0.0434475 12.5826 0.104361 12.5275 0.22324 12.5393C0.332294 12.5501 1.72544 13.1101 1.77063 13.1809C1.89443 14.0965 1.95436 14.9847 2.18426 15.8876C2.61654 17.5892 3.57937 19.3832 4.75735 20.6821C4.92339 20.8648 6.13478 22.0339 6.23303 22.0556C6.50419 22.1155 6.58377 20.9856 6.58377 20.7302C6.58573 19.3852 5.65533 18.4322 6.77142 17.095C6.90504 16.9349 7.19978 16.8209 7.24595 16.6863C7.34125 16.4093 7.23515 15.7147 7.27445 15.3394C7.34715 14.634 7.75488 14.0965 7.75291 13.4118H6.32931C4.99118 13.4118 4.12857 12.3576 3.13922 11.9862C2.88181 11.8899 1.53189 11.7101 1.48277 11.6305C1.44642 11.5726 1.44642 11.3191 1.48277 11.2631C1.56726 11.1314 2.34145 11.2208 2.25499 10.8583C1.95043 10.8082 1.65077 11.1953 1.36782 11.0086C1.19884 10.8966 1.40712 10.6883 1.32852 10.5646C1.25778 10.4525 1.0436 10.4948 0.975814 10.2168C0.933568 10.0468 1.05441 9.87584 1.22438 9.87584C1.62326 9.87584 2.35914 9.80706 2.69711 9.87584L2.69612 9.87289ZM11.7791 5.25625C11.3989 5.33387 11.221 5.02734 10.8968 4.96151C10.8664 5.18257 10.437 5.88209 10.6001 6.04223C10.6365 6.07858 11.448 5.92433 11.3861 6.43522C11.0167 6.37234 10.1747 6.85768 10.1207 7.18583C10.0794 7.43931 10.6207 7.78022 10.4822 7.99244C10.4557 8.0337 10.2454 8.04451 10.216 8.16142C10.0598 8.77449 11.3478 9.38755 11.8763 8.99063C11.9402 9.2107 11.6956 9.35808 11.6867 9.52804C11.6789 9.68917 11.9039 10.1922 11.9491 10.4408C11.9883 10.651 11.8763 11.325 12.12 11.2493C12.9138 11.0037 13.6369 9.74615 13.7499 8.95231C13.2607 8.73715 12.4442 8.12998 12.3656 7.56703C12.3244 7.27425 12.8912 7.52085 13.128 7.29587C13.4601 6.97951 13.3609 6.27016 12.7547 6.47746C12.3921 6.60224 12.4757 7.12983 11.8999 6.85473C11.1945 6.51775 11.842 5.31716 11.7781 5.25822L11.7791 5.25625ZM11.2878 10.2659C8.16555 10.5459 6.55331 12.6877 3.39957 10.9379C3.04588 10.7414 2.70595 10.1666 2.15478 10.4132C2.86118 10.6844 2.80911 10.71 2.647 11.4448C3.30133 11.381 3.84463 11.9086 4.44591 12.1512C5.30164 12.4961 6.4924 12.7731 7.41396 12.726C8.7678 12.6582 9.9507 11.7828 11.2761 11.5303L11.2888 10.2659H11.2878ZM14.1341 10.3651C13.969 10.2246 13.9621 10.426 13.9169 10.4928C12.6211 12.3762 11.8361 11.9675 9.98607 12.7456C8.44064 13.396 7.69298 14.9061 7.75291 16.5547C8.40134 16.6814 8.32569 16.2472 8.59587 15.8748C8.89356 15.4651 9.22662 14.91 9.822 15.1222C10.3132 16.4054 10.7249 17.656 10.5982 19.058C10.4547 20.6555 9.4634 22.1931 9.13034 23.7218C9.97428 23.8721 10.7946 24.2907 11.67 24.2062C11.8036 23.6639 11.954 23.1196 12.0443 22.5674C12.4039 20.3795 11.8724 18.1355 12.3528 16.0969C12.4187 15.8188 12.6417 15.5329 12.6613 15.3168C12.6839 15.079 12.5513 14.8187 12.5552 14.5406C12.5749 13.2104 13.2587 12.0383 14.1871 11.1491C14.2539 11.0843 14.4082 11.0627 14.4219 11.043C14.4544 10.9978 14.1606 10.3897 14.1321 10.3661L14.1341 10.3651ZM17.279 11.9351C16.5785 11.7209 16.2159 12.2456 15.7551 12.4254C15.4653 12.5393 15.7551 11.9233 15.4634 12.0343C15.1716 12.1453 14.7658 12.6592 14.532 12.8753C14.4838 13.0915 15.2826 13.2683 15.2148 13.9393C15.1735 14.35 14.306 15.3089 14.3325 15.4209C14.6135 15.6233 14.9279 15.6911 15.2089 15.922C15.5213 16.1784 15.6058 16.536 16.0745 16.6294C16.8486 16.7826 18.2555 16.2708 18.4344 15.4003C18.7094 14.0671 17.9097 14.0936 17.4872 13.1504C17.3016 12.7358 17.2308 12.3949 17.279 11.9341V11.9351ZM13.4493 15.5702C14.1066 15.4946 14.8798 13.5012 13.8128 13.8205C13.4011 13.9433 13.5495 15.1645 13.4493 15.5702ZM8.53889 18.2229C8.45341 18.1188 9.44375 16.0615 9.37399 15.6714C8.89356 16.2197 8.50352 16.8386 8.10464 17.4458C7.9779 17.6384 7.50434 18.5697 7.4562 18.6159C7.40119 18.67 7.23711 18.6749 7.27641 18.4862C7.34617 18.1492 8.30997 16.6578 7.45326 17.2856C6.21829 18.1905 6.97283 19.5886 7.06813 20.7253C7.1202 21.3462 7.01802 21.9652 6.96104 22.5792C7.32652 22.7472 7.90323 23.2443 8.29425 23.2424C8.46913 23.2414 8.41018 23.207 8.46717 23.1117C8.73244 22.6657 10.2287 19.4373 10.0077 19.2093L9.71589 19.1582C9.9173 18.8409 10.1393 18.442 10.1718 18.0628C10.1786 17.9862 10.156 17.5254 10.0116 17.5372C10.0352 17.7228 9.32487 19.0236 9.12739 18.8134C9.37988 18.106 9.90944 17.1835 9.81709 16.4073C9.75224 15.866 9.58031 16.5429 9.54101 16.6205C9.3003 17.096 9.07532 17.5833 8.78058 18.0284C8.74914 18.0765 8.69314 18.4135 8.53791 18.2239L8.53889 18.2229ZM15.4132 17.7327C15.6648 16.5124 13.3658 15.4366 13.1545 16.9457C13.466 17.0263 13.3 16.705 13.4424 16.594C13.6271 16.4496 14.6243 16.874 14.5919 17.1913C14.5781 17.324 14.3099 17.3809 14.529 17.5843C14.7481 17.7877 15.1401 17.7317 15.4132 17.7327ZM16.0008 19.2064C14.9623 19.6141 13.9101 19.4068 13.0563 18.7151C12.9738 18.8281 13.1536 20.8 13.2774 20.9493C13.3353 21.02 14.0358 21.3059 14.2264 21.4248C14.867 21.8257 15.4358 22.309 16.0499 22.7443C16.1521 22.7443 16.5264 21.5348 16.38 21.3806C16.3466 21.3452 16.1511 21.3806 16.0528 21.2706C15.7728 20.9611 15.9173 19.6406 16.0017 19.2064H16.0008ZM10.0607 19.0099V19.1081C10.1246 19.0757 10.1246 19.0423 10.0607 19.0099Z" fill="currentColor"/>
<path d="M34.7572 10.4632C34.7107 10.4533 34.6721 10.4107 34.6582 10.3641C34.7048 10.3711 34.7463 10.4156 34.7572 10.4632Z" fill="currentColor"/>
<path d="M15.8149 14.1073C16.0792 13.7281 17.5912 14.4266 17.4703 15.021C17.2827 15.358 17.0734 15.0574 16.8956 15.0358C16.7178 15.0141 16.6166 15.1065 16.4014 15.0308C16.1381 14.9385 15.6243 14.3785 15.8149 14.1073Z" fill="currentColor"/>
</svg>
