<svg width="20" height="22" viewBox="0 0 20 22" fill="none" xmlns="http://www.w3.org/2000/svg">
<path d="M18.75 10.75C18.75 15.464 18.75 17.821 17.432 19.285C16.114 20.749 13.992 20.75 9.75 20.75C5.508 20.75 3.386 20.75 2.068 19.285C0.75 17.822 0.75 15.464 0.75 10.75C0.75 6.036 0.75 3.679 2.068 2.214C3.386 0.749 5.508 0.75 9.75 0.75C13.992 0.75 16.114 0.75 17.432 2.214C18.308 3.188 18.602 4.557 18.7 6.75" stroke="#F7F7F7" stroke-width="1.5" stroke-linecap="round"/>
<path d="M4.75 6.75C4.75 6.285 4.75 6.053 4.801 5.862C4.86919 5.60787 5.00303 5.37614 5.18909 5.19009C5.37514 5.00403 5.60687 4.87019 5.861 4.802C6.054 4.75 6.286 4.75 6.75 4.75H12.75C13.215 4.75 13.447 4.75 13.638 4.801C13.8921 4.86919 14.1239 5.00303 14.3099 5.18909C14.496 5.37514 14.6298 5.60687 14.698 5.861C14.75 6.054 14.75 6.286 14.75 6.75C14.75 7.214 14.75 7.447 14.699 7.638C14.6308 7.89213 14.497 8.12386 14.3109 8.30991C14.1249 8.49597 13.8931 8.62981 13.639 8.698C13.447 8.75 13.214 8.75 12.75 8.75H6.75C6.285 8.75 6.053 8.75 5.862 8.699C5.60787 8.63081 5.37614 8.49697 5.19009 8.31091C5.00403 8.12486 4.87019 7.89313 4.802 7.639C4.75 7.446 4.75 7.214 4.75 6.75Z" stroke="#F7F7F7" stroke-width="1.5"/>
<path d="M5.75 12.75C6.30228 12.75 6.75 12.3023 6.75 11.75C6.75 11.1977 6.30228 10.75 5.75 10.75C5.19772 10.75 4.75 11.1977 4.75 11.75C4.75 12.3023 5.19772 12.75 5.75 12.75Z" fill="#F7F7F7"/>
<path d="M5.75 16.75C6.30228 16.75 6.75 16.3023 6.75 15.75C6.75 15.1977 6.30228 14.75 5.75 14.75C5.19772 14.75 4.75 15.1977 4.75 15.75C4.75 16.3023 5.19772 16.75 5.75 16.75Z" fill="#F7F7F7"/>
<path d="M9.75 12.75C10.3023 12.75 10.75 12.3023 10.75 11.75C10.75 11.1977 10.3023 10.75 9.75 10.75C9.19772 10.75 8.75 11.1977 8.75 11.75C8.75 12.3023 9.19772 12.75 9.75 12.75Z" fill="#F7F7F7"/>
<path d="M9.75 16.75C10.3023 16.75 10.75 16.3023 10.75 15.75C10.75 15.1977 10.3023 14.75 9.75 14.75C9.19772 14.75 8.75 15.1977 8.75 15.75C8.75 16.3023 9.19772 16.75 9.75 16.75Z" fill="#F7F7F7"/>
<path d="M13.75 12.75C14.3023 12.75 14.75 12.3023 14.75 11.75C14.75 11.1977 14.3023 10.75 13.75 10.75C13.1977 10.75 12.75 11.1977 12.75 11.75C12.75 12.3023 13.1977 12.75 13.75 12.75Z" fill="#F7F7F7"/>
<path d="M13.75 16.75C14.3023 16.75 14.75 16.3023 14.75 15.75C14.75 15.1977 14.3023 14.75 13.75 14.75C13.1977 14.75 12.75 15.1977 12.75 15.75C12.75 16.3023 13.1977 16.75 13.75 16.75Z" fill="#F7F7F7"/>
</svg>
