<svg width="40" height="40" viewBox="0 0 40 40" fill="none" xmlns="http://www.w3.org/2000/svg">
<path d="M25.8498 4.71655H14.1498C9.99984 4.71655 9.08317 6.78322 8.54984 9.31655L6.6665 18.3333H33.3332L31.4498 9.31655C30.9165 6.78322 29.9998 4.71655 25.8498 4.71655Z" stroke="#003049" stroke-width="2.5" stroke-linecap="round" stroke-linejoin="round"/>
<path d="M36.6501 33.0333C36.8334 34.9832 35.2667 36.6666 33.2667 36.6666H30.1334C28.3334 36.6666 28.0834 35.8999 27.7667 34.9499L27.4334 33.9499C26.9667 32.5833 26.6667 31.6666 24.2667 31.6666H15.7334C13.3334 31.6666 12.9834 32.6999 12.5667 33.9499L12.2334 34.9499C11.9167 35.8999 11.6667 36.6666 9.86672 36.6666H6.73338C4.73338 36.6666 3.16672 34.9832 3.35005 33.0333L4.28338 22.8833C4.51672 20.3833 5.00005 18.3333 9.36672 18.3333H30.6334C35.0001 18.3333 35.4834 20.3833 35.7167 22.8833L36.6501 33.0333Z" stroke="#003049" stroke-width="2.5" stroke-linecap="round" stroke-linejoin="round"/>
<path d="M6.66667 13.3333H5" stroke="#003049" stroke-width="2.5" stroke-linecap="round" stroke-linejoin="round"/>
<path d="M35.0002 13.3333H33.3335" stroke="#003049" stroke-width="2.5" stroke-linecap="round" stroke-linejoin="round"/>
<path d="M20 5V8.33333" stroke="#003049" stroke-width="2.5" stroke-linecap="round" stroke-linejoin="round"/>
<path d="M17.5 8.33325H22.5" stroke="#003049" stroke-width="2.5" stroke-linecap="round" stroke-linejoin="round"/>
<path d="M10 25H15" stroke="#003049" stroke-width="2.5" stroke-linecap="round" stroke-linejoin="round"/>
<path d="M25 25H30" stroke="#003049" stroke-width="2.5" stroke-linecap="round" stroke-linejoin="round"/>
</svg>
