<svg width="47" height="48" viewBox="0 0 47 48" fill="none" xmlns="http://www.w3.org/2000/svg">
    <rect x="0.597656" width="45.804" height="48" rx="12" fill="#CD131F"/>
    <path d="M34.4017 19.896V28.104C34.4017 29.448 33.6817 30.696 32.5177 31.38L25.3897 35.496C24.2257 36.168 22.7857 36.168 21.6097 35.496L14.4817 31.38C13.3177 30.708 12.5977 29.46 12.5977 28.104V19.896C12.5977 18.552 13.3177 17.304 14.4817 16.62L21.6097 12.504C22.7737 11.832 24.2137 11.832 25.3897 12.504L32.5177 16.62C33.6817 17.304 34.4017 18.54 34.4017 19.896Z" stroke="white" stroke-width="1.8" stroke-linecap="round" stroke-linejoin="round"/>
    <path d="M23.5 17.03V25.64" stroke="white" stroke-width="1.8" stroke-linecap="round" stroke-linejoin="round"/>
    <path d="M23.5 30.8879V31.0518" stroke="white" stroke-width="2.4" stroke-linecap="round" stroke-linejoin="round"/>
</svg>