<svg width="50" height="35" viewBox="0 0 50 35" fill="none" xmlns="http://www.w3.org/2000/svg">
<path d="M35.3952 19.5009C34.8899 18.7579 34.3666 17.9885 33.821 17.1884C32.7567 18.1336 31.8623 19.136 31.1557 20.3142C30.2613 21.8002 29.7336 23.4049 29.4385 25.0975C29.1522 26.7505 28.146 27.8144 26.5182 28.2892C26.241 28.3727 25.9324 28.3991 25.6417 28.3991C22.7885 28.4079 19.9354 28.4123 17.0867 28.3903C16.7558 28.3903 16.6082 28.5178 16.5188 28.7684C16.0939 29.9774 15.3873 31.015 14.4392 31.8679C13.1558 33.0241 11.6621 33.7891 9.91355 34.0748C7.33766 34.4969 5.08376 33.833 3.08923 32.224C1.41669 30.8743 0.441784 29.1377 0.110854 27.045C-0.264797 24.6974 0.321038 22.5871 1.76551 20.6923C2.84774 19.2723 4.24301 18.2743 5.97369 17.7863C6.69369 17.5841 7.45393 17.5225 8.19182 17.395C8.35281 17.3687 8.51381 17.3335 8.71505 17.2983C8.16946 16.4982 7.58809 15.742 7.11853 14.9243C6.71158 14.2165 6.18835 13.8779 5.36102 13.7241C3.95681 13.4603 2.79855 12.6865 1.84154 11.6314C0.727999 10.4004 0.0974414 8.9892 0.0169447 7.32737C-0.00988748 6.76464 0.0437769 6.26785 0.575949 5.97769C0.812967 5.85019 1.11706 5.78425 1.38986 5.78425C3.72873 5.77106 6.0676 5.75787 8.40648 5.78425C10.0656 5.80183 11.3446 6.53603 12.1362 7.97364C12.4581 8.55835 12.8561 8.72102 13.518 8.71662C17.2745 8.68145 21.0355 8.69463 24.7965 8.70782C25.0782 8.70782 25.2437 8.6243 25.3913 8.39568C25.8027 7.75821 26.2633 7.15152 26.6613 6.50526C26.9878 5.97769 27.4439 5.77546 28.0432 5.77546C29.4116 5.77546 30.7756 5.77546 32.144 5.77546H32.5599V2.35069C31.983 2.35069 31.3972 2.35069 30.8114 2.35069C30.1898 2.35069 29.6039 1.80114 29.6039 1.20763C29.6039 0.697655 30.0243 0.0250204 30.7488 0.0206241C31.9294 0.0118314 33.1189 -0.0277364 34.2951 0.0338126C36.388 0.139325 38.2886 0.838343 39.9388 2.10449C41.8171 3.5465 43.0245 5.44133 43.5522 7.72304C43.9368 9.38487 43.825 11.0907 43.7937 12.7789C43.7847 13.4075 43.2078 13.9175 42.5594 13.9219C40.4173 13.9439 38.3691 14.4319 36.4506 15.3815C36.2136 15.5002 35.99 15.6409 35.7485 15.786C36.2628 16.5509 36.7592 17.3071 37.2779 18.0545C37.3227 18.116 37.506 18.138 37.5954 18.1029C38.7939 17.6061 40.0372 17.3555 41.343 17.395C43.1273 17.4478 44.7507 17.9841 46.1862 19.0173C47.8632 20.2219 48.9634 21.8354 49.424 23.8269C49.8533 25.6778 49.7236 27.4935 48.9097 29.2388C48.458 30.206 47.8722 31.0809 47.0851 31.8063C45.7927 32.9977 44.2856 33.7759 42.5192 34.0792C40.0327 34.5101 37.8191 33.8902 35.8603 32.4086C34.2057 31.1556 33.1726 29.4806 32.7567 27.4495C32.2245 24.8644 32.8685 22.5696 34.4695 20.5033C34.7423 20.1516 35.0777 19.8482 35.3997 19.5053M34.9838 2.41663C34.9838 3.96855 34.9838 5.37539 34.9838 6.78223C34.9838 7.6571 34.5008 8.1319 33.6243 8.1319C32.0099 8.1319 30.391 8.1407 28.7766 8.12311C28.5038 8.12311 28.3518 8.21544 28.2131 8.42646C26.4869 10.9851 24.7384 13.5306 23.03 16.0981C22.6678 16.6389 22.2206 16.8499 21.599 16.8455C19.7207 16.8367 17.8425 16.8411 15.9598 16.8455C15.5081 16.8455 15.1816 16.6696 14.9312 16.3003C13.2542 13.8164 11.5727 11.3368 9.88225 8.8617C9.5692 8.40448 9.13095 8.14949 8.54959 8.15389C6.67133 8.16268 4.79308 8.15389 2.91035 8.15389C2.79855 8.15389 2.68675 8.16707 2.57047 8.17587C3.04451 10.0839 4.92276 11.5787 6.96201 11.5874C7.41815 11.5874 7.83406 11.7501 8.12474 12.1853C9.77939 14.6429 11.4609 17.0829 13.12 19.5361C13.4554 20.0285 13.8713 20.2834 14.4974 20.2703C15.9284 20.2439 17.364 20.2571 18.795 20.2703C19.363 20.2703 19.8057 20.4769 20.074 21.0352C20.7314 22.3981 21.4335 23.7434 22.1177 25.0931C22.4397 25.7305 22.9227 26.0822 23.683 26.0471C24.3269 26.0163 24.9709 26.0559 25.6149 26.0339C25.8519 26.0251 26.0979 25.9547 26.3125 25.858C26.9878 25.5591 27.0593 24.9084 27.1622 24.3105C27.4126 22.8421 27.8777 21.4397 28.553 20.112C29.595 18.0633 31.0484 16.3399 32.8775 14.9067C34.1878 13.8779 35.6278 13.0954 37.1885 12.5239C38.472 12.0535 39.8046 11.7721 41.1686 11.649C41.258 11.6402 41.4101 11.5171 41.4146 11.4424C41.4503 10.1938 41.4772 8.93644 41.0926 7.72304C40.3949 5.51607 38.9505 3.93777 36.8173 2.99255C36.2583 2.74636 35.6456 2.61448 34.9838 2.41225M38.7492 20.1691C39.8807 21.8485 40.9808 23.4884 42.0898 25.1194C42.5147 25.7481 42.2956 26.4295 41.7947 26.7593C41.2178 27.133 40.4933 26.9703 40.0998 26.3944C39.0578 24.8688 38.0158 23.3389 36.9738 21.8134C36.7637 21.5012 36.6831 21.5056 36.464 21.8134C36.4282 21.8661 36.3969 21.9233 36.3522 21.9716C35.1224 23.4312 34.7244 25.1238 35.0687 26.9483C35.3505 28.4431 36.151 29.6785 37.4031 30.6105C38.8476 31.6876 40.462 32.0393 42.233 31.7404C43.6953 31.4942 44.9206 30.7863 45.8508 29.6741C47.1477 28.1309 47.5591 26.3416 47.1119 24.3765C46.8213 23.0839 46.146 21.998 45.1174 21.1671C44.1157 20.3626 42.9708 19.8922 41.6382 19.7779C40.632 19.6899 39.7152 19.879 38.7448 20.1735M14.0904 28.4211C13.992 28.4123 13.9339 28.4035 13.8713 28.4035C12.4939 28.4035 11.1121 28.4035 9.7302 28.4035C9.64076 28.4035 9.54238 28.4167 9.45741 28.4035C8.52723 28.2101 7.69095 27.8496 7.03804 27.1286C6.15258 26.1526 5.7322 25.0579 5.93344 23.7302C6.22413 21.8573 7.85195 20.3802 9.82412 20.2659C10.164 20.2483 10.4994 20.1472 10.8348 20.0856C10.8348 20.0504 10.8303 20.0153 10.8259 19.9845C10.4502 19.9493 10.0611 19.9493 9.69443 19.8702C8.77766 19.6636 7.86983 19.6899 6.97542 19.9229C5.64276 20.2747 4.52922 20.9737 3.67507 22.064C2.64203 23.3873 2.20824 24.8952 2.40948 26.5175C2.61966 28.2233 3.45593 29.6433 4.88251 30.672C6.39406 31.7623 8.08002 32.0789 9.91803 31.692C10.9287 31.4766 11.8007 30.9974 12.5789 30.3643C13.2184 29.8455 13.7193 29.1993 14.0815 28.4255M18.2047 22.6135C15.4723 22.6135 12.7667 22.6091 10.0656 22.6223C9.80175 22.6223 9.52001 22.6751 9.28299 22.7806C8.49592 23.1191 8.11132 23.95 8.31703 24.8073C8.47355 25.4448 9.2204 26.0559 9.8107 26.0559C13.0395 26.0559 16.2683 26.0559 19.4971 26.0559H19.9577C19.3585 24.8776 18.7861 23.7566 18.2092 22.6179M14.2335 11.0643C14.9759 12.1634 15.6959 13.2405 16.4338 14.3088C16.4964 14.4011 16.6663 14.4671 16.7826 14.4715C18.2002 14.4846 19.6179 14.4846 21.0355 14.4715C21.1562 14.4715 21.3172 14.3703 21.3888 14.2692C21.7957 13.6933 22.1848 13.0998 22.5828 12.5151C22.9048 12.0403 23.2268 11.5699 23.5667 11.0687H14.2335V11.0643Z" fill="#003049"/>
</svg>
