<svg width="16" height="16" viewBox="0 0 16 16" fill="none" xmlns="http://www.w3.org/2000/svg">
<path d="M7.99935 2.66675V0.666748L5.33268 3.33341L7.99935 6.00008V4.00008C10.206 4.00008 11.9993 5.79342 11.9993 8.00008C11.9993 8.67342 11.8327 9.31342 11.5327 9.86675L12.506 10.8401C13.026 10.0201 13.3327 9.04675 13.3327 8.00008C13.3327 5.05341 10.946 2.66675 7.99935 2.66675ZM7.99935 12.0001C5.79268 12.0001 3.99935 10.2067 3.99935 8.00008C3.99935 7.32675 4.16602 6.68675 4.46602 6.13341L3.49268 5.16008C2.97268 5.98008 2.66602 6.95341 2.66602 8.00008C2.66602 10.9467 5.05268 13.3334 7.99935 13.3334V15.3334L10.666 12.6667L7.99935 10.0001V12.0001Z" fill="white"/>
</svg>
